<svg xmlns="http://www.w3.org/2000/svg" width="36.001" height="32.802" viewBox="0 0 36.001 32.802">
  <path id="Icon_simple-appstore" data-name="Icon simple-appstore" d="M13.214,22.38,22.378,5.824c.126-.228.252-.453.366-.688a3.3,3.3,0,0,0,.247-.66,2.4,2.4,0,0,0-.1-1.465,2.267,2.267,0,0,0-.93-1.1,2.125,2.125,0,0,0-1.383-.29,2.172,2.172,0,0,0-1.266.645,3.052,3.052,0,0,0-.424.552c-.138.219-.263.447-.389.675l-.579,1.045-.58-1.047c-.126-.227-.25-.454-.389-.674a3.252,3.252,0,0,0-.424-.553,2.173,2.173,0,0,0-1.266-.643,2.127,2.127,0,0,0-1.382.29,2.268,2.268,0,0,0-.93,1.1,2.379,2.379,0,0,0-.1,1.466,3.386,3.386,0,0,0,.246.66c.114.235.24.461.366.688l1.872,3.381L8.043,22.378h-5c-.25,0-.5,0-.753.015a3.017,3.017,0,0,0-.672.107,2.2,2.2,0,0,0-1.167.822,2.371,2.371,0,0,0,0,2.784,2.215,2.215,0,0,0,1.168.822,3.017,3.017,0,0,0,.672.107c.25.015.5.015.754.015H22.691a2.9,2.9,0,0,0,.15-.405,3.292,3.292,0,0,0-3.052-4.266ZM4.67,27.813l-1.188,2.25c-.123.234-.247.465-.359.706a3.54,3.54,0,0,0-.24.678,2.55,2.55,0,0,0,.1,1.5,2.294,2.294,0,0,0,.911,1.132,1.99,1.99,0,0,0,1.351.3,2.087,2.087,0,0,0,1.239-.66,3.306,3.306,0,0,0,.417-.567c.135-.225.256-.459.379-.693L9,29.2a3.641,3.641,0,0,0-4.331-1.383M35.549,23.3a2.2,2.2,0,0,0-1.168-.81,3.047,3.047,0,0,0-.672-.106c-.252-.015-.5-.015-.754-.015H27.972L21.387,10.65a6.1,6.1,0,0,0-1.614,3.3,6.968,6.968,0,0,0,.819,4.5L28.5,32.536c.126.225.25.45.389.666a3.394,3.394,0,0,0,.424.546,2.192,2.192,0,0,0,1.267.634,2.15,2.15,0,0,0,1.383-.285,2.25,2.25,0,0,0,.932-1.089,2.329,2.329,0,0,0,.1-1.446,3.259,3.259,0,0,0-.248-.651c-.112-.232-.24-.454-.366-.679l-1.824-3.249h2.394c.252,0,.5,0,.755-.014a3.1,3.1,0,0,0,.672-.1,2.2,2.2,0,0,0,1.17-.812,2.323,2.323,0,0,0,0-2.748Z" transform="translate(0.001 -1.6)" fill="#363636"/>
</svg>
