<svg xmlns="http://www.w3.org/2000/svg" width="535.012" height="310.469" viewBox="0 0 535.012 310.469">
  <g id="Group_25751" data-name="Group 25751" transform="translate(-1214.347 -156.857)">
    <g id="Background_Complete" data-name="Background Complete" transform="translate(1224.883 180.809)">
      <g id="Group_17" data-name="Group 17" transform="translate(0 0)">
        <g id="Group_1" data-name="Group 1" transform="translate(6.604 4.477)">
          <rect id="Rectangle_1" data-name="Rectangle 1" width="91.336" height="164.078" fill="#ebebeb"/>
        </g>
        <g id="Group_2" data-name="Group 2" transform="translate(10.253 9.235)">
          <rect id="Rectangle_2" data-name="Rectangle 2" width="83.095" height="154.432" fill="#fafafa"/>
        </g>
        <g id="Group_3" data-name="Group 3" transform="translate(10.253 9.235)">
          <path id="Path_1" data-name="Path 1" d="M141.066,83.516l-83.1,105.7V81.7h83.1Z" transform="translate(-57.971 -81.697)" fill="#f5f5f5"/>
        </g>
        <g id="Group_4" data-name="Group 4" transform="translate(10.253 53.661)">
          <rect id="Rectangle_3" data-name="Rectangle 3" width="84.9" height="1.644" fill="#ebebeb"/>
        </g>
        <g id="Group_5" data-name="Group 5" transform="translate(10.253 90.437)">
          <rect id="Rectangle_4" data-name="Rectangle 4" width="84.9" height="1.644" fill="#ebebeb"/>
        </g>
        <g id="Group_6" data-name="Group 6" transform="translate(10.253 127.213)">
          <rect id="Rectangle_5" data-name="Rectangle 5" width="84.9" height="1.644" fill="#ebebeb"/>
        </g>
        <g id="Group_7" data-name="Group 7" transform="translate(49.702 54.483)">
          <rect id="Rectangle_6" data-name="Rectangle 6" width="113.563" height="4.198" transform="translate(0 113.563) rotate(-90)" fill="#ebebeb"/>
        </g>
        <g id="Group_8" data-name="Group 8" transform="translate(26.254 9.235)">
          <rect id="Rectangle_7" data-name="Rectangle 7" width="1.902" height="45.248" fill="#ebebeb"/>
        </g>
        <g id="Group_9" data-name="Group 9" transform="translate(42.658 9.235)">
          <rect id="Rectangle_8" data-name="Rectangle 8" width="1.902" height="45.248" fill="#ebebeb"/>
        </g>
        <g id="Group_10" data-name="Group 10" transform="translate(59.061 9.235)">
          <rect id="Rectangle_9" data-name="Rectangle 9" width="1.902" height="45.248" transform="translate(0)" fill="#ebebeb"/>
        </g>
        <g id="Group_11" data-name="Group 11" transform="translate(75.465 9.235)">
          <rect id="Rectangle_10" data-name="Rectangle 10" width="1.902" height="45.248" transform="translate(0)" fill="#ebebeb"/>
        </g>
        <g id="Group_12" data-name="Group 12" transform="translate(2.741 1.694)">
          <rect id="Rectangle_11" data-name="Rectangle 11" width="3.863" height="167.876" fill="#f5f5f5"/>
        </g>
        <g id="Group_13" data-name="Group 13" transform="translate(97.939 1.694)">
          <path id="Path_2" data-name="Path 2" d="M176.636,240.164l-3.863-1.479V71.824h3.863Z" transform="translate(-172.773 -71.824)" fill="#e0e0e0"/>
        </g>
        <g id="Group_14" data-name="Group 14" transform="translate(2.741)">
          <rect id="Rectangle_12" data-name="Rectangle 12" width="99.062" height="4.477" fill="#e0e0e0"/>
        </g>
        <g id="Group_15" data-name="Group 15" transform="translate(0 170.586)">
          <rect id="Rectangle_13" data-name="Rectangle 13" width="104.418" height="4.171" fill="#e0e0e0"/>
        </g>
        <g id="Group_16" data-name="Group 16" transform="translate(0 168.555)">
          <path id="Path_3" data-name="Path 3" d="M142.486,290.285l6.478,2.031H44.547l6.6-2.031Z" transform="translate(-44.547 -290.285)" fill="#ebebeb"/>
        </g>
      </g>
      <g id="Group_55" data-name="Group 55" transform="translate(465.876 106.737)">
        <g id="Group_33" data-name="Group 33">
          <g id="Group_18" data-name="Group 18">
            <path id="Path_4" data-name="Path 4" d="M679.441,209.373s-6.456-.464-5.861,14.017a167.816,167.816,0,0,0,2.071,22.2s-.189,3.211-2.676,2.581-7.165-3.755-9.476-1.419c-2.4,2.423-1.544,6.139,1.635,10.515s9.79,14.222,10.385,15.115c.584.876.818,2.519-.945,2.361s-13.662-4.191-15.238,1.57,9.282,16.5,10.447,17.7,1.227,1.951.755,2.676-4.344-1.008-7.776-2.016-7.587-1.577-8.218,1.823,4.152,13.35,22.063,23.807l8.616,4.3,8.155-5.2c16.775-12.2,20.539-22.574,19.571-25.894s-5.046-2.339-8.358-.993-6.993,3.458-7.535,2.785-.556-1.431.484-2.738,10.769-13.078,8.625-18.652-13.58-.371-15.319-.038-1.67-1.324-1.176-2.254c.5-.948,6.1-11.405,8.821-16.077s3.2-8.456.574-10.627c-2.532-2.093-6.874,1.484-9.286,2.36s-2.921-2.3-2.921-2.3a167.852,167.852,0,0,0-.159-22.292c-.858-14.469-7.389-13.3-7.389-13.3" transform="translate(-654.491 -209.35)" fill="#ebebeb"/>
          </g>
          <g id="Group_20" data-name="Group 20" transform="translate(25.458 12.993)">
            <g id="Group_19" data-name="Group 19">
              <path id="Path_5" data-name="Path 5" d="M687.824,226.361s.017.1.034.3l.069.889c.054.8.132,1.946.232,3.42.2,2.97.451,7.271.745,12.584.591,10.628,1.281,25.318,1.99,41.542s1.363,30.921,1.893,41.552c.27,5.3.488,9.6.64,12.588.073,1.474.131,2.625.17,3.423.015.38.027.676.036.891s0,.3,0,.3-.017-.1-.034-.3-.039-.509-.069-.889c-.054-.8-.132-1.946-.231-3.419-.2-2.97-.452-7.27-.745-12.584-.59-10.629-1.281-25.319-1.99-41.549s-1.363-30.914-1.893-41.545l-.64-12.589c-.073-1.475-.131-2.625-.17-3.423-.015-.38-.027-.676-.036-.891S687.824,226.361,687.824,226.361Z" transform="translate(-687.822 -226.361)" fill="#e0e0e0"/>
            </g>
          </g>
          <g id="Group_22" data-name="Group 22" transform="translate(15.376 42.031)">
            <g id="Group_21" data-name="Group 21">
              <path id="Path_6" data-name="Path 6" d="M674.623,264.381a2.769,2.769,0,0,1,.536.446c.331.3.8.751,1.366,1.313,1.137,1.127,2.666,2.724,4.321,4.517l4.214,4.611,1.283,1.391a2.824,2.824,0,0,1,.448.533,2.8,2.8,0,0,1-.539-.442c-.331-.3-.8-.752-1.361-1.321-1.126-1.138-2.634-2.754-4.287-4.548l-4.246-4.578-1.29-1.386A2.824,2.824,0,0,1,674.623,264.381Z" transform="translate(-674.622 -264.379)" fill="#e0e0e0"/>
            </g>
          </g>
          <g id="Group_24" data-name="Group 24" transform="translate(28.4 40.05)">
            <g id="Group_23" data-name="Group 23">
              <path id="Path_7" data-name="Path 7" d="M691.675,276.3c-.065-.064,3.086-3.364,7.037-7.37s7.208-7.2,7.273-7.139-3.085,3.363-7.038,7.37S691.739,276.359,691.675,276.3Z" transform="translate(-691.674 -261.786)" fill="#e0e0e0"/>
            </g>
          </g>
          <g id="Group_26" data-name="Group 26" transform="translate(28.365 70.106)">
            <g id="Group_25" data-name="Group 25">
              <path id="Path_8" data-name="Path 8" d="M691.628,310.558a3.011,3.011,0,0,1,.6-.382l1.686-.946c1.422-.8,3.382-1.909,5.5-3.212s4-2.539,5.359-3.446l1.608-1.072a2.945,2.945,0,0,1,.612-.362,2.938,2.938,0,0,1-.538.466c-.359.283-.886.682-1.549,1.16-1.324.959-3.19,2.233-5.32,3.536s-4.11,2.388-5.563,3.136c-.728.371-1.321.665-1.737.855A2.9,2.9,0,0,1,691.628,310.558Z" transform="translate(-691.628 -301.137)" fill="#e0e0e0"/>
            </g>
          </g>
          <g id="Group_28" data-name="Group 28" transform="translate(14.09 70.788)">
            <g id="Group_27" data-name="Group 27">
              <path id="Path_9" data-name="Path 9" d="M672.939,302.031a2.507,2.507,0,0,1,.6.28c.372.2.906.5,1.562.868,1.311.745,3.112,1.794,5.09,2.971s3.761,2.258,5.042,3.054c.641.4,1.156.726,1.509.958a2.518,2.518,0,0,1,.53.39,2.571,2.571,0,0,1-.6-.28c-.373-.2-.906-.5-1.562-.868-1.312-.745-3.113-1.794-5.091-2.971s-3.76-2.258-5.041-3.054c-.641-.4-1.156-.726-1.509-.958A2.543,2.543,0,0,1,672.939,302.031Z" transform="translate(-672.938 -302.029)" fill="#e0e0e0"/>
            </g>
          </g>
          <g id="Group_30" data-name="Group 30" transform="translate(11.259 92.828)">
            <g id="Group_29" data-name="Group 29">
              <path id="Path_10" data-name="Path 10" d="M669.232,330.886a4.087,4.087,0,0,1,.758.367L672,332.359c1.686.946,4,2.274,6.553,3.757s4.85,2.844,6.506,3.842l1.952,1.2a4.13,4.13,0,0,1,.693.478,4.13,4.13,0,0,1-.758-.367l-2.006-1.106c-1.686-.947-4-2.274-6.554-3.758s-4.849-2.843-6.505-3.841l-1.952-1.2A4.165,4.165,0,0,1,669.232,330.886Z" transform="translate(-669.231 -330.884)" fill="#e0e0e0"/>
            </g>
          </g>
          <g id="Group_32" data-name="Group 32" transform="translate(29.358 90.712)">
            <g id="Group_31" data-name="Group 31">
              <path id="Path_11" data-name="Path 11" d="M692.928,340.6a4.759,4.759,0,0,1,.749-.5l2.094-1.276c1.767-1.077,4.2-2.573,6.848-4.3s5-3.342,6.7-4.525l2.014-1.4a4.7,4.7,0,0,1,.762-.482,4.785,4.785,0,0,1-.685.586c-.454.36-1.12.869-1.954,1.485-1.666,1.234-4.005,2.886-6.658,4.612s-5.11,3.2-6.91,4.222c-.9.512-1.635.917-2.149,1.186A4.763,4.763,0,0,1,692.928,340.6Z" transform="translate(-692.928 -328.114)" fill="#e0e0e0"/>
            </g>
          </g>
        </g>
        <g id="Group_54" data-name="Group 54" transform="translate(18.471 118.064)">
          <g id="Group_35" data-name="Group 35">
            <g id="Group_34" data-name="Group 34">
              <path id="Path_12" data-name="Path 12" d="M702.511,363.925H678.674l7.78,58.895h8.277Z" transform="translate(-678.674 -363.925)" fill="#e0e0e0"/>
            </g>
          </g>
          <g id="Group_38" data-name="Group 38" transform="translate(1.235 4.812)">
            <g id="Group_37" data-name="Group 37">
              <g id="Group_36" data-name="Group 36">
                <path id="Path_13" data-name="Path 13" d="M680.293,372.653c-.009.005.027.083.128.209a1.508,1.508,0,0,0,.575.412,2.887,2.887,0,0,0,2.517-.309c.962-.531,1.8-1.574,3.091-2.035a6.762,6.762,0,0,1,4.383.087,18.789,18.789,0,0,1,4.082,1.977,28.182,28.182,0,0,0,3.32,1.781,9.19,9.19,0,0,0,2.448.708,4.6,4.6,0,0,0,.692.047c.158,0,.241-.007.241-.02a12.431,12.431,0,0,1-3.27-.986,32.5,32.5,0,0,1-3.246-1.837,18.1,18.1,0,0,0-4.151-2.042,6.992,6.992,0,0,0-4.626-.05,6.088,6.088,0,0,0-1.741,1.077,13.683,13.683,0,0,1-1.364,1.057,2.8,2.8,0,0,1-2.322.4A2.414,2.414,0,0,1,680.293,372.653Z" transform="translate(-680.291 -370.225)" fill="#f5f5f5"/>
              </g>
            </g>
          </g>
          <g id="Group_41" data-name="Group 41" transform="translate(2.104 13.764)">
            <g id="Group_40" data-name="Group 40">
              <g id="Group_39" data-name="Group 39">
                <path id="Path_14" data-name="Path 14" d="M681.431,386.268c.032.02.189-.242.561-.632a5.3,5.3,0,0,1,1.9-1.208,8.486,8.486,0,0,1,3.315-.5,34.934,34.934,0,0,1,4.148.565,14.29,14.29,0,0,0,4.247.176,11.7,11.7,0,0,0,3.342-.955,10.647,10.647,0,0,0,2.009-1.195,2.846,2.846,0,0,0,.636-.573,21.159,21.159,0,0,1-2.756,1.515,12.215,12.215,0,0,1-3.275.851,14.647,14.647,0,0,1-4.143-.2,31.308,31.308,0,0,0-4.2-.539,8.394,8.394,0,0,0-3.429.6,5,5,0,0,0-1.913,1.361,3.363,3.363,0,0,0-.361.529C681.45,386.192,681.42,386.261,681.431,386.268Z" transform="translate(-681.429 -381.945)" fill="#f5f5f5"/>
              </g>
            </g>
          </g>
          <g id="Group_44" data-name="Group 44" transform="translate(3.456 22.25)">
            <g id="Group_43" data-name="Group 43">
              <g id="Group_42" data-name="Group 42">
                <path id="Path_15" data-name="Path 15" d="M700.88,394.7a2,2,0,0,0-.657-.341,7.014,7.014,0,0,0-1.976-.423,12.607,12.607,0,0,0-2.986.17c-1.112.18-2.3.487-3.555.753a15.032,15.032,0,0,1-3.55.4,7.755,7.755,0,0,1-2.818-.61,6.519,6.519,0,0,1-2.138-1.592,1.856,1.856,0,0,0,.4.622,5.028,5.028,0,0,0,1.618,1.218,7.594,7.594,0,0,0,2.918.718,14.313,14.313,0,0,0,3.646-.378c1.266-.269,2.449-.584,3.536-.781a13.638,13.638,0,0,1,2.91-.249A10.944,10.944,0,0,1,700.88,394.7Z" transform="translate(-683.198 -393.055)" fill="#f5f5f5"/>
              </g>
            </g>
          </g>
          <g id="Group_47" data-name="Group 47" transform="translate(4.213 30.676)">
            <g id="Group_46" data-name="Group 46">
              <g id="Group_45" data-name="Group 45">
                <path id="Path_16" data-name="Path 16" d="M684.19,405.473a3.866,3.866,0,0,1,2.314-.234,11.207,11.207,0,0,1,2.421.9,9.189,9.189,0,0,0,3.143.866,9.429,9.429,0,0,0,5.7-1.321,8.1,8.1,0,0,0,1.419-1.091c.29-.309.439-.487.42-.5a21.068,21.068,0,0,1-1.978,1.359,9.77,9.77,0,0,1-5.53,1.172c-2.256-.129-3.989-1.475-5.554-1.653a3.552,3.552,0,0,0-1.8.156C684.348,405.282,684.178,405.459,684.19,405.473Z" transform="translate(-684.189 -404.088)" fill="#f5f5f5"/>
              </g>
            </g>
          </g>
          <g id="Group_50" data-name="Group 50" transform="translate(5.541 40.073)">
            <g id="Group_49" data-name="Group 49">
              <g id="Group_48" data-name="Group 48">
                <path id="Path_17" data-name="Path 17" d="M685.928,419.684a4.577,4.577,0,0,0,1.987-.4c1.2-.4,2.682-1.319,4.414-2.007a7.167,7.167,0,0,1,2.533-.531,4.667,4.667,0,0,1,2.036.464,4.509,4.509,0,0,1,1.473,1.271,1.081,1.081,0,0,0-.226-.5,3.27,3.27,0,0,0-1.117-1.011,4.665,4.665,0,0,0-2.161-.58,7.1,7.1,0,0,0-2.677.525c-1.795.715-3.231,1.66-4.375,2.114C686.685,419.52,685.919,419.621,685.928,419.684Z" transform="translate(-685.928 -416.39)" fill="#f5f5f5"/>
              </g>
            </g>
          </g>
          <g id="Group_53" data-name="Group 53" transform="translate(6.709 48.61)">
            <g id="Group_52" data-name="Group 52">
              <g id="Group_51" data-name="Group 51">
                <path id="Path_18" data-name="Path 18" d="M687.458,427.582a5.563,5.563,0,0,0,1.509.49,27.766,27.766,0,0,0,7.6.746,5.554,5.554,0,0,0,1.576-.186c-.006-.118-2.416-.015-5.363-.311S687.487,427.469,687.458,427.582Z" transform="translate(-687.458 -427.568)" fill="#f5f5f5"/>
              </g>
            </g>
          </g>
        </g>
      </g>
      <g id="Group_59" data-name="Group 59" transform="translate(421.053 11.226)">
        <g id="Group_56" data-name="Group 56">
          <rect id="Rectangle_14" data-name="Rectangle 14" width="73.602" height="48.391" fill="#e0e0e0"/>
        </g>
        <g id="Group_57" data-name="Group 57" transform="translate(2.56 1.979)">
          <rect id="Rectangle_15" data-name="Rectangle 15" width="68.444" height="44.249" fill="#fafafa"/>
        </g>
        <g id="Group_58" data-name="Group 58" transform="translate(25.618 18.108)">
          <rect id="Rectangle_16" data-name="Rectangle 16" width="22.328" height="12.176" fill="#e0e0e0"/>
        </g>
      </g>
    </g>
    <g id="Floor" transform="translate(1214.347 465.086)">
      <g id="Group_62" data-name="Group 62" transform="translate(0 0)">
        <g id="Group_61" data-name="Group 61">
          <path id="Path_20" data-name="Path 20" d="M556.626,441.992c0,.11-117.73.2-262.925.2-145.244,0-262.949-.089-262.949-.2s117.7-.2,262.949-.2C438.9,441.793,556.626,441.882,556.626,441.992Z" transform="translate(-30.752 -441.793)" fill="#263238"/>
        </g>
      </g>
    </g>
    <g id="Device" transform="translate(1268.337 156.857)">
      <g id="Group_81" data-name="Group 81" transform="translate(144.096 0)">
        <g id="Group_63" data-name="Group 63">
          <path id="Rectangle_17" data-name="Rectangle 17" d="M0,0H157.616a0,0,0,0,1,0,0V146.284A16.22,16.22,0,0,1,141.4,162.5H0a0,0,0,0,1,0,0V0A0,0,0,0,1,0,0Z" fill="#ebebeb"/>
        </g>
        <g id="Group_78" data-name="Group 78" transform="translate(17.351 47.768)">
          <g id="Group_65" data-name="Group 65">
            <g id="Group_64" data-name="Group 64">
              <path id="Path_21" data-name="Path 21" d="M440.062,101.385c0,.329-28.488.6-63.622.6s-63.628-.267-63.628-.6,28.482-.6,63.628-.6S440.062,101.055,440.062,101.385Z" transform="translate(-312.813 -100.788)" fill="#455a64"/>
            </g>
          </g>
          <g id="Group_67" data-name="Group 67" transform="translate(1.512 11.008)">
            <g id="Group_66" data-name="Group 66">
              <path id="Path_22" data-name="Path 22" d="M377.661,115.8c0,.33-14.075.6-31.433.6s-31.436-.267-31.436-.6,14.072-.6,31.436-.6S377.661,115.467,377.661,115.8Z" transform="translate(-314.793 -115.2)" fill="#455a64"/>
            </g>
          </g>
          <g id="Group_69" data-name="Group 69" transform="translate(72.877 9.988)">
            <g id="Group_68" data-name="Group 68">
              <path id="Path_23" data-name="Path 23" d="M424.878,114.462c0,.33-3.728.6-8.325.6s-8.326-.267-8.326-.6,3.727-.6,8.326-.6S424.878,114.132,424.878,114.462Z" transform="translate(-408.226 -113.865)" fill="#455a64"/>
            </g>
          </g>
          <g id="Group_71" data-name="Group 71" transform="translate(97.684 9.309)">
            <g id="Group_70" data-name="Group 70">
              <path id="Path_24" data-name="Path 24" d="M473.668,113.573c0,.329-7.38.6-16.481.6s-16.482-.267-16.482-.6,7.378-.6,16.482-.6S473.668,113.243,473.668,113.573Z" transform="translate(-440.705 -112.976)" fill="#455a64"/>
            </g>
          </g>
          <g id="Group_73" data-name="Group 73" transform="translate(0 21.543)">
            <g id="Group_72" data-name="Group 72">
              <path id="Path_25" data-name="Path 25" d="M371.943,129.59c0,.329-13.238.6-29.564.6s-29.567-.267-29.567-.6,13.235-.6,29.567-.6S371.943,129.26,371.943,129.59Z" transform="translate(-312.813 -128.993)" fill="#455a64"/>
            </g>
          </g>
          <g id="Group_75" data-name="Group 75" transform="translate(66.08 21.239)">
            <g id="Group_74" data-name="Group 74">
              <path id="Path_26" data-name="Path 26" d="M463.895,129.192c0,.33-14.455.6-32.282.6s-32.286-.267-32.286-.6,14.452-.6,32.286-.6S463.895,128.862,463.895,129.192Z" transform="translate(-399.327 -128.595)" fill="#455a64"/>
            </g>
          </g>
          <g id="Group_77" data-name="Group 77" transform="translate(101.899 31.84)">
            <g id="Group_76" data-name="Group 76">
              <path id="Path_27" data-name="Path 27" d="M474.972,143.071c0,.33-6.437.6-14.373.6s-14.376-.267-14.376-.6,6.435-.6,14.376-.6S474.972,142.741,474.972,143.071Z" transform="translate(-446.223 -142.474)" fill="#455a64"/>
            </g>
          </g>
        </g>
        <g id="Group_80" data-name="Group 80" transform="translate(18.864 35.968)">
          <g id="Group_79" data-name="Group 79">
            <path id="Path_28" data-name="Path 28" d="M384.456,85.936c0,.33-15.6.6-34.83.6s-34.833-.267-34.833-.6,15.592-.6,34.833-.6S384.456,85.606,384.456,85.936Z" transform="translate(-314.793 -85.339)" fill="#e8505b"/>
          </g>
        </g>
      </g>
      <g id="Group_102" data-name="Group 102" transform="translate(0 91.021)">
        <g id="Group_97" data-name="Group 97">
          <g id="Group_96" data-name="Group 96">
            <g id="Group_95" data-name="Group 95">
              <g id="Group_84" data-name="Group 84" transform="translate(13.234)">
                <g id="Group_83" data-name="Group 83">
                  <g id="Group_82" data-name="Group 82">
                    <rect id="Rectangle_18" data-name="Rectangle 18" width="327.415" height="216.516" rx="14.567" fill="#232932"/>
                  </g>
                </g>
              </g>
              <g id="Group_87" data-name="Group 87" transform="translate(0 200.503)">
                <g id="Group_86" data-name="Group 86">
                  <g id="Group_85" data-name="Group 85">
                    <path id="Rectangle_19" data-name="Rectangle 19" d="M0,0H354.729a0,0,0,0,1,0,0V1.147a17.8,17.8,0,0,1-17.8,17.8H17.8A17.8,17.8,0,0,1,0,1.147V0A0,0,0,0,1,0,0Z" fill="#232932"/>
                  </g>
                </g>
              </g>
              <g id="Group_90" data-name="Group 90" transform="translate(22.481 8.602)">
                <g id="Group_89" data-name="Group 89">
                  <g id="Group_88" data-name="Group 88">
                    <rect id="Rectangle_20" data-name="Rectangle 20" width="308.922" height="182.845" fill="#455a64"/>
                  </g>
                </g>
              </g>
              <g id="Group_94" data-name="Group 94" transform="translate(145.123 200.29)">
                <g id="Group_93" data-name="Group 93" transform="translate(0)">
                  <g id="Group_92" data-name="Group 92">
                    <g id="Group_91" data-name="Group 91">
                      <path id="Path_29" data-name="Path 29" d="M291.44,419.857c-.006,0,.109-.007.341-.01l1.038-.011,4.034-.023,14.968-.06,50.047-.108h.37l-.187.319-1.986,3.4-2.1,3.6-.061.105h-.121l-61.94-.115h-.053l-.027-.044-3.244-5.275L291.7,420.3c-.181-.3-.262-.441-.262-.441s.111.161.308.464.492.762.866,1.339l3.309,5.148-.081-.044,61.94-.116-.183.1,2.1-3.6,1.987-3.4.183.318-49.843-.107-15.039-.061-4.1-.023-1.073-.01C291.574,419.864,291.44,419.857,291.44,419.857Z" transform="translate(-291.44 -419.645)" fill="#455a64"/>
                    </g>
                  </g>
                </g>
              </g>
            </g>
          </g>
        </g>
        <g id="Group_101" data-name="Group 101" transform="translate(13.234 200.304)">
          <g id="Group_98" data-name="Group 98" transform="translate(0 0.199)">
            <line id="Line_1" data-name="Line 1" x2="327.415" fill="#263238"/>
          </g>
          <g id="Group_100" data-name="Group 100" transform="translate(0)">
            <g id="Group_99" data-name="Group 99">
              <path id="Path_30" data-name="Path 30" d="M446.181,419.862c0,.11-73.3.2-163.7.2-90.431,0-163.715-.089-163.715-.2s73.284-.2,163.715-.2C372.88,419.663,446.181,419.752,446.181,419.862Z" transform="translate(-118.766 -419.663)" fill="#455a64"/>
            </g>
          </g>
        </g>
      </g>
      <g id="Group_163" data-name="Group 163" transform="translate(65.686 62.851)">
        <g id="Group_103" data-name="Group 103" transform="translate(173.201 0.256)">
          <path id="Path_31" data-name="Path 31" d="M432.4,120.871h0a9.146,9.146,0,0,1,9.146,9.146v18.768H414.2V131.471a10.6,10.6,0,0,1,10.6-10.6Z" transform="translate(-414.199 -120.871)" fill="#263238"/>
        </g>
        <g id="Group_105" data-name="Group 105" transform="translate(76.143)">
          <g id="Group_104" data-name="Group 104">
            <path id="Path_32" data-name="Path 32" d="M402.388,120.792c0,.11-25.8.176-57.628.148s-57.633-.139-57.633-.249,25.8-.176,57.633-.149S402.388,120.682,402.388,120.792Z" transform="translate(-287.127 -120.536)" fill="#263238"/>
          </g>
        </g>
        <g id="Group_106" data-name="Group 106" transform="translate(22.774 0.155)">
          <path id="Path_33" data-name="Path 33" d="M385.643,120.818l-11.405-.079-16.567.1h-121.7a18.712,18.712,0,0,0-18.712,18.712V340.64H374.87V131.1C375.332,120.84,385.643,120.818,385.643,120.818Z" transform="translate(-217.254 -120.739)" fill="#fafafa"/>
        </g>
        <g id="Group_107" data-name="Group 107" transform="translate(22.394 0.027)">
          <path id="Path_34" data-name="Path 34" d="M385.525,120.778l-95.037.207-47.518.036-5.94,0c-1-.019-1.971.039-2.947.092a19.2,19.2,0,0,0-2.882.525,18.362,18.362,0,0,0-12.6,11.3c-.154.463-.366.908-.473,1.386l-.364,1.42a20.139,20.139,0,0,0-.341,2.908c-.084,3.935-.018,7.913-.035,11.867l.127,190.076-.38-.38,157.616.1-.277.278.076-113.046.091-56.521.055-28.261.014-7.064.007-3.533a11.55,11.55,0,0,1,.074-1.764,9.471,9.471,0,0,1,.277-1.745,9.351,9.351,0,0,1,3.817-5.754,11.062,11.062,0,0,1,3.17-1.531A13.336,13.336,0,0,1,385.525,120.778Zm0,0a13.339,13.339,0,0,0-3.466.616,11.052,11.052,0,0,0-3.158,1.541,9.311,9.311,0,0,0-3.779,5.745,9.513,9.513,0,0,0-.269,1.738,11.571,11.571,0,0,0-.066,1.761l.007,3.533.014,7.066.055,28.261.091,56.522L375.03,340.6v.277h-.278l-157.616.1h-.38v-.38l.127-190.076c.023-3.964-.038-7.909.052-11.889a20.647,20.647,0,0,1,.354-2.984l.375-1.457a15,15,0,0,1,.487-1.422A18.839,18.839,0,0,1,231.087,121.2a19.758,19.758,0,0,1,2.954-.534c1-.053,2-.11,2.99-.089l5.939,0,47.519.036Z" transform="translate(-216.756 -120.571)" fill="#263238"/>
        </g>
        <g id="Group_108" data-name="Group 108" transform="translate(46.472 36.436)">
          <path id="Path_35" data-name="Path 35" d="M248.324,168.24h27.5l.044,9.212h-1.316q-.647-4.944-3.7-6.689a11.41,11.41,0,0,0-5.131-1.052v24.066q0,2.523.881,3.349t3.669.826v1.16H253.99v-1.16q2.676,0,3.559-.837t.881-3.338V169.711a11.7,11.7,0,0,0-5.13,1.052q-3.279,1.791-3.7,6.689H248.28Z" transform="translate(-248.28 -168.24)" fill="#e97176"/>
        </g>
        <g id="Group_110" data-name="Group 110" transform="translate(90.991 37.917)">
          <g id="Group_109" data-name="Group 109">
            <path id="Path_36" data-name="Path 36" d="M374.338,170.775c0,.33-15.172.6-33.884.6s-33.887-.267-33.887-.6,15.168-.6,33.887-.6S374.338,170.445,374.338,170.775Z" transform="translate(-306.567 -170.178)" fill="#e8505b"/>
          </g>
        </g>
        <g id="Group_112" data-name="Group 112" transform="translate(92.351 48.744)">
          <g id="Group_111" data-name="Group 111">
            <path id="Path_37" data-name="Path 37" d="M334.55,184.951c0,.329-5.866.6-13.1.6s-13.1-.267-13.1-.6,5.865-.6,13.1-.6S334.55,184.621,334.55,184.951Z" transform="translate(-308.347 -184.354)" fill="#455a64"/>
          </g>
        </g>
        <g id="Group_114" data-name="Group 114" transform="translate(35.764 81.773)">
          <g id="Group_113" data-name="Group 113">
            <path id="Path_38" data-name="Path 38" d="M284.024,228.194c0,.329-11.141.6-24.881.6s-24.882-.267-24.882-.6,11.139-.6,24.882-.6S284.024,227.864,284.024,228.194Z" transform="translate(-234.261 -227.597)" fill="#455a64"/>
          </g>
        </g>
        <g id="Group_116" data-name="Group 116" transform="translate(92.115 81.773)">
          <g id="Group_115" data-name="Group 115">
            <path id="Path_39" data-name="Path 39" d="M357.8,228.194c0,.329-11.14.6-24.88.6s-24.883-.267-24.883-.6,11.138-.6,24.883-.6S357.8,227.864,357.8,228.194Z" transform="translate(-308.038 -227.597)" fill="#e8505b"/>
          </g>
        </g>
        <g id="Group_118" data-name="Group 118" transform="translate(35.764 90.595)">
          <g id="Group_117" data-name="Group 117">
            <path id="Path_40" data-name="Path 40" d="M284.024,239.743c0,.33-11.141.6-24.881.6s-24.882-.267-24.882-.6,11.139-.6,24.882-.6S284.024,239.413,284.024,239.743Z" transform="translate(-234.261 -239.146)" fill="#455a64"/>
          </g>
        </g>
        <g id="Group_120" data-name="Group 120" transform="translate(35.764 99.416)">
          <g id="Group_119" data-name="Group 119">
            <path id="Path_41" data-name="Path 41" d="M284.024,251.292c0,.329-11.141.6-24.881.6s-24.882-.267-24.882-.6,11.139-.6,24.882-.6S284.024,250.962,284.024,251.292Z" transform="translate(-234.261 -250.695)" fill="#e8505b"/>
          </g>
        </g>
        <g id="Group_122" data-name="Group 122" transform="translate(92.351 66.711)">
          <g id="Group_121" data-name="Group 121">
            <path id="Path_42" data-name="Path 42" d="M334.55,208.474c0,.33-5.866.6-13.1.6s-13.1-.267-13.1-.6,5.865-.6,13.1-.6S334.55,208.144,334.55,208.474Z" transform="translate(-308.347 -207.877)" fill="#455a64"/>
          </g>
        </g>
        <g id="Group_124" data-name="Group 124" transform="translate(146.53 81.773)">
          <g id="Group_123" data-name="Group 123">
            <path id="Path_43" data-name="Path 43" d="M396.749,228.194c0,.329-3.911.6-8.734.6s-8.735-.267-8.735-.6,3.91-.6,8.735-.6S396.749,227.864,396.749,228.194Z" transform="translate(-379.28 -227.597)" fill="#455a64"/>
          </g>
        </g>
        <g id="Group_126" data-name="Group 126" transform="translate(123.712 48.744)">
          <g id="Group_125" data-name="Group 125">
            <path id="Path_44" data-name="Path 44" d="M394.366,184.951c0,.329-10.066.6-22.479.6s-22.481-.267-22.481-.6,10.063-.6,22.481-.6S394.366,184.621,394.366,184.951Z" transform="translate(-349.406 -184.354)" fill="#455a64"/>
          </g>
        </g>
        <g id="Group_128" data-name="Group 128" transform="translate(92.351 57.346)">
          <g id="Group_127" data-name="Group 127">
            <path id="Path_45" data-name="Path 45" d="M382.639,196.212c0,.33-16.633.6-37.144.6s-37.147-.267-37.147-.6,16.628-.6,37.147-.6S382.639,195.882,382.639,196.212Z" transform="translate(-308.347 -195.615)" fill="#455a64"/>
          </g>
        </g>
        <g id="Group_130" data-name="Group 130" transform="translate(92.115 90.595)">
          <g id="Group_129" data-name="Group 129">
            <path id="Path_46" data-name="Path 46" d="M379.922,239.743c0,.33-16.093.6-35.94.6s-35.944-.267-35.944-.6,16.089-.6,35.944-.6S379.922,239.413,379.922,239.743Z" transform="translate(-308.038 -239.146)" fill="#455a64"/>
          </g>
        </g>
        <g id="Group_132" data-name="Group 132" transform="translate(96.546 116.131)">
          <g id="Group_131" data-name="Group 131">
            <path id="Path_47" data-name="Path 47" d="M381.292,273.176c0,.329-15.1.6-33.725.6s-33.727-.267-33.727-.6,15.1-.6,33.727-.6S381.292,272.846,381.292,273.176Z" transform="translate(-313.84 -272.579)" fill="#e8505b"/>
          </g>
        </g>
        <g id="Group_134" data-name="Group 134" transform="translate(96.546 124.716)">
          <g id="Group_133" data-name="Group 133">
            <path id="Path_48" data-name="Path 48" d="M381.292,284.416c0,.33-15.1.6-33.725.6s-33.727-.267-33.727-.6,15.1-.6,33.727-.6S381.292,284.086,381.292,284.416Z" transform="translate(-313.84 -283.819)" fill="#455a64"/>
          </g>
        </g>
        <g id="Group_136" data-name="Group 136" transform="translate(96.546 133.301)">
          <g id="Group_135" data-name="Group 135">
            <path id="Path_49" data-name="Path 49" d="M381.292,295.655c0,.329-15.1.6-33.725.6s-33.727-.267-33.727-.6,15.1-.6,33.727-.6S381.292,295.326,381.292,295.655Z" transform="translate(-313.84 -295.059)" fill="#455a64"/>
          </g>
        </g>
        <g id="Group_138" data-name="Group 138" transform="translate(96.546 141.885)">
          <g id="Group_137" data-name="Group 137">
            <path id="Path_50" data-name="Path 50" d="M381.292,306.895c0,.33-15.1.6-33.725.6s-33.727-.267-33.727-.6,15.1-.6,33.727-.6S381.292,306.565,381.292,306.895Z" transform="translate(-313.84 -306.298)" fill="#455a64"/>
          </g>
        </g>
        <g id="Group_140" data-name="Group 140" transform="translate(96.546 150.471)">
          <g id="Group_139" data-name="Group 139">
            <path id="Path_51" data-name="Path 51" d="M352.671,318.135c0,.165-2.173.314-5.686.422s-8.367.174-13.728.174-10.217-.066-13.73-.174-5.686-.257-5.686-.422,2.173-.314,5.686-.422,8.367-.175,13.73-.175,10.214.067,13.728.175S352.671,317.97,352.671,318.135Z" transform="translate(-313.84 -317.538)" fill="#455a64"/>
          </g>
        </g>
        <g id="Group_142" data-name="Group 142" transform="translate(93.678 99.877)">
          <g id="Group_141" data-name="Group 141">
            <path id="Path_52" data-name="Path 52" d="M368.184,251.9c0,.33-13.007.6-29.048.6s-29.05-.267-29.05-.6,13-.6,29.05-.6S368.184,251.566,368.184,251.9Z" transform="translate(-310.085 -251.299)" fill="#455a64"/>
          </g>
        </g>
        <g id="Group_154" data-name="Group 154" transform="translate(0 113.102)">
          <g id="Group_145" data-name="Group 145" transform="translate(23.085 4.033)">
            <g id="Group_144" data-name="Group 144">
              <g id="Group_143" data-name="Group 143">
                <path id="Path_53" data-name="Path 53" d="M278.926,274.456l3.579,66.266-64.794,8.115-.05-74.943Z" transform="translate(-217.661 -273.894)" fill="#e0e0e0"/>
              </g>
            </g>
          </g>
          <g id="Group_148" data-name="Group 148" transform="translate(0 0)">
            <g id="Group_147" data-name="Group 147">
              <g id="Group_146" data-name="Group 146">
                <rect id="Rectangle_21" data-name="Rectangle 21" width="70.298" height="87.93" transform="translate(0 70.297) rotate(-89.632)" fill="#f5f5f5"/>
              </g>
            </g>
          </g>
          <g id="Group_149" data-name="Group 149" transform="translate(3.06 4.445)">
            <rect id="Rectangle_22" data-name="Rectangle 22" width="61.447" height="81.753" transform="translate(0 61.446) rotate(-89.632)" fill="#e97176"/>
          </g>
          <g id="Group_150" data-name="Group 150" transform="translate(3.06 27.88)" opacity="0.2">
            <path id="Path_54" data-name="Path 54" d="M191.443,343.125l28.8-38.011,17.534,24.01,12.079-12.7,23.34,27.224Z" transform="translate(-191.443 -305.115)"/>
          </g>
          <g id="Group_153" data-name="Group 153" transform="translate(44.211 16.884)" opacity="0.2">
            <g id="Group_152" data-name="Group 152">
              <g id="Group_151" data-name="Group 151">
                <path id="Path_55" data-name="Path 55" d="M258.194,297.2a6.437,6.437,0,1,1-6.4-6.479A6.437,6.437,0,0,1,258.194,297.2Z" transform="translate(-245.32 -290.719)"/>
              </g>
            </g>
          </g>
        </g>
        <g id="Group_158" data-name="Group 158" transform="translate(93.678 199.19)">
          <g id="Group_155" data-name="Group 155">
            <path id="Path_56" data-name="Path 56" d="M312.8,382.684a1.359,1.359,0,1,1-1.359-1.36A1.358,1.358,0,0,1,312.8,382.684Z" transform="translate(-310.085 -381.324)" fill="#263238"/>
          </g>
          <g id="Group_156" data-name="Group 156" transform="translate(8.068)">
            <path id="Path_57" data-name="Path 57" d="M323.367,382.684a1.36,1.36,0,1,1-1.36-1.36A1.359,1.359,0,0,1,323.367,382.684Z" transform="translate(-320.648 -381.324)" fill="#263238"/>
          </g>
          <g id="Group_157" data-name="Group 157" transform="translate(16.137)">
            <path id="Path_58" data-name="Path 58" d="M333.93,382.684a1.359,1.359,0,1,1-1.359-1.36A1.359,1.359,0,0,1,333.93,382.684Z" transform="translate(-331.212 -381.324)" fill="#263238"/>
          </g>
        </g>
        <g id="Group_160" data-name="Group 160" transform="translate(92.494 168.36)">
          <g id="Group_159" data-name="Group 159">
            <path id="Path_59" data-name="Path 59" d="M358.3,341.556c0,.33-11.141.6-24.88.6s-24.883-.267-24.883-.6,11.139-.6,24.883-.6S358.3,341.226,358.3,341.556Z" transform="translate(-308.534 -340.959)" fill="#e8505b"/>
          </g>
        </g>
        <g id="Group_162" data-name="Group 162" transform="translate(92.494 177.181)">
          <g id="Group_161" data-name="Group 161">
            <path id="Path_60" data-name="Path 60" d="M380.417,353.1c0,.329-16.093.6-35.94.6s-35.943-.267-35.943-.6,16.089-.6,35.943-.6S380.417,352.775,380.417,353.1Z" transform="translate(-308.534 -352.508)" fill="#455a64"/>
          </g>
        </g>
      </g>
    </g>
    <g id="Box" transform="translate(1628.494 404.106)">
      <g id="Group_189" data-name="Group 189" transform="translate(0 0)">
        <g id="Group_169" data-name="Group 169" transform="translate(27.779 8.076)">
          <g id="Group_166" data-name="Group 166" transform="translate(0)">
            <g id="Group_165" data-name="Group 165" transform="translate(0)">
              <g id="Group_164" data-name="Group 164">
                <rect id="Rectangle_23" data-name="Rectangle 23" width="42.345" height="52.966" transform="translate(0 42.344) rotate(-89.632)" fill="#f5f5f5"/>
              </g>
            </g>
          </g>
          <rect id="Rectangle_24" data-name="Rectangle 24" width="37.013" height="49.244" transform="translate(1.843 39.69) rotate(-89.632)" fill="#f7858a"/>
          <path id="Path_61" data-name="Path 61" d="M611.753,417.413l17.347-22.9,10.562,14.462,7.276-7.648L661,417.729Z" transform="translate(-609.91 -377.723)" opacity="0.2"/>
          <g id="Group_168" data-name="Group 168" transform="translate(26.631 10.17)" opacity="0.2">
            <g id="Group_167" data-name="Group 167">
              <path id="Path_62" data-name="Path 62" d="M651.96,389.747a3.877,3.877,0,1,1-3.852-3.9A3.877,3.877,0,0,1,651.96,389.747Z" transform="translate(-644.206 -385.845)"/>
            </g>
          </g>
        </g>
        <g id="Group_175" data-name="Group 175" transform="translate(20.011 3.654)">
          <g id="Group_172" data-name="Group 172" transform="translate(0 0)">
            <g id="Group_171" data-name="Group 171" transform="translate(0)">
              <g id="Group_170" data-name="Group 170">
                <rect id="Rectangle_25" data-name="Rectangle 25" width="42.345" height="52.966" transform="translate(0 42.344) rotate(-89.632)" fill="#f5f5f5"/>
              </g>
            </g>
          </g>
          <rect id="Rectangle_26" data-name="Rectangle 26" width="37.013" height="49.244" transform="translate(1.843 39.69) rotate(-89.632)" fill="#f7858a"/>
          <path id="Path_63" data-name="Path 63" d="M601.584,411.624l17.347-22.9,10.562,14.462,7.276-7.648,14.059,16.4Z" transform="translate(-599.741 -371.934)" opacity="0.2"/>
          <g id="Group_174" data-name="Group 174" transform="translate(26.631 10.17)" opacity="0.2">
            <g id="Group_173" data-name="Group 173">
              <path id="Path_64" data-name="Path 64" d="M641.791,383.958a3.877,3.877,0,1,1-3.852-3.9A3.877,3.877,0,0,1,641.791,383.958Z" transform="translate(-634.037 -380.056)"/>
            </g>
          </g>
        </g>
        <g id="Group_181" data-name="Group 181" transform="translate(13.094)">
          <g id="Group_178" data-name="Group 178" transform="translate(0)">
            <g id="Group_177" data-name="Group 177" transform="translate(0)">
              <g id="Group_176" data-name="Group 176">
                <rect id="Rectangle_27" data-name="Rectangle 27" width="42.345" height="52.966" transform="translate(0 42.344) rotate(-89.632)" fill="#f5f5f5"/>
              </g>
            </g>
          </g>
          <rect id="Rectangle_28" data-name="Rectangle 28" width="37.013" height="49.244" transform="translate(1.843 39.69) rotate(-89.632)" fill="#e97176"/>
          <path id="Path_65" data-name="Path 65" d="M592.528,406.84l17.347-22.9,10.562,14.462,7.276-7.648,14.059,16.4Z" transform="translate(-590.685 -367.15)" opacity="0.2"/>
          <g id="Group_180" data-name="Group 180" transform="translate(26.63 10.17)" opacity="0.2">
            <g id="Group_179" data-name="Group 179">
              <path id="Path_66" data-name="Path 66" d="M632.735,379.174a3.878,3.878,0,1,1-3.853-3.9A3.877,3.877,0,0,1,632.735,379.174Z" transform="translate(-624.98 -375.272)"/>
            </g>
          </g>
        </g>
        <g id="Group_187" data-name="Group 187" transform="translate(5.327 4.548)">
          <g id="Group_184" data-name="Group 184" transform="translate(0 0)">
            <g id="Group_183" data-name="Group 183">
              <g id="Group_182" data-name="Group 182">
                <rect id="Rectangle_29" data-name="Rectangle 29" width="42.345" height="52.966" transform="translate(0 42.344) rotate(-89.632)" fill="#f5f5f5"/>
              </g>
            </g>
          </g>
          <rect id="Rectangle_30" data-name="Rectangle 30" width="37.013" height="49.244" transform="translate(1.843 39.69) rotate(-89.632)" fill="#455a64"/>
          <path id="Path_67" data-name="Path 67" d="M582.358,412.794l17.347-22.9,10.562,14.462,7.276-7.648,14.059,16.4Z" transform="translate(-580.515 -373.105)" opacity="0.2"/>
          <g id="Group_186" data-name="Group 186" transform="translate(26.63 10.171)" opacity="0.2">
            <g id="Group_185" data-name="Group 185">
              <path id="Path_68" data-name="Path 68" d="M622.566,385.129a3.878,3.878,0,1,1-3.853-3.9A3.877,3.877,0,0,1,622.566,385.129Z" transform="translate(-614.811 -381.227)"/>
            </g>
          </g>
        </g>
        <g id="Group_188" data-name="Group 188" transform="translate(0 20.294)">
          <rect id="Rectangle_31" data-name="Rectangle 31" width="30.579" height="40.885" transform="translate(58.564)" fill="#232932"/>
          <path id="Path_69" data-name="Path 69" d="M572.971,388.526v40.885h61.158V388.526Zm37.08,9.676h-13a2.814,2.814,0,0,1,0-5.628h13a2.814,2.814,0,0,1,0,5.628Z" transform="translate(-572.971 -388.526)" fill="#e97176"/>
        </g>
      </g>
    </g>
    <g id="Speech_Bubble" data-name="Speech Bubble" transform="translate(1560.226 254.972)">
      <g id="Group_329" data-name="Group 329" transform="translate(0 0)">
        <g id="Group_315" data-name="Group 315" transform="translate(0 89.042)">
          <path id="Path_110" data-name="Path 110" d="M486.012,283.4a3.6,3.6,0,1,0,1.645-.123" transform="translate(-483.592 -283.28)" fill="#ebebeb"/>
        </g>
        <g id="Group_316" data-name="Group 316" transform="translate(9.97 74.019)">
          <path id="Path_111" data-name="Path 111" d="M499.421,263.752a4.129,4.129,0,1,0,1.887-.141" transform="translate(-496.645 -263.611)" fill="#ebebeb"/>
        </g>
        <g id="Group_320" data-name="Group 320" transform="translate(0.63)">
          <g id="Group_317" data-name="Group 317" transform="translate(0.149 0.088)">
            <path id="Path_112" data-name="Path 112" d="M518.632,174.74c-6.91-.584-13.9.959-18.637,6.023a23.4,23.4,0,0,0-5.956,19.2c-7.349,3.054-11.356,12.4-8.5,19.828s12.089,11.685,19.592,9.031a26.573,26.573,0,0,0,45.186,7.193c7.208,1.629,15.3,1.523,21.354-2.712s8.8-13.554,4.182-19.326c8.3-2.022,12.523-12.391,10.06-20.575s-9.833-14.056-17.706-17.382c-5.2-2.2-11.69-3.345-16.129.147a20.551,20.551,0,0,0-33.445-1.428" transform="translate(-484.612 -166.818)" fill="#f5f5f5"/>
          </g>
          <g id="Group_319" data-name="Group 319">
            <g id="Group_318" data-name="Group 318">
              <path id="Path_113" data-name="Path 113" d="M518.586,174.713s.136-.184.419-.533a17.307,17.307,0,0,1,1.34-1.479,20.763,20.763,0,0,1,6.382-4.282,21.132,21.132,0,0,1,5.393-1.525,19.753,19.753,0,0,1,6.683.2,21.114,21.114,0,0,1,7.15,2.893,20.9,20.9,0,0,1,6.191,6.078l-.2-.032a11.163,11.163,0,0,1,6.537-2.243,21.178,21.178,0,0,1,7.365,1.174,38.439,38.439,0,0,1,7.213,3.309,33.836,33.836,0,0,1,6.688,5.045,25.015,25.015,0,0,1,5.166,7.1,20.989,20.989,0,0,1,1.47,4.319,18.449,18.449,0,0,1-2.676,13.651,14.458,14.458,0,0,1-3.357,3.586,13.307,13.307,0,0,1-4.5,2.155l.1-.306a10.877,10.877,0,0,1,2.052,4.361,13.146,13.146,0,0,1,.12,4.9,16.132,16.132,0,0,1-4.564,8.805,18.565,18.565,0,0,1-9.092,4.645,30.709,30.709,0,0,1-10.468.309c-1.278-.156-2.537-.4-3.776-.669l.2-.067a26.588,26.588,0,0,1-37.92,3.227,26.875,26.875,0,0,1-7.59-10.48l.23.1a15.979,15.979,0,0,1-12.821-1.34,15.032,15.032,0,0,1-7.5-9.508,16.143,16.143,0,0,1,1.552-11.207,15.608,15.608,0,0,1,7.567-7.1l-.083.147a23.549,23.549,0,0,1,.476-9.071,23.954,23.954,0,0,1,3.3-7.388,23.245,23.245,0,0,1,2.281-2.864,18.337,18.337,0,0,1,2.556-2.224,18.972,18.972,0,0,1,5.267-2.647,25.563,25.563,0,0,1,8.028-1.2,24.957,24.957,0,0,1,2.825.151s-.244,0-.718-.027-1.18-.049-2.107-.047a25.973,25.973,0,0,0-7.981,1.266,18.878,18.878,0,0,0-5.206,2.653,18.238,18.238,0,0,0-2.518,2.212,23.12,23.12,0,0,0-2.248,2.848,23.77,23.77,0,0,0-3.235,7.327,23.307,23.307,0,0,0-.444,8.969l.016.105-.1.042a15.335,15.335,0,0,0-7.405,6.99,15.841,15.841,0,0,0-1.5,10.99,14.7,14.7,0,0,0,7.354,9.282,15.634,15.634,0,0,0,12.531,1.3l.166-.057.065.163A27,27,0,0,0,524.691,244.9a26.9,26.9,0,0,0,25.427-9.043l.077-.092.12.025c1.227.262,2.474.509,3.74.663a30.354,30.354,0,0,0,10.33-.3,18.188,18.188,0,0,0,8.9-4.539,15.75,15.75,0,0,0,4.456-8.585,11.445,11.445,0,0,0-2.086-8.962l-.183-.23.288-.076a12.933,12.933,0,0,0,4.368-2.087,14.1,14.1,0,0,0,3.273-3.491,18.092,18.092,0,0,0,2.635-13.371,20.6,20.6,0,0,0-1.438-4.241,24.656,24.656,0,0,0-5.085-7.014,33.539,33.539,0,0,0-6.615-5.008,38.235,38.235,0,0,0-7.145-3.3,20.918,20.918,0,0,0-7.258-1.178,10.892,10.892,0,0,0-6.382,2.167l-.116.089-.079-.121a20.675,20.675,0,0,0-6.1-6.022,20.934,20.934,0,0,0-7.062-2.889,19.635,19.635,0,0,0-6.616-.233,21.246,21.246,0,0,0-11.746,5.683,19.669,19.669,0,0,0-1.364,1.45C518.742,174.545,518.586,174.713,518.586,174.713Z" transform="translate(-484.418 -166.702)" fill="#263238"/>
            </g>
          </g>
        </g>
        <g id="Group_322" data-name="Group 322" transform="translate(21.528 31.223)">
          <g id="Group_321" data-name="Group 321">
            <path id="Path_114" data-name="Path 114" d="M572.278,208.178c0,.33-13.544.6-30.249.6s-30.252-.267-30.252-.6,13.541-.6,30.252-.6S572.278,207.848,572.278,208.178Z" transform="translate(-511.777 -207.581)" fill="#455a64"/>
          </g>
        </g>
        <g id="Group_324" data-name="Group 324" transform="translate(21.528 37.787)">
          <g id="Group_323" data-name="Group 323">
            <path id="Path_115" data-name="Path 115" d="M572.278,216.772c0,.329-13.544.6-30.249.6s-30.252-.267-30.252-.6,13.541-.6,30.252-.6S572.278,216.442,572.278,216.772Z" transform="translate(-511.777 -216.175)" fill="#455a64"/>
          </g>
        </g>
        <g id="Group_326" data-name="Group 326" transform="translate(21.528 44.351)">
          <g id="Group_325" data-name="Group 325">
            <path id="Path_116" data-name="Path 116" d="M572.278,225.365c0,.33-13.544.6-30.249.6s-30.252-.267-30.252-.6,13.541-.6,30.252-.6S572.278,225.035,572.278,225.365Z" transform="translate(-511.777 -224.768)" fill="#455a64"/>
          </g>
        </g>
        <g id="Group_328" data-name="Group 328" transform="translate(21.528 50.915)">
          <g id="Group_327" data-name="Group 327">
            <path id="Path_117" data-name="Path 117" d="M572.278,233.959c0,.33-13.544.6-30.249.6s-30.252-.267-30.252-.6,13.541-.6,30.252-.6S572.278,233.629,572.278,233.959Z" transform="translate(-511.777 -233.362)" fill="#455a64"/>
          </g>
        </g>
      </g>
    </g>
  </g>
</svg>
