<svg xmlns="http://www.w3.org/2000/svg" xmlns:xlink="http://www.w3.org/1999/xlink" width="327.813" height="357.085" viewBox="0 0 327.813 357.085">
  <defs>
    <clipPath id="clip-path">
      <path id="Path_33" data-name="Path 33" d="M286.486,124.668l38.6,225.933a15.2,15.2,0,0,1,.211,3.021,12.254,12.254,0,0,1-.116,1.412l-.136.847a14.74,14.74,0,0,1-2.488,5.817,14.76,14.76,0,0,1-1.37,1.669c-.245.255-.545.543-.89.857l-.14.126c-.288.253-.586.5-.9.732l-.221.148a13.578,13.578,0,0,1-1.652,1.02l-.195.1c-.461.232-.9.425-1.324.6a15.928,15.928,0,0,1-2.929.8l-92.676,15.832a14.792,14.792,0,0,1-3.166.2c-.359-.015-.72-.039-1.067-.081a15.19,15.19,0,0,1-2.375-.478c-.376-.114-.754-.236-1.082-.367-.19-.069-.335-.121-.463-.175l-.1-.043c-.282-.113-.605-.261-1.005-.465a15.551,15.551,0,0,1-2.956-2c-.379-.326-.713-.642-1.023-.963a15.137,15.137,0,0,1-1.371-1.667,14.375,14.375,0,0,1-1.354-2.308l-.1-.213a14.974,14.974,0,0,1-1.088-3.585L164.514,145.5a14.883,14.883,0,0,1,12.151-17.147l92.675-15.831a14.88,14.88,0,0,1,15.183,6.916A14.725,14.725,0,0,1,286.486,124.668Z" transform="translate(-164.301 -112.312)" fill="none"/>
    </clipPath>
  </defs>
  <g id="illus" transform="translate(-46.687 -33.088)">
    <path id="Path_1" data-name="Path 1" d="M84.617,315.027s25.355,68.269,89.867,82.994c78.235,17.859,69.772-89.82,146.836-95.012S434.507,119.576,287.141,58.832,4.069,117.389,84.617,315.027Z" transform="translate(-13.894 -9.846)" fill="#1c2129" fill-rule="evenodd"/>
    <g id="OBJECTS" transform="translate(69.479 59.295)">
      <path id="Path_2" data-name="Path 2" d="M228.124,366.358c-29.522,5.2-62.116,5.849-87.042-10.745-21.944-14.608-34.478-42.11-31.074-68.181s22.582-49.465,47.546-58c24.251-8.288,50.885-3.046,75.69,3.413s50.252,14.142,75.625,10.472c13.944-2.017,27.926-7.928,36.517-19.053,8.2-10.615,10.559-24.839,9.013-38.142-3.575-30.748-27.513-57.427-57.018-67.142S234.2,115.65,208.51,133.07" transform="translate(-91.032 -80.35)" fill="none" stroke="#fff" stroke-miterlimit="10" stroke-width="0.5" stroke-dasharray="2 1" opacity="0.6"/>
      <g id="Group_3" data-name="Group 3" transform="translate(60.486 28.109)">
        <path id="Path_3" data-name="Path 3" d="M289.835,123.185l38.6,225.934a19.386,19.386,0,0,1,.267,3.851c-.019.632-.075,1.253-.156,1.869-.049.314-.1.628-.147.933a18.8,18.8,0,0,1-1.776,5.211,19.422,19.422,0,0,1-1.424,2.349,20.083,20.083,0,0,1-1.736,2.113c-.418.437-.864.861-1.32,1.27l-.008,0q-.687.6-1.436,1.137l-.008,0a18.63,18.63,0,0,1-2.377,1.442l-.008,0a18.511,18.511,0,0,1-1.712.767,19.437,19.437,0,0,1-3.73,1.028l-92.676,15.832a19.024,19.024,0,0,1-4.066.253c-.223-.013-.437-.019-.661-.04-.24-.019-.491-.044-.734-.07a19.451,19.451,0,0,1-2.989-.6c-.492-.145-.969-.3-1.432-.477-.218-.082-.435-.163-.647-.255-.456-.185-.9-.4-1.337-.621a19.226,19.226,0,0,1-3.781-2.547c-.458-.4-.9-.814-1.327-1.259a19.249,19.249,0,0,1-1.756-2.128,18.1,18.1,0,0,1-1.85-3.225l0-.008a19,19,0,0,1-1.395-4.585l-38.6-225.934a19.054,19.054,0,0,1,15.571-21.977l92.676-15.831A19.046,19.046,0,0,1,289.835,123.185Z" transform="translate(-159.338 -107.347)" fill="#919191"/>
        <path id="Path_4" data-name="Path 4" d="M286.488,124.668l38.6,225.933a15.135,15.135,0,0,1,.21,3.021,12.254,12.254,0,0,1-.116,1.412l-.136.847a14.274,14.274,0,0,1-1.366,3.978,14.458,14.458,0,0,1-1.122,1.839,14.671,14.671,0,0,1-1.37,1.669c-.245.255-.544.543-.89.857l-.14.126c-.288.253-.585.5-.9.732l-.221.148a13.5,13.5,0,0,1-1.651,1.02l-.195.1c-.462.232-.9.425-1.324.6a15.917,15.917,0,0,1-2.929.8l-92.676,15.832a14.789,14.789,0,0,1-3.166.2c-.359-.015-.72-.039-1.067-.081a15.229,15.229,0,0,1-2.375-.478c-.376-.114-.753-.236-1.081-.367-.191-.069-.335-.121-.463-.175l-.1-.043c-.282-.113-.6-.261-1-.465a15.531,15.531,0,0,1-2.957-2c-.379-.326-.713-.642-1.022-.963a15.145,15.145,0,0,1-1.372-1.667,14.368,14.368,0,0,1-1.353-2.308l-.1-.213a15.049,15.049,0,0,1-1.088-3.585L164.515,145.5a14.884,14.884,0,0,1,12.151-17.147l92.675-15.831a14.879,14.879,0,0,1,15.183,6.916A14.725,14.725,0,0,1,286.488,124.668Z" transform="translate(-160.116 -108.125)" fill="#f7f7f7"/>
        <path id="Path_5" data-name="Path 5" d="M346.662,319.3c-.045-.859-.083-1.88-.1-3.04l3.042,17.813a53.209,53.209,0,0,1-2.688-5.349C346.308,326.922,346.413,322.863,346.662,319.3Z" transform="translate(-188.671 -140.097)" fill="#919191" opacity="0.2" style="mix-blend-mode: multiply;isolation: isolate"/>
        <path id="Path_6" data-name="Path 6" d="M324.84,189.007h0l-4.558-26.675h0a3.819,3.819,0,0,1,4.408,3.122l3.271,19.146A3.819,3.819,0,0,1,324.84,189.007Z" transform="translate(-184.567 -115.958)" fill="#919191"/>
        <path id="Rectangle_2" data-name="Rectangle 2" d="M0,0H1.461A2.359,2.359,0,0,1,3.82,2.359v8.814a2.359,2.359,0,0,1-2.359,2.359H0a0,0,0,0,1,0,0V0A0,0,0,0,1,0,0Z" transform="translate(9.654 81.636) rotate(170.305)" fill="#919191"/>
        <path id="Rectangle_3" data-name="Rectangle 3" d="M0,0H1.461A2.359,2.359,0,0,1,3.82,2.359v8.814a2.359,2.359,0,0,1-2.359,2.359H0a0,0,0,0,1,0,0V0A0,0,0,0,1,0,0Z" transform="translate(12.402 97.724) rotate(170.305)" fill="#919191"/>
        <path id="Path_7" data-name="Path 7" d="M244.473,124.028l-27.557,4.708a8.516,8.516,0,0,1-9.828-6.96h0l44.345-7.576h0A8.515,8.515,0,0,1,244.473,124.028Z" transform="translate(-166.823 -108.421)" fill="#919191"/>
      </g>
      <g id="Group_6" data-name="Group 6" transform="translate(242.088 248.085)">
        <g id="Group_5" data-name="Group 5">
          <g id="Group_4" data-name="Group 4">
            <path id="Path_8" data-name="Path 8" d="M374.907,382.3a11.06,11.06,0,0,0,.352,1.283l2.34-.031,1.156,2.012-1.2,2.007a11.62,11.62,0,0,0,2,1.81l1.875-1.4,2.119.945.207,2.334a11.514,11.514,0,0,0,2.6.285l.7-2.236,2.275-.464,1.53,1.778a11.607,11.607,0,0,0,2.347-1.334l-.746-2.222,1.567-1.714,2.279.534a11.607,11.607,0,0,0,1.111-2.456l-1.906-1.357.256-2.306,2.158-.91a11.941,11.941,0,0,0-.206-1.394,12.456,12.456,0,0,0-.34-1.245l-2.342.025-1.149-2.015,1.214-2.005a11.824,11.824,0,0,0-2-1.82l-1.88,1.4-2.117-.951-.2-2.337a11.687,11.687,0,0,0-2.682-.294l-.7,2.24-2.273.473-1.533-1.774a11.73,11.73,0,0,0-2.343,1.344l.752,2.219-1.558,1.721-2.281-.528a11.562,11.562,0,0,0-1.105,2.461l1.913,1.349-.247,2.31-2.159.914A11.939,11.939,0,0,0,374.907,382.3Zm7.322-5.677a5.225,5.225,0,1,1,.835,7.35A5.225,5.225,0,0,1,382.228,376.626Z" transform="translate(-374.7 -368.217)" fill="#fff"/>
          </g>
        </g>
      </g>
      <g id="Group_8" data-name="Group 8" transform="translate(183.702)">
        <g id="Group_7" data-name="Group 7">
          <path id="Path_9" data-name="Path 9" d="M305.461,86.673a12.29,12.29,0,0,0,.075,1.481l2.553.529.773,2.466-1.791,1.895a12.943,12.943,0,0,0,1.741,2.449l2.376-1.077,2.078,1.538-.335,2.589a12.815,12.815,0,0,0,2.762.935l1.3-2.263,2.586.043,1.237,2.3a12.93,12.93,0,0,0,2.873-.888l-.277-2.6,2.116-1.488,2.351,1.128a12.9,12.9,0,0,0,1.8-2.4l-1.746-1.934.832-2.446,2.566-.471a13.072,13.072,0,0,0,.111-1.566,13.9,13.9,0,0,0-.07-1.436l-2.553-.536-.766-2.468,1.8-1.89a13.146,13.146,0,0,0-1.739-2.46l-2.381,1.069-2.074-1.544.346-2.59a13.048,13.048,0,0,0-2.847-.965l-1.3,2.269-2.586-.032-1.241-2.3a13.051,13.051,0,0,0-2.87.9l.284,2.595L311.345,79l-2.354-1.122a12.918,12.918,0,0,0-1.794,2.411l1.756,1.928-.824,2.454-2.567.475A13.045,13.045,0,0,0,305.461,86.673Zm9.328-4.414a5.82,5.82,0,1,1-.858,8.195A5.821,5.821,0,0,1,314.789,82.259Z" transform="translate(-305.46 -74.013)" fill="#fff"/>
        </g>
      </g>
      <g id="Group_11" data-name="Group 11" transform="translate(214.134 22.172)">
        <g id="Group_10" data-name="Group 10">
          <g id="Group_9" data-name="Group 9">
            <path id="Path_10" data-name="Path 10" d="M341.549,106.7a6.249,6.249,0,0,0,.039.747l1.288.266.39,1.245-.9.956a6.584,6.584,0,0,0,.878,1.235l1.2-.543,1.048.777-.169,1.306a6.508,6.508,0,0,0,1.394.472l.658-1.143,1.305.021.624,1.162a6.562,6.562,0,0,0,1.45-.448l-.14-1.31,1.068-.751,1.186.57a6.5,6.5,0,0,0,.908-1.214l-.881-.976.42-1.235,1.3-.238a6.751,6.751,0,0,0,.056-.79,6.869,6.869,0,0,0-.035-.725l-1.288-.271-.386-1.245.91-.954a6.667,6.667,0,0,0-.878-1.241l-1.2.54-1.046-.78.174-1.306a6.566,6.566,0,0,0-1.436-.487l-.654,1.146-1.305-.017-.627-1.159a6.581,6.581,0,0,0-1.449.454l.143,1.31-1.064.756-1.188-.567a6.594,6.594,0,0,0-.906,1.217l.887.973-.416,1.239-1.3.239A6.838,6.838,0,0,0,341.549,106.7Zm4.708-2.229a2.937,2.937,0,1,1-.433,4.136A2.939,2.939,0,0,1,346.257,104.468Z" transform="translate(-341.549 -100.307)" fill="#919191"/>
          </g>
        </g>
      </g>
      <g id="Group_14" data-name="Group 14" transform="translate(0 45.393)">
        <g id="Group_13" data-name="Group 13">
          <g id="Group_12" data-name="Group 12">
            <path id="Path_11" data-name="Path 11" d="M87.611,150.282a21.117,21.117,0,0,0,.185,2.565l4.448.823,1.433,4.249-3.037,3.353a22.512,22.512,0,0,0,3.11,4.183l4.083-1.955,3.661,2.592-.486,4.5a22.271,22.271,0,0,0,4.826,1.52l2.177-3.974,4.487-.021,2.231,3.946a22.431,22.431,0,0,0,4.951-1.645l-.577-4.493,3.616-2.66,4.12,1.871a22.448,22.448,0,0,0,3.032-4.239l-3.1-3.291,1.354-4.274,4.434-.912a22.923,22.923,0,0,0,.136-2.72,24.383,24.383,0,0,0-.175-2.488l-4.449-.836-1.419-4.254,3.057-3.343a22.82,22.82,0,0,0-3.108-4.2l-4.091,1.941-3.654-2.6.5-4.5a22.623,22.623,0,0,0-4.973-1.569l-2.165,3.985-4.487.04-2.239-3.941a22.709,22.709,0,0,0-4.946,1.665l.59,4.49-3.6,2.676-4.125-1.86a22.45,22.45,0,0,0-3.023,4.248l3.119,3.279-1.339,4.287-4.436.918A22.826,22.826,0,0,0,87.611,150.282Zm16.019-8a10.1,10.1,0,1,1-1.187,14.248A10.1,10.1,0,0,1,103.63,142.279Z" transform="translate(-87.608 -127.845)" fill="#f7858a"/>
          </g>
        </g>
      </g>
      <g id="Group_40" data-name="Group 40" transform="translate(64.671 32.295)">
        <g id="Group_39" data-name="Group 39" clip-path="url(#clip-path)">
          <g id="Group_20" data-name="Group 20" transform="translate(5.195 239.111)">
            <g id="Group_19" data-name="Group 19">
              <path id="Path_16" data-name="Path 16" d="M170.462,402.263a6.261,6.261,0,0,0,.039.747l1.288.266.39,1.245-.9.956a6.557,6.557,0,0,0,.878,1.235l1.2-.543,1.048.777-.169,1.306a6.464,6.464,0,0,0,1.394.472l.658-1.143,1.305.022.624,1.161a6.474,6.474,0,0,0,1.45-.448l-.14-1.31,1.068-.751,1.186.57a6.518,6.518,0,0,0,.908-1.213l-.881-.976.42-1.235,1.3-.238a6.755,6.755,0,0,0,.056-.79,6.866,6.866,0,0,0-.035-.725l-1.288-.271-.386-1.245.91-.954a6.664,6.664,0,0,0-.878-1.241l-1.2.54-1.046-.779.174-1.307a6.6,6.6,0,0,0-1.436-.487l-.654,1.146-1.305-.016-.627-1.16a6.582,6.582,0,0,0-1.449.454l.143,1.31-1.064.756-1.188-.566a6.536,6.536,0,0,0-.906,1.217l.887.972-.416,1.239-1.3.24A6.834,6.834,0,0,0,170.462,402.263Zm4.708-2.229a2.937,2.937,0,1,1-.433,4.136A2.939,2.939,0,0,1,175.17,400.034Z" transform="translate(-170.462 -395.873)" fill="#b099ff"/>
            </g>
          </g>
          <g id="Group_25" data-name="Group 25" transform="translate(25.406 63.461)">
            <g id="Group_23" data-name="Group 23" transform="translate(0 0)">
              <g id="Group_22" data-name="Group 22">
                <g id="Group_21" data-name="Group 21">
                  <rect id="Rectangle_4" data-name="Rectangle 4" width="84.933" height="59.829" transform="translate(0 14.157) rotate(-9.595)" fill="#fff"/>
                  <rect id="Rectangle_5" data-name="Rectangle 5" width="84.933" height="13.092" transform="translate(0 14.157) rotate(-9.595)" fill="#f7858a"/>
                  <rect id="Rectangle_6" data-name="Rectangle 6" width="41.131" height="2.671" transform="translate(37.802 32.69) rotate(-9.595)" fill="#919191"/>
                  <rect id="Rectangle_7" data-name="Rectangle 7" width="41.131" height="2.671" transform="translate(38.715 38.088) rotate(-9.595)" fill="#919191"/>
                  <rect id="Rectangle_8" data-name="Rectangle 8" width="32.341" height="2.644" transform="matrix(0.986, -0.167, 0.167, 0.986, 39.627, 43.487)" fill="#919191"/>
                  <rect id="Rectangle_9" data-name="Rectangle 9" width="21.973" height="2.673" transform="matrix(0.986, -0.167, 0.167, 0.986, 40.54, 48.885)" fill="#919191"/>
                </g>
              </g>
              <rect id="Rectangle_10" data-name="Rectangle 10" width="22.656" height="19.584" transform="translate(10.735 37.163) rotate(-9.595)" fill="#363636"/>
            </g>
            <g id="Group_24" data-name="Group 24" transform="translate(7.267 16.716)">
              <path id="Path_17" data-name="Path 17" d="M205.591,210.384a1.28,1.28,0,1,1-1.476-1.049A1.28,1.28,0,0,1,205.591,210.384Z" transform="translate(-203.049 -207.695)" fill="#fff"/>
              <path id="Path_18" data-name="Path 18" d="M211.278,209.422a1.28,1.28,0,1,1-1.475-1.048A1.28,1.28,0,0,1,211.278,209.422Z" transform="translate(-203.94 -207.544)" fill="#fff"/>
              <path id="Path_19" data-name="Path 19" d="M216.966,208.461a1.28,1.28,0,1,1-1.476-1.049A1.28,1.28,0,0,1,216.966,208.461Z" transform="translate(-204.832 -207.393)" fill="#fff"/>
            </g>
          </g>
          <g id="Group_30" data-name="Group 30" transform="translate(37.763 133.1)">
            <g id="Group_28" data-name="Group 28" transform="translate(0 0)">
              <g id="Group_27" data-name="Group 27">
                <g id="Group_26" data-name="Group 26">
                  <rect id="Rectangle_11" data-name="Rectangle 11" width="84.932" height="59.829" transform="translate(0 14.157) rotate(-9.595)" fill="#fff"/>
                  <rect id="Rectangle_12" data-name="Rectangle 12" width="84.932" height="13.092" transform="translate(0 14.157) rotate(-9.595)" fill="#232932"/>
                  <rect id="Rectangle_13" data-name="Rectangle 13" width="41.131" height="2.671" transform="translate(37.802 32.69) rotate(-9.595)" fill="#919191" opacity="0.23"/>
                  <rect id="Rectangle_14" data-name="Rectangle 14" width="41.131" height="2.671" transform="translate(38.715 38.088) rotate(-9.595)" fill="#919191" opacity="0.23"/>
                  <rect id="Rectangle_15" data-name="Rectangle 15" width="32.341" height="2.644" transform="translate(39.627 43.487) rotate(-9.595)" fill="#919191" opacity="0.23"/>
                  <rect id="Rectangle_16" data-name="Rectangle 16" width="21.973" height="2.673" transform="matrix(0.986, -0.167, 0.167, 0.986, 40.54, 48.885)" fill="#919191" opacity="0.23"/>
                </g>
              </g>
              <rect id="Rectangle_17" data-name="Rectangle 17" width="22.656" height="19.584" transform="translate(10.735 37.163) rotate(-9.595)" fill="#f7858a"/>
            </g>
            <g id="Group_29" data-name="Group 29" transform="translate(7.267 16.716)">
              <path id="Path_20" data-name="Path 20" d="M220.244,292.969a1.28,1.28,0,1,1-1.476-1.049A1.28,1.28,0,0,1,220.244,292.969Z" transform="translate(-217.702 -290.28)" fill="#fff"/>
              <path id="Path_21" data-name="Path 21" d="M225.932,292.007a1.28,1.28,0,1,1-1.476-1.049A1.28,1.28,0,0,1,225.932,292.007Z" transform="translate(-218.594 -290.129)" fill="#fff"/>
              <path id="Path_22" data-name="Path 22" d="M231.619,291.046A1.28,1.28,0,1,1,230.144,290,1.28,1.28,0,0,1,231.619,291.046Z" transform="translate(-219.486 -289.978)" fill="#fff"/>
            </g>
          </g>
          <g id="Group_35" data-name="Group 35" transform="translate(49.187 202.536)">
            <g id="Group_33" data-name="Group 33" transform="translate(0 0)">
              <g id="Group_32" data-name="Group 32" transform="translate(0)">
                <g id="Group_31" data-name="Group 31">
                  <rect id="Rectangle_18" data-name="Rectangle 18" width="84.932" height="59.829" transform="translate(0 14.157) rotate(-9.595)" fill="#fff"/>
                  <rect id="Rectangle_19" data-name="Rectangle 19" width="84.932" height="13.092" transform="translate(0 14.157) rotate(-9.595)" fill="#f7858a"/>
                  <rect id="Rectangle_20" data-name="Rectangle 20" width="41.131" height="2.671" transform="translate(37.802 32.69) rotate(-9.595)" fill="#919191"/>
                  <rect id="Rectangle_21" data-name="Rectangle 21" width="41.131" height="2.671" transform="translate(38.715 38.088) rotate(-9.595)" fill="#919191"/>
                  <rect id="Rectangle_22" data-name="Rectangle 22" width="32.341" height="2.644" transform="translate(39.627 43.487) rotate(-9.595)" fill="#919191"/>
                  <rect id="Rectangle_23" data-name="Rectangle 23" width="21.973" height="2.673" transform="matrix(0.986, -0.167, 0.167, 0.986, 40.54, 48.885)" fill="#919191"/>
                </g>
              </g>
              <path id="Path_50675" data-name="Path 50675" d="M0,0H22.656V19.584H0Z" transform="translate(10.735 37.162) rotate(-9.595)" fill="#363e4a"/>
            </g>
            <g id="Group_34" data-name="Group 34" transform="translate(7.267 16.716)">
              <path id="Path_23" data-name="Path 23" d="M233.792,375.313a1.28,1.28,0,1,1-1.476-1.049A1.282,1.282,0,0,1,233.792,375.313Z" transform="translate(-231.249 -372.624)" fill="#fff"/>
              <path id="Path_24" data-name="Path 24" d="M239.479,374.351A1.28,1.28,0,1,1,238,373.3,1.28,1.28,0,0,1,239.479,374.351Z" transform="translate(-232.141 -372.473)" fill="#fff"/>
              <path id="Path_25" data-name="Path 25" d="M245.167,373.39a1.28,1.28,0,1,1-1.476-1.049A1.281,1.281,0,0,1,245.167,373.39Z" transform="translate(-233.033 -372.322)" fill="#fff"/>
            </g>
          </g>
          <g id="Group_36" data-name="Group 36" transform="translate(16.959 26.24)">
            <path id="Path_26" data-name="Path 26" d="M251.457,176.24l-67.044,11.342,2.866-6.492,67.044-11.342Z" transform="translate(-184.413 -147.555)" fill="#282629"/>
            <path id="Path_27" data-name="Path 27" d="M270.592,174.988l-3.908.661,2.866-6.492,3.908-.661Z" transform="translate(-197.31 -147.359)" fill="#282629"/>
            <path id="Path_28" data-name="Path 28" d="M278.092,173.719l-3.908.661,2.866-6.492,3.908-.661Z" transform="translate(-198.485 -147.16)" fill="#282629"/>
            <path id="Path_29" data-name="Path 29" d="M271.513,162.757l-83.54,14.132,7.272-19.327,83.54-14.132Z" transform="translate(-184.971 -143.43)" fill="#f7858a"/>
          </g>
          <path id="Path_30" data-name="Path 30" d="M240.2,321.866l-8.548-3.18,1.52,8.993Z" transform="translate(-174.859 -144.663)" fill="#fff"/>
        </g>
      </g>
      <g id="Group_41" data-name="Group 41" transform="translate(231.745 180.399)">
        <circle id="Ellipse_1" data-name="Ellipse 1" cx="12.361" cy="12.361" r="12.361" fill="#f7858a"/>
        <path id="Path_34" data-name="Path 34" d="M380.7,299.491c-2.357-2.773-4.557.136-4.557.136s-2.2-2.909-4.558-.136c-2.306,2.713,3.31,6.89,4.558,7.3C377.392,306.381,383.008,302.2,380.7,299.491Z" transform="translate(-363.783 -289.57)" fill="#fff"/>
      </g>
      <g id="Group_43" data-name="Group 43" transform="translate(38.531 209.277)">
        <circle id="Ellipse_2" data-name="Ellipse 2" cx="10.955" cy="10.955" r="10.955" fill="#f7858a"/>
        <g id="Group_42" data-name="Group 42" transform="translate(6.047 5.01)">
          <path id="Path_35" data-name="Path 35" d="M150.854,334.144a.83.83,0,0,1,0-1.49.836.836,0,0,0-.836-.835h-.135l-2.031.046a9.673,9.673,0,0,0,.271-2.776c-.158-.971-1.466-1.4-1.489-.316a2.931,2.931,0,0,1-.993,2.392,7.274,7.274,0,0,0-.98,1.366.891.891,0,0,0-.1.423v4.1a.407.407,0,0,0,.406.406h5.054a.786.786,0,0,0,.837-.8c-.029-.376-.491-.519-.491-.519a.626.626,0,0,0,.564-.609.563.563,0,0,0-.54-.647A.834.834,0,0,0,150.854,334.144Z" transform="translate(-141.113 -328.136)" fill="#fff"/>
          <rect id="Rectangle_25" data-name="Rectangle 25" width="2.828" height="5.694" rx="0.624" transform="translate(0 4.518)" fill="#fff"/>
        </g>
      </g>
      <g id="Group_44" data-name="Group 44" transform="translate(8.948 134.722)">
        <path id="Path_36" data-name="Path 36" d="M119.072,234.077l-18.914,8.6a3.3,3.3,0,0,0-1.641,4.376l4.5,9.894a3.3,3.3,0,0,0,4.376,1.641l.222-.1,3.431,2.648a.764.764,0,0,0,1.23-.6l.056-4.2,13.976-6.353a3.306,3.306,0,0,0,1.641-4.377l-4.5-9.894A3.305,3.305,0,0,0,119.072,234.077Z" transform="translate(-98.22 -233.779)" fill="#fff"/>
        <path id="Path_37" data-name="Path 37" d="M112.268,250.047a1.5,1.5,0,1,1-1.988-.745A1.5,1.5,0,0,1,112.268,250.047Z" transform="translate(-99.972 -236.192)" fill="#363e4a"/>
        <circle id="Ellipse_3" data-name="Ellipse 3" cx="1.501" cy="1.501" r="1.501" transform="matrix(0.969, -0.246, 0.246, 0.969, 13.401, 11.439)" fill="#363e4a"/>
        <path id="Path_38" data-name="Path 38" d="M122.456,245.415a1.5,1.5,0,1,1-1.988-.745A1.5,1.5,0,0,1,122.456,245.415Z" transform="translate(-101.569 -235.466)" fill="#363e4a"/>
      </g>
    </g>
  </g>
</svg>
