<svg xmlns="http://www.w3.org/2000/svg" width="28.801" height="26" viewBox="0 0 28.801 26">
  <path id="FontAwsome_weixin_" data-name="FontAwsome (weixin)" d="M32.49,39.868a6.912,6.912,0,0,1,.984.064C32.605,35.383,28.2,32,23.2,32,17.582,32,13,36.224,13,41.6a9.528,9.528,0,0,0,4.079,7.636l-1.011,3.4,3.561-1.979a15.887,15.887,0,0,0,3.571.563c.325,0,.634-.017.958-.046a8.922,8.922,0,0,1,8.331-11.3ZM27.018,36.8a1.418,1.418,0,0,1,0,2.82,1.415,1.415,0,1,1,0-2.82Zm-7.143,2.82a1.415,1.415,0,1,1,0-2.82,1.417,1.417,0,0,1,0,2.82ZM41.8,48.676c0-4.52-4.079-8.2-8.661-8.2a8.211,8.211,0,1,0,0,16.4,12.084,12.084,0,0,0,3.069-.574L39,58l-.775-2.82C40.282,53.474,41.8,51.217,41.8,48.676ZM30.328,47.254a1.135,1.135,0,0,1,0-2.257,1.137,1.137,0,1,1,0,2.257Zm5.608,0a1.135,1.135,0,0,1,0-2.257,1.137,1.137,0,1,1,0,2.257Z" transform="translate(-13 -32)" fill="#fff"/>
</svg>
