<svg xmlns="http://www.w3.org/2000/svg" width="24" height="20.251" viewBox="0 0 24 20.251">
  <path id="FontAwsome_tasks_" data-name="FontAwsome (tasks)" d="M6.545,32.136a.563.563,0,0,0-.8,0L2.763,35.1,1.7,34.067a.563.563,0,0,0-.8,0L.166,34.8a.562.562,0,0,0,0,.8L2.4,37.822a.6.6,0,0,0,.825,0l.731-.732,3.384-3.384a.567.567,0,0,0,0-.8Zm0,7.462a.563.563,0,0,0-.8,0L2.763,42.585,1.7,41.549a.563.563,0,0,0-.8,0l-.736.735a.562.562,0,0,0,0,.8l2.225,2.227a.6.6,0,0,0,.825,0l.736-.735,3.384-3.385a.562.562,0,0,0,0-.792ZM3,47.722a2.25,2.25,0,1,0,0,4.5,2.25,2.25,0,1,0,0-4.5Zm20.25.75H9.751a.75.75,0,0,0-.75.75v1.5a.75.75,0,0,0,.75.75h13.5a.75.75,0,0,0,.75-.75v-1.5A.75.75,0,0,0,23.251,48.472Zm0-15H9.751a.75.75,0,0,0-.75.75v1.5a.75.75,0,0,0,.75.75h13.5a.75.75,0,0,0,.75-.75v-1.5A.75.75,0,0,0,23.251,33.472Zm0,7.5H9.751a.75.75,0,0,0-.75.75v1.5a.75.75,0,0,0,.75.75h13.5a.75.75,0,0,0,.75-.75v-1.5A.75.75,0,0,0,23.251,40.972Z" transform="translate(-0.001 -31.971)" fill="#fff"/>
</svg>
