<svg xmlns="http://www.w3.org/2000/svg" xmlns:xlink="http://www.w3.org/1999/xlink" width="129.914" height="70.455" viewBox="0 0 129.914 70.455">
  <defs>
    <clipPath id="clip-path">
      <rect id="Rectangle_5181" data-name="Rectangle 5181" width="70" height="70" fill="#fff"/>
    </clipPath>
  </defs>
  <g id="Group_25615" data-name="Group 25615" transform="translate(0 8.427)">
    <path id="Background" d="M124.468,0a5.445,5.445,0,0,1,0,10.891H93.351a5.445,5.445,0,0,1,0,10.891h17.114a5.445,5.445,0,0,1,0,10.891h-7.915c-3.792,0-6.866,2.438-6.866,5.445q0,3.007,4.668,5.445a5.445,5.445,0,0,1,0,10.891H35.785a5.445,5.445,0,1,1,0-10.891H5.445a5.445,5.445,0,1,1,0-10.891H36.563a5.445,5.445,0,0,0,0-10.891H17.114a5.445,5.445,0,0,1,0-10.891H48.232A5.445,5.445,0,1,1,48.232,0Zm0,21.782a5.445,5.445,0,1,1-5.445,5.445A5.445,5.445,0,0,1,124.468,21.782Z" transform="translate(0 7.573)" fill="#f4f4f4" fill-rule="evenodd"/>
    <g id="meeting-laptop" transform="translate(30 -8.427)" clip-path="url(#clip-path)">
      <path id="Path_50975" data-name="Path 50975" d="M1.5,48.333V11.875A4.375,4.375,0,0,1,5.875,7.5H52.542a4.375,4.375,0,0,1,4.375,4.375V48.333Z" transform="translate(2.875 14.375)" fill="#f7858a"/>
      <path id="Path_50976" data-name="Path 50976" d="M39.236,7.5H5.875A4.375,4.375,0,0,0,1.5,11.875V45.236Z" transform="translate(2.875 14.375)" fill="#fff"/>
      <path id="Path_50977" data-name="Path 50977" d="M1.5,45.417V11.875A4.375,4.375,0,0,1,5.875,7.5H30.667" transform="translate(2.875 14.375)" fill="none" stroke="#363e4a" stroke-linecap="round" stroke-linejoin="round" stroke-width="2"/>
      <path id="Path_50978" data-name="Path 50978" d="M20.5,9.5V41.583" transform="translate(39.292 18.208)" fill="none" stroke="#363e4a" stroke-linecap="round" stroke-linejoin="round" stroke-width="2"/>
      <path id="Path_50979" data-name="Path 50979" d="M38.417,20.5v2.917H23.833V20.5H.5v5.833A2.917,2.917,0,0,0,3.417,29.25H58.833a2.917,2.917,0,0,0,2.917-2.917V20.5Z" transform="translate(0.958 39.292)" fill="#fff" stroke="#363e4a" stroke-linecap="round" stroke-linejoin="round" stroke-width="2"/>
      <path id="Path_50980" data-name="Path 50980" d="M35.021,34.793c-1.19-1.837-5.136-3.173-10.077-5-1.4-.519-1.167-4.159-.548-4.839a10.3,10.3,0,0,0,2.677-7.974A6.381,6.381,0,0,0,20.543,10a6.382,6.382,0,0,0-6.522,6.977,10.284,10.284,0,0,0,2.68,7.974c.615.68.846,4.32-.548,4.839-4.958,1.829-8.89,3.165-10.077,5" transform="translate(11.646 19.165)" fill="#fff"/>
      <path id="Path_50981" data-name="Path 50981" d="M35.021,34.793c-1.19-1.837-5.136-3.173-10.077-5-1.4-.519-1.167-4.159-.548-4.839a10.3,10.3,0,0,0,2.677-7.974A6.381,6.381,0,0,0,20.543,10a6.382,6.382,0,0,0-6.522,6.977,10.284,10.284,0,0,0,2.68,7.974c.615.68.846,4.32-.548,4.839-4.958,1.829-8.89,3.165-10.077,5" transform="translate(11.646 19.165)" fill="none" stroke="#363e4a" stroke-linecap="round" stroke-linejoin="round" stroke-width="2"/>
      <path id="Path_50982" data-name="Path 50982" d="M42.667,3.417l-5.833,1.7v-1.7A2.917,2.917,0,0,0,33.917.5h-17.5A2.917,2.917,0,0,0,13.5,3.417V18a2.917,2.917,0,0,0,2.917,2.917h17.5A2.917,2.917,0,0,0,36.833,18V16.055L42.667,18Z" transform="translate(25.875 0.958)" fill="#f7858a"/>
      <path id="Path_50983" data-name="Path 50983" d="M16.417.5A2.917,2.917,0,0,0,13.5,3.417V18a2.867,2.867,0,0,0,.683,1.808L33.488.5Z" transform="translate(25.875 0.958)" fill="#fff"/>
      <path id="Path_50984" data-name="Path 50984" d="M42.667,3.417l-5.833,1.7v-1.7A2.917,2.917,0,0,0,33.917.5h-17.5A2.917,2.917,0,0,0,13.5,3.417V18a2.917,2.917,0,0,0,2.917,2.917h17.5A2.917,2.917,0,0,0,36.833,18V16.055L42.667,18Z" transform="translate(25.875 0.958)" fill="none" stroke="#363e4a" stroke-linecap="round" stroke-linejoin="round" stroke-width="2"/>
    </g>
  </g>
</svg>
