<svg xmlns="http://www.w3.org/2000/svg" width="423" height="373.506" viewBox="0 0 423 373.506">
  <g id="about" transform="translate(-1357 -165.271)">
    <g id="Group_1" data-name="Group 1" transform="translate(1471.406 165.271)">
      <path id="Path_1" data-name="Path 1" d="M452.185,364.815h-.24a.759.759,0,0,1,0-1.518h.416a.759.759,0,0,1,0,1.518Zm4.332-.116a.759.759,0,0,1-.04-1.517l.226-.012a.759.759,0,1,1,.09,1.515l-.235.013Zm-8.718,0h-.041l-.239-.014a.759.759,0,0,1-.709-.807.77.77,0,0,1,.807-.709l.222.013a.759.759,0,0,1-.039,1.517Zm13.086-.353a.759.759,0,0,1-.08-1.514l.225-.025a.759.759,0,0,1,.17,1.509l-.234.026C460.939,364.341,460.912,364.342,460.884,364.342Zm-17.455,0a.793.793,0,0,1-.086,0l-.23-.026a.759.759,0,1,1,.17-1.509l.229.026a.759.759,0,0,1-.084,1.514Zm21.8-.591a.759.759,0,0,1-.124-1.508l.227-.038a.759.759,0,0,1,.251,1.5l-.229.038A.754.754,0,0,1,465.227,363.746Zm-26.14-.007a.762.762,0,0,1-.126-.011l-.232-.039a.759.759,0,1,1,.259-1.5l.224.038a.759.759,0,0,1-.124,1.508Zm30.444-.829a.759.759,0,0,1-.165-1.5l.226-.05a.759.759,0,0,1,.33,1.482l-.225.05A.793.793,0,0,1,469.531,362.91Zm-34.747-.01a.749.749,0,0,1-.166-.018l-.229-.052a.759.759,0,0,1,.339-1.48l.221.05a.759.759,0,0,1-.165,1.5Zm39-1.064a.759.759,0,0,1-.2-1.49l.217-.062a.759.759,0,0,1,.421,1.459l-.228.065A.753.753,0,0,1,473.782,361.836Zm-43.248-.012a.772.772,0,0,1-.206-.029l-.231-.066a.759.759,0,1,1,.43-1.456l.213.061a.759.759,0,0,1-.205,1.49Zm47.433-1.3a.759.759,0,0,1-.245-1.477l.213-.074a.759.759,0,1,1,.5,1.433l-.223.078A.756.756,0,0,1,477.967,360.529Zm-51.617-.016a.746.746,0,0,1-.245-.041l-.223-.077a.759.759,0,1,1,.5-1.434l.215.074a.759.759,0,0,1-.245,1.477Zm55.714-1.52a.759.759,0,0,1-.283-1.464l.207-.085a.759.759,0,0,1,.577,1.4l-.218.089A.761.761,0,0,1,482.063,358.994Zm-59.827-.024a.756.756,0,0,1-.286-.056l-.218-.089a.759.759,0,0,1,.579-1.4l.21.087a.759.759,0,0,1-.286,1.463Zm63.834-1.735a.759.759,0,0,1-.325-1.445l.206-.1a.759.759,0,1,1,.654,1.37l-.209.1A.759.759,0,0,1,486.069,357.234Zm-67.853-.035a.754.754,0,0,1-.324-.073l-.214-.1a.759.759,0,1,1,.659-1.367l.2.1a.759.759,0,0,1-.326,1.445Zm71.758-1.943a.759.759,0,0,1-.361-1.427l.2-.109a.759.759,0,0,1,.725,1.334l-.2.111A.755.755,0,0,1,489.974,355.256Zm-75.672-.045a.75.75,0,0,1-.361-.092L413.73,355a.759.759,0,1,1,.739-1.326l.2.107a.759.759,0,0,1-.362,1.427Zm79.463-2.146a.759.759,0,0,1-.4-1.407l.193-.118a.759.759,0,1,1,.8,1.291l-.2.123A.758.758,0,0,1,493.765,353.065ZM410.5,353.01a.758.758,0,0,1-.4-.113l-.2-.126a.759.759,0,0,1,.809-1.285l.19.118a.759.759,0,0,1-.4,1.406Zm86.927-2.341a.759.759,0,0,1-.432-1.384l.186-.129a.759.759,0,0,1,.869,1.245l-.192.134A.76.76,0,0,1,497.432,350.668Zm-90.6-.065a.758.758,0,0,1-.433-.136l-.194-.135a.759.759,0,1,1,.875-1.24l.185.129a.759.759,0,0,1-.434,1.383Zm94.127-2.531a.759.759,0,0,1-.468-1.357l.182-.141a.759.759,0,1,1,.935,1.2l-.181.142A.756.756,0,0,1,500.962,348.073ZM403.3,348a.755.755,0,0,1-.465-.159l-.186-.146a.759.759,0,0,1,.939-1.193l.178.139A.759.759,0,0,1,403.3,348Zm101.043-2.711a.759.759,0,0,1-.5-1.33l.173-.151a.759.759,0,0,1,1,1.142l-.174.152A.757.757,0,0,1,504.346,345.289Zm-104.425-.08a.757.757,0,0,1-.5-.188l-.175-.153a.759.759,0,1,1,1-1.141l.173.152a.759.759,0,0,1-.5,1.33Zm107.652-2.886a.759.759,0,0,1-.528-1.3l.163-.158a.759.759,0,0,1,1.06,1.087l-.168.163A.758.758,0,0,1,507.573,342.323ZM396.7,342.237a.756.756,0,0,1-.529-.214l-.168-.164a.759.759,0,1,1,1.062-1.084l.163.159a.759.759,0,0,1-.529,1.3Zm113.939-3.051a.759.759,0,0,1-.558-1.273l.156-.17a.759.759,0,0,1,1.117,1.028l-.156.17A.758.758,0,0,1,510.635,339.186Zm-117-.091a.757.757,0,0,1-.559-.245l-.155-.168a.759.759,0,0,1,1.115-1.03l.157.17a.759.759,0,0,1-.558,1.273Zm119.882-3.211a.759.759,0,0,1-.583-1.244l.145-.176a.759.759,0,1,1,1.172.965l-.15.181A.757.757,0,0,1,513.522,335.884ZM390.76,335.79a.757.757,0,0,1-.586-.276l-.146-.177a.759.759,0,0,1,1.17-.968l.147.179a.759.759,0,0,1-.585,1.242Zm125.464-3.36a.759.759,0,0,1-.611-1.209l.138-.186a.759.759,0,0,1,1.222.9l-.138.186A.758.758,0,0,1,516.224,332.429Zm-128.159-.095a.758.758,0,0,1-.611-.308l-.137-.187a.759.759,0,1,1,1.223-.9l.135.184a.758.758,0,0,1-.609,1.21Zm130.668-3.5a.76.76,0,0,1-.633-1.177l.126-.192a.759.759,0,1,1,1.27.831l-.128.195A.759.759,0,0,1,518.734,328.831Zm-133.17-.093a.758.758,0,0,1-.636-.344l-.126-.192a.759.759,0,1,1,1.269-.832l.126.193a.759.759,0,0,1-.634,1.175ZM521.043,325.1a.76.76,0,0,1-.656-1.141l.115-.2a.759.759,0,0,1,1.315.76l-.117.2A.759.759,0,0,1,521.043,325.1Zm-137.778-.088a.758.758,0,0,1-.657-.378l-.116-.2a.759.759,0,0,1,1.314-.761l.114.2a.759.759,0,0,1-.655,1.141Zm139.88-3.767a.759.759,0,0,1-.676-1.1l.1-.2a.759.759,0,0,1,1.355.686l-.106.208A.76.76,0,0,1,523.145,321.244Zm-141.97-.079a.759.759,0,0,1-.678-.416l-.1-.2a.759.759,0,1,1,1.353-.69l.1.207a.76.76,0,0,1-.676,1.1Zm143.855-3.886a.751.751,0,0,1-.306-.066.759.759,0,0,1-.387-1l.092-.209a.759.759,0,1,1,1.392.607l-.1.216A.759.759,0,0,1,525.029,317.279ZM379.3,317.21a.759.759,0,0,1-.7-.454l-.092-.209a.759.759,0,1,1,1.389-.613l.093.212a.76.76,0,0,1-.695,1.064Zm147.392-4a.759.759,0,0,1-.71-1.027l.081-.216a.759.759,0,1,1,1.422.533l-.082.219A.76.76,0,0,1,526.692,313.213Zm-149.044-.054a.759.759,0,0,1-.711-.493l-.081-.216a.759.759,0,1,1,1.422-.532l.081.216a.759.759,0,0,1-.711,1.025Zm150.48-4.1a.76.76,0,0,1-.724-.987l.069-.22a.759.759,0,0,1,1.449.454l-.07.222A.759.759,0,0,1,528.127,309.059Zm-151.909-.045a.759.759,0,0,1-.724-.531l-.07-.223a.759.759,0,1,1,1.449-.452l.068.218a.76.76,0,0,1-.724.987Zm153.108-4.173a.76.76,0,0,1-.736-.948l.055-.219a.759.759,0,1,1,1.473.366l-.058.229A.759.759,0,0,1,529.327,304.842Zm-154.3-.044a.76.76,0,0,1-.735-.573L374.23,304a.759.759,0,0,1,1.472-.373l.056.224a.761.761,0,0,1-.736.946Zm155.267-4.232a.734.734,0,0,1-.153-.016.759.759,0,0,1-.591-.9l.043-.217a.759.759,0,1,1,1.491.285l-.047.236A.759.759,0,0,1,530.289,300.565Zm-156.227-.046a.759.759,0,0,1-.744-.614l-.044-.228a.759.759,0,0,1,1.491-.287l.044.225a.758.758,0,0,1-.746.9Zm156.951-4.278a.791.791,0,0,1-.107-.008.759.759,0,0,1-.645-.858l.031-.226a.759.759,0,0,1,1.5.206l-.032.233A.76.76,0,0,1,531.013,296.241ZM373.34,296.2a.759.759,0,0,1-.751-.654l-.032-.231a.759.759,0,1,1,1.5-.206l.031.226a.759.759,0,0,1-.646.857A.774.774,0,0,1,373.34,296.2ZM531.5,291.884l-.063,0a.759.759,0,0,1-.694-.819l.019-.23a.759.759,0,0,1,1.513.126l-.019.23A.76.76,0,0,1,531.5,291.884Zm-158.638-.046a.759.759,0,0,1-.755-.7l-.019-.23a.759.759,0,1,1,1.513-.125l.019.23a.759.759,0,0,1-.694.819Zm158.881-4.333h-.023a.758.758,0,0,1-.737-.779l.006-.227a.771.771,0,0,1,.777-.741.759.759,0,0,1,.741.777l-.006.232A.761.761,0,0,1,531.74,287.505Zm-159.122-.044a.759.759,0,0,1-.758-.739l-.006-.23a.759.759,0,0,1,.739-.779.769.769,0,0,1,.779.739l.006.23a.76.76,0,0,1-.739.779Zm159.127-4.339a.759.759,0,0,1-.758-.741l-.006-.226a.759.759,0,0,1,1.518-.045l.006.235a.759.759,0,0,1-.741.777Zm-159.128-.045H372.6a.759.759,0,0,1-.738-.779l.006-.231a.759.759,0,1,1,1.518.04l-.006.231A.759.759,0,0,1,372.616,283.077Zm158.894-4.332a.759.759,0,0,1-.755-.7l-.019-.23a.759.759,0,0,1,1.513-.125l.019.23a.759.759,0,0,1-.694.819ZM372.853,278.7l-.063,0a.758.758,0,0,1-.694-.819l.019-.23a.759.759,0,0,1,1.513.125l-.019.23A.759.759,0,0,1,372.853,278.7Zm158.183-4.312a.759.759,0,0,1-.751-.656l-.031-.228a.759.759,0,1,1,1.5-.206l.031.228a.759.759,0,0,1-.649.855A.744.744,0,0,1,531.036,274.387Zm-157.706-.045a.8.8,0,0,1-.1-.007.759.759,0,0,1-.649-.855l.028-.2a.773.773,0,0,1,.859-.661.747.747,0,0,1,.649.843l-.031.227A.759.759,0,0,1,373.329,274.342Zm156.993-4.28a.759.759,0,0,1-.745-.621l-.042-.217a.759.759,0,1,1,1.489-.3l.046.236a.759.759,0,0,1-.608.885A.791.791,0,0,1,530.322,270.062Zm-156.277-.045a.759.759,0,0,1-.746-.9l.044-.226a.759.759,0,0,1,1.49.291l-.044.226A.759.759,0,0,1,374.045,270.017Zm155.326-4.234a.76.76,0,0,1-.736-.576l-.055-.219a.759.759,0,1,1,1.471-.375l.058.228a.76.76,0,0,1-.737.943ZM375,265.739a.76.76,0,0,1-.737-.945l.057-.223a.759.759,0,0,1,1.472.371l-.057.224A.759.759,0,0,1,375,265.739Zm153.181-4.175a.759.759,0,0,1-.725-.535l-.068-.216a.759.759,0,0,1,1.448-.456l.07.225a.759.759,0,0,1-.726.983Zm-151.991-.044a.76.76,0,0,1-.725-.986l.07-.222a.759.759,0,0,1,1.448.455l-.069.221A.76.76,0,0,1,376.191,261.519Zm150.57-4.1a.759.759,0,0,1-.712-.5l-.08-.212a.759.759,0,0,1,1.421-.536l.082.22a.759.759,0,0,1-.448.976A.75.75,0,0,1,526.761,257.416Zm-149.143-.053a.767.767,0,0,1-.267-.049.759.759,0,0,1-.443-.978l.082-.217a.759.759,0,0,1,1.42.536l-.081.216A.759.759,0,0,1,377.618,257.363Zm147.5-4a.758.758,0,0,1-.7-.454l-.092-.209a.759.759,0,0,1,1.39-.612l.093.211a.759.759,0,0,1-.694,1.064Zm-145.843-.067a.747.747,0,0,1-.3-.064.759.759,0,0,1-.39-1l.095-.215a.759.759,0,1,1,1.387.617l-.092.208A.759.759,0,0,1,379.273,253.295ZM523.248,249.4a.759.759,0,0,1-.681-.422l-.1-.2a.759.759,0,0,1,1.352-.692l.108.213a.76.76,0,0,1-.68,1.1Zm-142.1-.079a.76.76,0,0,1-.676-1.1l.106-.208a.759.759,0,1,1,1.351.691l-.1.2A.759.759,0,0,1,381.151,249.325Zm140.013-3.772a.759.759,0,0,1-.66-.381l-.113-.2a.759.759,0,1,1,1.313-.762l.117.2a.759.759,0,0,1-.658,1.136Zm-137.92-.086a.76.76,0,0,1-.657-1.139l.117-.2a.759.759,0,1,1,1.312.764l-.115.2A.759.759,0,0,1,383.245,245.467Zm135.627-3.644a.759.759,0,0,1-.638-.347l-.123-.189a.759.759,0,1,1,1.268-.834l.129.2a.759.759,0,0,1-.636,1.172Zm-133.325-.092a.759.759,0,0,1-.634-1.175l.128-.195a.759.759,0,1,1,1.268.835l-.126.192A.759.759,0,0,1,385.547,241.731Zm130.829-3.509a.758.758,0,0,1-.613-.311l-.134-.183a.759.759,0,1,1,1.22-.9l.139.189a.759.759,0,0,1-.612,1.208Zm-128.326-.093a.759.759,0,0,1-.611-1.208l.139-.188a.759.759,0,1,1,1.22.9l-.135.183A.758.758,0,0,1,388.051,238.128Zm125.637-3.367a.759.759,0,0,1-.589-.279l-.143-.174a.759.759,0,1,1,1.17-.968l.149.182a.759.759,0,0,1-.587,1.239Zm-122.94-.093a.759.759,0,0,1-.585-1.242l.149-.18a.759.759,0,1,1,1.167.971l-.145.175A.757.757,0,0,1,390.748,234.668Zm120.065-3.215a.757.757,0,0,1-.56-.247l-.153-.166a.759.759,0,1,1,1.115-1.03l.159.173a.759.759,0,0,1-.561,1.271Zm-117.183-.091a.759.759,0,0,1-.558-1.273l.159-.172a.759.759,0,1,1,1.113,1.033l-.155.167A.756.756,0,0,1,393.63,231.362ZM507.762,228.3a.756.756,0,0,1-.533-.219l-.16-.156a.759.759,0,1,1,1.055-1.091l.171.166a.759.759,0,0,1-.534,1.3Zm-111.075-.086a.759.759,0,0,1-.53-1.3l.168-.163a.759.759,0,1,1,1.055,1.091l-.163.158A.755.755,0,0,1,396.686,228.218Zm107.855-2.891a.756.756,0,0,1-.5-.188l-.173-.151a.759.759,0,0,1,1-1.145l.176.153a.759.759,0,0,1-.5,1.33Zm-104.632-.081a.759.759,0,0,1-.5-1.332l.175-.152a.759.759,0,0,1,.995,1.147l-.173.15A.758.758,0,0,1,399.91,225.247Zm101.255-2.717a.757.757,0,0,1-.466-.16l-.182-.142a.759.759,0,0,1,.934-1.2l.182.142a.759.759,0,0,1-.467,1.358Zm-97.875-.073a.759.759,0,0,1-.468-1.357l.186-.144a.759.759,0,1,1,.928,1.2l-.178.139A.756.756,0,0,1,403.289,222.457Zm94.348-2.536a.757.757,0,0,1-.431-.135l-.19-.132a.759.759,0,0,1,.865-1.248l.19.132a.759.759,0,0,1-.434,1.383Zm-90.822-.065a.759.759,0,0,1-.435-1.381l.192-.133a.759.759,0,1,1,.864,1.248l-.187.13A.755.755,0,0,1,406.815,219.856Zm87.156-2.347a.756.756,0,0,1-.4-.115l-.193-.119a.759.759,0,0,1,.794-1.294l.2.124a.759.759,0,0,1-.4,1.4Zm-83.494-.056a.759.759,0,0,1-.4-1.4l.2-.121a.759.759,0,0,1,.8,1.293l-.195.12A.756.756,0,0,1,410.478,217.453Zm79.7-2.152a.757.757,0,0,1-.361-.091l-.2-.11a.759.759,0,0,1,.721-1.336l.2.11a.759.759,0,0,1-.361,1.427Zm-75.913-.046a.759.759,0,0,1-.364-1.426l.206-.111a.759.759,0,1,1,.72,1.336l-.2.108A.755.755,0,0,1,414.265,215.255Zm72-1.95a.757.757,0,0,1-.325-.073l-.208-.1a.759.759,0,1,1,.646-1.373l.211.1a.759.759,0,0,1-.326,1.445Zm-68.1-.035a.759.759,0,0,1-.326-1.445l.211-.1a.759.759,0,0,1,.646,1.374l-.205.1A.758.758,0,0,1,418.166,213.27Zm64.086-1.741a.756.756,0,0,1-.288-.057l-.211-.086a.759.759,0,0,1,.57-1.407l.217.089a.759.759,0,0,1-.289,1.462Zm-60.083-.025a.759.759,0,0,1-.288-1.462l.215-.087a.759.759,0,0,1,.571,1.407l-.211.086A.764.764,0,0,1,422.169,211.5Zm55.973-1.526a.758.758,0,0,1-.246-.041l-.221-.076a.759.759,0,0,1,.5-1.435l.218.075a.759.759,0,0,1-.246,1.477Zm-51.881-.015a.759.759,0,0,1-.248-1.477l.22-.075a.759.759,0,1,1,.492,1.436l-.216.074A.763.763,0,0,1,426.261,209.963Zm47.7-1.3a.752.752,0,0,1-.206-.029l-.224-.063a.759.759,0,0,1,.412-1.461l.221.062a.759.759,0,0,1-.2,1.49Zm-43.517-.012a.759.759,0,0,1-.208-1.489l.225-.063a.759.759,0,0,1,.411,1.461l-.219.062A.765.765,0,0,1,430.443,208.647Zm39.269-1.072a.773.773,0,0,1-.167-.018l-.224-.05a.759.759,0,1,1,.33-1.482l.226.05a.759.759,0,0,1-.165,1.5Zm-35.021-.01a.759.759,0,0,1-.167-1.5l.228-.051a.759.759,0,0,1,.331,1.482l-.223.05A.766.766,0,0,1,434.692,207.566Zm30.718-.837a.7.7,0,0,1-.124-.011l-.046-.007-.18-.03a.759.759,0,0,1,.245-1.5l.185.031a.779.779,0,0,1,.647.877A.743.743,0,0,1,465.409,206.73Zm-26.416-.007a.759.759,0,0,1-.124-1.508l.229-.038a.759.759,0,0,1,.246,1.5l-.226.038A.77.77,0,0,1,438.993,206.723Zm22.076-.6a.757.757,0,0,1-.084,0l-.229-.025a.759.759,0,0,1,.165-1.509l.23.025a.759.759,0,0,1-.082,1.514Zm-17.734,0a.759.759,0,0,1-.081-1.514l.229-.025a.759.759,0,0,1,.166,1.509l-.23.025C443.39,206.117,443.363,206.119,443.335,206.119Zm13.366-.362h-.041l-.231-.013a.759.759,0,0,1-.718-.8.75.75,0,0,1,.8-.718l.231.012a.759.759,0,0,1-.04,1.517Zm-9,0a.759.759,0,0,1-.042-1.517l.231-.013a.759.759,0,1,1,.084,1.516l-.23.012Zm4.615-.124h-.231a.759.759,0,0,1,0-1.518h.234a.759.759,0,0,1,0,1.518Z" transform="translate(-355.181 -187.434)" fill="#cecece"/>
      <path id="Path_2" data-name="Path 2" d="M421.56,350.858h-.291a.916.916,0,0,1,.006-1.833h.5a.916.916,0,1,1,0,1.833Zm5.23-.141a.916.916,0,0,1-.048-1.832l.272-.015a.916.916,0,1,1,.109,1.829l-.284.016Zm-10.527,0h-.05l-.289-.016a.916.916,0,0,1-.856-.974.93.93,0,0,1,.974-.856l.268.015a.916.916,0,0,1-.048,1.832Zm15.8-.426a.917.917,0,0,1-.1-1.829l.272-.03a.917.917,0,0,1,.2,1.822l-.282.031C432.131,350.285,432.1,350.287,432.065,350.287Zm-21.078-.006a.956.956,0,0,1-.1-.006l-.277-.031a.917.917,0,0,1,.206-1.822l.276.031a.917.917,0,0,1-.1,1.828Zm26.322-.714a.917.917,0,0,1-.149-1.821l.274-.045a.916.916,0,1,1,.3,1.808l-.276.047A.926.926,0,0,1,437.309,349.567Zm-31.566-.009a.9.9,0,0,1-.152-.013l-.28-.047a.917.917,0,0,1,.313-1.807l.27.046a.917.917,0,0,1-.15,1.821Zm36.763-1a.917.917,0,0,1-.2-1.811l.273-.061a.916.916,0,0,1,.4,1.789l-.271.061A.935.935,0,0,1,442.506,348.557Zm-41.959-.011a.914.914,0,0,1-.2-.023l-.277-.062a.917.917,0,1,1,.41-1.787l.267.06a.917.917,0,0,1-.2,1.812Zm47.093-1.285a.917.917,0,0,1-.247-1.8l.262-.074a.917.917,0,0,1,.508,1.761l-.275.078A.911.911,0,0,1,447.64,347.261Zm-52.225-.015a.935.935,0,0,1-.249-.035l-.28-.08a.917.917,0,0,1,.52-1.758l.257.073a.917.917,0,0,1-.248,1.8Zm57.279-1.564a.917.917,0,0,1-.3-1.784l.257-.089a.916.916,0,0,1,.605,1.73l-.27.093A.916.916,0,0,1,452.693,345.682Zm-62.331-.019a.907.907,0,0,1-.3-.05l-.269-.093a.916.916,0,1,1,.6-1.731l.26.09a.917.917,0,0,1-.3,1.784Zm67.278-1.835a.917.917,0,0,1-.342-1.767l.25-.1a.917.917,0,0,1,.7,1.7l-.263.107A.91.91,0,0,1,457.64,343.828Zm-72.245-.029a.918.918,0,0,1-.345-.068l-.263-.108a.917.917,0,0,1,.7-1.695l.254.1a.917.917,0,0,1-.345,1.766Zm77.083-2.1a.917.917,0,0,1-.393-1.745l.249-.118a.916.916,0,0,1,.789,1.654l-.253.12A.911.911,0,0,1,462.478,341.7Zm-81.937-.042a.912.912,0,0,1-.392-.089l-.258-.123a.916.916,0,1,1,.8-1.651l.247.118a.917.917,0,0,1-.393,1.745Zm86.652-2.347a.917.917,0,0,1-.436-1.723l.242-.131a.917.917,0,0,1,.876,1.611l-.246.134A.912.912,0,0,1,467.193,339.315Zm-91.379-.054a.908.908,0,0,1-.436-.111l-.255-.139a.917.917,0,1,1,.892-1.6l.236.129a.917.917,0,0,1-.437,1.723Zm95.957-2.592a.917.917,0,0,1-.479-1.7l.233-.143a.916.916,0,1,1,.963,1.559l-.24.148A.916.916,0,0,1,471.771,336.669ZM371.228,336.6a.914.914,0,0,1-.48-.136l-.245-.152a.917.917,0,0,1,.977-1.551l.23.142a.917.917,0,0,1-.482,1.7Zm104.97-2.827a.917.917,0,0,1-.522-1.672l.225-.156a.916.916,0,1,1,1.049,1.5l-.232.161A.916.916,0,0,1,476.2,333.775ZM366.8,333.7a.917.917,0,0,1-.523-.164l-.234-.164a.917.917,0,1,1,1.057-1.5l.224.156a.917.917,0,0,1-.524,1.669Zm113.665-3.055A.916.916,0,0,1,479.9,329l.219-.171a.916.916,0,1,1,1.129,1.444l-.219.171A.913.913,0,0,1,480.461,330.641Zm-117.929-.088a.914.914,0,0,1-.561-.192l-.224-.176a.916.916,0,1,1,1.133-1.441l.215.168a.917.917,0,0,1-.563,1.641Zm122.016-3.274a.916.916,0,0,1-.6-1.607l.209-.182a.917.917,0,0,1,1.208,1.379l-.21.184A.913.913,0,0,1,484.548,327.279Zm-126.1-.1a.913.913,0,0,1-.6-.227l-.211-.185a.917.917,0,1,1,1.21-1.377l.208.183a.916.916,0,0,1-.6,1.606Zm130-3.484a.917.917,0,0,1-.637-1.576l.2-.191a.917.917,0,1,1,1.28,1.313l-.2.2A.913.913,0,0,1,488.445,323.7Zm-133.89-.1a.915.915,0,0,1-.639-.259l-.2-.2a.916.916,0,0,1,1.282-1.31l.2.193a.916.916,0,0,1-.639,1.574Zm137.588-3.684a.917.917,0,0,1-.674-1.537l.189-.206a.917.917,0,0,1,1.349,1.242l-.189.205A.915.915,0,0,1,492.142,319.909ZM350.863,319.8a.912.912,0,0,1-.675-.3l-.187-.2a.916.916,0,1,1,1.347-1.244l.189.206a.917.917,0,0,1-.674,1.537Zm144.765-3.877a.916.916,0,0,1-.7-1.5l.175-.212a.917.917,0,0,1,1.415,1.166l-.181.218A.913.913,0,0,1,495.628,315.921Zm-148.242-.113a.914.914,0,0,1-.708-.333l-.176-.213a.917.917,0,0,1,1.413-1.169l.178.216a.916.916,0,0,1-.707,1.5Zm151.506-4.058a.917.917,0,0,1-.737-1.461l.166-.225a.917.917,0,1,1,1.476,1.088l-.166.225A.916.916,0,0,1,498.892,311.75Zm-154.76-.115a.916.916,0,0,1-.738-.372l-.166-.226a.917.917,0,1,1,1.477-1.086l.163.222a.916.916,0,0,1-.736,1.461Zm157.79-4.23a.917.917,0,0,1-.765-1.421l.152-.232a.917.917,0,1,1,1.534,1l-.154.235A.917.917,0,0,1,501.922,307.405Zm-160.81-.112a.916.916,0,0,1-.768-.415l-.152-.232a.916.916,0,1,1,1.533-1l.152.233a.917.917,0,0,1-.766,1.419Zm163.6-4.395a.917.917,0,0,1-.792-1.377l.139-.24a.917.917,0,0,1,1.587.918l-.141.244A.917.917,0,0,1,504.71,302.9Zm-166.376-.106a.915.915,0,0,1-.793-.456l-.14-.242a.917.917,0,1,1,1.587-.918l.138.239a.918.918,0,0,1-.791,1.378Zm168.914-4.549a.917.917,0,0,1-.816-1.334l.125-.247a.917.917,0,1,1,1.636.829l-.128.251A.917.917,0,0,1,507.248,298.244Zm-171.438-.1a.917.917,0,0,1-.819-.5l-.124-.245a.917.917,0,1,1,1.633-.833l.127.25a.917.917,0,0,1-.817,1.331Zm173.713-4.693a.9.9,0,0,1-.37-.079.917.917,0,0,1-.468-1.209l.111-.252a.917.917,0,1,1,1.681.733l-.115.26A.916.916,0,0,1,509.524,293.454Zm-175.977-.082a.917.917,0,0,1-.84-.548l-.111-.253a.916.916,0,1,1,1.677-.74l.113.256a.918.918,0,0,1-.839,1.286Zm177.985-4.827a.917.917,0,0,1-.858-1.24l.1-.261a.917.917,0,1,1,1.717.644l-.1.264A.918.918,0,0,1,511.532,288.545Zm-179.981-.065a.917.917,0,0,1-.859-.6l-.1-.261a.916.916,0,1,1,1.717-.643l.1.261a.916.916,0,0,1-.537,1.179A.9.9,0,0,1,331.551,288.48Zm181.713-4.951a.917.917,0,0,1-.874-1.192l.083-.266a.917.917,0,1,1,1.749.547l-.084.269A.916.916,0,0,1,513.265,283.529Zm-183.439-.054a.916.916,0,0,1-.874-.642l-.084-.269a.917.917,0,1,1,1.75-.545l.082.263a.916.916,0,0,1-.6,1.15A.9.9,0,0,1,329.826,283.475Zm184.887-5.039a.917.917,0,0,1-.888-1.144l.067-.264a.917.917,0,0,1,1.779.442l-.07.276A.917.917,0,0,1,514.713,278.436Zm-186.332-.054a.917.917,0,0,1-.888-.692l-.068-.27a.917.917,0,1,1,1.777-.45l.068.27a.917.917,0,0,1-.663,1.114A.927.927,0,0,1,328.381,278.383Zm187.494-5.111a.89.89,0,0,1-.185-.019.917.917,0,0,1-.714-1.082l.051-.262a.916.916,0,0,1,1.8.345l-.056.286A.916.916,0,0,1,515.875,273.272Zm-188.654-.055a.917.917,0,0,1-.9-.742l-.054-.275a.916.916,0,1,1,1.8-.347l.053.272a.917.917,0,0,1-.724,1.075A.945.945,0,0,1,327.221,273.217Zm189.528-5.166a.939.939,0,0,1-.129-.009.917.917,0,0,1-.779-1.036l.038-.272a.917.917,0,1,1,1.816.248l-.039.281A.918.918,0,0,1,516.749,268.051ZM326.35,268a.917.917,0,0,1-.907-.79l-.038-.278a.917.917,0,0,1,1.816-.248l.037.273a.916.916,0,0,1-.78,1.035A.933.933,0,0,1,326.35,268Zm190.984-5.206c-.025,0-.051,0-.077,0a.917.917,0,0,1-.838-.989l.023-.278a.917.917,0,0,1,1.827.151l-.023.278A.918.918,0,0,1,517.334,262.789Zm-191.565-.055a.916.916,0,0,1-.912-.841l-.023-.278a.917.917,0,0,1,1.827-.151l.023.278a.916.916,0,0,1-.838.989C325.82,262.733,325.794,262.734,325.769,262.734ZM517.628,257.5H517.6a.915.915,0,0,1-.89-.941l.008-.274a.93.93,0,0,1,.938-.895.917.917,0,0,1,.9.938l-.008.28A.918.918,0,0,1,517.628,257.5Zm-192.15-.054a.917.917,0,0,1-.916-.892l-.007-.278a.917.917,0,0,1,.892-.941.928.928,0,0,1,.941.892l.007.278a.917.917,0,0,1-.892.941Zm192.156-5.239a.917.917,0,0,1-.916-.895l-.008-.272a.917.917,0,0,1,1.833-.054l.007.283a.916.916,0,0,1-.895.938Zm-192.157-.054h-.025a.917.917,0,0,1-.892-.941l.007-.278a.917.917,0,0,1,1.833.049l-.008.278A.917.917,0,0,1,325.476,252.154Zm191.874-5.231a.917.917,0,0,1-.913-.841l-.023-.277a.917.917,0,0,1,1.827-.151l.023.277a.917.917,0,0,1-.838.989C517.4,246.922,517.375,246.923,517.35,246.923Zm-191.588-.055c-.025,0-.051,0-.077,0a.916.916,0,0,1-.838-.989l.023-.278a.917.917,0,0,1,1.827.151l-.023.278A.916.916,0,0,1,325.762,246.868Zm191.016-5.208a.917.917,0,0,1-.907-.792l-.038-.276a.917.917,0,0,1,1.816-.249l.038.276a.917.917,0,0,1-.784,1.032A.943.943,0,0,1,516.778,241.661Zm-190.441-.055a.952.952,0,0,1-.126-.008.917.917,0,0,1-.784-1.033l.034-.245a.934.934,0,0,1,1.037-.8.9.9,0,0,1,.784,1.018l-.038.274A.917.917,0,0,1,326.337,241.606Zm189.579-5.168a.916.916,0,0,1-.9-.749l-.051-.263a.916.916,0,1,1,1.8-.356l.055.285a.917.917,0,0,1-.9,1.084ZM327.2,236.384a.948.948,0,0,1-.177-.017.917.917,0,0,1-.724-1.075l.054-.274a.917.917,0,1,1,1.8.351l-.053.274A.917.917,0,0,1,327.2,236.384Zm187.565-5.113a.918.918,0,0,1-.889-.7l-.067-.265a.916.916,0,1,1,1.776-.453l.07.276a.917.917,0,0,1-.668,1.111A.93.93,0,0,1,514.767,231.271Zm-186.413-.054a.932.932,0,0,1-.225-.028.917.917,0,0,1-.665-1.113l.069-.27a.917.917,0,0,1,1.777.448l-.068.27A.917.917,0,0,1,328.354,231.217Zm184.976-5.042a.917.917,0,0,1-.875-.646l-.082-.261a.917.917,0,0,1,1.749-.551l.085.271a.918.918,0,0,1-.876,1.188Zm-183.538-.053a.918.918,0,0,1-.875-1.191l.084-.268a.917.917,0,1,1,1.749.549l-.084.266A.917.917,0,0,1,329.793,226.122Zm181.823-4.955a.917.917,0,0,1-.859-.6l-.1-.256a.917.917,0,0,1,1.716-.647l.1.266a.917.917,0,0,1-.859,1.236Zm-180.1-.064a.918.918,0,0,1-.858-1.24l.1-.262a.916.916,0,0,1,1.715.647l-.1.261A.918.918,0,0,1,331.516,221.1Zm178.113-4.832a.916.916,0,0,1-.84-.549l-.112-.253a.917.917,0,0,1,1.678-.738l.112.255a.917.917,0,0,1-.839,1.285Zm-176.114-.081a.918.918,0,0,1-.839-1.286l.115-.26a.917.917,0,0,1,1.675.746l-.111.251A.917.917,0,0,1,333.515,216.19Zm173.858-4.7a.917.917,0,0,1-.822-.509l-.121-.238a.917.917,0,0,1,1.632-.835l.13.257a.917.917,0,0,1-.821,1.324ZM335.782,211.4a.917.917,0,0,1-.816-1.332l.128-.251a.916.916,0,0,1,1.632.835l-.125.246A.917.917,0,0,1,335.782,211.4Zm169.075-4.555a.917.917,0,0,1-.8-.461l-.136-.237a.917.917,0,0,1,1.585-.92l.142.245a.917.917,0,0,1-.795,1.373Zm-166.547-.1a.917.917,0,0,1-.793-1.375l.141-.244a.917.917,0,0,1,1.585.922l-.139.239A.916.916,0,0,1,338.31,206.737Zm163.779-4.4a.916.916,0,0,1-.77-.418l-.149-.228a.916.916,0,0,1,1.532-1.007l.156.238a.917.917,0,0,1-.768,1.415Zm-161-.111a.917.917,0,0,1-.766-1.419l.154-.235a.917.917,0,1,1,1.531,1.008l-.152.231A.916.916,0,0,1,341.091,202.226Zm157.985-4.238a.915.915,0,0,1-.74-.375l-.162-.22a.917.917,0,0,1,1.473-1.091l.167.228a.916.916,0,0,1-.739,1.458Zm-154.961-.113a.917.917,0,0,1-.738-1.459l.168-.227a.917.917,0,0,1,1.474,1.09l-.164.221A.915.915,0,0,1,344.115,197.875Zm151.714-4.065a.915.915,0,0,1-.711-.337l-.173-.21a.917.917,0,1,1,1.412-1.169l.181.22a.917.917,0,0,1-.71,1.5ZM347.371,193.7a.917.917,0,0,1-.707-1.5l.18-.218a.917.917,0,0,1,1.41,1.172l-.175.212A.915.915,0,0,1,347.371,193.7Zm144.986-3.883a.913.913,0,0,1-.677-.3l-.184-.2a.917.917,0,1,1,1.346-1.244l.192.209a.917.917,0,0,1-.677,1.534Zm-141.507-.11a.917.917,0,0,1-.674-1.537l.191-.208a.917.917,0,0,1,1.344,1.247l-.187.2A.913.913,0,0,1,350.851,189.7Zm137.822-3.691a.912.912,0,0,1-.644-.265l-.193-.188a.917.917,0,1,1,1.274-1.318l.207.2a.917.917,0,0,1-.644,1.569Zm-134.13-.1a.917.917,0,0,1-.64-1.573l.2-.2a.917.917,0,1,1,1.275,1.318l-.2.191A.914.914,0,0,1,354.542,185.909Zm130.242-3.491a.913.913,0,0,1-.6-.227l-.209-.182a.917.917,0,1,1,1.2-1.382l.212.185a.917.917,0,0,1-.6,1.606Zm-126.35-.1a.917.917,0,0,1-.6-1.608l.212-.184a.917.917,0,1,1,1.2,1.385l-.209.182A.914.914,0,0,1,358.434,182.32Zm122.271-3.281a.914.914,0,0,1-.563-.194l-.22-.172a.917.917,0,0,1,1.128-1.446l.22.172a.917.917,0,0,1-.564,1.639Zm-118.19-.088a.917.917,0,0,1-.565-1.638l.224-.174a.917.917,0,0,1,1.121,1.45l-.215.168A.914.914,0,0,1,362.515,178.951Zm113.932-3.062a.913.913,0,0,1-.521-.163l-.229-.159a.917.917,0,0,1,1.044-1.507l.229.159a.917.917,0,0,1-.523,1.67Zm-109.673-.078a.917.917,0,0,1-.525-1.668l.232-.161a.917.917,0,1,1,1.043,1.508l-.226.157A.913.913,0,0,1,366.773,175.811Zm105.247-2.834a.916.916,0,0,1-.483-.138l-.233-.144a.917.917,0,1,1,.959-1.562l.242.149a.917.917,0,0,1-.485,1.7ZM371.2,172.909a.917.917,0,0,1-.483-1.7l.238-.146a.916.916,0,0,1,.961,1.561l-.235.146A.913.913,0,0,1,371.2,172.909Zm96.244-2.6a.909.909,0,0,1-.435-.11l-.246-.133a.917.917,0,0,1,.872-1.613l.246.133a.917.917,0,0,1-.436,1.723Zm-91.67-.055a.917.917,0,0,1-.44-1.722l.249-.135a.916.916,0,1,1,.869,1.614l-.24.13A.912.912,0,0,1,375.769,170.255Zm86.948-2.354a.914.914,0,0,1-.392-.088l-.251-.119a.916.916,0,1,1,.78-1.659l.255.121a.917.917,0,0,1-.393,1.745Zm-82.238-.043a.917.917,0,0,1-.394-1.745l.255-.121a.917.917,0,1,1,.78,1.659l-.248.117A.914.914,0,0,1,380.48,167.858Zm77.387-2.1a.911.911,0,0,1-.348-.069l-.255-.1a.917.917,0,0,1,.688-1.7l.263.108a.917.917,0,0,1-.349,1.765Zm-72.554-.03a.917.917,0,0,1-.347-1.766l.259-.105a.917.917,0,0,1,.689,1.7l-.254.1A.913.913,0,0,1,385.314,165.725Zm67.591-1.844a.912.912,0,0,1-.3-.05l-.267-.092a.917.917,0,0,1,.6-1.733l.263.091a.917.917,0,0,1-.3,1.784Zm-62.65-.018a.917.917,0,0,1-.3-1.783l.266-.091a.917.917,0,1,1,.594,1.734l-.261.09A.917.917,0,0,1,390.255,163.864Zm57.6-1.574a.9.9,0,0,1-.248-.035l-.27-.076a.917.917,0,0,1,.5-1.765l.267.076a.917.917,0,0,1-.247,1.8Zm-52.549-.014a.917.917,0,0,1-.251-1.8l.271-.077a.917.917,0,0,1,.5,1.765l-.265.075A.905.905,0,0,1,395.305,162.275Zm47.42-1.294a.914.914,0,0,1-.2-.022l-.271-.061a.917.917,0,0,1,.4-1.789l.273.061a.917.917,0,0,1-.2,1.811Zm-42.29-.012a.917.917,0,0,1-.2-1.811l.275-.062a.917.917,0,0,1,.4,1.789l-.269.06A.916.916,0,0,1,400.436,160.97Zm37.093-1.01a.86.86,0,0,1-.149-.013l-.055-.009-.217-.036a.917.917,0,0,1,.3-1.809l.223.037a.941.941,0,0,1,.781,1.06A.9.9,0,0,1,437.529,159.96Zm-31.9-.009a.917.917,0,0,1-.15-1.821l.277-.046a.917.917,0,1,1,.3,1.809l-.272.045A.936.936,0,0,1,405.63,159.951Zm26.658-.723a.885.885,0,0,1-.1-.006l-.276-.03a.917.917,0,0,1,.2-1.822l.277.03a.917.917,0,0,1-.1,1.828Zm-21.415-.006a.917.917,0,0,1-.1-1.828l.276-.03a.917.917,0,0,1,.2,1.822l-.277.03A.976.976,0,0,1,410.873,159.222Zm16.141-.437h-.049l-.278-.015a.917.917,0,0,1-.867-.964.906.906,0,0,1,.964-.867l.279.015a.917.917,0,0,1-.048,1.832Zm-10.865,0a.917.917,0,0,1-.05-1.832l.278-.016a.917.917,0,0,1,.1,1.831l-.277.015Zm5.572-.15h-.279a.917.917,0,0,1,0-1.833h.283a.917.917,0,0,1,0,1.833Z" transform="translate(-324.554 -156.799)" fill="#cecece"/>
      <path id="Path_3" data-name="Path 3" d="M484.078,379.35h-.19a.6.6,0,0,1,0-1.19h.326a.6.6,0,1,1,0,1.19Zm3.394-.091a.6.6,0,0,1-.032-1.189l.18-.01a.584.584,0,0,1,.627.561.594.594,0,0,1-.561.627l-.181.01Zm-6.834,0h-.033l-.185-.01a.6.6,0,1,1,.074-1.188l.177.01a.6.6,0,0,1-.032,1.189Zm10.258-.277a.6.6,0,0,1-.065-1.187l.179-.02a.6.6,0,1,1,.131,1.183l-.18.02A.6.6,0,0,1,490.9,378.98Zm-13.682,0c-.022,0-.044,0-.066,0l-.184-.021a.6.6,0,1,1,.139-1.182l.176.02a.6.6,0,0,1-.065,1.187Zm17.087-.464a.595.595,0,0,1-.093-1.182l.174-.029a.6.6,0,0,1,.2,1.174l-.183.03A.58.58,0,0,1,494.3,378.512Zm-20.491-.005a.631.631,0,0,1-.1-.008l-.178-.03a.6.6,0,1,1,.2-1.174l.179.03a.6.6,0,0,1-.1,1.182Zm23.864-.65a.6.6,0,0,1-.127-1.176l.173-.039a.595.595,0,1,1,.262,1.16l-.179.041A.6.6,0,0,1,497.674,377.857Zm-27.236-.007a.6.6,0,0,1-.132-.015l-.176-.04a.595.595,0,1,1,.262-1.16l.177.04a.6.6,0,0,1-.13,1.176Zm30.568-.834a.6.6,0,0,1-.16-1.168l.171-.048a.595.595,0,1,1,.327,1.144l-.177.05A.577.577,0,0,1,501.006,377.016Zm-33.9-.009a.6.6,0,0,1-.164-.023l-.173-.05a.595.595,0,1,1,.327-1.144l.174.05a.6.6,0,0,1-.164,1.167Zm37.18-1.016a.6.6,0,0,1-.192-1.158l.166-.057a.6.6,0,1,1,.394,1.123l-.176.061A.6.6,0,0,1,504.287,375.99Zm-40.46-.011a.6.6,0,0,1-.192-.032l-.176-.061a.595.595,0,1,1,.393-1.123l.167.058a.6.6,0,0,1-.192,1.158Zm43.671-1.192a.6.6,0,0,1-.22-1.148l.161-.065a.595.595,0,1,1,.452,1.1l-.172.07A.6.6,0,0,1,507.5,374.787Zm-46.9-.019a.594.594,0,0,1-.224-.044l-.172-.071a.595.595,0,1,1,.457-1.1l.164.067a.6.6,0,0,1-.225,1.146Zm50.036-1.36a.595.595,0,0,1-.257-1.132l.165-.078a.6.6,0,1,1,.509,1.076l-.161.076A.592.592,0,0,1,510.638,373.408Zm-53.187-.027a.589.589,0,0,1-.253-.057l-.167-.08a.595.595,0,1,1,.514-1.073l.16.076a.6.6,0,0,1-.254,1.134Zm56.248-1.524a.6.6,0,0,1-.284-1.118l.158-.086a.6.6,0,0,1,.568,1.046l-.158.086A.594.594,0,0,1,513.7,371.858Zm-59.315-.035a.59.59,0,0,1-.282-.072l-.164-.089a.6.6,0,0,1,.574-1.043l.154.084a.6.6,0,0,1-.283,1.119Zm62.287-1.683a.6.6,0,0,1-.313-1.1l.153-.095a.6.6,0,0,1,.625,1.013l-.153.094A.592.592,0,0,1,516.671,370.14Zm-65.264-.043a.592.592,0,0,1-.31-.088l-.158-.1a.6.6,0,0,1,.63-1.01l.15.093a.595.595,0,0,1-.312,1.1Zm68.138-1.835a.6.6,0,0,1-.338-1.085l.146-.1a.595.595,0,1,1,.681.976l-.151.105A.592.592,0,0,1,519.545,368.262Zm-71.014-.05a.592.592,0,0,1-.339-.106l-.152-.107a.595.595,0,1,1,.686-.972l.145.1a.6.6,0,0,1-.34,1.084Zm73.781-1.983a.6.6,0,0,1-.367-1.064l.143-.112a.6.6,0,1,1,.733.938l-.142.111A.592.592,0,0,1,522.312,366.228Zm-76.549-.057a.591.591,0,0,1-.365-.125l-.143-.112a.595.595,0,1,1,.732-.938l.141.11a.6.6,0,0,1-.365,1.065Zm79.207-2.135a.591.591,0,0,1-.4-1.033l.134-.117a.6.6,0,1,1,.787.893l-.123.108A.609.609,0,0,1,524.969,364.035Zm-81.859-.053a.594.594,0,0,1-.39-.146l-.137-.119a.595.595,0,1,1,.781-.9l.135.118a.595.595,0,0,1-.39,1.044Zm84.384-2.262a.595.595,0,0,1-.417-1.02l.132-.128a.595.595,0,1,1,.829.854l-.127.124A.594.594,0,0,1,527.494,361.721Zm-86.911-.068a.594.594,0,0,1-.414-.168l-.133-.13a.595.595,0,1,1,.835-.847l.126.123a.6.6,0,0,1-.415,1.022Zm89.311-2.392a.6.6,0,0,1-.437-1l.121-.131a.6.6,0,0,1,.877.8l-.124.135A.6.6,0,0,1,529.894,359.261Zm-91.706-.072a.6.6,0,0,1-.438-.192l-.121-.132a.595.595,0,1,1,.874-.808l.123.134a.6.6,0,0,1-.437,1Zm93.969-2.516a.6.6,0,0,1-.459-.973l.115-.14a.595.595,0,1,1,.92.755l-.116.14A.594.594,0,0,1,532.157,356.674ZM435.93,356.6a.594.594,0,0,1-.459-.216l-.116-.141a.595.595,0,0,1,.92-.755l.114.139a.6.6,0,0,1-.458.974Zm98.345-2.636a.595.595,0,0,1-.479-.947l.107-.146a.595.595,0,0,1,.958.7l-.107.146A.594.594,0,0,1,534.275,353.964Zm-100.457-.073a.6.6,0,0,1-.48-.243l-.106-.145a.595.595,0,0,1,.958-.706l.108.146a.6.6,0,0,1-.479.948Zm102.424-2.747a.6.6,0,0,1-.5-.924l.1-.15a.6.6,0,0,1,1,.653l-.1.153A.594.594,0,0,1,536.242,351.144Zm-104.384-.072a.6.6,0,0,1-.5-.268l-.1-.153a.595.595,0,1,1,1-.65l.1.149a.6.6,0,0,1-.5.922Zm106.195-2.853a.595.595,0,0,1-.515-.893l.091-.157a.6.6,0,0,1,1.03.6l-.091.157A.594.594,0,0,1,538.053,348.219Zm-108-.068a.594.594,0,0,1-.515-.3l-.091-.158a.595.595,0,1,1,1.031-.593l.089.154a.6.6,0,0,1-.514.894ZM539.7,345.2a.587.587,0,0,1-.269-.065.594.594,0,0,1-.262-.8l.083-.163a.595.595,0,1,1,1.061.539l-.082.161A.6.6,0,0,1,539.7,345.2Zm-111.282-.063a.6.6,0,0,1-.531-.326l-.082-.162a.6.6,0,0,1,1.063-.536l.081.159a.6.6,0,0,1-.262.8A.589.589,0,0,1,428.417,345.135Zm112.759-3.047a.6.6,0,0,1-.544-.835l.072-.165a.6.6,0,0,1,1.091.476l-.074.168A.594.594,0,0,1,541.176,342.089Zm-114.229-.053a.6.6,0,0,1-.544-.354l-.074-.168a.6.6,0,1,1,1.091-.476l.071.162a.6.6,0,0,1-.3.785A.6.6,0,0,1,426.947,342.035ZM542.48,338.9a.6.6,0,0,1-.556-.806l.062-.167a.6.6,0,1,1,1.115.416l-.066.173A.6.6,0,0,1,542.48,338.9Zm-116.828-.042a.6.6,0,0,1-.557-.386l-.063-.17a.6.6,0,0,1,1.114-.418l.064.17a.6.6,0,0,1-.557.8ZM543.6,335.646a.594.594,0,0,1-.568-.773l.054-.171a.6.6,0,1,1,1.137.351l-.055.177A.6.6,0,0,1,543.6,335.646Zm-119.072-.034a.6.6,0,0,1-.568-.418l-.054-.173a.595.595,0,1,1,1.136-.354l.054.172a.6.6,0,0,1-.39.746A.587.587,0,0,1,424.532,335.612Zm120.013-3.272a.6.6,0,0,1-.577-.742l.044-.172a.595.595,0,1,1,1.154.287l-.045.179A.6.6,0,0,1,544.545,332.34Zm-120.951-.034a.6.6,0,0,1-.576-.45l-.044-.174a.595.595,0,1,1,1.153-.293l.044.176a.6.6,0,0,1-.577.741ZM545.3,328.988a.583.583,0,0,1-.116-.012.594.594,0,0,1-.469-.7l.035-.177a.595.595,0,1,1,1.168.228l-.035.179A.6.6,0,0,1,545.3,328.988Zm-122.458-.035a.6.6,0,0,1-.583-.48l-.027-.141a.612.612,0,0,1,.467-.716.578.578,0,0,1,.693.452l.034.175a.6.6,0,0,1-.584.71ZM545.867,325.6a.639.639,0,0,1-.082-.006.6.6,0,0,1-.508-.672l.025-.179a.6.6,0,1,1,1.179.164l-.025.179A.6.6,0,0,1,545.867,325.6Zm-123.591-.035a.6.6,0,0,1-.588-.513l-.022-.16a.6.6,0,0,1,.508-.68.587.587,0,0,1,.668.5l.024.177a.6.6,0,0,1-.59.677Zm123.97-3.38-.05,0a.6.6,0,0,1-.544-.642l.015-.18a.6.6,0,0,1,1.186.1l-.015.18A.6.6,0,0,1,546.246,322.184ZM421.9,322.148a.6.6,0,0,1-.592-.546l-.015-.182a.595.595,0,1,1,1.186-.094l.015.178a.6.6,0,0,1-.544.642Zm124.539-3.4h-.017a.6.6,0,0,1-.579-.611l.005-.181a.595.595,0,1,1,1.189.033l0,.181A.6.6,0,0,1,546.437,318.752Zm-124.727-.036a.6.6,0,0,1-.595-.579l0-.182a.6.6,0,0,1,1.19-.029l0,.178a.6.6,0,0,1-.578.611Zm124.73-3.4a.6.6,0,0,1-.594-.578l0-.18a.595.595,0,0,1,1.189-.033l0,.18a.6.6,0,0,1-.579.611Zm-124.731-.035h-.017a.6.6,0,0,1-.578-.611l0-.181a.6.6,0,0,1,1.19.033l0,.181A.6.6,0,0,1,421.709,315.281Zm124.547-3.4a.594.594,0,0,1-.592-.55l-.014-.176a.6.6,0,0,1,1.186-.1l.014.184a.6.6,0,0,1-.548.638Zm-124.362-.035-.05,0a.6.6,0,0,1-.544-.642l.015-.181a.595.595,0,0,1,1.186.1l-.015.18A.6.6,0,0,1,421.894,311.849Zm123.991-3.381a.6.6,0,0,1-.589-.517l-.024-.176a.6.6,0,0,1,1.179-.164l.025.183a.6.6,0,0,1-.511.668A.605.605,0,0,1,545.885,308.468Zm-123.618-.035a.655.655,0,0,1-.083-.006.6.6,0,0,1-.508-.672l.025-.179a.6.6,0,1,1,1.179.164l-.025.179A.6.6,0,0,1,422.267,308.434Zm123.058-3.356a.6.6,0,0,1-.584-.484l-.034-.174a.6.6,0,0,1,1.168-.229l.035.182a.6.6,0,0,1-.474.7A.6.6,0,0,1,545.326,305.078Zm-122.5-.034a.568.568,0,0,1-.113-.011.6.6,0,0,1-.472-.7l.035-.179a.595.595,0,1,1,1.167.229l-.034.176A.6.6,0,0,1,422.828,305.044Zm121.751-3.32a.6.6,0,0,1-.577-.452l-.044-.171a.6.6,0,0,1,1.153-.3l.045.18a.6.6,0,0,1-.434.721A.614.614,0,0,1,544.579,301.724Zm-121-.034a.6.6,0,0,1-.577-.741l.044-.176a.595.595,0,1,1,1.154.291l-.044.175A.6.6,0,0,1,423.577,301.69Zm120.071-3.273a.6.6,0,0,1-.569-.419l-.052-.168a.595.595,0,1,1,1.134-.36l.056.177a.6.6,0,0,1-.393.744A.586.586,0,0,1,543.648,298.417Zm-119.138-.034a.588.588,0,0,1-.177-.027.594.594,0,0,1-.391-.745l.055-.176a.6.6,0,0,1,1.135.359l-.054.171A.6.6,0,0,1,424.51,298.383Zm118.024-3.217a.6.6,0,0,1-.557-.386l-.063-.17a.595.595,0,0,1,1.114-.418l.063.17a.594.594,0,0,1-.557.8Zm-116.905-.041a.6.6,0,0,1-.557-.8l.065-.172a.595.595,0,1,1,1.112.422l-.063.167A.6.6,0,0,1,425.629,295.125Zm115.616-3.137a.6.6,0,0,1-.545-.357l-.072-.164a.6.6,0,0,1,1.09-.479l.072.166a.6.6,0,0,1-.545.834Zm-114.318-.052a.6.6,0,0,1-.545-.834l.075-.169a.595.595,0,0,1,1.087.484l-.072.163A.6.6,0,0,1,426.926,291.936Zm112.854-3.051a.6.6,0,0,1-.533-.331l-.078-.154a.595.595,0,0,1,1.059-.542l.085.167a.595.595,0,0,1-.532.859ZM428.4,288.824a.6.6,0,0,1-.531-.864l.083-.163a.6.6,0,0,1,1.06.54l-.082.161A.6.6,0,0,1,428.4,288.824Zm109.749-2.957a.6.6,0,0,1-.519-.3l-.086-.149a.6.6,0,0,1,1.028-.6l.094.163a.6.6,0,0,1-.517.888ZM430.039,285.8a.6.6,0,0,1-.514-.894l.092-.158a.6.6,0,0,1,1.027.6l-.09.154A.6.6,0,0,1,430.039,285.8Zm106.31-2.858a.6.6,0,0,1-.5-.27l-.1-.147a.6.6,0,1,1,.993-.656l.1.155a.595.595,0,0,1-.5.919Zm-104.506-.071a.6.6,0,0,1-.5-.921l.1-.153a.6.6,0,1,1,.994.655l-.1.15A.594.594,0,0,1,431.844,282.872Zm102.55-2.752a.594.594,0,0,1-.48-.244l-.106-.143a.6.6,0,0,1,.958-.707l.109.147a.6.6,0,0,1-.48.946Zm-100.588-.073a.6.6,0,0,1-.479-.948l.109-.148a.595.595,0,0,1,.955.709l-.106.143A.594.594,0,0,1,433.807,280.047Zm98.48-2.639a.593.593,0,0,1-.458-.215l-.117-.142a.6.6,0,0,1,.92-.755l.113.137a.6.6,0,0,1-.457.975Zm-96.366-.073a.595.595,0,0,1-.459-.974l.115-.14a.6.6,0,0,1,.918.758l-.115.14A.593.593,0,0,1,435.921,277.335Zm94.112-2.521a.593.593,0,0,1-.436-.191l-.124-.134a.595.595,0,1,1,.876-.806l.121.132a.595.595,0,0,1-.437,1Zm-91.854-.071a.6.6,0,0,1-.437-1l.124-.134a.595.595,0,0,1,.873.808l-.122.132A.593.593,0,0,1,438.179,274.743Zm89.463-2.4a.593.593,0,0,1-.416-.169l-.128-.125a.595.595,0,1,1,.829-.853l.131.127a.595.595,0,0,1-.416,1.021Zm-87.066-.067a.6.6,0,0,1-.416-1.021l.132-.128a.595.595,0,0,1,.827.856l-.128.124A.592.592,0,0,1,440.575,272.28Zm84.543-2.267a.593.593,0,0,1-.39-.146l-.136-.119a.595.595,0,1,1,.78-.9l.137.119a.595.595,0,0,1-.39,1.044ZM443.1,269.95a.595.595,0,0,1-.391-1.043l.137-.12a.595.595,0,0,1,.78.9l-.135.117A.591.591,0,0,1,443.1,269.95Zm79.368-2.13a.594.594,0,0,1-.367-.127l-.141-.11a.6.6,0,0,1,.731-.939l.145.113a.6.6,0,0,1-.368,1.063Zm-76.719-.057a.6.6,0,0,1-.366-1.065l.143-.111a.595.595,0,1,1,.73.939l-.142.111A.592.592,0,0,1,445.751,267.764Zm73.954-1.988a.592.592,0,0,1-.338-.106l-.151-.1a.6.6,0,0,1,.681-.976l.147.1a.595.595,0,0,1-.339,1.084Zm-71.191-.051a.595.595,0,0,1-.341-1.083l.151-.1a.595.595,0,0,1,.676.979l-.146.1A.592.592,0,0,1,448.515,265.725Zm68.317-1.84a.588.588,0,0,1-.312-.089l-.153-.094a.6.6,0,0,1,.622-1.015l.156.1a.595.595,0,0,1-.313,1.1Zm-65.446-.043a.6.6,0,0,1-.313-1.1l.154-.1a.6.6,0,1,1,.624,1.013l-.153.094A.594.594,0,0,1,451.385,263.841Zm62.473-1.687a.593.593,0,0,1-.283-.072l-.16-.086a.6.6,0,0,1,.568-1.046l.159.086a.6.6,0,0,1-.284,1.118Zm-59.5-.036a.595.595,0,0,1-.285-1.118l.16-.087a.595.595,0,1,1,.565,1.047l-.157.085A.593.593,0,0,1,454.354,262.119Zm56.439-1.529a.592.592,0,0,1-.256-.058l-.161-.076a.595.595,0,1,1,.506-1.077l.167.079a.6.6,0,0,1-.257,1.132Zm-53.382-.027a.6.6,0,0,1-.256-1.133l.165-.078a.595.595,0,1,1,.506,1.077l-.161.076A.593.593,0,0,1,457.412,260.563Zm50.233-1.365a.591.591,0,0,1-.224-.044l-.168-.069a.595.595,0,1,1,.449-1.1l.168.069a.595.595,0,0,1-.225,1.146Zm-47.1-.019a.6.6,0,0,1-.224-1.146l.167-.068a.6.6,0,1,1,.448,1.1l-.167.068A.59.59,0,0,1,460.549,259.178Zm43.874-1.2a.587.587,0,0,1-.193-.033l-.172-.059a.595.595,0,1,1,.387-1.125l.172.059a.595.595,0,0,1-.194,1.158Zm-40.667-.012a.6.6,0,0,1-.195-1.157l.174-.06a.595.595,0,1,1,.385,1.126l-.169.058A.6.6,0,0,1,463.757,257.97Zm37.389-1.022a.607.607,0,0,1-.163-.023l-.173-.049a.6.6,0,1,1,.323-1.145l.175.049a.6.6,0,0,1-.162,1.167Zm-34.111-.01a.595.595,0,0,1-.162-1.167l.174-.049a.595.595,0,1,1,.323,1.145l-.173.049A.592.592,0,0,1,467.035,256.939Zm30.781-.84a.613.613,0,0,1-.13-.014l-.176-.039a.595.595,0,1,1,.257-1.161l.177.039a.6.6,0,0,1-.129,1.176Zm-27.451-.008a.6.6,0,0,1-.131-1.176l.179-.04a.595.595,0,1,1,.258,1.161l-.174.039A.586.586,0,0,1,470.365,256.091Zm24.08-.655a.593.593,0,0,1-.1-.008l-.177-.029a.595.595,0,1,1,.193-1.174l.18.03a.6.6,0,0,1-.1,1.182Zm-20.708-.006a.6.6,0,0,1-.1-1.182l.18-.03a.595.595,0,0,1,.193,1.174l-.177.03A.63.63,0,0,1,473.737,255.43Zm17.3-.47c-.021,0-.043,0-.065,0l-.178-.02a.595.595,0,1,1,.127-1.183l.149.016a.61.61,0,0,1,.542.658A.583.583,0,0,1,491.041,254.96Zm-13.9,0a.6.6,0,0,1-.065-1.187l.182-.02a.6.6,0,0,1,.127,1.183l-.177.019A.61.61,0,0,1,477.14,254.957Zm10.477-.283h-.034l-.178-.01a.595.595,0,1,1,.061-1.188l.183.01a.6.6,0,0,1-.032,1.189Zm-7.052,0a.6.6,0,0,1-.032-1.189l.183-.009a.595.595,0,1,1,.061,1.188l-.179.01Zm3.617-.1H484a.6.6,0,1,1,0-1.19h.181a.6.6,0,1,1,0,1.19Z" transform="translate(-387.075 -219.338)" fill="#cecece"/>
      <path id="Path_4" data-name="Path 4" d="M516.4,394.08h-.137a.429.429,0,0,1,0-.858h.235a.429.429,0,1,1,0,.858Zm2.446-.065a.429.429,0,0,1-.023-.857l.13-.007a.42.42,0,0,1,.451.4.428.428,0,0,1-.4.452l-.13.007Zm-4.924,0H513.9l-.133-.008a.429.429,0,1,1,.053-.856l.127.007a.429.429,0,0,1-.023.857Zm7.391-.2a.429.429,0,0,1-.047-.855l.129-.014a.429.429,0,1,1,.095.852l-.13.014Zm-9.858,0-.048,0-.132-.015a.429.429,0,1,1,.1-.852l.127.014a.429.429,0,0,1-.047.855Zm12.311-.334a.429.429,0,0,1-.067-.852l.125-.021a.429.429,0,1,1,.142.846l-.131.022A.414.414,0,0,1,523.764,393.476Zm-14.764,0a.445.445,0,0,1-.071-.006l-.129-.022a.429.429,0,0,1,.141-.846l.129.022a.429.429,0,0,1-.07.852ZM526.194,393a.429.429,0,0,1-.092-.847l.125-.028a.429.429,0,1,1,.189.836l-.129.029A.415.415,0,0,1,526.194,393Zm-19.625,0a.421.421,0,0,1-.1-.011l-.127-.029a.429.429,0,1,1,.189-.836l.128.029a.429.429,0,0,1-.094.847Zm22.026-.6a.429.429,0,0,1-.116-.841l.123-.035a.429.429,0,0,1,.236.824l-.128.036A.414.414,0,0,1,528.6,392.4Zm-24.427-.007a.431.431,0,0,1-.118-.017l-.125-.036a.429.429,0,1,1,.235-.824l.126.036a.429.429,0,0,1-.118.841Zm26.79-.732a.429.429,0,0,1-.138-.835l.12-.041a.429.429,0,0,1,.284.809l-.127.044A.43.43,0,0,1,530.959,391.659Zm-29.153-.008a.43.43,0,0,1-.138-.023l-.127-.044a.429.429,0,0,1,.283-.809l.12.042a.429.429,0,0,1-.138.835Zm31.467-.859a.429.429,0,0,1-.159-.827l.116-.047a.429.429,0,0,1,.325.793l-.124.05A.425.425,0,0,1,533.273,390.791Zm-33.79-.013a.43.43,0,0,1-.162-.032l-.124-.051a.429.429,0,0,1,.33-.791l.118.048a.429.429,0,0,1-.162.826Zm36.053-.98a.429.429,0,0,1-.185-.816l.118-.056a.429.429,0,1,1,.367.775l-.116.055A.428.428,0,0,1,535.535,389.8Zm-38.323-.019a.428.428,0,0,1-.183-.041l-.121-.057a.429.429,0,0,1,.37-.773l.116.055a.429.429,0,0,1-.183.817Zm40.529-1.1a.429.429,0,0,1-.205-.806l.114-.062a.429.429,0,0,1,.409.754l-.114.062A.427.427,0,0,1,537.741,388.681ZM495,388.656a.423.423,0,0,1-.2-.052l-.118-.064a.429.429,0,0,1,.414-.751l.111.061a.429.429,0,0,1-.2.807Zm44.881-1.213a.429.429,0,0,1-.226-.793l.11-.068a.429.429,0,0,1,.451.73l-.11.068A.425.425,0,0,1,539.882,387.443Zm-47.026-.031a.425.425,0,0,1-.223-.063l-.114-.07a.429.429,0,1,1,.454-.728l.108.068a.429.429,0,0,1-.225.794Zm49.1-1.323a.429.429,0,0,1-.244-.782l.105-.073a.429.429,0,0,1,.491.7l-.109.076A.427.427,0,0,1,541.953,386.09Zm-51.169-.036a.427.427,0,0,1-.244-.077l-.11-.077a.429.429,0,0,1,.495-.7l.1.073a.429.429,0,0,1-.245.781Zm53.163-1.429a.429.429,0,0,1-.264-.766l.1-.08a.429.429,0,0,1,.528.676l-.1.08A.427.427,0,0,1,543.947,384.624Zm-55.158-.041a.428.428,0,0,1-.263-.09l-.1-.081a.429.429,0,1,1,.528-.676l.1.079a.429.429,0,0,1-.263.767Zm57.073-1.539a.426.426,0,0,1-.286-.744l.1-.085a.429.429,0,1,1,.567.643l-.088.078A.438.438,0,0,1,545.862,383.045Zm-58.983-.038a.429.429,0,0,1-.281-.105l-.1-.086a.429.429,0,1,1,.563-.646l.1.085a.429.429,0,0,1-.281.753Zm60.8-1.63a.429.429,0,0,1-.3-.735l.1-.092a.429.429,0,1,1,.6.615l-.092.09A.429.429,0,0,1,547.681,381.377Zm-62.623-.049a.428.428,0,0,1-.3-.121l-.1-.093a.429.429,0,1,1,.6-.611l.091.089a.429.429,0,0,1-.3.737ZM549.41,379.6a.429.429,0,0,1-.315-.72l.087-.095a.429.429,0,0,1,.632.579l-.089.1A.429.429,0,0,1,549.41,379.6Zm-66.079-.051a.427.427,0,0,1-.315-.139l-.088-.1a.429.429,0,0,1,.63-.582l.089.1a.429.429,0,0,1-.315.719Zm67.709-1.813a.429.429,0,0,1-.331-.7l.083-.1a.429.429,0,0,1,.663.544l-.083.1A.429.429,0,0,1,551.041,377.74Zm-69.336-.053a.428.428,0,0,1-.331-.156l-.084-.1a.429.429,0,0,1,.663-.544l.082.1a.429.429,0,0,1-.33.7Zm70.862-1.9a.429.429,0,0,1-.345-.682L552.3,375a.429.429,0,1,1,.691.508l-.077.105A.428.428,0,0,1,552.567,375.788Zm-72.384-.053a.428.428,0,0,1-.346-.175l-.077-.1a.429.429,0,0,1,.69-.509l.078.105a.429.429,0,0,1-.345.683Zm73.8-1.98a.429.429,0,0,1-.357-.666l.071-.108a.429.429,0,0,1,.717.47l-.073.111A.429.429,0,0,1,553.984,373.756ZM478.77,373.7a.429.429,0,0,1-.359-.194l-.072-.11a.429.429,0,1,1,.718-.469l.07.107a.429.429,0,0,1-.358.664Zm76.518-2.056a.429.429,0,0,1-.371-.644l.066-.113a.429.429,0,0,1,.742.43l-.066.113A.428.428,0,0,1,555.289,371.648Zm-77.817-.049a.429.429,0,0,1-.371-.214l-.066-.114a.429.429,0,1,1,.743-.427l.064.111a.429.429,0,0,1-.156.586A.424.424,0,0,1,477.471,371.6Zm79-2.127a.429.429,0,0,1-.382-.623l.059-.117a.429.429,0,0,1,.765.388l-.06.116A.428.428,0,0,1,556.475,369.472Zm-80.184-.045a.429.429,0,0,1-.383-.234l-.059-.117a.429.429,0,1,1,.766-.386l.058.115a.429.429,0,0,1-.382.623Zm81.248-2.2a.423.423,0,0,1-.172-.037.428.428,0,0,1-.22-.565l.052-.119a.429.429,0,1,1,.786.343l-.053.121A.428.428,0,0,1,557.539,367.231Zm-82.307-.038a.429.429,0,0,1-.392-.255l-.053-.121a.429.429,0,0,1,.786-.343l.051.117a.429.429,0,0,1-.392.6Zm83.247-2.258a.428.428,0,0,1-.4-.581l.045-.121a.429.429,0,0,1,.8.3l-.047.125A.428.428,0,0,1,558.479,364.935Zm-84.18-.03a.429.429,0,0,1-.4-.278l-.046-.122a.429.429,0,0,1,.8-.3l.046.122a.429.429,0,0,1-.4.58Zm84.991-2.316a.429.429,0,0,1-.409-.557l.038-.123a.429.429,0,0,1,.82.253l-.04.127A.43.43,0,0,1,559.289,362.589Zm-85.8-.025a.428.428,0,0,1-.409-.3l-.039-.125a.429.429,0,1,1,.818-.255l.039.124a.429.429,0,0,1-.409.557Zm86.475-2.358a.429.429,0,0,1-.416-.535l.032-.124a.429.429,0,1,1,.832.207l-.033.129A.428.428,0,0,1,559.967,360.206Zm-87.151-.024a.429.429,0,0,1-.416-.324l-.032-.126a.429.429,0,1,1,.831-.211l.032.127a.428.428,0,0,1-.311.52A.413.413,0,0,1,472.816,360.182Zm87.694-2.391a.4.4,0,0,1-.083-.008.428.428,0,0,1-.337-.5l.025-.127a.429.429,0,0,1,.842.165l-.026.129A.428.428,0,0,1,560.51,357.791Zm-88.237-.025a.429.429,0,0,1-.42-.346l-.02-.1a.441.441,0,0,1,.337-.516.417.417,0,0,1,.5.326l.024.126a.428.428,0,0,1-.338.5A.418.418,0,0,1,472.274,357.766Zm88.646-2.417a.487.487,0,0,1-.06,0,.428.428,0,0,1-.366-.484l.018-.129a.429.429,0,0,1,.85.118l-.018.129A.429.429,0,0,1,560.919,355.349Zm-89.053-.025a.429.429,0,0,1-.424-.37l-.016-.115a.436.436,0,0,1,.366-.49.423.423,0,0,1,.482.359l.017.128a.43.43,0,0,1-.425.488Zm89.326-2.435-.036,0a.428.428,0,0,1-.392-.462l.011-.13a.429.429,0,1,1,.854.07l-.011.13A.429.429,0,0,1,561.192,352.889Zm-89.6-.026a.429.429,0,0,1-.427-.393l-.011-.131a.429.429,0,1,1,.855-.068l.011.128a.429.429,0,0,1-.392.463Zm89.736-2.447h-.012a.429.429,0,0,1-.417-.441l0-.13a.433.433,0,0,1,.44-.417.429.429,0,0,1,.417.441l0,.13A.429.429,0,0,1,561.33,350.416Zm-89.872-.026a.429.429,0,0,1-.429-.417l0-.132a.429.429,0,0,1,.857-.021l0,.129a.429.429,0,0,1-.417.44Zm89.874-2.451a.429.429,0,0,1-.428-.417l0-.13a.429.429,0,0,1,.857-.024l0,.13a.429.429,0,0,1-.417.441Zm-89.875-.025h-.012a.428.428,0,0,1-.417-.44l0-.13a.429.429,0,0,1,.857.024l0,.13A.428.428,0,0,1,471.457,347.914Zm89.742-2.447a.429.429,0,0,1-.427-.4l-.01-.127a.429.429,0,1,1,.855-.071l.011.133a.429.429,0,0,1-.4.46Zm-89.609-.025h-.036a.428.428,0,0,1-.392-.463l.011-.13a.429.429,0,0,1,.854.07l-.011.13A.429.429,0,0,1,471.591,345.442Zm89.341-2.436a.429.429,0,0,1-.424-.373l-.017-.127a.429.429,0,0,1,.85-.118l.018.132a.429.429,0,0,1-.369.481A.447.447,0,0,1,560.932,343.006Zm-89.073-.025a.43.43,0,0,1-.425-.488l.018-.129a.429.429,0,0,1,.849.118l-.018.129A.429.429,0,0,1,471.86,342.981Zm88.67-2.418a.43.43,0,0,1-.421-.349l-.024-.125a.429.429,0,0,1,.842-.165l.025.131a.429.429,0,0,1-.342.5A.419.419,0,0,1,560.529,340.563Zm-88.265-.025a.435.435,0,0,1-.082-.008.428.428,0,0,1-.339-.5l.025-.129a.429.429,0,0,1,.841.165l-.025.127A.429.429,0,0,1,472.264,340.538Zm87.727-2.392a.428.428,0,0,1-.416-.325l-.031-.123a.429.429,0,0,1,.831-.213l.032.129a.428.428,0,0,1-.313.519A.439.439,0,0,1,559.991,338.146Zm-87.188-.024a.417.417,0,0,1-.105-.013.428.428,0,0,1-.311-.52l.032-.127a.429.429,0,1,1,.831.21l-.032.126A.428.428,0,0,1,472.8,338.122Zm86.517-2.359a.429.429,0,0,1-.41-.3l-.038-.121a.429.429,0,1,1,.817-.26l.04.128a.43.43,0,0,1-.41.556Zm-85.844-.025a.438.438,0,0,1-.128-.019.429.429,0,0,1-.282-.537l.04-.127a.429.429,0,1,1,.817.259l-.039.123A.429.429,0,0,1,473.476,335.739Zm85.041-2.318a.429.429,0,0,1-.4-.278l-.046-.122a.429.429,0,1,1,.8-.3l.046.122a.429.429,0,0,1-.251.552A.434.434,0,0,1,558.518,333.421Zm-84.235-.029a.429.429,0,0,1-.4-.579l.047-.124a.429.429,0,0,1,.8.3l-.045.121A.428.428,0,0,1,474.282,333.391Zm83.307-2.261a.429.429,0,0,1-.393-.257l-.052-.118a.429.429,0,0,1,.785-.345l.052.119a.429.429,0,0,1-.392.6Zm-82.372-.037a.429.429,0,0,1-.392-.6l.054-.122a.429.429,0,0,1,.783.349l-.052.117A.428.428,0,0,1,475.217,331.093Zm81.317-2.2a.428.428,0,0,1-.384-.238l-.056-.111a.429.429,0,1,1,.763-.391l.061.121a.429.429,0,0,1-.383.619Zm-80.256-.044a.424.424,0,0,1-.194-.046.429.429,0,0,1-.188-.576l.06-.117a.429.429,0,1,1,.764.39l-.059.116A.429.429,0,0,1,476.278,328.852Zm79.079-2.13a.429.429,0,0,1-.374-.218l-.062-.107a.429.429,0,0,1,.741-.433l.068.118a.429.429,0,0,1-.373.64Zm-77.9-.048a.429.429,0,0,1-.37-.644l.066-.114a.429.429,0,0,1,.74.432l-.065.112A.429.429,0,0,1,477.46,326.673Zm76.6-2.059a.428.428,0,0,1-.36-.2l-.069-.106a.429.429,0,1,1,.715-.473l.073.111a.429.429,0,0,1-.359.663Zm-75.3-.051a.429.429,0,0,1-.358-.663l.072-.11a.429.429,0,1,1,.716.472l-.071.108A.429.429,0,0,1,478.76,324.562Zm73.892-1.982a.429.429,0,0,1-.346-.176l-.076-.1a.429.429,0,0,1,.69-.509l.078.106a.429.429,0,0,1-.346.682Zm-72.478-.053a.429.429,0,0,1-.345-.682l.079-.107a.429.429,0,1,1,.688.511l-.076.1A.427.427,0,0,1,480.174,322.527Zm70.96-1.9a.427.427,0,0,1-.33-.155l-.085-.1a.429.429,0,0,1,.663-.544l.081.1a.429.429,0,0,1-.33.7Zm-69.436-.052a.429.429,0,0,1-.33-.7l.083-.1a.429.429,0,0,1,.661.546l-.083.1A.429.429,0,0,1,481.7,320.573Zm67.812-1.817a.427.427,0,0,1-.314-.137l-.089-.1a.429.429,0,1,1,.631-.581l.087.095a.428.428,0,0,1-.314.72Zm-66.185-.051a.429.429,0,0,1-.315-.719l.089-.1a.429.429,0,1,1,.629.582l-.087.095A.428.428,0,0,1,483.325,318.706Zm64.462-1.727a.427.427,0,0,1-.3-.122l-.093-.09a.429.429,0,1,1,.6-.615l.094.092a.428.428,0,0,1-.3.735Zm-62.735-.048a.429.429,0,0,1-.3-.735l.1-.092a.429.429,0,1,1,.6.616l-.092.09A.427.427,0,0,1,485.052,316.93Zm60.916-1.633a.426.426,0,0,1-.281-.105l-.1-.086a.429.429,0,0,1,.562-.648l.1.086a.428.428,0,0,1-.281.752Zm-59.1-.045a.429.429,0,0,1-.282-.752l.1-.086a.429.429,0,1,1,.562.648l-.1.085A.426.426,0,0,1,486.872,315.252Zm57.189-1.535a.429.429,0,0,1-.265-.091l-.1-.079a.429.429,0,1,1,.527-.677l.1.081a.429.429,0,0,1-.265.766Zm-55.28-.041a.429.429,0,0,1-.263-.767l.1-.08a.429.429,0,0,1,.526.677l-.1.08A.426.426,0,0,1,488.781,313.676Zm53.288-1.432a.429.429,0,0,1-.244-.076l-.109-.075a.429.429,0,1,1,.491-.7l.106.073a.429.429,0,0,1-.244.781Zm-51.3-.037a.429.429,0,0,1-.246-.78l.109-.075a.429.429,0,1,1,.487.706l-.105.073A.427.427,0,0,1,490.772,312.207ZM540,310.881a.426.426,0,0,1-.225-.064l-.11-.068a.429.429,0,0,1,.448-.731l.112.069a.429.429,0,0,1-.225.793Zm-47.157-.031a.429.429,0,0,1-.226-.793l.111-.069a.429.429,0,0,1,.45.73l-.11.068A.427.427,0,0,1,492.841,310.85Zm45.015-1.215a.429.429,0,0,1-.2-.052l-.115-.062a.429.429,0,0,1,.409-.754l.115.062a.429.429,0,0,1-.2.806Zm-42.876-.026a.429.429,0,0,1-.205-.805l.116-.063a.429.429,0,1,1,.406.755l-.113.061A.428.428,0,0,1,494.98,309.609Zm40.667-1.1a.425.425,0,0,1-.184-.042l-.116-.055a.429.429,0,1,1,.365-.776l.121.057a.429.429,0,0,1-.185.816Zm-38.464-.02a.429.429,0,0,1-.184-.816l.119-.056a.429.429,0,1,1,.365.776l-.116.055A.427.427,0,0,1,497.183,308.488Zm36.2-.983a.421.421,0,0,1-.161-.032l-.121-.049a.429.429,0,1,1,.324-.794l.121.049a.429.429,0,0,1-.162.826Zm-33.935-.014a.429.429,0,0,1-.161-.826l.12-.049a.429.429,0,1,1,.323.794l-.12.049A.427.427,0,0,1,499.444,307.49Zm31.614-.862a.428.428,0,0,1-.14-.023l-.124-.043a.429.429,0,1,1,.279-.811l.124.043a.429.429,0,0,1-.14.834Zm-29.3-.008a.429.429,0,0,1-.141-.834l.125-.043a.429.429,0,1,1,.277.811l-.122.042A.434.434,0,0,1,501.756,306.619Zm26.94-.736a.423.423,0,0,1-.118-.017l-.124-.035a.428.428,0,1,1,.233-.825l.127.035a.429.429,0,0,1-.117.841Zm-24.578-.007a.429.429,0,0,1-.117-.841l.126-.036a.429.429,0,0,1,.233.825l-.125.035A.422.422,0,0,1,504.117,305.877Zm22.179-.605a.427.427,0,0,1-.094-.011l-.127-.028a.429.429,0,1,1,.185-.837l.128.029a.429.429,0,0,1-.093.847Zm-19.779-.006a.429.429,0,0,1-.094-.847l.129-.029a.429.429,0,1,1,.185.837l-.125.028A.417.417,0,0,1,506.517,305.266Zm17.35-.472a.448.448,0,0,1-.071-.006l-.128-.022a.429.429,0,1,1,.139-.846l.13.021a.429.429,0,0,1-.07.852Zm-14.921,0a.429.429,0,0,1-.07-.852l.13-.021a.429.429,0,1,1,.139.846l-.127.021A.453.453,0,0,1,508.946,304.789Zm12.468-.338-.047,0-.129-.014a.429.429,0,0,1,.092-.853l.107.012a.439.439,0,0,1,.391.474A.42.42,0,0,1,521.414,304.451Zm-10.016,0a.429.429,0,0,1-.047-.855l.131-.014a.429.429,0,0,1,.091.853l-.128.014Zm7.549-.2h-.024l-.129-.007a.429.429,0,1,1,.044-.856l.132.007a.429.429,0,0,1-.023.857Zm-5.081,0a.429.429,0,0,1-.024-.857l.132-.007a.429.429,0,1,1,.044.856l-.129.007Zm2.606-.07h-.131a.429.429,0,0,1,0-.858h.131a.429.429,0,0,1,0,.858Z" transform="translate(-419.395 -251.668)" fill="#cecece"/>
    </g>
    <g id="Group_2" data-name="Group 2" transform="translate(1357 283.033)">
      <path id="Path_5" data-name="Path 5" d="M423,815.444c-.871-.051-1.746-.084-2.629-.084a44.266,44.266,0,0,0-31.971,13.6,35.579,35.579,0,0,0-34.464,11.088,35.607,35.607,0,0,0-45.176,8.32,38.036,38.036,0,0,0-43.991-11.234,36.619,36.619,0,0,0-51.494-8.865,36.636,36.636,0,0,0-45.991,6.4,36.622,36.622,0,0,0-37.878,5.008,36.635,36.635,0,0,0-32.821-.219,40.055,40.055,0,0,0-40.5-9.354A44.4,44.4,0,0,0,0,812.953v80.933a44.451,44.451,0,0,0,37.539-.436,40.065,40.065,0,0,0,53.2,8.143,36.626,36.626,0,0,0,45.074-.778,36.619,36.619,0,0,0,43.517-7.771,36.614,36.614,0,0,0,36.234-3.756,36.676,36.676,0,0,0,31.43,3.235,38.027,38.027,0,0,0,62.86,2.341,35.606,35.606,0,0,0,53.049-.226,35.594,35.594,0,0,0,32.146,1.605,44.19,44.19,0,0,0,25.322,7.935c.883,0,1.759-.033,2.629-.084Z" transform="translate(0 -696.867)" fill="#596064"/>
      <path id="Path_6" data-name="Path 6" d="M555.106,512.789l-7.777,228.053h37.133l-7.777-228.053-.747-21.914H555.851Z" transform="translate(-354.395 -490.875)" fill="#424d53"/>
      <path id="Path_7" data-name="Path 7" d="M423,843.049a37.61,37.61,0,0,0-45.237,24.861,37.552,37.552,0,0,0-57.787,7.4,39.917,39.917,0,0,0-44.019-2.144A37.6,37.6,0,0,0,232.5,859.872a37.551,37.551,0,0,0-55.84.628,37.552,37.552,0,0,0-41.306,12.278,39.477,39.477,0,0,0-42.366,5.846A39.8,39.8,0,0,0,64.3,866.454c-1.281,0-2.546.066-3.8.184A44.4,44.4,0,0,0,0,839.953v80.933a44.342,44.342,0,0,0,28.3,2.8,39.926,39.926,0,0,0,62.335,12.709,39.488,39.488,0,0,0,60.5-5.242,37.55,37.55,0,0,0,41.841-10.194,37.634,37.634,0,0,0,24.876-.374,37.553,37.553,0,0,0,44.634,8.063,39.932,39.932,0,0,0,68.924-2.015,37.565,37.565,0,0,0,56.253-19.985A37.6,37.6,0,0,0,423,915.784Z" transform="translate(0 -714.35)" fill="#424d53"/>
      <path id="Path_8" data-name="Path 8" d="M568.757,512.789l-5.412,228.053h25.842l-5.412-228.053-.52-21.914H569.276Z" transform="translate(-364.766 -490.875)" fill="#596064"/>
      <path id="Path_9" data-name="Path 9" d="M584.211,512.789l-2.735,228.053h13.06L591.8,512.789l-.263-21.914h-7.064Z" transform="translate(-376.505 -490.875)" fill="#232932"/>
      <path id="Path_10" data-name="Path 10" d="M393.555,916.829c-.582-.034-1.166-.055-1.757-.055a30.453,30.453,0,0,0-23.351,11.09,29.827,29.827,0,0,0-15.6-4.411,30.225,30.225,0,0,0-21.118,8.687,35.37,35.37,0,0,0-35.164,1.008,31.223,31.223,0,0,0-19.842-7.159,30.859,30.859,0,0,0-11.548,2.241c-5.66-10.977-16.693-18.429-29.376-18.429a31.987,31.987,0,0,0-17.38,5.137,34,34,0,0,0-21.483-7.692,34.459,34.459,0,0,0-26.388,12.5,31.743,31.743,0,0,0-6.518-.678A32.512,32.512,0,0,0,138.646,931.5a36.211,36.211,0,0,0-45.77,3.166,39.145,39.145,0,0,0-29.814-14,38.5,38.5,0,0,0-4.161.226c-7.116-13.184-20.553-22.082-35.968-22.082A39.68,39.68,0,0,0,0,906.126v104.631H423V902.189A37.355,37.355,0,0,0,393.555,916.829Z" transform="translate(0 -755.012)" fill="#1f2127"/>
    </g>
    <g id="Group_3" data-name="Group 3" transform="translate(1506.228 178.034)">
      <path id="Path_11" data-name="Path 11" d="M485.535,193,423.343,361.538l62.192-17.059,62.193,17.059Z" transform="translate(-423.343 -193.005)" fill="#e97176"/>
      <path id="Path_12" data-name="Path 12" d="M578.446,193.007l-11.613,154.66,11.612-3.186,11.612,3.185-11.61-154.659Z" transform="translate(-516.253 -193.006)" fill="#f7858a"/>
    </g>
    <g id="Group_6" data-name="Group 6" transform="translate(1512.046 361.214)">
      <g id="Group_4" data-name="Group 4" transform="translate(0 0)">
        <path id="Rectangle_2" data-name="Rectangle 2" d="M2.171,0H2.8A2.172,2.172,0,0,1,4.974,2.172v0A2.171,2.171,0,0,1,2.8,4.343H2.171A2.171,2.171,0,0,1,0,2.172v0A2.171,2.171,0,0,1,2.171,0Z" transform="translate(11.313)" fill="#e97176"/>
        <rect id="Rectangle_3" data-name="Rectangle 3" width="4.974" height="4.343" rx="2.172" transform="translate(21.8 2.283) rotate(44.992)" fill="#e97176"/>
        <path id="Rectangle_4" data-name="Rectangle 4" d="M2.172,0H2.8A2.171,2.171,0,0,1,4.974,2.171v0A2.171,2.171,0,0,1,2.8,4.343H2.172A2.172,2.172,0,0,1,0,2.172v0A2.172,2.172,0,0,1,2.172,0Z" transform="matrix(0, 1, -1, 0, 27.602, 11.312)" fill="#e97176"/>
        <rect id="Rectangle_5" data-name="Rectangle 5" width="4.974" height="4.343" rx="2.172" transform="translate(25.32 21.8) rotate(134.993)" fill="#e97176"/>
        <path id="Rectangle_6" data-name="Rectangle 6" d="M2.171,0H2.8A2.171,2.171,0,0,1,4.974,2.171v0A2.172,2.172,0,0,1,2.8,4.343h-.63A2.171,2.171,0,0,1,0,2.172v0A2.171,2.171,0,0,1,2.171,0Z" transform="matrix(-1, 0, 0, -1, 16.29, 27.601)" fill="#e97176"/>
        <rect id="Rectangle_7" data-name="Rectangle 7" width="4.974" height="4.343" rx="2.172" transform="matrix(-0.707, -0.707, 0.707, -0.707, 5.803, 25.319)" fill="#e97176"/>
        <path id="Rectangle_8" data-name="Rectangle 8" d="M2.172,0H2.8A2.172,2.172,0,0,1,4.974,2.172v0A2.172,2.172,0,0,1,2.8,4.343H2.171A2.171,2.171,0,0,1,0,2.172v0A2.172,2.172,0,0,1,2.172,0Z" transform="matrix(0, -1, 1, 0, 0.001, 16.289)" fill="#e97176"/>
        <path id="Rectangle_9" data-name="Rectangle 9" d="M2.172,0H2.8A2.171,2.171,0,0,1,4.974,2.171v0A2.171,2.171,0,0,1,2.8,4.343H2.171A2.171,2.171,0,0,1,0,2.172v0A2.172,2.172,0,0,1,2.172,0Z" transform="matrix(0.707, -0.707, 0.707, 0.707, 2.283, 5.802)" fill="#e97176"/>
      </g>
      <g id="Group_5" data-name="Group 5" transform="translate(2.885 2.884)">
        <path id="Path_13" data-name="Path 13" d="M458.946,720.843a10.917,10.917,0,1,0,10.919,10.916A10.917,10.917,0,0,0,458.946,720.843Zm0,19.546a8.629,8.629,0,1,1,8.628-8.63A8.629,8.629,0,0,1,458.948,740.389Z" transform="translate(-448.03 -720.843)" fill="#e97176"/>
        <path id="Path_14" data-name="Path 14" d="M465.876,731.545a7.145,7.145,0,1,0,7.145,7.144A7.145,7.145,0,0,0,465.876,731.545Zm0,11.953a4.808,4.808,0,1,1,4.807-4.809A4.808,4.808,0,0,1,465.877,743.5Z" transform="translate(-454.96 -727.773)" fill="#e97176"/>
      </g>
    </g>
    <g id="Group_7" data-name="Group 7" transform="translate(1507.156 217.396)">
      <path id="Path_15" data-name="Path 15" d="M441.819,306.572a9.753,9.753,0,0,0-11.692.156A10.4,10.4,0,0,0,426,314.044c-.313,4.349,2.784,8.622,2.784,8.622l.866,1.6a8.45,8.45,0,0,1,.647,2.007,10.493,10.493,0,0,0,.9,3.356,2.13,2.13,0,0,0,.285.352h9.483c.735-.984.7-1.99.89-3.2a11.71,11.71,0,0,1,1.585-3.921c.209-.365,1.957-3.732,2.349-4.75A10.25,10.25,0,0,0,441.819,306.572Z" transform="translate(-425.973 -304.668)" fill="#e97176"/>
      <path id="Path_16" data-name="Path 16" d="M442.918,378.65v.637a.506.506,0,0,0,.486.524h7.36a.506.506,0,0,0,.486-.524v-.637Z" transform="translate(-436.945 -352.571)" fill="#e97176"/>
      <path id="Path_17" data-name="Path 17" d="M451.641,384.171a.191.191,0,0,1-.182.2h-7.036a.191.191,0,0,1-.182-.2v-.712a.192.192,0,0,1,.182-.2h7.036a.192.192,0,0,1,.182.2Z" transform="translate(-437.801 -355.556)" fill="#e97176"/>
      <path id="Path_18" data-name="Path 18" d="M451.641,388.71a.192.192,0,0,1-.182.2h-7.036a.192.192,0,0,1-.182-.2V388a.192.192,0,0,1,.182-.2h7.036a.192.192,0,0,1,.182.2Z" transform="translate(-437.801 -358.495)" fill="#e97176"/>
      <path id="Path_19" data-name="Path 19" d="M447.152,393.971H450l.251-.217,1.677-1.448h-6.707l1.677,1.448Z" transform="translate(-438.438 -361.414)" fill="#e97176"/>
      <path id="Path_20" data-name="Path 20" d="M452.253,398.75c.747,0,1.353-.261,1.353-.583H450.9C450.9,398.489,451.506,398.75,452.253,398.75Z" transform="translate(-442.113 -365.209)" fill="#e97176"/>
      <path id="Path_21" data-name="Path 21" d="M444.445,350.407l-.879-12.735.924,1.42a.279.279,0,0,0,.491-.027l.98-1.864,1.012,1.973a.283.283,0,0,0,.51,0l1.023-1.919.715,1.757a.3.3,0,0,0,.242.187.279.279,0,0,0,.265-.135l.842-1.332-.983,12.679h.586l1.072-13.826a.318.318,0,0,0-.193-.328.28.28,0,0,0-.339.12l-1.169,1.852-.736-1.806a.294.294,0,0,0-.251-.189.287.287,0,0,0-.267.158l-1.056,1.977-1.017-1.978a.29.29,0,0,0-.254-.163.276.276,0,0,0-.253.161l-1.007,1.917-1.269-1.949a.282.282,0,0,0-.338-.116.328.328,0,0,0-.192.327l.955,13.832Z" transform="translate(-436.936 -325.104)" fill="#fff"/>
    </g>
    <g id="Group_12" data-name="Group 12" transform="translate(1650.523 220.191)">
      <path id="Path_22" data-name="Path 22" d="M847.989,312.6c-.025,0-.05,0-.075,0s-.05,0-.076,0a3.811,3.811,0,0,1-5.665,2.28,3.813,3.813,0,0,0-3.587,5.127,3.874,3.874,0,0,0-.468-.031,3.817,3.817,0,0,0-2.858,6.352,3.935,3.935,0,0,0,1.368,7.627l11.1,0c.045,0,.089,0,.134-.007s.089.007.134.007a3.681,3.681,0,0,0,3.67-3.671l0-14.013A3.682,3.682,0,0,0,847.989,312.6Z" transform="translate(-832.688 -312.601)" fill="#e97176"/>
      <g id="Group_9" data-name="Group 9" transform="translate(1.551 2.054)">
        <g id="Group_8" data-name="Group 8">
          <path id="Path_23" data-name="Path 23" d="M842.361,351.525a5.423,5.423,0,0,0,4.68,3.212c.062,0,.124,0,.186,0a3.23,3.23,0,0,0,2.843-1.283.659.659,0,1,0-1.141-.659,2.112,2.112,0,0,1-1.84.622,4.053,4.053,0,0,1-3.542-2.468c-1.176-2.437-3.867-2.648-6.018-2.246a3.847,3.847,0,0,0,.578.9,3.96,3.96,0,0,0-1.021.567C838.582,349.775,841.331,349.389,842.361,351.525Z" transform="translate(-837.087 -337.928)" fill="#474747"/>
          <path id="Path_24" data-name="Path 24" d="M850.077,334.734c.078,0,.156.006.234.006,2.038,0,4.3-1.425,4.647-2.357a.7.7,0,0,0-.406-.9.682.682,0,0,0-.886.4,4.957,4.957,0,0,1-3.7,1.449c-.932-.121-1.526-.753-1.817-1.93a6.646,6.646,0,0,0-.8-1.937c0,.054-.016.1-.016.158a3.8,3.8,0,0,0,.234,1.305,3.048,3.048,0,0,0-1.012.023,6.224,6.224,0,0,1,.252.782A3.518,3.518,0,0,0,850.077,334.734Z" transform="translate(-843.212 -325.573)" fill="#474747"/>
          <path id="Path_25" data-name="Path 25" d="M865.331,321.582c.025,0,.05,0,.075,0a.693.693,0,0,0,.073-1.382c-.829-.088-1.459-.922-1.886-1.779a3.768,3.768,0,0,0-.318.783,3.827,3.827,0,0,0-1.05-.434C862.775,319.974,863.753,321.413,865.331,321.582Z" transform="translate(-853.364 -318.425)" fill="#474747"/>
        </g>
      </g>
      <path id="Path_26" data-name="Path 26" d="M891.175,312.6c.025,0,.05,0,.075,0s.05,0,.076,0a3.811,3.811,0,0,0,5.665,2.279A3.813,3.813,0,0,1,900.58,320a3.861,3.861,0,0,1,.468-.031,3.817,3.817,0,0,1,2.859,6.351,3.935,3.935,0,0,1-1.366,7.627h-11.1c-.045,0-.089,0-.134-.007s-.089.007-.134.007a3.681,3.681,0,0,1-3.671-3.67l0-14.013A3.681,3.681,0,0,1,891.175,312.6Z" transform="translate(-868.182 -312.599)" fill="#596064"/>
      <g id="Group_11" data-name="Group 11" transform="translate(24.673 1.884)">
        <g id="Group_10" data-name="Group 10">
          <path id="Path_27" data-name="Path 27" d="M916.355,347.618a13.715,13.715,0,0,0-6.413-.178c-2,.455-3.333,1.36-3.95,2.688a3.014,3.014,0,0,0,1.266,3.882,2.938,2.938,0,0,0,1.539.463,2.137,2.137,0,0,0,1.711-.8.658.658,0,1,0-1.032-.818,1.148,1.148,0,0,1-1.526.039,1.722,1.722,0,0,1-.764-2.206,4.088,4.088,0,0,1,3.047-1.958,12.619,12.619,0,0,1,6.014.224,3.948,3.948,0,0,0-.557-.26A3.845,3.845,0,0,0,916.355,347.618Z" transform="translate(-904.638 -336.847)" fill="#474747"/>
          <path id="Path_28" data-name="Path 28" d="M913.9,331.663a5.268,5.268,0,0,1-4.253.756.659.659,0,0,0-.232,1.3,9.212,9.212,0,0,0,1.617.151,5.9,5.9,0,0,0,3.665-1.156,5.624,5.624,0,0,0,.828-.786,3.341,3.341,0,0,0-1.11-.033,3.881,3.881,0,0,0,.2-.933A4.358,4.358,0,0,1,913.9,331.663Z" transform="translate(-906.692 -326.371)" fill="#474747"/>
          <path id="Path_29" data-name="Path 29" d="M902.959,320.771a.659.659,0,0,0,.767,1.072,4.6,4.6,0,0,0,2.006-3.216c.005-.042,0-.084,0-.126a3.836,3.836,0,0,0-.891.394,3.79,3.79,0,0,0-.411-.951,3.858,3.858,0,0,1-.006.511A3.286,3.286,0,0,1,902.959,320.771Z" transform="translate(-902.684 -317.944)" fill="#474747"/>
        </g>
      </g>
    </g>
    <g id="Group_17" data-name="Group 17" transform="translate(1441.416 270.376)">
      <g id="Group_13" data-name="Group 13" transform="translate(16.452 11.977)">
        <path id="Path_30" data-name="Path 30" d="M304.137,488.944a2.717,2.717,0,1,1-2.717,2.717A2.717,2.717,0,0,1,304.137,488.944Z" transform="translate(-296.038 -488.944)" fill="#474747"/>
        <path id="Path_31" data-name="Path 31" d="M300.821,506.652a2.99,2.99,0,0,1,1.528.421v-3.46a2.059,2.059,0,0,0-2.053-2.052H288.2a2.058,2.058,0,0,0-2.053,2.052v3.46a3.007,3.007,0,1,1,0,5.173v3.46a2.058,2.058,0,0,0,2.053,2.052H300.3a2.059,2.059,0,0,0,2.053-2.052v-3.46a3.006,3.006,0,1,1-1.528-5.593Z" transform="translate(-286.151 -497.113)" fill="#474747"/>
      </g>
      <g id="Group_14" data-name="Group 14" transform="translate(12.005)">
        <path id="Path_32" data-name="Path 32" d="M273.535,472.952a2.717,2.717,0,1,1,2.717,2.717A2.717,2.717,0,0,1,273.535,472.952Z" transform="translate(-273.535 -464.853)" fill="#f7858a"/>
        <path id="Path_33" data-name="Path 33" d="M291.243,456.494a2.986,2.986,0,0,1,.421-1.528H288.2a2.058,2.058,0,0,0-2.053,2.053v12.093a2.058,2.058,0,0,0,2.053,2.053h3.46a3.007,3.007,0,1,1,5.173,0h3.46a2.059,2.059,0,0,0,2.053-2.053V457.019a2.059,2.059,0,0,0-2.053-2.053h-3.46a3.006,3.006,0,1,1-5.593,1.528Z" transform="translate(-281.704 -454.966)" fill="#f7858a"/>
      </g>
      <g id="Group_15" data-name="Group 15" transform="translate(0)">
        <path id="Path_34" data-name="Path 34" d="M257.464,503.553a2.717,2.717,0,1,1,2.717-2.717A2.717,2.717,0,0,1,257.464,503.553Z" transform="translate(-249.365 -482.908)" fill="#474747"/>
        <path id="Path_35" data-name="Path 35" d="M241.006,466.072a2.988,2.988,0,0,1-1.528-.421v3.46a2.058,2.058,0,0,0,2.053,2.053h12.093a2.059,2.059,0,0,0,2.053-2.053v-3.46a3.007,3.007,0,1,1,0-5.173v-3.46a2.059,2.059,0,0,0-2.053-2.053H241.531a2.059,2.059,0,0,0-2.053,2.053v3.46a3.006,3.006,0,1,1,1.528,5.593Z" transform="translate(-239.478 -454.966)" fill="#474747"/>
      </g>
      <g id="Group_16" data-name="Group 16" transform="translate(0 16.424)">
        <path id="Path_36" data-name="Path 36" d="M288.065,519.545a2.717,2.717,0,1,1-2.717-2.717A2.717,2.717,0,0,1,288.065,519.545Z" transform="translate(-267.42 -511.446)" fill="#e97176"/>
        <path id="Path_37" data-name="Path 37" d="M250.584,516.23a2.988,2.988,0,0,1-.421,1.528h3.46a2.059,2.059,0,0,0,2.053-2.052V503.612a2.059,2.059,0,0,0-2.053-2.052h-3.46a3.007,3.007,0,1,1-5.173,0h-3.46a2.058,2.058,0,0,0-2.053,2.052v12.093a2.058,2.058,0,0,0,2.053,2.052h3.46a3.006,3.006,0,1,1,5.593-1.528Z" transform="translate(-239.478 -501.56)" fill="#e97176"/>
      </g>
    </g>
    <g id="Group_19" data-name="Group 19" transform="translate(1633.354 246.051)">
      <path id="Path_38" data-name="Path 38" d="M793.428,392.436c0-.012,0-.025,0-.038V387.66a1.594,1.594,0,0,0-1.448-1.7h-6.549a1.594,1.594,0,0,0-1.448,1.7V392.4c0,.013,0,.025,0,.038Z" transform="translate(-783.984 -385.96)" fill="#e2e2e2"/>
      <g id="Group_18" data-name="Group 18" transform="translate(0 36.086)">
        <path id="Path_39" data-name="Path 39" d="M793.43,488.33l-4.722,9.874-4.724-9.873Z" transform="translate(-783.985 -488.33)" fill="#596064"/>
        <path id="Path_40" data-name="Path 40" d="M792.919,507.006l1.575,3.291,1.573-3.291Z" transform="translate(-789.77 -500.422)" fill="#474747"/>
      </g>
      <rect id="Rectangle_10" data-name="Rectangle 10" width="9.444" height="30.224" transform="translate(0.001 5.862)" fill="#e97176"/>
      <rect id="Rectangle_11" data-name="Rectangle 11" width="4.082" height="30.224" transform="translate(2.682 5.862)" fill="#f7858a"/>
      <rect id="Rectangle_12" data-name="Rectangle 12" width="9.444" height="3.757" transform="translate(0.001 4.948)" fill="#f7858a"/>
    </g>
    <g id="Group_20" data-name="Group 20" transform="translate(1606.884 173.687)">
      <rect id="Rectangle_13" data-name="Rectangle 13" width="4.254" height="11.444" transform="matrix(0.707, -0.707, 0.707, 0.707, 19.329, 22.335)" fill="#474747"/>
      <path id="Path_41" data-name="Path 41" d="M794.929,262.34a.713.713,0,0,1,.068,1l-3.421,3.422a.713.713,0,0,1-1-.067L779.8,255.922a.713.713,0,0,1-.067-1l3.421-3.422a.713.713,0,0,1,1,.067Z" transform="translate(-754.645 -226.418)" fill="#e97176"/>
      <path id="Path_42" data-name="Path 42" d="M712.85,184.633a13.522,13.522,0,1,0,19.123,0A13.522,13.522,0,0,0,712.85,184.633Zm16.594,16.59a9.943,9.943,0,1,1,0-14.061A9.943,9.943,0,0,1,729.444,201.223Z" transform="translate(-708.89 -180.671)" fill="#e97176"/>
    </g>
    <g id="Group_22" data-name="Group 22" transform="translate(1652.297 330)">
      <g id="Group_21" data-name="Group 21" transform="translate(0 8.69)">
        <path id="Path_43" data-name="Path 43" d="M844.353,663.745H839.33s-1.592-.081-.985-1.441,1.97-4.291,2.429-4.988.755-1.2,1.067-1.636c0,0-1.247-1.263-1.855-1.263s-1.691.094-1.855-.447-.14-.484.181-.8l-.033-.786a.536.536,0,0,1-.558-.583c0-.607.148-1.012.632-1.158a33.891,33.891,0,0,0,3.546-.462,13.845,13.845,0,0,1,2.774-.955c.706-.057,1.642-.121,1.642-.121a.555.555,0,0,1,.476-.259c.361-.024,1.559-.081,1.682-.081s.7-.016.747.461.164,1.02-.115,1.328-.435.462-.673.721-.624.639-.624.639l.8.721s.607.551.55.988-.55,2.753-.583,3.012a8.716,8.716,0,0,0,.12,2.882c.307.972.427,1.609.668,2.181s.689,1.393.066,1.533a7.608,7.608,0,0,0-1.324.292,1.349,1.349,0,0,1-.449.221Z" transform="translate(-837.721 -648.766)" fill="#333"/>
        <path id="Path_44" data-name="Path 44" d="M850.447,688.688h-8.232s-.039,3.374-.936,4.6h10.1C850.486,692.062,850.447,688.688,850.447,688.688Z" transform="translate(-840.025 -674.615)" fill="#333"/>
        <rect id="Rectangle_14" data-name="Rectangle 14" width="10.729" height="4.416" rx="0.698" transform="translate(0.942 18.548)" fill="#333"/>
      </g>
      <path id="Path_45" data-name="Path 45" d="M894.852,652.262v-.47a.128.128,0,0,0-.128-.128h-.769A4.811,4.811,0,0,0,893.88,650a31.659,31.659,0,0,0-2.239-4.919,11.555,11.555,0,0,1-.552-1.429,15.123,15.123,0,0,1-1-4.635v-3.074h.557a.283.283,0,0,0,.179-.5h.3a.283.283,0,0,0,.283-.283v-.073a.283.283,0,0,0-.283-.283h-.3a.283.283,0,0,0-.129-.5l1.93-6.546a.219.219,0,0,0-.21-.281H889.11v-.953h.921a.23.23,0,0,0,.23-.23v-.8a.23.23,0,0,0-.23-.23h-.921v-.907a.237.237,0,0,0-.23-.244h-.8a.237.237,0,0,0-.23.244v.907h-.921a.23.23,0,0,0-.23.23v.8a.23.23,0,0,0,.23.23h.921v.953h-3.309a.219.219,0,0,0-.21.281l1.93,6.546a.283.283,0,0,0-.129.5h-.3a.283.283,0,0,0-.283.283v.073a.283.283,0,0,0,.283.283h.3a.283.283,0,0,0,.179.5h.557v3.074a15.135,15.135,0,0,1-1,4.635,11.565,11.565,0,0,1-.552,1.429A31.631,31.631,0,0,0,883.076,650a4.823,4.823,0,0,0-.076,1.661h-.769a.128.128,0,0,0-.128.128v.47a.128.128,0,0,1,0,.255v.469a.128.128,0,0,0,.128.128h.342v1.318h-.251a.128.128,0,0,0-.128.128v1.079a.127.127,0,0,0,.128.127h12.313a.128.128,0,0,0,.128-.127V654.56a.128.128,0,0,0-.128-.128h-.251v-1.318h.342a.128.128,0,0,0,.128-.128v-.469a.128.128,0,0,1,0-.255Z" transform="translate(-866.458 -624.113)" fill="#333"/>
    </g>
    <g id="Group_23" data-name="Group 23" transform="translate(1610.272 363.52)">
      <path id="Path_46" data-name="Path 46" d="M731.612,740.5a6.554,6.554,0,0,1,0-13.109v-6.554a13.109,13.109,0,1,0,13.11,13.107h-6.554A6.555,6.555,0,0,1,731.612,740.5Z" transform="translate(-718.503 -720.258)" fill="#eaeaea"/>
      <path id="Path_47" data-name="Path 47" d="M757.316,719.2v6.554a6.554,6.554,0,0,1,6.555,6.553h6.554A13.108,13.108,0,0,0,757.316,719.2Z" transform="translate(-743.635 -719.203)" fill="#e97176"/>
    </g>
    <path id="Path_48" data-name="Path 48" d="M260.731,639.966v2.055s.281.079.739.659.128,1.37.841,4.979,3.135,6.112,8.549,6.112a8.412,8.412,0,0,0,7.784-4.112,16.572,16.572,0,0,0,1.767-4.617c.1-.409.2-.818.27-1.22.869-.232,1.61-.359,1.61-.359s.741.127,1.61.359c.073.4.167.811.27,1.22a16.585,16.585,0,0,0,1.767,4.617,8.412,8.412,0,0,0,7.784,4.112c5.414,0,7.836-2.5,8.549-6.112s.382-4.4.841-4.979.739-.659.739-.659v-2.055s-.1-.343-.994-.527a40.791,40.791,0,0,0-16.48-.275,3.129,3.129,0,0,0-2.176,1.318,3.81,3.81,0,0,1-3.82,0,3.128,3.128,0,0,0-2.176-1.318,40.792,40.792,0,0,0-16.48.275C260.833,639.623,260.731,639.966,260.731,639.966Zm24.32,4.217a3.776,3.776,0,0,1,.292-3.1,2.671,2.671,0,0,1,.3-.351,4.971,4.971,0,0,1,2.366-1.1,15.228,15.228,0,0,1,2.331-.378c.838-.074,1.679-.106,2.52-.1a31.1,31.1,0,0,1,3.933.2c1.267.148,3.482.239,4.4,1.306a4.175,4.175,0,0,1,.587,3.177,24.9,24.9,0,0,1-.513,3.627,10.97,10.97,0,0,1-.607,2.2,3.38,3.38,0,0,1-.428.714,5.778,5.778,0,0,1-3.121,2.161,13.557,13.557,0,0,1-4.155.312c-5.9-.235-6.978-4.8-7.837-8.355C285.1,644.389,285.074,644.286,285.051,644.182Zm-21.666-3.528c.917-1.067,3.132-1.158,4.4-1.306a31.1,31.1,0,0,1,3.933-.2c.841-.007,1.682.024,2.52.1a15.222,15.222,0,0,1,2.331.378,4.973,4.973,0,0,1,2.366,1.1,2.671,2.671,0,0,1,.3.352,3.776,3.776,0,0,1,.292,3.1c-.023.1-.047.206-.072.308-.859,3.551-1.94,8.12-7.837,8.355a13.562,13.562,0,0,1-4.156-.312,5.779,5.779,0,0,1-3.12-2.161,3.366,3.366,0,0,1-.428-.714,10.949,10.949,0,0,1-.607-2.2,24.95,24.95,0,0,1-.513-3.627A4.176,4.176,0,0,1,263.385,640.655Z" transform="translate(1188.177 -303.395)" fill="#e2e2e2"/>
    <g id="Group_24" data-name="Group 24" transform="translate(1482.141 178.42)">
      <path id="Path_49" data-name="Path 49" d="M355.008,205.958s20.2,25.707,45.011,0C375.211,180.251,355.008,205.958,355.008,205.958Z" transform="translate(-355.008 -194.379)" fill="#e97176"/>
      <path id="Path_50" data-name="Path 50" d="M364.08,210.442s17.332,20.214,38.616,0C381.412,190.228,364.08,210.442,364.08,210.442Z" transform="translate(-360.882 -198.864)" fill="#fff"/>
      <ellipse id="Ellipse_1" data-name="Ellipse 1" cx="9.844" cy="9.844" rx="9.844" ry="9.844" transform="translate(10.927 19.308) rotate(-78.725)" fill="#333"/>
      <ellipse id="Ellipse_2" data-name="Ellipse 2" cx="7.666" cy="7.666" rx="7.666" ry="7.666" transform="translate(12.678 7.001) rotate(-20.025)" fill="#fff"/>
      <ellipse id="Ellipse_3" data-name="Ellipse 3" cx="5.178" cy="5.178" rx="5.178" ry="5.178" transform="translate(16.147 15.209) rotate(-74.721)" fill="#4a4b4c"/>
      <path id="Path_51" data-name="Path 51" d="M411.6,218.591a1.976,1.976,0,1,1-1.976-1.976A1.976,1.976,0,0,1,411.6,218.591Z" transform="translate(-389.091 -208.678)" fill="#fff"/>
    </g>
    <g id="Group_25" data-name="Group 25" transform="translate(1491.369 269.426)">
      <path id="Path_52" data-name="Path 52" d="M381.187,519.878a7.407,7.407,0,1,0,7.406-7.407A7.406,7.406,0,0,0,381.187,519.878Zm11.654,0a4.247,4.247,0,1,1-4.247-4.247A4.247,4.247,0,0,1,392.841,519.878Z" transform="translate(-381.187 -491.25)" fill="#e2e2e2"/>
      <rect id="Rectangle_15" data-name="Rectangle 15" width="24.157" height="3.95" transform="translate(5.431 24.157) rotate(-90)" fill="#e2e2e2"/>
      <rect id="Rectangle_16" data-name="Rectangle 16" width="4.063" height="9.382" transform="translate(5.431 4.063) rotate(-90)" fill="#e2e2e2"/>
      <rect id="Rectangle_17" data-name="Rectangle 17" width="4.063" height="8.152" transform="translate(5.431 9.884) rotate(-90)" fill="#e2e2e2"/>
    </g>
    <g id="Group_31" data-name="Group 31" transform="translate(1668.423 261.075)">
      <g id="Group_26" data-name="Group 26" transform="translate(7.325 44.362)">
        <path id="Path_53" data-name="Path 53" d="M904.249,554.431l4.264,10.829,4.263-10.829Z" transform="translate(-904.249 -554.431)" fill="#e97176"/>
        <path id="Path_54" data-name="Path 54" d="M908.076,557.23l2.915,7.406,2.916-7.406Z" transform="translate(-906.727 -556.243)" fill="#e97176"/>
        <path id="Path_55" data-name="Path 55" d="M914.342,557.67c.6,0,1.091,1.2,1.091,2.679s-.488,2.679-1.091,2.679-1.091-1.2-1.091-2.679S913.739,557.67,914.342,557.67Z" transform="translate(-910.078 -556.528)" fill="#ea493d"/>
      </g>
      <g id="Group_30" data-name="Group 30" transform="translate(0)">
        <g id="Group_27" data-name="Group 27" transform="translate(0 27.55)">
          <path id="Path_56" data-name="Path 56" d="M887.312,507.081c-2.265,2.759-5.749,8.552-2.564,15.468a.934.934,0,0,0,1.708.008l2.552-5.415a1.015,1.015,0,0,0,.1-.449l-.129-8.98A.942.942,0,0,0,887.312,507.081Z" transform="translate(-883.468 -506.738)" fill="#e97176"/>
          <path id="Path_57" data-name="Path 57" d="M935.267,507.081c2.265,2.759,5.75,8.552,2.564,15.468a.934.934,0,0,1-1.708.008l-2.552-5.415a1.022,1.022,0,0,1-.1-.449l.13-8.98A.942.942,0,0,1,935.267,507.081Z" transform="translate(-915.847 -506.738)" fill="#e97176"/>
        </g>
        <g id="Group_28" data-name="Group 28" transform="translate(3.816)">
          <path id="Path_58" data-name="Path 58" d="M908.1,467.664c6.367-20.916-5.993-39.083-5.993-39.083s-12.361,18.167-5.994,39.083Z" transform="translate(-894.294 -428.581)" fill="#e2e2e2"/>
          <path id="Path_59" data-name="Path 59" d="M900.91,543.47h9.1a42.36,42.36,0,0,0,1.445-4.015H899.464A42.262,42.262,0,0,0,900.91,543.47Z" transform="translate(-897.642 -500.372)" fill="#333"/>
        </g>
        <path id="Path_60" data-name="Path 60" d="M915.46,517.647c0,.7-.539,13.707-1.2,13.707s-1.2-13.007-1.2-13.707a1.205,1.205,0,1,1,2.408,0Z" transform="translate(-902.624 -485.431)" fill="#414b51"/>
        <g id="Group_29" data-name="Group 29" transform="translate(7.83 11.928)">
          <ellipse id="Ellipse_4" data-name="Ellipse 4" cx="3.803" cy="3.803" rx="3.803" ry="3.803" fill="#596064"/>
          <ellipse id="Ellipse_5" data-name="Ellipse 5" cx="2.877" cy="2.877" rx="2.877" ry="2.877" transform="translate(0.343 5.945) rotate(-76.765)" fill="#596064"/>
        </g>
        <path id="Path_61" data-name="Path 61" d="M909.377,428.581a45.346,45.346,0,0,0-3.859,7.53h7.719A45.324,45.324,0,0,0,909.377,428.581Z" transform="translate(-897.745 -428.581)" fill="#596064"/>
      </g>
    </g>
    <g id="Group_34" data-name="Group 34" transform="translate(1441.64 223.942)">
      <path id="Path_62" data-name="Path 62" d="M266.634,343.535l-.737-.712c-5.045-4.875-12.476-7.665-20.4-7.665h-.108l-.006-2.12h.114a31.814,31.814,0,0,1,21.136,7.577,31.816,31.816,0,0,1,21.137-7.577h.114l-.007,2.12h-.108c-7.924,0-15.353,2.79-20.4,7.665Z" transform="translate(-243.526 -329.584)" fill="#ccc"/>
      <path id="Path_63" data-name="Path 63" d="M263.22,352.359,240.11,343.7l1.055-2.813,22.055,8.266,22.055-8.266,1.055,2.813Z" transform="translate(-240.111 -334.665)" fill="#596064"/>
      <g id="Group_33" data-name="Group 33" transform="translate(5.217 0)">
        <g id="Group_32" data-name="Group 32">
          <path id="Path_64" data-name="Path 64" d="M305.094,335.115h-1.372c0-6.547,8.334-11.874,18.577-11.874v1.373C312.812,324.614,305.094,329.324,305.094,335.115Z" transform="translate(-286.517 -323.241)" fill="#ccc"/>
          <path id="Path_65" data-name="Path 65" d="M273.49,335.115h-1.372c0-5.791-7.718-10.5-17.205-10.5v-1.373C265.157,323.241,273.49,328.567,273.49,335.115Z" transform="translate(-254.913 -323.241)" fill="#ccc"/>
        </g>
      </g>
    </g>
  </g>
</svg>
