<svg xmlns="http://www.w3.org/2000/svg" xmlns:xlink="http://www.w3.org/1999/xlink" width="129.914" height="70" viewBox="0 0 129.914 70">
  <defs>
    <clipPath id="clip-path">
      <rect id="Rectangle_5180" data-name="Rectangle 5180" width="70" height="70" fill="#fff"/>
    </clipPath>
  </defs>
  <g id="Group_25806" data-name="Group 25806" transform="translate(0 2.427)">
    <path id="Background" d="M124.468,0a5.445,5.445,0,0,1,0,10.891H93.351a5.445,5.445,0,0,1,0,10.891h17.114a5.445,5.445,0,0,1,0,10.891h-7.915c-3.792,0-6.866,2.438-6.866,5.445q0,3.007,4.668,5.445a5.445,5.445,0,0,1,0,10.891H35.785a5.445,5.445,0,1,1,0-10.891H5.445a5.445,5.445,0,1,1,0-10.891H36.563a5.445,5.445,0,0,0,0-10.891H17.114a5.445,5.445,0,0,1,0-10.891H48.232A5.445,5.445,0,1,1,48.232,0Zm0,21.782a5.445,5.445,0,1,1-5.445,5.445A5.445,5.445,0,0,1,124.468,21.782Z" transform="translate(0 7.573)" fill="#f4f4f4" fill-rule="evenodd"/>
    <g id="job-search" transform="translate(32 -2.427)" clip-path="url(#clip-path)">
      <path id="Path_50966" data-name="Path 50966" d="M29.667,58.833A29.166,29.166,0,1,0,9.043,50.291,29.167,29.167,0,0,0,29.667,58.833Z" transform="translate(0.958 0.958)" fill="#f7858a"/>
      <path id="Path_50967" data-name="Path 50967" d="M29.661.5A29.167,29.167,0,0,0,8.9,50.145L50.136,8.912A29.082,29.082,0,0,0,29.661.5Z" transform="translate(0.964 0.958)" fill="#fff"/>
      <path id="Path_50968" data-name="Path 50968" d="M29.667,58.833A29.166,29.166,0,1,0,9.043,50.291,29.167,29.167,0,0,0,29.667,58.833Z" transform="translate(0.958 0.958)" fill="none" stroke="#363e4a" stroke-linecap="round" stroke-linejoin="round" stroke-width="2"/>
      <path id="Path_50969" data-name="Path 50969" d="M17.572,17.572l17.29,17.29" transform="translate(33.68 33.68)" fill="none" stroke="#363e4a" stroke-linecap="round" stroke-linejoin="round" stroke-width="2"/>
      <path id="Path_50970" data-name="Path 50970" d="M17.333,11.417a2.917,2.917,0,0,1-2.917,2.917H11.5V8.5h2.917a2.917,2.917,0,0,1,2.917,2.917Z" transform="translate(22.042 16.292)" fill="none" stroke="#363e4a" stroke-linecap="round" stroke-linejoin="round" stroke-width="2"/>
      <path id="Path_50971" data-name="Path 50971" d="M17.333,13.417a2.917,2.917,0,0,1-2.917,2.917H11.5V10.5h2.917a2.917,2.917,0,0,1,2.917,2.917Z" transform="translate(22.042 20.125)" fill="none" stroke="#363e4a" stroke-linecap="round" stroke-linejoin="round" stroke-width="2"/>
      <path id="Path_50972" data-name="Path 50972" d="M13.333,17.25a2.917,2.917,0,0,1-5.833,0V11.417a2.917,2.917,0,1,1,5.833,0Z" transform="translate(14.375 16.292)" fill="none" stroke="#363e4a" stroke-linecap="round" stroke-linejoin="round" stroke-width="2"/>
      <path id="Path_50973" data-name="Path 50973" d="M9.333,8.5v8.75a2.917,2.917,0,0,1-5.833,0" transform="translate(6.708 16.292)" fill="none" stroke="#363e4a" stroke-linecap="round" stroke-linejoin="round" stroke-width="2"/>
      <path id="Path_50974" data-name="Path 50974" d="M21.333,8.5H18.417a2.917,2.917,0,0,0,0,5.833,2.917,2.917,0,0,1,0,5.833H15.5" transform="translate(29.708 16.292)" fill="none" stroke="#363e4a" stroke-linecap="round" stroke-linejoin="round" stroke-width="2"/>
    </g>
  </g>
</svg>
