<svg xmlns="http://www.w3.org/2000/svg" width="508.406" height="373.447" viewBox="0 0 508.406 373.447">
  <g id="OBJECTS" transform="translate(-38.641 -109.514)">
    <g id="Group_93" data-name="Group 93" transform="translate(38.641 110.221)">
      <path id="Path_1" data-name="Path 1" d="M51.329,442.383H519.035c13.8-20.873,20.425-45.883,24.12-70.671a358.606,358.606,0,0,0-4.872-131.472c-6.455-28.6-16.8-57.05-35.733-79.6s-47.594-38.489-77.187-36.842c-37.691,2.1-67.881,30.662-92.744,58.748s-50.541,59.069-86.9,69.127C197.769,264.944,143.886,237.81,97.818,256.5c-35,14.2-55.326,52.3-58.586,89.567q-.606,6.933-.59,13.9c.015,18.887,3.6,37.142,7.637,55.512C48.232,424.381,49.4,433.473,51.329,442.383Z" transform="translate(-38.641 -107.156)" fill="#232932"/>
      <g id="Group_92" data-name="Group 92" transform="translate(4.677)">
        <g id="Group_84" data-name="Group 84" transform="translate(1.243)">
          <g id="Group_40" data-name="Group 40" transform="translate(0 187.668)">
            <g id="Group_39" data-name="Group 39" transform="translate(57.695 31.803)">
              <g id="Group_37" data-name="Group 37">
                <path id="Path_12" data-name="Path 12" d="M182.559,310.333,163.176,290.95a4.972,4.972,0,0,0-7.031,0L92.417,354.68a4.97,4.97,0,0,0,0,7.029L111.8,381.092a4.969,4.969,0,0,0,7.029,0l63.73-63.729A4.972,4.972,0,0,0,182.559,310.333Zm-77.073,57.69a4.886,4.886,0,1,1,6.91,0A4.887,4.887,0,0,1,105.486,368.023Z" transform="translate(-90.347 -288.884)" fill="#fff"/>
                <g id="Group_33" data-name="Group 33" transform="translate(49.591 3.331)">
                  <rect id="Rectangle_23" data-name="Rectangle 23" width="37.354" height="18.677" transform="matrix(0.707, 0.707, -0.707, 0.707, 14.075, 0.868)" fill="#f7858a"/>
                  <path id="Path_13" data-name="Path 13" d="M158.139,333.067l-27.282-27.282,14.075-14.075,27.282,27.282Zm-25.546-27.282,25.546,25.546,12.338-12.339-25.544-25.546Z" transform="translate(-130.857 -291.711)" fill="#1c1c20"/>
                </g>
                <g id="Group_34" data-name="Group 34" transform="translate(33.066 19.857)">
                  <rect id="Rectangle_24" data-name="Rectangle 24" width="37.354" height="18.677" transform="translate(14.075 0.868) rotate(45)" fill="#363636"/>
                  <path id="Path_14" data-name="Path 14" d="M144.678,346.527,117.4,319.247l14.075-14.075,27.282,27.282Zm-25.546-27.28,25.546,25.544,12.339-12.338-25.546-25.546Z" transform="translate(-117.396 -305.172)" fill="#1c1c20"/>
                </g>
                <g id="Group_35" data-name="Group 35" transform="translate(16.541 36.382)">
                  <rect id="Rectangle_25" data-name="Rectangle 25" width="37.354" height="18.677" transform="matrix(0.707, 0.707, -0.707, 0.707, 14.075, 0.868)" fill="#1c1c20"/>
                  <path id="Path_15" data-name="Path 15" d="M131.217,359.988l-27.282-27.282,14.075-14.074,27.282,27.28Zm-25.546-27.282,25.546,25.546,12.339-12.339L118.01,320.369Z" transform="translate(-103.935 -318.633)" fill="#1c1c20"/>
                </g>
                <g id="Group_36" data-name="Group 36">
                  <path id="Path_16" data-name="Path 16" d="M115.429,383.273a5.567,5.567,0,0,1-3.949-1.633L92.1,362.257a5.582,5.582,0,0,1,0-7.9l63.729-63.73a5.593,5.593,0,0,1,7.9,0l19.382,19.382a5.584,5.584,0,0,1,0,7.9l-63.729,63.73A5.567,5.567,0,0,1,115.429,383.273Zm44.347-93.051a4.349,4.349,0,0,0-3.081,1.274L92.965,355.227a4.355,4.355,0,0,0,0,6.161l19.382,19.383a4.363,4.363,0,0,0,6.163,0l63.729-63.73a4.355,4.355,0,0,0,0-6.161L162.857,291.5A4.349,4.349,0,0,0,159.775,290.222Zm-50.719,79.955a5.483,5.483,0,0,1-3.889-1.607h0a5.51,5.51,0,1,1,3.889,1.607Zm-3.021-2.475a4.273,4.273,0,1,0,0-6.042,4.274,4.274,0,0,0,0,6.042Z" transform="translate(-90.461 -288.997)" fill="#1c1c20"/>
                </g>
              </g>
              <g id="Group_38" data-name="Group 38" transform="translate(13.63 53.366)">
                <rect id="Rectangle_26" data-name="Rectangle 26" width="1.227" height="37.354" transform="translate(0 0.868) rotate(-45)" fill="#1c1c20"/>
              </g>
              <rect id="Rectangle_27" data-name="Rectangle 27" width="18.84" height="1.303" transform="translate(18.614 62.343) rotate(45)" fill="#e97176"/>
            </g>
            <g id="Group_25564" data-name="Group 25564" transform="translate(9.936 66.667) rotate(-45)">
              <g id="Group_37-2" data-name="Group 37" transform="translate(0)">
                <path id="Path_12-2" data-name="Path 12" d="M91.6,20.839,72.215,1.456a4.972,4.972,0,0,0-7.031,0L1.456,65.186a4.97,4.97,0,0,0,0,7.029L20.839,91.6a4.969,4.969,0,0,0,7.029,0L91.6,27.869A4.972,4.972,0,0,0,91.6,20.839ZM14.525,78.529a4.886,4.886,0,1,1,6.91,0A4.887,4.887,0,0,1,14.525,78.529Z" transform="translate(0.614 0.61)" fill="#fff"/>
                <g id="Group_33-2" data-name="Group 33" transform="translate(49.591 3.331)">
                  <rect id="Rectangle_23-2" data-name="Rectangle 23" width="37.354" height="18.677" transform="matrix(0.707, 0.707, -0.707, 0.707, 14.075, 0.868)" fill="#f7858a"/>
                  <path id="Path_13-2" data-name="Path 13" d="M27.282,41.356,0,14.075,14.075,0,41.356,27.282ZM1.736,14.075,27.282,39.62,39.619,27.282,14.075,1.736Z" fill="#1c1c20"/>
                </g>
                <g id="Group_34-2" data-name="Group 34" transform="translate(33.066 19.857)">
                  <rect id="Rectangle_24-2" data-name="Rectangle 24" width="37.354" height="18.677" transform="translate(14.075 0.868) rotate(45)" fill="#363636"/>
                  <path id="Path_14-2" data-name="Path 14" d="M27.282,41.355,0,14.075,14.075,0,41.356,27.282ZM1.736,14.075,27.282,39.619,39.62,27.282,14.075,1.736Z" fill="#1c1c20"/>
                </g>
                <g id="Group_35-2" data-name="Group 35" transform="translate(16.541 36.382)">
                  <rect id="Rectangle_25-2" data-name="Rectangle 25" width="37.354" height="18.677" transform="matrix(0.707, 0.707, -0.707, 0.707, 14.075, 0.868)" fill="#1c1c20"/>
                  <path id="Path_15-2" data-name="Path 15" d="M27.282,41.355,0,14.074,14.075,0,41.356,27.28ZM1.736,14.074,27.282,39.619,39.62,27.28,14.075,1.736Z" fill="#1c1c20"/>
                </g>
                <g id="Group_36-2" data-name="Group 36">
                  <path id="Path_16-2" data-name="Path 16" d="M24.968,94.275a5.567,5.567,0,0,1-3.949-1.633L1.636,73.26a5.582,5.582,0,0,1,0-7.9L65.365,1.632a5.593,5.593,0,0,1,7.9,0L92.645,21.014a5.584,5.584,0,0,1,0,7.9L28.917,92.643A5.567,5.567,0,0,1,24.968,94.275ZM69.314,1.225A4.349,4.349,0,0,0,66.233,2.5L2.5,66.23a4.355,4.355,0,0,0,0,6.161L21.886,91.775a4.363,4.363,0,0,0,6.163,0l63.729-63.73a4.355,4.355,0,0,0,0-6.161L72.4,2.5A4.349,4.349,0,0,0,69.314,1.225ZM18.595,81.18a5.483,5.483,0,0,1-3.889-1.607h0a5.51,5.51,0,1,1,3.889,1.607Zm-3.021-2.475a4.273,4.273,0,1,0,0-6.042,4.274,4.274,0,0,0,0,6.042Z" fill="#1c1c20"/>
                </g>
              </g>
              <g id="Group_38-2" data-name="Group 38" transform="translate(13.63 53.366)">
                <rect id="Rectangle_26-2" data-name="Rectangle 26" width="1.227" height="37.354" transform="translate(0 0.868) rotate(-45)" fill="#1c1c20"/>
              </g>
              <rect id="Rectangle_27-2" data-name="Rectangle 27" width="18.84" height="1.303" transform="translate(18.614 62.343) rotate(45)" fill="#e97176"/>
            </g>
            <g id="Group_25565" data-name="Group 25565" transform="translate(0 124.855) rotate(-90)">
              <g id="Group_37-3" data-name="Group 37" transform="translate(0)">
                <path id="Path_12-3" data-name="Path 12" d="M91.6,20.839,72.215,1.456a4.972,4.972,0,0,0-7.031,0L1.456,65.186a4.97,4.97,0,0,0,0,7.029L20.839,91.6a4.969,4.969,0,0,0,7.029,0L91.6,27.869A4.972,4.972,0,0,0,91.6,20.839ZM14.525,78.529a4.886,4.886,0,1,1,6.91,0A4.887,4.887,0,0,1,14.525,78.529Z" transform="translate(0.614 0.61)" fill="#fff"/>
                <g id="Group_33-3" data-name="Group 33" transform="translate(49.591 3.331)">
                  <rect id="Rectangle_23-3" data-name="Rectangle 23" width="37.354" height="18.677" transform="matrix(0.707, 0.707, -0.707, 0.707, 14.075, 0.868)" fill="#f7858a"/>
                  <path id="Path_13-3" data-name="Path 13" d="M27.282,41.356,0,14.075,14.075,0,41.356,27.282ZM1.736,14.075,27.282,39.62,39.619,27.282,14.075,1.736Z" fill="#1c1c20"/>
                </g>
                <g id="Group_34-3" data-name="Group 34" transform="translate(33.066 19.857)">
                  <rect id="Rectangle_24-3" data-name="Rectangle 24" width="37.354" height="18.677" transform="translate(14.075 0.868) rotate(45)" fill="#363636"/>
                  <path id="Path_14-3" data-name="Path 14" d="M27.282,41.355,0,14.075,14.075,0,41.356,27.282ZM1.736,14.075,27.282,39.619,39.62,27.282,14.075,1.736Z" fill="#1c1c20"/>
                </g>
                <g id="Group_35-3" data-name="Group 35" transform="translate(16.541 36.382)">
                  <rect id="Rectangle_25-3" data-name="Rectangle 25" width="37.354" height="18.677" transform="matrix(0.707, 0.707, -0.707, 0.707, 14.075, 0.868)" fill="#1c1c20"/>
                  <path id="Path_15-3" data-name="Path 15" d="M27.282,41.355,0,14.074,14.075,0,41.356,27.28ZM1.736,14.074,27.282,39.619,39.62,27.28,14.075,1.736Z" fill="#1c1c20"/>
                </g>
                <g id="Group_36-3" data-name="Group 36">
                  <path id="Path_16-3" data-name="Path 16" d="M24.968,94.275a5.567,5.567,0,0,1-3.949-1.633L1.636,73.26a5.582,5.582,0,0,1,0-7.9L65.365,1.632a5.593,5.593,0,0,1,7.9,0L92.645,21.014a5.584,5.584,0,0,1,0,7.9L28.917,92.643A5.567,5.567,0,0,1,24.968,94.275ZM69.314,1.225A4.349,4.349,0,0,0,66.233,2.5L2.5,66.23a4.355,4.355,0,0,0,0,6.161L21.886,91.775a4.363,4.363,0,0,0,6.163,0l63.729-63.73a4.355,4.355,0,0,0,0-6.161L72.4,2.5A4.349,4.349,0,0,0,69.314,1.225ZM18.595,81.18a5.483,5.483,0,0,1-3.889-1.607h0a5.51,5.51,0,1,1,3.889,1.607Zm-3.021-2.475a4.273,4.273,0,1,0,0-6.042,4.274,4.274,0,0,0,0,6.042Z" fill="#1c1c20"/>
                </g>
              </g>
              <g id="Group_38-3" data-name="Group 38" transform="translate(13.63 53.366)">
                <rect id="Rectangle_26-3" data-name="Rectangle 26" width="1.227" height="37.354" transform="translate(0 0.868) rotate(-45)" fill="#1c1c20"/>
              </g>
              <rect id="Rectangle_27-3" data-name="Rectangle 27" width="18.84" height="1.303" transform="translate(18.614 62.343) rotate(45)" fill="#e97176"/>
            </g>
          </g>
          <g id="Group_49" data-name="Group 49" transform="translate(68.84)">
            <g id="Group_41" data-name="Group 41" transform="translate(188.726 9.622)">
              <path id="Path_17" data-name="Path 17" d="M408.947,286.348h-1.228c0-86.973-67.841-160.357-154.448-167.066l.1-1.224a168.816,168.816,0,0,1,155.58,168.289Z" transform="translate(-253.271 -118.059)" fill="#e8e8e8"/>
            </g>
            <g id="Group_42" data-name="Group 42" transform="translate(188.774 10.235)">
              <path id="Path_18" data-name="Path 18" d="M253.31,118.558" transform="translate(-253.31 -118.558)" fill="none" stroke="#322b80" stroke-miterlimit="10" stroke-width="1"/>
            </g>
            <g id="Group_43" data-name="Group 43" transform="translate(162.431 10.235)">
              <path id="Path_19" data-name="Path 19" d="M231.852,118.558" transform="translate(-231.852 -118.558)" fill="none" stroke="#322b80" stroke-miterlimit="10" stroke-width="1"/>
            </g>
            <g id="Group_44" data-name="Group 44" transform="translate(0 176.862)">
              <rect id="Rectangle_28" data-name="Rectangle 28" width="13.606" height="13.607" transform="translate(0.614 0.614)" fill="#e97176"/>
              <path id="Path_20" data-name="Path 20" d="M114.374,269.122H99.539V254.289h14.835Zm-13.607-1.228h12.379V255.517H100.767Z" transform="translate(-99.539 -254.289)" fill="#f7858a"/>
            </g>
            <g id="Group_45" data-name="Group 45" transform="translate(336.37 176.862)">
              <rect id="Rectangle_29" data-name="Rectangle 29" width="13.606" height="13.607" transform="translate(0.614 0.614)" fill="#e97176"/>
              <path id="Path_21" data-name="Path 21" d="M388.374,269.122H373.539V254.289h14.835Zm-13.607-1.228h12.379V255.517H374.767Z" transform="translate(-373.539 -254.289)" fill="#f7858a"/>
            </g>
            <g id="Group_46" data-name="Group 46" transform="translate(71.854 9.113)">
              <rect id="Rectangle_30" data-name="Rectangle 30" width="207.496" height="1.228" fill="#e8e8e8"/>
            </g>
            <rect id="Rectangle_31" data-name="Rectangle 31" width="13.755" height="13.755" transform="translate(70.233 0) rotate(45)" fill="#1c1c20" stroke="#e8e8e8" stroke-width="1"/>
            <rect id="Rectangle_32" data-name="Rectangle 32" width="13.755" height="13.755" transform="translate(280.971 0) rotate(45)" fill="#1c1c20" stroke="#e8e8e8" stroke-width="1"/>
            <g id="Group_47" data-name="Group 47" transform="translate(6.804 9.62)">
              <path id="Path_22" data-name="Path 22" d="M106.309,286.349h-1.228a168.813,168.813,0,0,1,155.58-168.289l26.39,0v1.228H260.709C174.15,125.992,106.309,199.376,106.309,286.349Z" transform="translate(-105.081 -118.057)" fill="#e8e8e8"/>
            </g>
            <g id="Group_48" data-name="Group 48" transform="translate(167.747 2.309)">
              <rect id="Rectangle_33" data-name="Rectangle 33" width="13.606" height="13.606" transform="translate(0.614 0.614)" fill="#1c1c20"/>
              <path id="Path_23" data-name="Path 23" d="M251.017,126.935H236.182V112.1h14.835Zm-13.607-1.228h12.379V113.33H237.41Z" transform="translate(-236.182 -112.102)" fill="#e8e8e8"/>
            </g>
          </g>
          <g id="Group_63" data-name="Group 63" transform="translate(182.468 43.657)">
            <g id="Group_55" data-name="Group 55" transform="translate(3.236 205.478)">
              <g id="Group_50" data-name="Group 50">
                <rect id="Rectangle_34" data-name="Rectangle 34" width="119.43" height="31.706" transform="translate(0.614 0.614)" fill="#363636"/>
                <path id="Path_24" data-name="Path 24" d="M315.392,346.1H194.734V313.161H315.392Zm-119.43-1.228h118.2v-30.48h-118.2Z" transform="translate(-194.734 -313.161)" fill="#1c1c20"/>
              </g>
              <g id="Group_54" data-name="Group 54" transform="translate(0.614 9.258)">
                <g id="Group_51" data-name="Group 51" transform="translate(0 10.971)">
                  <line id="Line_1" data-name="Line 1" x2="63.749" transform="translate(0 0.614)" fill="#ffed00"/>
                  <rect id="Rectangle_35" data-name="Rectangle 35" width="63.749" height="1.228" transform="translate(0)" fill="#1c1c20"/>
                </g>
                <g id="Group_52" data-name="Group 52" transform="translate(58.124)">
                  <line id="Line_2" data-name="Line 2" x1="61.306" transform="translate(0 0.613)" fill="#ffed00"/>
                  <rect id="Rectangle_36" data-name="Rectangle 36" width="61.306" height="1.228" fill="#1c1c20"/>
                </g>
                <g id="Group_53" data-name="Group 53" transform="translate(84.998 10.971)">
                  <line id="Line_3" data-name="Line 3" x1="34.432" transform="translate(0 0.614)" fill="#ffed00"/>
                  <rect id="Rectangle_37" data-name="Rectangle 37" width="34.431" height="1.228" transform="translate(0)" fill="#1c1c20"/>
                </g>
              </g>
            </g>
            <g id="Group_58" data-name="Group 58" transform="translate(12.611 185.484)">
              <g id="Group_56" data-name="Group 56">
                <path id="Rectangle_38" data-name="Rectangle 38" d="M8.656,0H88.842A8.656,8.656,0,0,1,97.5,8.656V19.988a0,0,0,0,1,0,0H0a0,0,0,0,1,0,0V8.656A8.656,8.656,0,0,1,8.656,0Z" transform="translate(0.614 0.614)" fill="#fff"/>
                <path id="Path_25" data-name="Path 25" d="M301.1,318.09H202.371v-9.976a11.253,11.253,0,0,1,11.239-11.24h76.247a11.254,11.254,0,0,1,11.24,11.24Zm-97.5-1.228h96.271v-8.748A10.024,10.024,0,0,0,289.857,298.1H213.61A10.023,10.023,0,0,0,203.6,308.114Z" transform="translate(-202.371 -296.874)" fill="#1c1c20"/>
              </g>
              <g id="Group_57" data-name="Group 57" transform="translate(0.613 12.172)">
                <line id="Line_4" data-name="Line 4" x2="97.498" transform="translate(0 0.613)" fill="#fff"/>
                <rect id="Rectangle_39" data-name="Rectangle 39" width="97.498" height="1.228" fill="#1c1c20"/>
              </g>
            </g>
            <g id="Group_62" data-name="Group 62">
              <g id="Group_59" data-name="Group 59">
                <path id="Path_26" data-name="Path 26" d="M264.339,146.282H259.4V242.4a15.066,15.066,0,1,1-10.91,0V146.282h-4.935s-15.587,44.681-50.916,111.573l25.978,73.912h70.657l25.977-73.912C279.925,190.963,264.339,146.282,264.339,146.282Z" transform="translate(-191.974 -145.669)" fill="#e8696f"/>
                <path id="Path_27" data-name="Path 27" d="M289.836,332.494H218.309L192.1,257.918l.125-.237c34.9-66.077,50.723-111.04,50.879-111.487l.144-.411h5.985v97.146l-.392.152a14.454,14.454,0,1,0,10.466,0l-.39-.152V145.783H264.9l.144.411c.156.447,15.979,45.41,50.879,111.487l.124.237-.088.253Zm-70.657-1.228h69.787l25.745-73.249c-33.081-62.669-49.009-106.338-50.68-111.007h-3.888V242.1a15.68,15.68,0,1,1-12.139,0V147.011h-3.888c-1.671,4.669-17.6,48.338-50.681,111.007Z" transform="translate(-192.098 -145.783)" fill="#f7858a"/>
              </g>
              <g id="Group_60" data-name="Group 60" transform="translate(71.751 0.613)">
                <line id="Line_5" data-name="Line 5" y2="92.742" transform="translate(0.614)" fill="#fff"/>
                <rect id="Rectangle_40" data-name="Rectangle 40" width="1.228" height="92.742" transform="translate(0 0)" fill="#f7858a"/>
              </g>
              <g id="Group_61" data-name="Group 61" transform="translate(6.397 112.737)">
                <line id="Line_6" data-name="Line 6" x2="25.624" y2="71.874" transform="translate(0.578 0.206)" fill="#fff"/>
                <rect id="Rectangle_41" data-name="Rectangle 41" width="1.228" height="76.304" transform="translate(0 0.412) rotate(-19.622)" fill="#f7858a"/>
              </g>
            </g>
          </g>
          <g id="Group_67" data-name="Group 67" transform="translate(238.175 293.055)">
            <g id="Group_64" data-name="Group 64" transform="translate(0 0)">
              <path id="Path_28" data-name="Path 28" d="M248.906,354.9a5.465,5.465,0,1,1-5.465-5.465A5.465,5.465,0,0,1,248.906,354.9Z" transform="translate(-237.362 -348.823)" fill="#e8e8e8"/>
              <path id="Path_29" data-name="Path 29" d="M243.554,361.094a6.079,6.079,0,1,1,6.079-6.078A6.084,6.084,0,0,1,243.554,361.094Zm0-10.93a4.851,4.851,0,1,0,4.852,4.852A4.856,4.856,0,0,0,243.554,350.165Z" transform="translate(-237.476 -348.937)" fill="#322b80"/>
            </g>
            <g id="Group_65" data-name="Group 65" transform="translate(0 15.542)">
              <path id="Path_30" data-name="Path 30" d="M248.906,367.561a5.465,5.465,0,1,1-5.465-5.464A5.465,5.465,0,0,1,248.906,367.561Z" transform="translate(-237.362 -361.483)" fill="#e8e8e8"/>
              <path id="Path_31" data-name="Path 31" d="M243.554,373.753a6.078,6.078,0,1,1,6.079-6.078A6.084,6.084,0,0,1,243.554,373.753Zm0-10.928a4.85,4.85,0,1,0,4.852,4.85A4.857,4.857,0,0,0,243.554,362.825Z" transform="translate(-237.476 -361.597)" fill="#322b80"/>
            </g>
            <g id="Group_66" data-name="Group 66" transform="translate(0 31.082)">
              <path id="Path_32" data-name="Path 32" d="M248.906,380.221a5.465,5.465,0,1,1-5.465-5.465A5.465,5.465,0,0,1,248.906,380.221Z" transform="translate(-237.362 -374.142)" fill="#e8e8e8"/>
              <path id="Path_33" data-name="Path 33" d="M243.554,386.412a6.078,6.078,0,1,1,6.079-6.078A6.084,6.084,0,0,1,243.554,386.412Zm0-10.928a4.85,4.85,0,1,0,4.852,4.85A4.857,4.857,0,0,0,243.554,375.484Z" transform="translate(-237.476 -374.256)" fill="#322b80"/>
            </g>
          </g>
          <g id="Group_83" data-name="Group 83" transform="translate(352.298 204.836)">
            <g id="Group_77" data-name="Group 77" transform="translate(30.791 7.037)">
              <g id="Group_68" data-name="Group 68">
                <path id="Path_34" data-name="Path 34" d="M413.846,312.22a28.915,28.915,0,1,0-46.321,23.086,12.472,12.472,0,0,1,4.822,9.987v5.646h25.17v-5.9a12.067,12.067,0,0,1,4.75-9.672A28.865,28.865,0,0,0,413.846,312.22Z" transform="translate(-355.406 -282.694)" fill="#e8e8e8"/>
                <path id="Path_35" data-name="Path 35" d="M398.245,351.667h-26.4v-6.261a11.892,11.892,0,0,0-4.579-9.5,29.527,29.527,0,1,1,35.481.056,11.492,11.492,0,0,0-4.5,9.18Zm-25.17-1.228h23.942v-5.292a12.728,12.728,0,0,1,5-10.164,28.3,28.3,0,0,0-18.832-50.889,28.3,28.3,0,0,0-15.172,50.835,13.128,13.128,0,0,1,5.066,10.477Z" transform="translate(-355.52 -282.808)" fill="#1c1c20"/>
              </g>
              <g id="Group_71" data-name="Group 71" transform="translate(15.511 26.402)">
                <g id="Group_69" data-name="Group 69" transform="translate(8.391 27.687)">
                  <path id="Path_36" data-name="Path 36" d="M386.239,343.2H374.99v-16.33h11.249Zm-10.021-1.228h8.794V328.095h-8.794Z" transform="translate(-374.99 -326.867)" fill="#f7858a"/>
                </g>
                <g id="Group_70" data-name="Group 70">
                  <path id="Path_37" data-name="Path 37" d="M376.557,332.73c-.451-2.324-.895-4.93-1.368-7.69-.484-2.832-1.061-6.208-1.689-9.351a7.9,7.9,0,0,1-2.617-2.008c-2.558-2.89-3.539-7.253-1.978-8.809a1.532,1.532,0,0,1,1.613-.49c1.612.513,2.8,4.189,4.054,10.385,1.375.43,3.1.274,5.108-1.3a21.572,21.572,0,0,0,2.154-1.915c-2.836-2.8-2.948-4.556-2.525-5.544a2.589,2.589,0,0,1,2.625-1.406,3.374,3.374,0,0,1,3.1,2.2c.328,1.03.221,2.577-1.484,4.672,2.544,2.217,4.714,2.778,6.456,2.619,1.107-4.049,2.434-7.3,3.924-7.931,2.008-.845,2.825.075,3.084.509.971,1.634-.421,5.021-2.864,6.97a7.866,7.866,0,0,1-3.142,1.522,160.529,160.529,0,0,0-3.22,17.531l-1.218-.156a163.7,163.7,0,0,1,3.108-17.205c-1.9.055-4.272-.614-6.946-2.943a22.923,22.923,0,0,1-2.3,2.044,6.934,6.934,0,0,1-5.6,1.686c.495,2.544,1,5.461,1.56,8.715.47,2.754.916,5.354,1.363,7.665ZM370.1,305.544a.543.543,0,0,0-.328.2c-.878.874-.3,4.489,2.031,7.125a7.387,7.387,0,0,0,1.368,1.215c-.958-4.513-2.013-8.209-3.025-8.532A.184.184,0,0,0,370.1,305.544Zm25.308,1.494a2.806,2.806,0,0,0-1,.253c-1.01.425-2.06,2.988-3.036,6.5a6.71,6.71,0,0,0,2.012-1.116c2.162-1.725,3.1-4.492,2.573-5.383A.592.592,0,0,0,395.407,307.038Zm-13.643-1.213a1.372,1.372,0,0,0-1.326.664c-.141.328-.377,1.57,2.211,4.141,1.451-1.818,1.377-2.959,1.217-3.457a2.145,2.145,0,0,0-1.99-1.345Z" transform="translate(-368.155 -304.314)" fill="#f7858a"/>
                </g>
              </g>
              <g id="Group_72" data-name="Group 72" transform="translate(19.408 83.865)">
                <path id="Path_38" data-name="Path 38" d="M386.732,359.568H375.8a3.984,3.984,0,0,1-3.973-3.973h0a3.985,3.985,0,0,1,3.973-3.974h10.931a3.986,3.986,0,0,1,3.974,3.974h0A3.985,3.985,0,0,1,386.732,359.568Z" transform="translate(-371.215 -351.008)" fill="#fff"/>
                <path id="Path_39" data-name="Path 39" d="M386.846,360.3H375.915a4.587,4.587,0,0,1,0-9.174h10.931a4.587,4.587,0,1,1,0,9.174Zm-10.931-7.946a3.359,3.359,0,0,0,0,6.719h10.931a3.359,3.359,0,1,0,0-6.719Z" transform="translate(-371.329 -351.122)" fill="#1c1c20"/>
              </g>
              <g id="Group_76" data-name="Group 76" transform="translate(13.878 65.463)">
                <g id="Group_73" data-name="Group 73">
                  <rect id="Rectangle_42" data-name="Rectangle 42" width="29.935" height="7.459" rx="2.867" transform="translate(0.614 0.614)" fill="#f7858a"/>
                  <path id="Path_40" data-name="Path 40" d="M393.854,344.818h-22.9a4.137,4.137,0,0,1-4.133-4.132v-.421a4.138,4.138,0,0,1,4.133-4.132h22.9a4.138,4.138,0,0,1,4.135,4.132v.421A4.137,4.137,0,0,1,393.854,344.818Zm-22.9-7.458a2.908,2.908,0,0,0-2.906,2.9v.421a2.907,2.907,0,0,0,2.906,2.9h22.9a2.909,2.909,0,0,0,2.907-2.9v-.421a2.909,2.909,0,0,0-2.907-2.9Z" transform="translate(-366.825 -336.132)" fill="#1c1c20"/>
                </g>
                <g id="Group_74" data-name="Group 74" transform="translate(0 7.458)">
                  <rect id="Rectangle_43" data-name="Rectangle 43" width="29.935" height="7.459" rx="2.867" transform="translate(0.614 0.614)" fill="#e97176"/>
                  <path id="Path_41" data-name="Path 41" d="M393.854,350.894h-22.9a4.138,4.138,0,0,1-4.133-4.133v-.419a4.139,4.139,0,0,1,4.133-4.135h22.9a4.14,4.14,0,0,1,4.135,4.135v.419A4.138,4.138,0,0,1,393.854,350.894Zm-22.9-7.459a2.909,2.909,0,0,0-2.906,2.907v.419a2.908,2.908,0,0,0,2.906,2.906h22.9a2.909,2.909,0,0,0,2.907-2.906v-.419a2.91,2.91,0,0,0-2.907-2.907Z" transform="translate(-366.825 -342.207)" fill="#1c1c20"/>
                </g>
                <g id="Group_75" data-name="Group 75" transform="translate(0 14.917)">
                  <rect id="Rectangle_44" data-name="Rectangle 44" width="29.935" height="7.459" rx="2.867" transform="translate(0.614 0.614)" fill="#e97176"/>
                  <path id="Path_42" data-name="Path 42" d="M393.854,356.97h-22.9a4.139,4.139,0,0,1-4.133-4.133v-.42a4.138,4.138,0,0,1,4.133-4.133h22.9a4.138,4.138,0,0,1,4.135,4.133v.42A4.139,4.139,0,0,1,393.854,356.97Zm-22.9-7.459a2.909,2.909,0,0,0-2.906,2.906v.42a2.909,2.909,0,0,0,2.906,2.906h22.9a2.91,2.91,0,0,0,2.907-2.906v-.42a2.91,2.91,0,0,0-2.907-2.906Z" transform="translate(-366.825 -348.283)" fill="#1c1c20"/>
                </g>
              </g>
            </g>
            <g id="Group_82" data-name="Group 82">
              <g id="Group_78" data-name="Group 78" transform="translate(91.855 0)">
                <rect id="Rectangle_45" data-name="Rectangle 45" width="16.164" height="1.227" transform="translate(0 11.43) rotate(-45)" fill="#e97176"/>
              </g>
              <g id="Group_79" data-name="Group 79" transform="translate(104.339 39.453)">
                <rect id="Rectangle_46" data-name="Rectangle 46" width="16.163" height="1.228" fill="#f7858a"/>
              </g>
              <g id="Group_80" data-name="Group 80" transform="translate(16.349)">
                <rect id="Rectangle_47" data-name="Rectangle 47" width="1.227" height="16.164" transform="translate(0 0.868) rotate(-45)" fill="#e97176"/>
              </g>
              <g id="Group_81" data-name="Group 81" transform="translate(0 39.453)">
                <rect id="Rectangle_48" data-name="Rectangle 48" width="16.163" height="1.228" fill="#f7858a"/>
              </g>
            </g>
          </g>
        </g>
        <g id="Group_91" data-name="Group 91" transform="translate(0 29.088)">
          <g id="Group_87" data-name="Group 87">
            <g id="Group_85" data-name="Group 85" transform="translate(433.204)">
              <path id="Path_43" data-name="Path 43" d="M427.091,199.5a33.311,33.311,0,0,1-3.736-.324l.174-1.215a31.765,31.765,0,0,0,3.6.312Zm3.747-.1-.1-1.224a31.245,31.245,0,0,0,3.574-.5l.242,1.2A32.657,32.657,0,0,1,430.838,199.4Zm-11.157-.973a32.543,32.543,0,0,1-3.567-1.166l.449-1.143a31.454,31.454,0,0,0,3.431,1.122Zm18.5-.495-.377-1.167a31.679,31.679,0,0,0,3.366-1.306l.508,1.117A32.523,32.523,0,0,1,438.18,197.932Zm-25.473-2.24a32.625,32.625,0,0,1-3.205-1.948l.7-1.01a31.025,31.025,0,0,0,3.084,1.875Zm32.287-.864-.633-1.051a31.531,31.531,0,0,0,2.979-2.037l.75.972A32.57,32.57,0,0,1,444.994,194.827Zm-38.455-3.382a32.781,32.781,0,0,1-2.682-2.622l.906-.826a31.891,31.891,0,0,0,2.582,2.523Zm44.387-1.187-.856-.88a31.9,31.9,0,0,0,2.444-2.658l.949.78A33.539,33.539,0,0,1,450.926,190.258Zm-49.435-4.343a32.926,32.926,0,0,1-2.018-3.157l1.069-.6a31.5,31.5,0,0,0,1.945,3.04Zm54.183-1.446-1.031-.665a31.982,31.982,0,0,0,1.78-3.141l1.1.543A32.945,32.945,0,0,1,455.673,184.469Zm-57.85-5.079a32.524,32.524,0,0,1-1.25-3.537l1.18-.341a31.191,31.191,0,0,0,1.2,3.4Zm61.164-1.641-1.155-.412a31.41,31.41,0,0,0,1.015-3.464l1.2.277A32.89,32.89,0,0,1,458.987,177.749ZM395.74,172.2a32.879,32.879,0,0,1-.41-3.728l1.225-.064a32.087,32.087,0,0,0,.4,3.587Zm64.939-1.743-1.22-.139a32.107,32.107,0,0,0,.2-3.6,31.5,31.5,0,0,0-.179-3.383l1.221-.131a33.02,33.02,0,0,1,.185,3.515A33.439,33.439,0,0,1,460.679,170.454Zm-64.112-5.659-1.225-.074a33.125,33.125,0,0,1,.437-3.725l1.208.212A32.1,32.1,0,0,0,396.567,164.795Zm62.329-5.028a31.278,31.278,0,0,0-.991-3.471l1.159-.4A33.126,33.126,0,0,1,460.1,159.5Zm-61.081-2.07-1.177-.35a33.231,33.231,0,0,1,1.274-3.528l1.129.482A31.373,31.373,0,0,0,397.816,157.7Zm58.7-4.734a31.275,31.275,0,0,0-1.754-3.151l1.035-.658a32.493,32.493,0,0,1,1.826,3.274Zm-55.867-1.894-1.068-.61a33.224,33.224,0,0,1,2.045-3.145l.99.728A31.218,31.218,0,0,0,400.653,151.069Zm52.006-4.191a31.865,31.865,0,0,0-2.425-2.673l.861-.875a32.745,32.745,0,0,1,2.518,2.778Zm-47.741-1.62-.9-.835a33.536,33.536,0,0,1,2.7-2.6l.8.931A31.885,31.885,0,0,0,404.918,145.257Zm42.6-3.435a31.591,31.591,0,0,0-2.966-2.058l.641-1.047a32.868,32.868,0,0,1,3.081,2.137Zm-37.137-1.262-.687-1.016a33.45,33.45,0,0,1,3.215-1.924l.571,1.088A31.67,31.67,0,0,0,410.384,140.56Zm30.988-2.5a31.477,31.477,0,0,0-3.356-1.33l.387-1.165a32.165,32.165,0,0,1,3.487,1.382Zm-24.6-.835-.438-1.145a32.383,32.383,0,0,1,3.572-1.14l.3,1.19A31.865,31.865,0,0,0,416.772,137.222Zm17.756-1.43a31.537,31.537,0,0,0-3.571-.528l.11-1.224a33.119,33.119,0,0,1,3.71.55Zm-10.775-.362-.168-1.217a33.328,33.328,0,0,1,3.737-.3l.029,1.228A31.7,31.7,0,0,0,423.753,135.43Z" transform="translate(-395.33 -133.915)" fill="#e8e8e8"/>
            </g>
            <g id="Group_86" data-name="Group 86" transform="translate(0 301.174)">
              <path id="Path_44" data-name="Path 44" d="M63.639,421.723q-.379,0-.754-.013l.042-1.228a20.251,20.251,0,0,0,3.565-.188l.172,1.215A21.62,21.62,0,0,1,63.639,421.723Zm-4.512-.48a21.054,21.054,0,0,1-3.615-1.129l.47-1.133a20.061,20.061,0,0,0,3.405,1.064Zm11.223-.6-.388-1.165a20.018,20.018,0,0,0,3.269-1.424l.589,1.077A21.238,21.238,0,0,1,70.35,420.641Zm-18.193-2.286a21.576,21.576,0,0,1-2.989-2.324l.836-.9a20.4,20.4,0,0,0,2.819,2.191Zm24.81-1.333-.771-.954a20.261,20.261,0,0,0,2.567-2.48l.928.8A21.4,21.4,0,0,1,76.967,417.022Zm-30.331-3.807A21.247,21.247,0,0,1,44.644,410l1.1-.551a20.166,20.166,0,0,0,1.878,3.035Zm35.272-1.893-1.056-.625a20.165,20.165,0,0,0,1.542-3.219l1.149.428A21.26,21.26,0,0,1,81.908,411.322Zm-38.653-4.849a21.192,21.192,0,0,1-.737-3.715l1.221-.13a20.047,20.047,0,0,0,.694,3.5Zm41.289-2.218-1.208-.216a20.192,20.192,0,0,0,.314-3.555h1.228A21.358,21.358,0,0,1,84.544,404.254Zm-.907-4.5a19.975,19.975,0,0,0-.442-3.537l1.2-.262a21.171,21.171,0,0,1,.469,3.755Zm-39.962-.7-1.224-.086a21.315,21.315,0,0,1,.6-3.738l1.191.3A20.041,20.041,0,0,0,43.675,399.06Zm38.454-6.246a20.151,20.151,0,0,0-1.657-3.157l1.032-.664a21.253,21.253,0,0,1,1.758,3.351Zm-36.7-.638-1.116-.511a21.285,21.285,0,0,1,1.876-3.29l1.008.7A20.19,20.19,0,0,0,45.427,392.176Zm32.854-5.333a20.162,20.162,0,0,0-2.655-2.384l.737-.983a21.377,21.377,0,0,1,2.816,2.53Zm-28.8-.506-.868-.868a21.472,21.472,0,0,1,2.9-2.431l.7,1.008A20.268,20.268,0,0,0,49.484,386.337Zm23.106-3.757a19.879,19.879,0,0,0-3.32-1.306l.344-1.177a20.925,20.925,0,0,1,3.526,1.386Zm-17.272-.3-.512-1.115a20.837,20.837,0,0,1,3.571-1.261l.3,1.188A20.033,20.033,0,0,0,55.319,382.277Zm10.453-1.694a20.518,20.518,0,0,0-2.18-.11c-.466,0-.931.016-1.388.049l-.088-1.225c.5-.036,1.036-.054,1.525-.052a21.782,21.782,0,0,1,2.259.118Z" transform="translate(-42.451 -379.245)" fill="#e97176"/>
            </g>
          </g>
        </g>
      </g>
    </g>
  </g>
</svg>
