<svg xmlns="http://www.w3.org/2000/svg" width="23.999" height="24" viewBox="0 0 23.999 24">
  <path id="FontAwsome_drafting-compass_" data-name="FontAwsome (drafting-compass)" d="M21.422,16.144a14.851,14.851,0,0,1-3.869,2.3L20.1,22.859l2.529,1.08a.75.75,0,0,0,1.039-.6L24,20.608Zm1.992-4.432a.752.752,0,0,0-.284-1.05l-1.316-.73a.751.751,0,0,0-1,.268A10.51,10.51,0,0,1,12,15a10.423,10.423,0,0,1-3.254-.54L11.9,8.99c.033,0,.063.01.1.01s.063-.009.1-.01l2.395,4.148a8.929,8.929,0,0,0,3.872-2.293L15.934,6.64A4.442,4.442,0,0,0,16.5,4.5a4.5,4.5,0,1,0-9,0,4.447,4.447,0,0,0,.565,2.14l-3.2,5.546a10.48,10.48,0,0,1-1.579-1.828.752.752,0,0,0-1-.25l-1.3.753a.752.752,0,0,0-.264,1.053,13.45,13.45,0,0,0,2.624,2.907L0,20.609l.329,2.73a.75.75,0,0,0,1.039.6L3.9,22.859l3.319-5.748A13.455,13.455,0,0,0,12,18a13.519,13.519,0,0,0,11.414-6.288ZM12,3a1.5,1.5,0,1,1-1.5,1.5A1.5,1.5,0,0,1,12,3Z" fill="#fff"/>
</svg>
