<svg xmlns="http://www.w3.org/2000/svg" width="35" height="37.693" viewBox="0 0 35 37.693">
  <path id="Icon_ion-logo-google-playstore" data-name="Icon ion-logo-google-playstore" d="M3.375,4.563V37.628a.364.364,0,0,0,.62.258L21.212,21.1,4,4.3a.364.364,0,0,0-.62.258ZM28.43,14.2,6.843,2.3,6.83,2.3a.368.368,0,0,0-.421.594L23.331,19.071ZM6.411,39.3a.368.368,0,0,0,.421.594l.013-.008L28.43,28l-5.1-4.876ZM37.145,18.993l-6.028-3.32L25.449,21.1l5.668,5.421L37.145,23.2A2.414,2.414,0,0,0,37.145,18.993Z" transform="translate(-3.375 -2.25)" fill="#363636"/>
</svg>
