<svg xmlns="http://www.w3.org/2000/svg" width="65" height="65" viewBox="0 0 65 65">
  <g id="Customer_Engagement" data-name="Customer Engagement" transform="translate(-32 -72.873)">
    <rect id="Rectangle_5144" data-name="Rectangle 5144" width="65" height="65" transform="translate(32 72.873)" fill="#fff"/>
    <g id="business-team-goal" transform="translate(36.863 73.945)">
      <path id="Path_50490" data-name="Path 50490" d="M23.145,26.819a11.339,11.339,0,0,0-20.01,0Z" transform="translate(0 35.48)" fill="#f7858a"/>
      <path id="Path_50491" data-name="Path 50491" d="M36.044,31.521a13.34,13.34,0,0,0-26.68,0" transform="translate(11.113 30.78)" fill="#f7858a"/>
      <path id="Path_50492" data-name="Path 50492" d="M36.044,31.521a13.34,13.34,0,0,0-26.68,0" transform="translate(11.113 30.78)" fill="none" stroke="#363e4a" stroke-linecap="round" stroke-linejoin="round" stroke-width="2"/>
      <path id="Path_50493" data-name="Path 50493" d="M29.474,16.976a9.338,9.338,0,1,1-18.676,0,9.159,9.159,0,0,1,1.894-5.6,15.208,15.208,0,0,0,10.245,4.269,18.2,18.2,0,0,0,6.217-1.014A8.614,8.614,0,0,1,29.474,16.976Z" transform="translate(13.67 18.635)" fill="#fff" stroke="#363e4a" stroke-linecap="round" stroke-linejoin="round" stroke-width="2"/>
      <path id="Path_50494" data-name="Path 50494" d="M11.815,29.767A7.937,7.937,0,1,0,6.2,27.442,7.937,7.937,0,0,0,11.815,29.767Z" transform="translate(1.325 23.13)" fill="#fff" stroke="#363e4a" stroke-linecap="round" stroke-linejoin="round" stroke-width="2"/>
      <path id="Path_50495" data-name="Path 50495" d="M14.156,21.146V24.9" transform="translate(19.661 36.07)" fill="none" stroke="#363e4a" stroke-linecap="round" stroke-linejoin="round" stroke-width="2"/>
      <path id="Path_50496" data-name="Path 50496" d="M27.94,17.022a18.2,18.2,0,0,1-6.217,1.014,15.209,15.209,0,0,1-10.245-4.269A9.3,9.3,0,0,1,27.94,17.022Z" transform="translate(14.884 16.241)" fill="#e97176" stroke="#363e4a" stroke-linecap="round" stroke-linejoin="round" stroke-width="2"/>
      <path id="Path_50498" data-name="Path 50498" d="M13.14,20.817a11.341,11.341,0,0,0-10,6" transform="translate(0 35.482)" fill="none" stroke="#363e4a" stroke-linecap="round" stroke-linejoin="round" stroke-width="2"/>
      <path id="Path_50499" data-name="Path 50499" d="M11.4,21.82a11.3,11.3,0,0,0-4.674-1" transform="translate(6.411 35.482)" fill="none" stroke="#363e4a" stroke-linecap="round" stroke-linejoin="round" stroke-width="2"/>
      <path id="Path_50500" data-name="Path 50500" d="M13.744,21.83a13.124,13.124,0,0,0,5.184-1.067A7.886,7.886,0,0,0,4.281,17.828a13.163,13.163,0,0,0,9.463,4Z" transform="translate(2.043 23.127)" fill="#e97176" stroke="#363e4a" stroke-linecap="round" stroke-linejoin="round" stroke-width="2"/>
      <path id="Path_50501" data-name="Path 50501" d="M20.865,62.294V.931" transform="translate(31.628 0.007)" fill="none" stroke="#363e4a" stroke-linecap="round" stroke-linejoin="round" stroke-width="2"/>
      <path id="Path_50502" data-name="Path 50502" d="M30.6,10.848v2.668a2.641,2.641,0,0,1-2.668,2.668H7.923l6.67-6.67-6.67-6.67H25.265V8.18a2.668,2.668,0,0,0,2.668,2.668Z" transform="translate(8.541 3.419)" fill="#e97176" stroke="#363e4a" stroke-linecap="round" stroke-linejoin="round" stroke-width="2"/>
      <path id="Path_50503" data-name="Path 50503" d="M16.82.927A2.668,2.668,0,0,0,14.153,3.6v8a2.668,2.668,0,0,0,2.668,2.668H32.828V.927Z" transform="translate(19.654 0)" fill="#fff" stroke="#363e4a" stroke-linecap="round" stroke-linejoin="round" stroke-width="2"/>
    </g>
  </g>
</svg>
