<svg xmlns="http://www.w3.org/2000/svg" width="65" height="65" viewBox="0 0 65 65">
  <g id="App_Store_Optimization" data-name="App Store Optimization" transform="translate(-34 -67.745)">
    <path id="Path_50791" data-name="Path 50791" d="M0,0H65V65H0Z" transform="translate(34 67.745)" fill="#fff"/>
    <g id="responsive-design-phone" transform="translate(41.957 70.569)">
      <path id="Path_50534" data-name="Path 50534" d="M12.229.5H34.6s3.729,0,3.729,3.729v34.8s0,3.729-3.729,3.729H12.229s-3.729,0-3.729-3.729V4.229S8.5.5,12.229.5Z" transform="translate(7.43)" fill="#fff"/>
      <path id="Path_50535" data-name="Path 50535" d="M8.5,3.5H38.331V28.359H8.5Z" transform="translate(7.43 4.458)" fill="#f7858a"/>
      <path id="Path_50536" data-name="Path 50536" d="M35.845,3.5H8.5V28.359h2.486Z" transform="translate(7.43 4.458)" fill="#fff"/>
      <path id="Path_50537" data-name="Path 50537" d="M5.986,13.5h12.43A2.435,2.435,0,0,1,20.9,15.986V35.873a2.435,2.435,0,0,1-2.486,2.486H5.986A2.435,2.435,0,0,1,3.5,35.873V15.986A2.435,2.435,0,0,1,5.986,13.5Z" transform="translate(0 19.317)" fill="#fff"/>
      <path id="Path_50538" data-name="Path 50538" d="M20.9,30.416H3.5V15.5H19.659A1.243,1.243,0,0,1,20.9,16.743Z" transform="translate(0 22.289)" fill="#f7858a"/>
      <path id="Path_50539" data-name="Path 50539" d="M19.659,15.5H3.5V30.416H4.743Z" transform="translate(0 22.289)" fill="#fff"/>
      <path id="Path_50540" data-name="Path 50540" d="M16.5,13.5h9.944" transform="translate(19.317 19.317)" fill="none" stroke="#363e4a" stroke-linecap="round" stroke-linejoin="round" stroke-width="2"/>
      <path id="Path_50541" data-name="Path 50541" d="M20.9,28.416v7.458a2.486,2.486,0,0,1-2.486,2.486H5.986A2.486,2.486,0,0,1,3.5,35.873V15.986A2.486,2.486,0,0,1,5.986,13.5H9.715" transform="translate(0 19.317)" fill="none" stroke="#363e4a" stroke-linecap="round" stroke-linejoin="round" stroke-width="2"/>
      <path id="Path_50542" data-name="Path 50542" d="M3.5,15.5H7.229" transform="translate(0 22.289)" fill="none" stroke="#363e4a" stroke-linecap="round" stroke-linejoin="round" stroke-width="2"/>
      <path id="Path_50543" data-name="Path 50543" d="M3.5,21.5H20.9" transform="translate(0 31.205)" fill="none" stroke="#363e4a" stroke-linecap="round" stroke-linejoin="round" stroke-width="2"/>
      <path id="Path_50544" data-name="Path 50544" d="M8.5,29.088V4.229A3.729,3.729,0,0,1,12.229.5H34.6a3.729,3.729,0,0,1,3.729,3.729v34.8A3.729,3.729,0,0,1,34.6,42.761H18.444" transform="translate(7.43)" fill="none" stroke="#363e4a" stroke-linecap="round" stroke-linejoin="round" stroke-width="2"/>
      <path id="Path_50545" data-name="Path 50545" d="M24.9,10.5,7.5,27.9" transform="translate(5.944 14.859)" fill="none" stroke="#363e4a" stroke-linecap="round" stroke-linejoin="round" stroke-width="2"/>
      <path id="Path_50546" data-name="Path 50546" d="M11.5,10.5h7.458v7.458" transform="translate(11.888 14.859)" fill="none" stroke="#363e4a" stroke-linecap="round" stroke-linejoin="round" stroke-width="2"/>
      <path id="Path_50547" data-name="Path 50547" d="M7.5,14.5v7.458h7.458" transform="translate(5.944 20.803)" fill="none" stroke="#363e4a" stroke-linecap="round" stroke-linejoin="round" stroke-width="2"/>
      <path id="Path_50548" data-name="Path 50548" d="M8.5,3.5H38.331" transform="translate(7.43 4.458)" fill="none" stroke="#363e4a" stroke-linecap="round" stroke-linejoin="round" stroke-width="2"/>
    </g>
  </g>
</svg>
