<svg xmlns="http://www.w3.org/2000/svg" width="96" height="95" viewBox="0 0 96 95">
  <g id="Group_42196" data-name="Group 42196" transform="translate(-1337 -3765.597)">
    <g id="Group_42195" data-name="Group 42195" transform="translate(1337 3765.597)">
      <rect id="Rectangle_12844" data-name="Rectangle 12844" width="96" height="95" rx="20" fill="#172433"/>
      <g id="Group_42197" data-name="Group 42197" transform="translate(27.997 13.637)">
        <path id="Path_72419" data-name="Path 72419" d="M213.891,102.744a3.759,3.759,0,0,1,1.609.35,3.8,3.8,0,0,1,1.272.952,4.624,4.624,0,0,1,.823,1.379,4.508,4.508,0,0,1,.3,1.631,4.084,4.084,0,0,1-1.123,2.952,3.824,3.824,0,0,1-2.881,1.165,12.676,12.676,0,0,1-4.77-.893,12.272,12.272,0,0,1-3.909-2.486,11.49,11.49,0,0,1-2.656-3.845,13.342,13.342,0,0,1-1.047-4.972V74.586a4.43,4.43,0,0,1,1.16-3.011,3.94,3.94,0,0,1,1.234-.893,3.605,3.605,0,0,1,1.534-.33,3.955,3.955,0,0,1,1.609.33,4.517,4.517,0,0,1,1.328.893,4.177,4.177,0,0,1,1.253,3.011V98.705a3.738,3.738,0,0,0,1.2,3.029,4.588,4.588,0,0,0,3.067,1.01" transform="translate(-199.349 -43.567)" fill="#2ba84a"/>
        <path id="Path_72420" data-name="Path 72420" d="M268.734,88.406a3.757,3.757,0,0,1,1.609.35,3.807,3.807,0,0,1,1.272.952,4.632,4.632,0,0,1,.823,1.379,4.508,4.508,0,0,1,.3,1.631,4.082,4.082,0,0,1-1.122,2.952,3.825,3.825,0,0,1-2.881,1.165,12.675,12.675,0,0,1-4.769-.893,12.272,12.272,0,0,1-3.909-2.486,11.485,11.485,0,0,1-2.656-3.845,13.349,13.349,0,0,1-1.047-4.972V50.369a4.426,4.426,0,0,1,1.16-3.011,3.936,3.936,0,0,1,1.235-.893,3.6,3.6,0,0,1,1.534-.33,3.954,3.954,0,0,1,1.609.33,4.509,4.509,0,0,1,1.328.893,4.178,4.178,0,0,1,1.253,3.011v34a3.739,3.739,0,0,0,1.2,3.029,4.589,4.589,0,0,0,3.067,1.01" transform="translate(-232.66 -29.231)" fill="#2ba84a"/>
        <path id="Path_72421" data-name="Path 72421" d="M221.671,12.38l1.279.861a.921.921,0,0,0,1.412-.9L223.217.855a.92.92,0,0,0-1.2-.807l-10.568,3.6a.968.968,0,0,0-.213,1.706l1.337.9a.971.971,0,0,1,.336,1.2c-1.286,2.892-6.493,13.193-16.152,15.127a.959.959,0,0,0,.078,1.881c6.272.737,15.61-.633,23.594-11.837a.9.9,0,0,1,1.242-.241" transform="translate(-196.019 0)" fill="#2ba84a"/>
      </g>
    </g>
  </g>
</svg>
