<svg xmlns="http://www.w3.org/2000/svg" xmlns:xlink="http://www.w3.org/1999/xlink" width="447.905" height="554.054" viewBox="0 0 447.905 554.054">
  <defs>
    <linearGradient id="linear-gradient" x1="37.555" y1="72.963" x2="37.262" y2="72.233" gradientUnits="objectBoundingBox">
      <stop offset="0.005" stop-color="#fff"/>
      <stop offset="1" stop-color="#bfd1de"/>
    </linearGradient>
    <linearGradient id="linear-gradient-2" x1="0.603" y1="0.08" x2="0.362" y2="1.178" gradientUnits="objectBoundingBox">
      <stop offset="0" stop-color="#fff"/>
      <stop offset="1" stop-color="#ced2f7"/>
    </linearGradient>
    <linearGradient id="linear-gradient-3" x1="0.141" y1="-0.701" x2="0.735" y2="1.286" xlink:href="#linear-gradient-2"/>
    <linearGradient id="linear-gradient-4" x1="0.062" y1="-1.215" x2="0.428" y2="0.441" xlink:href="#linear-gradient-2"/>
    <linearGradient id="linear-gradient-5" x1="-15.536" y1="6.04" x2="-15.472" y2="7.382" xlink:href="#linear-gradient-2"/>
    <linearGradient id="linear-gradient-6" x1="0.08" y1="-0.576" x2="1.024" y2="1.503" gradientUnits="objectBoundingBox">
      <stop offset="0" stop-color="#e97176"/>
      <stop offset="1" stop-color="#f7858a"/>
    </linearGradient>
    <linearGradient id="linear-gradient-7" x1="-8.398" y1="1.624" x2="-8.326" y2="3.085" xlink:href="#linear-gradient-2"/>
    <linearGradient id="linear-gradient-8" x1="-11.254" y1="2.143" x2="-11.178" y2="3.793" gradientUnits="objectBoundingBox">
      <stop offset="0" stop-color="#484952"/>
      <stop offset="1" stop-color="#303136"/>
    </linearGradient>
    <linearGradient id="linear-gradient-9" x1="105.756" y1="0.5" x2="106.756" y2="0.5" xlink:href="#linear-gradient"/>
    <linearGradient id="linear-gradient-10" x1="60.836" y1="57.412" x2="61.52" y2="57.412" xlink:href="#linear-gradient"/>
    <linearGradient id="linear-gradient-11" x1="0.792" y1="0.088" x2="0.078" y2="0.977" xlink:href="#linear-gradient-2"/>
    <linearGradient id="linear-gradient-12" x1="0.382" y1="0.13" x2="0.782" y2="1.224" xlink:href="#linear-gradient-8"/>
    <linearGradient id="linear-gradient-13" x1="-1.69" y1="1.519" x2="-1.725" y2="1.591" xlink:href="#linear-gradient-2"/>
    <linearGradient id="linear-gradient-14" x1="0.54" y1="-0.252" x2="0.398" y2="2.412" xlink:href="#linear-gradient-2"/>
    <linearGradient id="linear-gradient-15" x1="0.424" y1="-0.144" x2="0.6" y2="1.351" xlink:href="#linear-gradient-2"/>
    <linearGradient id="linear-gradient-16" x1="0.45" y1="0.124" x2="0.549" y2="1.429" gradientUnits="objectBoundingBox">
      <stop offset="0" stop-color="#fff" stop-opacity="0.102"/>
      <stop offset="1" stop-color="#ebecf2"/>
    </linearGradient>
  </defs>
  <g id="OBJECTS" transform="translate(-28.729 -48.525)">
    <g id="Group_1" data-name="Group 1">
      <path id="Path_1" data-name="Path 1" d="M81.109,310.607c18.35-1.293,33.9-10.435,33.9-10.435-25.276-38.508-28.379-67.495-28.379-67.495s-39.171,2.888-57.686-20.357c0,0-2.345,26.519,8.575,57.934C44.58,290.567,68.422,311.5,81.109,310.607Z" fill="#fff"/>
      <path id="Path_2" data-name="Path 2" d="M37.516,270.254c7.956,7.729,20.81,8.12,30.427,5.131-1.222,14.783,2.037,27.189,10.4,35.1C63.847,310.341,44.935,294.088,37.516,270.254Z" fill="url(#linear-gradient)"/>
    </g>
    <g id="Group_13" data-name="Group 13">
      <path id="Path_3" data-name="Path 3" d="M377.232,165.947c.051.745.1,1.489.151,2.238.94,13.888-10.167,20.187-19.979,18.482-36.293-6.3-36.027,13.821-56.327,16.08a48.827,48.827,0,0,1-17.173-1.108c-20.8-5.142-36.112-23.542-37.434-43.078q-.075-1.119-.152-2.237c1.323,19.536,16.638,37.938,37.435,43.079a48.826,48.826,0,0,0,17.173,1.108c20.3-2.258,20.034-22.376,56.328-16.08C367.064,186.135,378.173,179.836,377.232,165.947Z" fill="#bbc7f0"/>
      <path id="Path_4" data-name="Path 4" d="M283.9,199.792a48.78,48.78,0,0,0,17.173,1.107c20.3-2.256,20.034-22.375,56.327-16.078,9.174,1.594,19.477-3.81,20.01-15.873-.008-.254-.014-.5-.031-.763-.037-.552-.073-1.1-.112-1.656,0,.062,0,.122-.008.183.486,13.352-10.382,19.392-20.009,17.719-36.294-6.3-36.027,13.822-56.328,16.08a48.826,48.826,0,0,1-17.173-1.108,50.472,50.472,0,0,1-34.544-30.294A50.458,50.458,0,0,0,283.9,199.792Z" fill="#fff"/>
      <g id="Group_2" data-name="Group 2">
        <path id="Path_5" data-name="Path 5" d="M361.98,135.544c29.037,34.729,10.58,51.546-4.726,48.887-36.294-6.3-36.027,13.822-56.328,16.08a48.826,48.826,0,0,1-17.173-1.108c-28.968-7.162-47.3-40.056-31.99-65.9,13.226-22.322,42.356-29.586,69.346-22.916C336.563,114.406,351.317,122.8,361.98,135.544ZM292,190.77c18.472,1.682,34.7-7.293,36.251-20.04,1.331-11.04-8.788-21.287-23.525-24.93a47.971,47.971,0,0,0-7.151-1.2c-18.472-1.672-34.714,7.3-36.252,20.048-1.331,11.037,8.771,21.278,23.506,24.919a47.941,47.941,0,0,0,7.171,1.2m71.065-16.99c5.394-3.3,7.127-9.632,3.875-14.139a10.017,10.017,0,0,0-5.807-3.789,13.056,13.056,0,0,0-9.85,1.6c-5.392,3.3-7.125,9.63-3.874,14.137a10.023,10.023,0,0,0,5.81,3.789,13.058,13.058,0,0,0,9.846-1.6m-83.037-56.219c-5.391,3.3-7.124,9.629-3.872,14.139a10.029,10.029,0,0,0,5.817,3.793A13.045,13.045,0,0,0,291.8,133.9c5.4-3.308,7.126-9.63,3.875-14.14a10.038,10.038,0,0,0-5.818-3.793,13.044,13.044,0,0,0-9.838,1.595M337.7,153.279a13.051,13.051,0,0,0,9.838-1.6c5.394-3.3,7.124-9.63,3.875-14.139a10.053,10.053,0,0,0-5.817-3.794,13.015,13.015,0,0,0-9.828,1.6c-5.394,3.3-7.135,9.628-3.885,14.136a10.036,10.036,0,0,0,5.817,3.794m-26.272-32.158c-5.387,3.31-7.124,9.63-3.874,14.14a10.048,10.048,0,0,0,5.818,3.793,13.042,13.042,0,0,0,9.836-1.6c5.394-3.3,7.125-9.631,3.875-14.14a10.06,10.06,0,0,0-5.816-3.794,13.051,13.051,0,0,0-9.839,1.6" fill="url(#linear-gradient-2)"/>
      </g>
      <g id="Group_3" data-name="Group 3">
        <path id="Path_6" data-name="Path 6" d="M289.862,115.733a10.035,10.035,0,0,1,5.818,3.794c3.251,4.508,1.521,10.831-3.875,14.139a13.046,13.046,0,0,1-9.836,1.6,10.04,10.04,0,0,1-5.817-3.794c-3.252-4.509-1.519-10.84,3.872-14.139A13.044,13.044,0,0,1,289.862,115.733Z" fill="#fff"/>
      </g>
      <g id="Group_4" data-name="Group 4">
        <path id="Path_7" data-name="Path 7" d="M321.262,119.294a10.051,10.051,0,0,1,5.816,3.791c3.25,4.51,1.519,10.842-3.875,14.14a13.042,13.042,0,0,1-9.836,1.6,10.044,10.044,0,0,1-5.818-3.794c-3.25-4.508-1.513-10.83,3.874-14.14A13.048,13.048,0,0,1,321.262,119.294Z" fill="#fff"/>
      </g>
      <g id="Group_5" data-name="Group 5">
        <path id="Path_8" data-name="Path 8" d="M345.591,133.519a10.053,10.053,0,0,1,5.817,3.794c3.249,4.508,1.519,10.84-3.875,14.138a13.046,13.046,0,0,1-9.838,1.6,10.039,10.039,0,0,1-5.817-3.793c-3.25-4.51-1.509-10.84,3.885-14.138A13.009,13.009,0,0,1,345.591,133.519Z" fill="#fff"/>
      </g>
      <g id="Group_6" data-name="Group 6">
        <path id="Path_9" data-name="Path 9" d="M361.129,155.619a10.016,10.016,0,0,1,5.807,3.788c3.252,4.508,1.519,10.841-3.875,14.14a13.058,13.058,0,0,1-9.846,1.6,10.034,10.034,0,0,1-5.81-3.787c-3.251-4.51-1.518-10.841,3.874-14.139A13.064,13.064,0,0,1,361.129,155.619Z" fill="#fff"/>
      </g>
      <g id="Group_7" data-name="Group 7">
        <path id="Path_10" data-name="Path 10" d="M289.862,115.966a10.038,10.038,0,0,1,5.818,3.793c3.251,4.51,1.521,10.832-3.875,14.14a13.041,13.041,0,0,1-9.836,1.594,10.029,10.029,0,0,1-5.817-3.793c-3.252-4.51-1.519-10.842,3.872-14.139A13.044,13.044,0,0,1,289.862,115.966Z" fill="#f7858a"/>
      </g>
      <g id="Group_8" data-name="Group 8">
        <path id="Path_11" data-name="Path 11" d="M321.262,119.524a10.07,10.07,0,0,1,5.816,3.794c3.25,4.509,1.519,10.841-3.875,14.14a13.042,13.042,0,0,1-9.836,1.6,10.048,10.048,0,0,1-5.818-3.793c-3.25-4.51-1.513-10.83,3.874-14.14A13.06,13.06,0,0,1,321.262,119.524Z" fill="#e97176"/>
      </g>
      <g id="Group_9" data-name="Group 9">
        <path id="Path_12" data-name="Path 12" d="M345.591,133.751a10.053,10.053,0,0,1,5.817,3.794c3.249,4.509,1.519,10.841-3.875,14.139a13.046,13.046,0,0,1-9.838,1.6,10.036,10.036,0,0,1-5.817-3.794c-3.25-4.508-1.509-10.839,3.885-14.136A13.015,13.015,0,0,1,345.591,133.751Z" fill="#f7858a"/>
      </g>
      <g id="Group_10" data-name="Group 10">
        <path id="Path_13" data-name="Path 13" d="M361.129,155.852a10.017,10.017,0,0,1,5.807,3.789c3.252,4.507,1.519,10.84-3.875,14.139a13.058,13.058,0,0,1-9.846,1.6,10.023,10.023,0,0,1-5.81-3.789c-3.251-4.507-1.518-10.84,3.874-14.137A13.056,13.056,0,0,1,361.129,155.852Z" fill="#e97176"/>
      </g>
      <g id="Group_11" data-name="Group 11">
        <path id="Path_14" data-name="Path 14" d="M304.722,145.311c14.737,3.644,24.856,13.891,23.524,24.933-1.548,12.747-17.778,21.719-36.25,20.038a47.941,47.941,0,0,1-7.171-1.2c-14.735-3.643-24.837-13.884-23.506-24.919,1.538-12.75,17.78-21.722,36.252-20.05A48.233,48.233,0,0,1,304.722,145.311Z" fill="#fff"/>
      </g>
      <g id="Group_12" data-name="Group 12">
        <path id="Path_15" data-name="Path 15" d="M304.722,145.8c14.737,3.643,24.856,13.89,23.524,24.931C326.7,183.477,310.468,192.452,292,190.77a47.814,47.814,0,0,1-7.171-1.2c-14.735-3.641-24.837-13.882-23.506-24.919,1.538-12.75,17.78-21.72,36.252-20.048A47.971,47.971,0,0,1,304.722,145.8Z" fill="url(#linear-gradient-3)"/>
      </g>
      <path id="Path_16" data-name="Path 16" d="M262.574,168.138c1.537-12.749,17.778-21.722,36.252-20.049a48.123,48.123,0,0,1,7.151,1.195c10.41,2.574,18.508,8.443,21.9,15.56-2.122-8.651-11.087-16.06-23.155-19.044a47.971,47.971,0,0,0-7.151-1.2c-18.472-1.672-34.714,7.3-36.252,20.048a16.879,16.879,0,0,0,1.622,9.374A16.363,16.363,0,0,1,262.574,168.138Z" fill="url(#linear-gradient-4)"/>
    </g>
    <g id="Group_14" data-name="Group 14">
      <path id="Path_17" data-name="Path 17" d="M376.823,416.811a2.484,2.484,0,0,1-3.5.325l-51.212-42.5a2.487,2.487,0,0,1-.326-3.5L368.124,315.3a2.485,2.485,0,0,1,3.5-.325l51.213,42.5a2.485,2.485,0,0,1,.324,3.5Z" fill="url(#linear-gradient-5)"/>
      <rect id="Rectangle_2" data-name="Rectangle 2" width="68.851" height="65.879" transform="translate(325.266 371.358) rotate(-50.309)" fill="url(#linear-gradient-6)"/>
    </g>
    <g id="Group_15" data-name="Group 15">
      <path id="Path_18" data-name="Path 18" d="M396.536,341.535,357.248,328.4l-35.463,42.728a2.487,2.487,0,0,0,.326,3.5l47.953,39.8,1.9.634a2.485,2.485,0,0,0,3.145-1.57l23-68.814A2.485,2.485,0,0,0,396.536,341.535Z" fill="#d3d6f5" style="mix-blend-mode: multiply;isolation: isolate"/>
      <path id="Path_19" data-name="Path 19" d="M374.23,407.87a2.485,2.485,0,0,1-3.145,1.57l-63.12-21.1a2.489,2.489,0,0,1-1.571-3.146l23-68.814a2.486,2.486,0,0,1,3.146-1.569l63.12,21.1a2.485,2.485,0,0,1,1.569,3.146Z" fill="url(#linear-gradient-7)"/>
      <rect id="Rectangle_3" data-name="Rectangle 3" width="68.911" height="65.879" transform="matrix(0.317, -0.948, 0.948, 0.317, 309.702, 384.205)" fill="url(#linear-gradient-8)"/>
    </g>
    <path id="Path_20" data-name="Path 20" d="M106.123,409.568a19.063,19.063,0,1,0,19.063-19.063A19.064,19.064,0,0,0,106.123,409.568Z" fill="none" stroke="#fff" stroke-linecap="round" stroke-linejoin="round" stroke-width="7"/>
    <ellipse id="Ellipse_1" data-name="Ellipse 1" cx="66.687" cy="9.939" rx="66.687" ry="9.939" transform="translate(183.313 432.7)" fill="#e6a8bd" style="mix-blend-mode: multiply;isolation: isolate"/>
    <g id="Group_16" data-name="Group 16">
      <path id="Path_21" data-name="Path 21" d="M402.834,97.329l-2.877,31.281L352.708,65.423Z" fill="url(#linear-gradient-9)"/>
      <path id="Path_22" data-name="Path 22" d="M390.918,106.918l9.039,21.692-47.8-63.187Z" fill="#cedbe5"/>
      <path id="Path_23" data-name="Path 23" d="M428.718,91.029l-25.884,6.3L352.708,65.423Z" fill="#fff"/>
      <path id="Path_24" data-name="Path 24" d="M352.708,65.423l38.21,41.5-25.885,18.351Z" fill="#fff"/>
    </g>
    <g id="Group_17" data-name="Group 17">
      <path id="Path_25" data-name="Path 25" d="M89.139,83.621,81.262,99.58,122.8,83.062Z" fill="url(#linear-gradient-10)"/>
      <path id="Path_26" data-name="Path 26" d="M92.053,91.782l-10.791,7.8,41.8-16.356Z" fill="#cedbe5"/>
      <path id="Path_27" data-name="Path 27" d="M78.5,72.911l10.634,10.71,33.659-.56Z" fill="#fff"/>
      <path id="Path_28" data-name="Path 28" d="M122.8,83.062,92.053,91.782l7.065,16.529Z" fill="#fff"/>
    </g>
    <g id="Group_18" data-name="Group 18">
      <path id="Path_29" data-name="Path 29" d="M143.926,364.258a3.778,3.778,0,0,0-.886-5.182l-13.125-9.62a3.776,3.776,0,0,0-5.212.725l-7.753,9.936-10.161-7.454a3.776,3.776,0,0,0-5.215.727l-7.746,9.936-10.159-7.453a3.776,3.776,0,0,0-5.216.726l-10,12.828a3.779,3.779,0,1,0,5.962,4.645l7.742-9.934,10.157,7.453a3.778,3.778,0,0,0,5.217-.725l7.746-9.936,10.16,7.452a3.778,3.778,0,0,0,5.216-.723l7.752-9.937,10.165,7.451a3.779,3.779,0,0,0,5.284-.816C143.879,364.325,143.9,364.29,143.926,364.258Z" fill="#e97176"/>
    </g>
    <path id="Path_30" data-name="Path 30" d="M436.181,191.841l3.906,6.009,6.009-3.907a2.746,2.746,0,0,1,2.993,4.6l-6.008,3.906,3.906,6.008a2.745,2.745,0,1,1-4.6,2.993l-3.907-6.008-6.008,3.908a2.746,2.746,0,0,1-2.993-4.6l6.007-3.908-3.906-6.008a2.746,2.746,0,1,1,4.6-2.993Z" fill="#e97176"/>
    <path id="Path_31" data-name="Path 31" d="M89.117,223.67l-1.551,7,7,1.55a2.746,2.746,0,0,1-1.188,5.361l-7-1.552-1.551,7a2.746,2.746,0,1,1-5.361-1.189l1.551-7-7-1.55a2.746,2.746,0,1,1,1.188-5.361l7,1.55,1.551-7a2.746,2.746,0,1,1,5.361,1.188Z" fill="#e97176"/>
    <path id="Path_32" data-name="Path 32" d="M233.352,57.118a3.525,3.525,0,0,0-2.566-2.419L205.1,48.622a3.527,3.527,0,0,0-4.19,4.442l7.578,25.284a3.526,3.526,0,0,0,5.943,1.4L232.54,60.547A3.523,3.523,0,0,0,233.352,57.118ZM213.491,70.472,209.42,56.89l13.8,3.264Z" fill="#e97176"/>
    <g id="Group_21" data-name="Group 21">
      <g id="Group_19" data-name="Group 19">
        <path id="Path_33" data-name="Path 33" d="M199.065,373.988l-3.951.458L96.276,150.654l2.5-3.576Z" fill="#484b4f"/>
      </g>
      <path id="Path_34" data-name="Path 34" d="M347.558,315.47a13.943,13.943,0,0,0-1.187-4.383l-96.884-212.8a13.666,13.666,0,0,0-2.476-3.688A13.373,13.373,0,0,0,243.65,92a11.41,11.41,0,0,0-3.829-1.288,9.014,9.014,0,0,0-3.869.267L94.123,133.665a10.725,10.725,0,0,0-4.047,2.231,10.105,10.105,0,0,0-2.57,3.547,10.654,10.654,0,0,0-.865,4.389,12.151,12.151,0,0,0,1.062,4.743L195.336,392.607a13.082,13.082,0,0,0,2.891,4.171,11.657,11.657,0,0,0,3.969,2.52,10.716,10.716,0,0,0,9.057-.674l131.528-72.6a8.58,8.58,0,0,0,2.877-2.61,10.694,10.694,0,0,0,1.626-3.68A12.946,12.946,0,0,0,347.558,315.47Z" fill="url(#linear-gradient-11)"/>
      <path id="Path_35" data-name="Path 35" d="M202.961,399.554a11.316,11.316,0,0,1-3.051-1.426,12.166,12.166,0,0,1-2.608-2.341,13.361,13.361,0,0,1-1.966-3.18L87.7,148.575a12.581,12.581,0,0,1-.873-2.817,11.4,11.4,0,0,1-.168-2.766,10.69,10.69,0,0,1,.49-2.611,10.271,10.271,0,0,1,1.105-2.354l-2.364,3.715a10.074,10.074,0,0,0-1.093,2.326,10.554,10.554,0,0,0-.487,2.578,11.1,11.1,0,0,0,0,1.353,11.523,11.523,0,0,0,.167,1.379,12.382,12.382,0,0,0,.859,2.78L191.4,392.8a13.16,13.16,0,0,0,1.938,3.135,11.946,11.946,0,0,0,2.575,2.308,11.163,11.163,0,0,0,3.013,1.405,10.6,10.6,0,0,0,3.251.434q2.035-.045,4.069-.093A10.723,10.723,0,0,1,202.961,399.554Z" fill="#bbc7f0"/>
      <path id="Path_36" data-name="Path 36" d="M202.961,399.554a11.316,11.316,0,0,1-3.051-1.426,12.166,12.166,0,0,1-2.608-2.341,13.361,13.361,0,0,1-1.966-3.18L87.911,149.047c.013.08.014.157.029.237a12.373,12.373,0,0,0,.859,2.781L194.867,392.711a13.07,13.07,0,0,0,1.938,3.135,11.946,11.946,0,0,0,2.575,2.308,11.166,11.166,0,0,0,3.013,1.406,10.594,10.594,0,0,0,3.251.434l.252-.006A10.724,10.724,0,0,1,202.961,399.554Z" fill="#fff"/>
      <path id="Path_37" data-name="Path 37" d="M283.541,348.8a9.008,9.008,0,0,0-.764-3l-1.054-2.346a8.408,8.408,0,0,0-1.7-2.493,7.238,7.238,0,0,0-2.289-1.56,6.243,6.243,0,0,0-2.587-.5,5.871,5.871,0,0,0-2.6.688l-2.011,1.066a6.425,6.425,0,0,0-2.115,1.811,7.626,7.626,0,0,0-1.253,2.553,8.706,8.706,0,0,0-.292,2.964,9.045,9.045,0,0,0,.765,3.036l1.065,2.376a8.3,8.3,0,0,0,1.725,2.52,7.151,7.151,0,0,0,2.32,1.56,6.2,6.2,0,0,0,2.613.477,5.893,5.893,0,0,0,2.6-.727l2-1.1a6.445,6.445,0,0,0,2.083-1.835,7.7,7.7,0,0,0,1.217-2.556A8.77,8.77,0,0,0,283.541,348.8Z" fill="#fff"/>
      <path id="Path_38" data-name="Path 38" d="M283.71,348.541a9,9,0,0,0-.764-3l-1.054-2.346a8.44,8.44,0,0,0-1.7-2.493,7.218,7.218,0,0,0-2.289-1.559,6.2,6.2,0,0,0-2.587-.5,5.9,5.9,0,0,0-2.6.687l-2.011,1.066a6.448,6.448,0,0,0-2.115,1.811,7.6,7.6,0,0,0-1.253,2.555,8.7,8.7,0,0,0-.292,2.964,9.063,9.063,0,0,0,.765,3.036l1.065,2.376a8.3,8.3,0,0,0,1.724,2.518,7.172,7.172,0,0,0,2.321,1.562,6.216,6.216,0,0,0,2.613.475,5.892,5.892,0,0,0,2.6-.726l2-1.1a6.421,6.421,0,0,0,2.083-1.835,7.684,7.684,0,0,0,1.217-2.555A8.774,8.774,0,0,0,283.71,348.541Z" fill="#dcdff7"/>
      <path id="Path_39" data-name="Path 39" d="M242.12,102.309,98.777,147.078l100.288,226.91,134.413-70.7Z" fill="url(#linear-gradient-12)"/>
      <text id="Mobile_iPAD" data-name="Mobile &amp; 
iPAD" transform="translate(192.776 335.52) rotate(-26.259)" fill="#fff" font-size="20" font-family="Montserrat-Light, Montserrat" font-weight="300"><tspan x="0" y="0">Mobile &amp; </tspan><tspan x="0" y="24">iPAD</tspan></text>
      <g id="Group_20" data-name="Group 20">
        <path id="Path_40" data-name="Path 40" d="M250.843,159.44c26.415,20.162,18.64,40.839,15.64,58.262-3.162,18.362-2.7,36.037,7.568,62.551-6.177-34.522,6.486-55.665,12.932-79.251L242.12,102.309l-13.88,4.335C225,126.862,232.292,145.277,250.843,159.44Z" fill="#e97176"/>
        <path id="Path_41" data-name="Path 41" d="M251.771,210.793c1.432,26.2,3.9,41.145,22.28,69.46-10.271-26.514-10.73-44.189-7.568-62.551,3-17.423,10.775-38.1-15.64-58.262-18.551-14.163-25.839-32.578-22.6-52.8L163.032,127.01c5.091,10.276,14.9,17.641,28.323,22.033C219.229,158.17,249.825,175.359,251.771,210.793Z" fill="#f7858a"/>
        <path id="Path_42" data-name="Path 42" d="M232.248,223.486c11.415,23.811,19.217,47.065,41.8,56.767-18.379-28.315-20.848-43.262-22.28-69.46-1.946-35.434-32.542-52.623-60.416-61.75-13.423-4.392-23.232-11.757-28.323-22.033l-50.844,15.879c9.328,19.871,31.9,33.838,54.59,37.533C188.706,183.99,220.833,199.684,232.248,223.486Z" fill="#e97176"/>
        <path id="Path_43" data-name="Path 43" d="M274.051,280.253c-22.586-9.7-30.388-32.956-41.8-56.767s-43.542-39.5-65.47-43.064c-22.691-3.695-45.262-17.662-54.59-37.533l-13.411,4.189,31.647,71.6c24.974,8.094,53.3,8.987,70.787,12.833C232.644,238.424,238.852,282.263,274.051,280.253Z" fill="#f7858a"/>
      </g>
      <path id="Path_44" data-name="Path 44" d="M282.17,348.445a7.468,7.468,0,0,0-.626-2.463l-.825-1.835a6.87,6.87,0,0,0-1.4-2.045,5.919,5.919,0,0,0-1.881-1.279,5.114,5.114,0,0,0-2.126-.409,4.788,4.788,0,0,0-2.127.564l-1.573.836a5.3,5.3,0,0,0-1.728,1.486,6.281,6.281,0,0,0-1.026,2.1,7.154,7.154,0,0,0-.239,2.431,7.37,7.37,0,0,0,.626,2.487l.831,1.855a6.823,6.823,0,0,0,1.413,2.064,5.945,5.945,0,0,0,1.9,1.28,5.1,5.1,0,0,0,2.142.392,4.816,4.816,0,0,0,2.135-.591l1.564-.856a5.268,5.268,0,0,0,1.71-1.5,6.247,6.247,0,0,0,1-2.1A7.164,7.164,0,0,0,282.17,348.445Zm-.751,2.194a5.646,5.646,0,0,1-.9,1.887,4.739,4.739,0,0,1-1.538,1.354l-1.567.854a4.334,4.334,0,0,1-1.922.532,4.586,4.586,0,0,1-1.928-.354,5.322,5.322,0,0,1-1.713-1.152,6.16,6.16,0,0,1-1.273-1.858l-.831-1.855a6.6,6.6,0,0,1-.562-2.238,6.411,6.411,0,0,1,.214-2.189,5.651,5.651,0,0,1,.922-1.888,4.727,4.727,0,0,1,1.557-1.339l1.572-.837a4.3,4.3,0,0,1,1.916-.51,4.592,4.592,0,0,1,1.914.369,5.363,5.363,0,0,1,1.7,1.151,6.165,6.165,0,0,1,1.257,1.842l.827,1.837a6.664,6.664,0,0,1,.562,2.219A6.409,6.409,0,0,1,281.419,350.639Z" fill="#c7cbf2"/>
      <path id="Path_45" data-name="Path 45" d="M272.052,147.85,249.487,98.288a13.666,13.666,0,0,0-2.476-3.688A13.373,13.373,0,0,0,243.65,92a11.41,11.41,0,0,0-3.829-1.288,9.014,9.014,0,0,0-3.869.267L94.123,133.665a10.725,10.725,0,0,0-4.047,2.231,10.105,10.105,0,0,0-2.57,3.547,10.654,10.654,0,0,0-.865,4.389,12.151,12.151,0,0,0,1.062,4.743l83.886,190.191Z" fill="#fff" opacity="0.2" style="mix-blend-mode: overlay;isolation: isolate"/>
    </g>
    <g id="Group_22" data-name="Group 22">
      <path id="Path_46" data-name="Path 46" d="M345.658,323.416a10.694,10.694,0,0,0,1.626-3.68,12.845,12.845,0,0,0,.287-4.023c-.984-.555-1.975-1.112-2.949-1.659-6.654-3.744-13.014-7.321-18.824-10.588s-11.069-6.228-15.515-8.728-8.084-4.548-10.652-5.991c-4.352-2.45-4.352-2.45-4.823-2.691-.4-.2-1.464-.668-2.559-1.091-4.65-1.8-11.841-3.98-15.7-5.151-1.593-.434-2.236,0-2.491.442a1.045,1.045,0,0,0-.128.55,2.387,2.387,0,0,0,.758,1.513,8.631,8.631,0,0,0,.644.6c.552.495,1.106.983,1.653,1.48.448.4,1.049.931,1.5,1.329,3.169,2.8,5.221,4.516,5.445,4.7a54.167,54.167,0,0,0,6.369,4.841c.022.015.052.031.071.043q15.205,8.549,30.4,17.1,11.51,6.473,23.018,12.948A8.783,8.783,0,0,0,345.658,323.416Z" fill="#d3d6f5" style="mix-blend-mode: multiply;isolation: isolate"/>
      <path id="Path_47" data-name="Path 47" d="M425.056,157.431a3.97,3.97,0,0,0-1.222-1.146,5.3,5.3,0,0,0-3.864-.507,9.6,9.6,0,0,0-3.379,1.563c-.29.2-.29.2-6.015,4.869-2.741,2.236-6.376,5.2-10.674,8.712s-9.259,7.558-14.653,11.961-11.22,9.155-17.248,14.076-12.259,10.006-18.459,15.067-12.372,10.1-18.285,14.924l-16.733,13.656-13.79,11.257c-3.954,3.227-7.186,5.864-9.468,7.728-3.87,3.157-3.87,3.157-4.267,3.508-.336.3-1.156,1.12-1.949,1.983-3.375,3.672-8.03,9.569-10.531,12.737-.986,1.325-.818,2.081-.5,2.481a1.045,1.045,0,0,0,.464.32,2.409,2.409,0,0,0,1.686-.153,8.475,8.475,0,0,0,.793-.382c.661-.333,1.319-.669,1.981-1,.537-.269,1.249-.636,1.785-.909,3.765-1.928,6.112-3.21,6.367-3.351a54.22,54.22,0,0,0,6.833-4.161l.065-.052q13.512-11.029,27.021-22.053l70.722-57.726,14.654-11.959c4.3-3.509,7.933-6.476,10.675-8.713,5.428-4.43,5.428-4.43,5.863-4.811a11.278,11.278,0,0,0,1.414-1.557,6.458,6.458,0,0,0,1.366-4.726A4.133,4.133,0,0,0,425.056,157.431Z" fill="url(#linear-gradient-13)"/>
      <path id="Path_48" data-name="Path 48" d="M290.606,264.084a8.035,8.035,0,0,0-2.918-1.569c.111-.09.244-.2.406-.331a8.591,8.591,0,0,1,2.8,1.55,10.433,10.433,0,0,1,3.734,6.366c-.14.112-.275.225-.413.335A9.866,9.866,0,0,0,290.606,264.084ZM402.023,169.19a5.649,5.649,0,0,1,3.658,1.484,8.462,8.462,0,0,1,3.225,6.146l2.462-2.006a11.821,11.821,0,0,0-3.981-6.236,10.243,10.243,0,0,0-2.664-1.592Q403.433,168.04,402.023,169.19Z" fill="#c3cce8" style="mix-blend-mode: multiply;isolation: isolate"/>
    </g>
    <g id="Group_28" data-name="Group 28">
      <path id="Path_49" data-name="Path 49" d="M86.322,296.192a5.632,5.632,0,0,1-.174-.709c-.017-.085-.032-.173-.044-.258s-.033-.2-.05-.314a8.29,8.29,0,0,1,.07-2.414c.028-.19.137-.682.191-.865a10.453,10.453,0,0,1,.423-1.213,9.037,9.037,0,0,1,1.064-1.878,8.82,8.82,0,0,1,1.276-1.388,7.2,7.2,0,0,1,3.192-1.617,6.688,6.688,0,0,1,1.767-.118,6.289,6.289,0,0,1,1.939.463L106,290.057c1.086.452,1.869,1.629,2.085,3.419a12.177,12.177,0,0,1-4.319,10.164,3.867,3.867,0,0,1-3.768.834c-3.008-1.256-7.018-2.924-10.026-4.176a7.882,7.882,0,0,1-.783-.394,7.043,7.043,0,0,1-.716-.5,6.036,6.036,0,0,1-1.053-1.074c-.046-.06-.1-.144-.173-.243-.057-.08-.114-.168-.171-.257-.021-.031-.037-.056-.057-.088-.038-.058-.073-.124-.11-.186-.053-.091-.1-.18-.152-.28l-.045-.1c-.043-.088-.087-.171-.121-.259-.015-.037-.027-.068-.041-.105a.82.82,0,0,1-.039-.089C86.439,296.552,86.377,296.373,86.322,296.192Z" fill="#e97176"/>
      <g id="Group_24" data-name="Group 24" style="isolation: isolate">
        <path id="Path_50" data-name="Path 50" d="M100.783,302.537l-5.006-1.95,3.45,3.7,5,1.953Z" fill="#f58f93"/>
        <path id="Path_51" data-name="Path 51" d="M97.669,292.78l-1.892,7.807,5.006,1.95,1.891-7.8Z" fill="#ff9da1"/>
        <path id="Path_52" data-name="Path 52" d="M103.011,288.676l-5.342,4.1,5,1.952,5.343-4.106Z" fill="#ffb4b7"/>
        <g id="Group_23" data-name="Group 23">
          <path id="Path_53" data-name="Path 53" d="M108.017,290.626l3.446,3.7-1.889,7.8-5.343,4.105-3.447-3.7,1.891-7.8Z" fill="#c5c5c5"/>
        </g>
      </g>
      <g id="Group_26" data-name="Group 26" style="isolation: isolate">
        <path id="Path_54" data-name="Path 54" d="M179.86,335.478l-79.229-33,3.45,3.7,79.229,33Z" fill="#e97176"/>
        <path id="Path_55" data-name="Path 55" d="M102.522,294.677l-1.891,7.8,79.229,33,1.891-7.807Z" fill="#f7858a"/>
        <path id="Path_56" data-name="Path 56" d="M107.864,290.568l-5.342,4.108,79.229,32.994,5.341-4.105Z" fill="#e97176"/>
        <g id="Group_25" data-name="Group 25">
          <path id="Path_57" data-name="Path 57" d="M187.092,323.565l3.447,3.7-1.888,7.8-5.341,4.107-3.449-3.7,1.891-7.807Z" fill="#c5c5c5"/>
        </g>
      </g>
      <g id="Group_27" data-name="Group 27">
        <path id="Path_58" data-name="Path 58" d="M196.8,331.744c-2.14-1.936-4.269-3.878-6.261-5.848-1.249-.466-2.129-1.227-3.913.1a12.019,12.019,0,0,0-4.27,10.043c.276,2.294,1.616,3.275,3.21,3.29,2.618.024,5.217.105,7.813.189C193.1,336.578,194.044,332.9,196.8,331.744Z" fill="#eb9b76"/>
        <path id="Path_59" data-name="Path 59" d="M204.41,338.824a.329.329,0,0,1,.051.031c-2.422-2.4-5.051-4.753-7.659-7.111-2.758,1.153-3.7,4.834-3.421,7.775,3.553.117,7.1.247,10.686.279-.009,0-.015-.008-.025-.011a.265.265,0,0,0,.208-.059.808.808,0,0,0,.29-.679A.266.266,0,0,0,204.41,338.824Z" fill="#232932"/>
      </g>
      <path id="Path_60" data-name="Path 60" d="M190.541,325.9l-3.449-2.331a5.839,5.839,0,0,0-4.219.781,3.45,3.45,0,0,0-1.652,3.1,4.682,4.682,0,0,0-2.655,3.366,5.217,5.217,0,0,0,.869,4.484c-.056,1.193,2.509,3.626,3.875,3.875,0,0,1.348.145,2.258.155Z" fill="#eb9b76"/>
    </g>
    <g id="Group_30" data-name="Group 30">
      <path id="Path_61" data-name="Path 61" d="M390.807,219.91l9.618,8.688-.663,1.71-9.618-8.687Z" fill="#bbc7f0"/>
      <path id="Path_62" data-name="Path 62" d="M390.807,219.91l-.663,1.711-12.291-1.887.663-1.71Z" fill="url(#linear-gradient-14)"/>
      <path id="Path_63" data-name="Path 63" d="M448.953,230.645l-76.27-11.7a3.489,3.489,0,0,0-3.455,2.312L355.76,256.008l-7.16,18.476c-.573,1.478.044,2.84,1.378,3.044l76.272,11.7a3.489,3.489,0,0,0,3.458-2.3L450.336,233.7C450.911,232.213,450.288,230.85,448.953,230.645Z" fill="url(#linear-gradient-15)"/>
      <path id="Path_64" data-name="Path 64" d="M459.546,239.781l-9.617-8.686a2.311,2.311,0,0,1,.407,2.6L429.708,286.93a3.489,3.489,0,0,1-3.458,2.3l-76.272-11.7a1.844,1.844,0,0,1-.971-.448l9.617,8.688a1.85,1.85,0,0,0,.973.447l76.271,11.7a3.49,3.49,0,0,0,3.458-2.3l20.628-53.231A2.312,2.312,0,0,0,459.546,239.781Z" fill="#bbc7f0"/>
      <path id="Path_65" data-name="Path 65" d="M450.368,231.763a2.581,2.581,0,0,1-.032,1.936L429.708,286.93a3.489,3.489,0,0,1-3.458,2.3l-76.272-11.7a1.844,1.844,0,0,1-.971-.448l.962.869a1.971,1.971,0,0,0,.337.1l76.271,11.7a3.49,3.49,0,0,0,3.458-2.3l20.628-53.231A2.344,2.344,0,0,0,450.368,231.763Z" fill="#fff"/>
      <path id="Path_66" data-name="Path 66" d="M387.163,226.558l-10.275-1.578a3.5,3.5,0,0,0-3.454,2.312l-.994,2.562c-.572,1.478.042,2.847,1.376,3.052l10.276,1.576a3.493,3.493,0,0,0,3.454-2.31l.992-2.563C389.111,228.133,388.5,226.762,387.163,226.558Z" fill="#e97176"/>
      <path id="Path_67" data-name="Path 67" d="M420.941,235.148c-8.3-1.273-17.627,3.474-23.465,11.228a29.9,29.9,0,0,0-3.037,4.963q-.5,1.03-.916,2.1a26.871,26.871,0,0,0-.975,3.041,22.791,22.791,0,0,0-.721,5.325c-.1,8.14,4.659,14.6,12.65,15.826,10.6,1.625,22.873-6.564,27.421-18.3S431.536,236.774,420.941,235.148Z" fill="#fff"/>
      <path id="Path_68" data-name="Path 68" d="M420.524,234.815c-8.3-1.273-17.627,3.474-23.465,11.228a29.9,29.9,0,0,0-3.037,4.963c-.332.687-.638,1.391-.916,2.1a26.876,26.876,0,0,0-.975,3.041,22.79,22.79,0,0,0-.721,5.326c-.1,8.139,4.659,14.6,12.65,15.825,10.6,1.625,22.873-6.564,27.421-18.3S431.119,236.441,420.524,234.815Z" fill="#50525a"/>
      <path id="Path_69" data-name="Path 69" d="M417.677,242.163c-6.925-1.062-14.956,4.3-17.928,11.968s.233,14.762,7.158,15.824,14.964-4.3,17.939-11.974S424.61,243.227,417.677,242.163Z" fill="#35363b"/>
      <path id="Path_70" data-name="Path 70" d="M400.163,254.381c2.972-7.669,11-13.03,17.928-11.968a10.037,10.037,0,0,1,3.347,1.127,9.884,9.884,0,0,0-3.761-1.377c-6.925-1.062-14.956,4.3-17.928,11.968-2.442,6.3-.712,12.2,3.816,14.7C399.352,266.2,397.8,260.484,400.163,254.381Z" fill="#222326"/>
      <path id="Path_71" data-name="Path 71" d="M414.867,249.414c-3.313-.508-7.155,2.05-8.577,5.721s.113,7.061,3.427,7.569,7.159-2.058,8.581-5.727S418.182,249.923,414.867,249.414Z" fill="#222326"/>
      <path id="Path_72" data-name="Path 72" d="M432.994,247.881c-.894-6.8-5.409-11.983-12.47-13.066-8.3-1.273-17.627,3.474-23.465,11.228a29.9,29.9,0,0,0-3.037,4.963c-.332.687-.638,1.391-.916,2.1a26.876,26.876,0,0,0-.975,3.041c-.124.487-.229.971-.321,1.451Z" opacity="0.3" fill="url(#linear-gradient-16)"/>
      <path id="Path_73" data-name="Path 73" d="M404.5,247.234c-2.573-.394-5.556,1.592-6.66,4.443s.089,5.482,2.661,5.877,5.558-1.6,6.662-4.448S407.076,247.63,404.5,247.234Z" fill="#ebecf2" opacity="0.1"/>
      <path id="Path_74" data-name="Path 74" d="M410.714,240.78a3.455,3.455,0,0,0-3.421,2.283c-.566,1.461.046,2.815,1.367,3.018a3.457,3.457,0,0,0,3.421-2.284C412.648,242.333,412.035,240.983,410.714,240.78Z" fill="#ebecf2" opacity="0.1"/>
      <path id="Path_75" data-name="Path 75" d="M476.611,282.842a26.813,26.813,0,0,0-.728-4.989,32.723,32.723,0,0,0-1.431-4.668,39.976,39.976,0,0,0-4.259-8.136,47.13,47.13,0,0,0-5.152-6.4,40.52,40.52,0,0,0-5.239-4.536,36.087,36.087,0,0,0-4.513-2.842,33.958,33.958,0,0,0-3.1-1.45l-1.121-.454a.56.56,0,0,0-.117-.031.5.5,0,0,0-.57.427l-.006.041s-.06.412-.171,1.184c-.128.769-.26,1.9-.385,3.384s-.215,3.258-.189,5.318a55.287,55.287,0,0,0,.471,6.918,52.836,52.836,0,0,0,1.7,8.091c.418,1.415.93,2.849,1.518,4.293.278.729.63,1.441.952,2.171.378.707.724,1.435,1.15,2.138a24.241,24.241,0,0,0,6.757,7.6,14.085,14.085,0,0,0,4.936,2.286,9.064,9.064,0,0,0,2.839.21,6.94,6.94,0,0,0,1.427-.27,3.641,3.641,0,0,0,.687-.235l.333-.146.166-.073.084-.037.041-.018c.052-.027-.058.035.127-.066l.526-.333a2.6,2.6,0,0,0,.269-.181l.309-.269a6.189,6.189,0,0,0,.579-.561l.445-.586a9.456,9.456,0,0,0,.7-1.247,10.979,10.979,0,0,0,.465-1.3A16.769,16.769,0,0,0,476.611,282.842Zm-2.452,4.674a9.089,9.089,0,0,1-.359,1.031,6.561,6.561,0,0,1-.528.9l-.312.4c-.1.127-.216.192-.316.3l-.15.15a2.1,2.1,0,0,1-.248.16l-.468.283c-.009.005-.016.009-.008,0l-.031.011-.06.022-.122.045-.242.091a2.186,2.186,0,0,1-.495.141,4.7,4.7,0,0,1-1.017.138,5.774,5.774,0,0,1-2.067-.33,10.589,10.589,0,0,1-3.711-2.3,29.206,29.206,0,0,1-5.313-7.149,53.079,53.079,0,0,1-5.564-15.316c-.518-2.371-.823-4.588-1.078-6.56-.224-1.972-.391-3.714-.469-5.139-.11-1.421-.146-2.564-.177-3.347-.007-.14-.012-.266-.018-.383l.316.163c.688.335,1.666.89,2.884,1.627a44.161,44.161,0,0,1,4.159,3,40.4,40.4,0,0,1,4.786,4.589,44.816,44.816,0,0,1,4.719,6.245,49.2,49.2,0,0,1,3.937,7.769,36.822,36.822,0,0,1,1.461,4.338,24.011,24.011,0,0,1,.816,4.573A13.244,13.244,0,0,1,474.159,287.516Z" fill="#e97176"/>
      <g id="Group_29" data-name="Group 29">
        <path id="Path_76" data-name="Path 76" d="M475.883,277.853a32.723,32.723,0,0,0-1.431-4.668,39.976,39.976,0,0,0-4.259-8.136,47.13,47.13,0,0,0-5.152-6.4,40.52,40.52,0,0,0-5.239-4.536,36.087,36.087,0,0,0-4.513-2.842,33.958,33.958,0,0,0-3.1-1.45l-1.121-.454a.56.56,0,0,0-.117-.031.493.493,0,0,0-.441.169l.931,1.928c0-.131-.009-.27-.014-.385-.007-.14-.012-.266-.018-.383l.316.163c.688.335,1.666.89,2.884,1.627a44.161,44.161,0,0,1,4.159,3,40.4,40.4,0,0,1,4.786,4.589,44.816,44.816,0,0,1,4.719,6.245,49.2,49.2,0,0,1,3.937,7.769,36.822,36.822,0,0,1,1.461,4.338,24.011,24.011,0,0,1,.816,4.573,13.244,13.244,0,0,1-.325,4.541,9.089,9.089,0,0,1-.359,1.031,6.561,6.561,0,0,1-.528.9l-.312.4c-.1.127-.216.192-.316.3l-.15.15a2.1,2.1,0,0,1-.248.16l-.418.253a11.209,11.209,0,0,0,4.394-3.145,17.284,17.284,0,0,0,.389-4.723A26.813,26.813,0,0,0,475.883,277.853Z" fill="#4d2620"/>
        <path id="Path_77" data-name="Path 77" d="M470.609,291.1s.064-.014.16-.039c-.054.013-.109.02-.164.031Z" fill="#4d2620"/>
      </g>
      <path id="Path_78" data-name="Path 78" d="M453.6,251.415a2.541,2.541,0,0,1-3.283,1.461h0a2.541,2.541,0,0,1-1.462-3.284l1.315-3.424a2.541,2.541,0,0,1,3.284-1.461h0a2.54,2.54,0,0,1,1.461,3.283Z" fill="#737b94"/>
    </g>
  </g>
</svg>
