<svg xmlns="http://www.w3.org/2000/svg" xmlns:xlink="http://www.w3.org/1999/xlink" width="90.999" height="90.999" viewBox="0 0 90.999 90.999">
  <defs>
    <clipPath id="clip-path">
      <rect id="Rectangle_5141" data-name="Rectangle 5141" width="90.999" height="90.999" transform="translate(0.312 0.312)" fill="#fff"/>
    </clipPath>
  </defs>
  <g id="ab-testing-monitors" transform="translate(-0.312 -0.312)" clip-path="url(#clip-path)">
    <path id="Path_50757" data-name="Path 50757" d="M61.54,12.228a5.442,5.442,0,0,0-3.858-1.664H14.749a5.443,5.443,0,0,0-3.858,1.664,4.991,4.991,0,0,0-1.381,3.816V41.69a5.613,5.613,0,0,0,5.724,5.5H57.213a5.613,5.613,0,0,0,5.724-5.5V16.044a4.991,4.991,0,0,0-1.4-3.816Z" transform="translate(26.762 29.767)" fill="none" stroke="#fff" stroke-linecap="round" stroke-linejoin="round" stroke-width="3"/>
    <path id="Path_50758" data-name="Path 50758" d="M27.214,41.261H6.224A5.613,5.613,0,0,1,.5,35.765V6.456A5.614,5.614,0,0,1,6.224.961H44.387a5.614,5.614,0,0,1,5.724,5.5V30.27" transform="translate(1.424 2.719)" fill="none" stroke="#fff" stroke-linecap="round" stroke-linejoin="round" stroke-width="3"/>
    <path id="Path_50759" data-name="Path 50759" d="M7.5,11.52V22.511" transform="translate(21.138 32.46)" fill="none" stroke="#fff" stroke-linecap="round" stroke-linejoin="round" stroke-width="3"/>
    <path id="Path_50760" data-name="Path 50760" d="M3,14.4H20.173" transform="translate(8.465 40.571)" fill="none" stroke="#fff" stroke-linecap="round" stroke-linejoin="round" stroke-width="3"/>
    <path id="Path_50761" data-name="Path 50761" d="M16.5,20.16V31.151" transform="translate(46.485 56.792)" fill="none" stroke="#fff" stroke-linecap="round" stroke-linejoin="round" stroke-width="3"/>
    <path id="Path_50762" data-name="Path 50762" d="M12,23.04H46.346" transform="translate(33.812 64.903)" fill="none" stroke="#fff" stroke-linecap="round" stroke-linejoin="round" stroke-width="3"/>
    <path id="Path_50763" data-name="Path 50763" d="M5.5,25.031V8.544a5.724,5.724,0,1,1,11.449,0V25.031" transform="translate(15.506 7.958)" fill="none" stroke="#fff" stroke-linecap="round" stroke-linejoin="round" stroke-width="3"/>
    <path id="Path_50764" data-name="Path 50764" d="M5.5,5.76H16.949" transform="translate(15.506 16.238)" fill="none" stroke="#fff" stroke-linecap="round" stroke-linejoin="round" stroke-width="3"/>
    <path id="Path_50765" data-name="Path 50765" d="M26.449,17.976a5.614,5.614,0,0,1-5.724,5.5H15V12.481h5.724a5.614,5.614,0,0,1,5.724,5.5Z" transform="translate(42.26 35.163)" fill="none" stroke="#fff" stroke-linecap="round" stroke-linejoin="round" stroke-width="3"/>
    <path id="Path_50766" data-name="Path 50766" d="M26.449,20.856a5.614,5.614,0,0,1-5.724,5.5H15V15.361h5.724a5.614,5.614,0,0,1,5.724,5.5Z" transform="translate(42.26 43.273)" fill="none" stroke="#fff" stroke-linecap="round" stroke-linejoin="round" stroke-width="3"/>
  </g>
</svg>
