<svg xmlns="http://www.w3.org/2000/svg" width="90.819" height="88" viewBox="0 0 90.819 88">
  <g id="laptop-launcddh" transform="translate(0.349)">
    <path id="Path_50776" data-name="Path 50776" d="M64.469,5.5a4.048,4.048,0,0,1,4.047,4.047V50.022c0,2.234.215,4.047-2.024,4.047H5.781c-2.234,0-2.024-1.813-2.024-4.047V9.547A4.047,4.047,0,0,1,7.8,5.5Z" transform="translate(7.924 12.19)" fill="#fff"/>
    <path id="Path_50777" data-name="Path 50777" d="M7.845,5.5A4.048,4.048,0,0,0,3.8,9.547V50.022a5.739,5.739,0,0,0,.555,3.42L52.3,5.5Z" transform="translate(7.879 12.19)" fill="none"/>
    <path id="Path_50778" data-name="Path 50778" d="M74.417,17.513a4.505,4.505,0,0,1,4.165,2.024l10,12.142a4.294,4.294,0,0,1-4.047,6.071h-79a4.25,4.25,0,0,1-3.971-6.071l9.9-12.142a4.048,4.048,0,0,1,3.5-2.024Z" transform="translate(0 48.747)" fill="#fff"/>
    <path id="Path_50779" data-name="Path 50779" d="M25.242,21.715c0,6.015-7.69,14.057-7.69,14.057s-7.69-8.042-7.69-14.057a7.69,7.69,0,1,1,15.344,0Z" transform="translate(26.489 36.556)" fill="none" stroke="#363e4a" stroke-linecap="round" stroke-linejoin="round" stroke-width="3"/>
    <path id="Path_50780" data-name="Path 50780" d="M25.943,13.642c0-6.707-8.095-12.142-8.095-12.142s-8.1,5.436-8.1,12.142V41.975h16.19Z" transform="translate(26.213)" fill="#fff"/>
    <path id="Path_50781" data-name="Path 50781" d="M17.848,1.5s-8.1,5.436-8.1,12.142V24.1a8.689,8.689,0,0,1,.117-1.417,8.18,8.18,0,0,1,15.955,0,8.7,8.7,0,0,1,.117,1.417V13.642C25.943,6.936,17.848,1.5,17.848,1.5Z" transform="translate(26.213)" fill="#fff"/>
    <path id="Path_50782" data-name="Path 50782" d="M25.943,13.642c0-6.707-8.095-12.142-8.095-12.142s-8.1,5.436-8.1,12.142V41.975h16.19Z" transform="translate(26.213)" fill="none" stroke="#363e4a" stroke-linecap="round" stroke-linejoin="round" stroke-width="3"/>
    <path id="Path_50783" data-name="Path 50783" d="M18.692,22.166H8.841a2.024,2.024,0,0,1-1.959-2.526A17.574,17.574,0,0,1,18.692,8Z" transform="translate(17.27 19.809)" fill="#363e4a" stroke="#363e4a" stroke-linecap="round" stroke-linejoin="round" stroke-width="3"/>
    <path id="Path_50784" data-name="Path 50784" d="M13.753,22.166H23.6a2.024,2.024,0,0,0,1.963-2.526A17.621,17.621,0,0,0,13.753,8Z" transform="translate(38.403 19.809)" fill="#363e4a" stroke="#363e4a" stroke-linecap="round" stroke-linejoin="round" stroke-width="3"/>
    <path id="Path_50785" data-name="Path 50785" d="M17.9,13.526a4.048,4.048,0,0,0-4.047,2.024,2.23,2.23,0,0,0,0,2.024H11.824a6.254,6.254,0,0,0-6.071,6.071" transform="translate(14.023 36.544)" fill="none" stroke="#363e4a" stroke-linecap="round" stroke-linejoin="round" stroke-width="3"/>
    <path id="Path_50786" data-name="Path 50786" d="M14.753,13.526A4.048,4.048,0,0,1,18.8,15.549a2.207,2.207,0,0,1,0,2.024h2.024A6.25,6.25,0,0,1,26.9,23.644" transform="translate(41.451 36.544)" fill="none" stroke="#363e4a" stroke-linecap="round" stroke-linejoin="round" stroke-width="3"/>
    <path id="Path_50787" data-name="Path 50787" d="M74.417,17.513a4.505,4.505,0,0,1,4.165,2.024l10,12.142a4.294,4.294,0,0,1-4.047,6.071h-79a4.25,4.25,0,0,1-3.971-6.071l9.9-12.142a4.048,4.048,0,0,1,3.5-2.024" transform="translate(0 48.747)" fill="none" stroke="#363e4a" stroke-linecap="round" stroke-linejoin="round" stroke-width="3"/>
    <path id="Path_50788" data-name="Path 50788" d="M19.946,5.5H7.8A4.047,4.047,0,0,0,3.756,9.547V50.022c0,2.234-.21,4.047,2.024,4.047H19.946" transform="translate(7.921 12.19)" fill="none" stroke="#363e4a" stroke-linecap="round" stroke-linejoin="round" stroke-width="3"/>
    <path id="Path_50789" data-name="Path 50789" d="M15.753,54.07H29.919c2.238,0,2.024-1.813,2.024-4.047V9.547A4.048,4.048,0,0,0,27.9,5.5H15.753" transform="translate(44.498 12.19)" fill="none" stroke="#363e4a" stroke-linecap="round" stroke-linejoin="round" stroke-width="3"/>
    <path id="Path_50790" data-name="Path 50790" d="M10.253,20.5H22.4" transform="translate(27.737 57.902)" fill="none" stroke="#363e4a" stroke-linecap="round" stroke-linejoin="round" stroke-width="3"/>
  </g>
</svg>
