<svg xmlns="http://www.w3.org/2000/svg" xmlns:xlink="http://www.w3.org/1999/xlink" width="90" height="90" viewBox="0 0 90 90">
  <defs>
    <clipPath id="clip-path">
      <rect id="Rectangle_5178" data-name="Rectangle 5178" width="72" height="72" transform="translate(-0.269 -0.269)" fill="#fff"/>
    </clipPath>
  </defs>
  <g id="Group_25798" data-name="Group 25798" transform="translate(-569 -3698)">
    <rect id="Rectangle_5173" data-name="Rectangle 5173" width="90" height="90" transform="translate(569 3698)" fill="#fff"/>
    <g id="job-choose-cadidate-1" transform="translate(578.269 3707.269)" clip-path="url(#clip-path)">
      <path id="Path_50914" data-name="Path 50914" d="M40.243,47.231V39.29a9.927,9.927,0,0,0-9.924-9.924H25.355v-13.4a4.466,4.466,0,1,0-8.933,0V36.81l-3.838-3.216a3.723,3.723,0,0,0-5.723,4.764l7.381,8.873" transform="translate(11.865 22.742)" fill="#e8e8e8"/>
      <path id="Path_50915" data-name="Path 50915" d="M40.243,47.231V39.29a9.927,9.927,0,0,0-9.924-9.924H25.355v-13.4a4.466,4.466,0,1,0-8.933,0V36.81l-3.838-3.216a3.723,3.723,0,0,0-5.723,4.764l7.381,8.873" transform="translate(11.865 22.742)" fill="none" stroke="#232932" stroke-linecap="round" stroke-linejoin="round" stroke-width="2.5"/>
      <path id="Path_50916" data-name="Path 50916" d="M23.461,15.922A5.211,5.211,0,1,0,19.776,14.4,5.21,5.21,0,0,0,23.461,15.922Z" transform="translate(36.091 10.877)" fill="#232932" stroke="#232932" stroke-linecap="round" stroke-linejoin="round" stroke-width="2.5"/>
      <path id="Path_50917" data-name="Path 50917" d="M37.343,17.878a10.755,10.755,0,0,0-20.843,0Z" transform="translate(32.63 19.342)" fill="#232932" stroke="#232932" stroke-linecap="round" stroke-linejoin="round" stroke-width="2.5"/>
      <path id="Path_50918" data-name="Path 50918" d="M7.461,15.922A5.211,5.211,0,1,0,3.776,14.4,5.211,5.211,0,0,0,7.461,15.922Z" transform="translate(4.45 10.877)" fill="#232932" stroke="#232932" stroke-linecap="round" stroke-linejoin="round" stroke-width="2.5"/>
      <path id="Path_50919" data-name="Path 50919" d="M21.343,17.878a10.755,10.755,0,0,0-20.843,0Z" transform="translate(0.989 19.342)" fill="#232932" stroke="#232932" stroke-linecap="round" stroke-linejoin="round" stroke-width="2.5"/>
      <path id="Path_50920" data-name="Path 50920" d="M15.461,12.922A5.211,5.211,0,1,0,11.776,11.4,5.21,5.21,0,0,0,15.461,12.922Z" transform="translate(20.27 4.944)" fill="#f7858a" stroke="#232932" stroke-linecap="round" stroke-linejoin="round" stroke-width="2.5"/>
      <path id="Path_50921" data-name="Path 50921" d="M29.343,14.878a10.755,10.755,0,0,0-20.843,0Z" transform="translate(16.81 13.409)" fill="#f7858a" stroke="#232932" stroke-linecap="round" stroke-linejoin="round" stroke-width="2.5"/>
      <path id="Path_50922" data-name="Path 50922" d="M6.5,3.5h5.955" transform="translate(12.854 6.922)" fill="none" stroke="#232932" stroke-linecap="round" stroke-linejoin="round" stroke-width="2.5"/>
      <path id="Path_50923" data-name="Path 50923" d="M7.728.5l4.928,3.341" transform="translate(15.283 0.989)" fill="none" stroke="#232932" stroke-linecap="round" stroke-linejoin="round" stroke-width="2.5"/>
      <path id="Path_50924" data-name="Path 50924" d="M19.545.5,14.617,3.841" transform="translate(28.907 0.989)" fill="none" stroke="#232932" stroke-linecap="round" stroke-linejoin="round" stroke-width="2.5"/>
      <path id="Path_50925" data-name="Path 50925" d="M15.5,3.5h5.955" transform="translate(30.653 6.922)" fill="none" stroke="#232932" stroke-linecap="round" stroke-linejoin="round" stroke-width="2.5"/>
    </g>
  </g>
</svg>
