<svg xmlns="http://www.w3.org/2000/svg" width="90" height="90" viewBox="0 0 90 90">
  <g id="Group_25789" data-name="Group 25789" transform="translate(-0.179 0.021)">
    <rect id="Rectangle_5165" data-name="Rectangle 5165" width="90" height="90" transform="translate(0.179 -0.021)" fill="none"/>
    <g id="office-file-hierarchy" transform="translate(12.379 7.076)">
      <path id="Path_50843" data-name="Path 50843" d="M67.089,14.311A3.453,3.453,0,0,1,68.1,16.752V76.458a3.453,3.453,0,0,1-3.453,3.453H5.953A3.453,3.453,0,0,1,2.5,76.458V3.953A3.453,3.453,0,0,1,5.953.5h45.9a3.453,3.453,0,0,1,2.441,1Z" transform="translate(-2.5 -0.5)" fill="#ffebec"/>
      <path id="Path_50844" data-name="Path 50844" d="M60.577,7.8,54.29,1.5a3.453,3.453,0,0,0-2.441-1H5.953A3.453,3.453,0,0,0,2.5,3.953V65.869Z" transform="translate(-2.5 -0.5)" fill="#fff"/>
      <path id="Path_50845" data-name="Path 50845" d="M67.089,14.311A3.453,3.453,0,0,1,68.1,16.752V76.458a3.453,3.453,0,0,1-3.453,3.453H5.953A3.453,3.453,0,0,1,2.5,76.458V3.953A3.453,3.453,0,0,1,5.953.5h45.9a3.453,3.453,0,0,1,2.441,1Z" transform="translate(-2.5 -0.5)" fill="none" stroke="#363e4a" stroke-linecap="round" stroke-linejoin="round" stroke-width="2.5"/>
      <path id="Path_50846" data-name="Path 50846" d="M5.5,19.953A3.453,3.453,0,0,1,8.953,16.5h6.905a3.453,3.453,0,0,1,3.453,3.453v6.905a3.453,3.453,0,0,1-3.453,3.453H8.953A3.453,3.453,0,0,1,5.5,26.858Z" transform="translate(4.858 38.742)" fill="#f7858a" stroke="#363e4a" stroke-linecap="round" stroke-linejoin="round" stroke-width="2.5"/>
      <path id="Path_50847" data-name="Path 50847" d="M13.5,19.953A3.453,3.453,0,0,1,16.953,16.5h6.905a3.453,3.453,0,0,1,3.453,3.453v6.905a3.453,3.453,0,0,1-3.453,3.453H16.953A3.453,3.453,0,0,1,13.5,26.858Z" transform="translate(24.479 38.742)" fill="#f7858a" stroke="#363e4a" stroke-linecap="round" stroke-linejoin="round" stroke-width="2.5"/>
      <path id="Path_50848" data-name="Path 50848" d="M9.5,9.953A3.453,3.453,0,0,1,12.953,6.5h6.905a3.453,3.453,0,0,1,3.453,3.453v6.905a3.453,3.453,0,0,1-3.453,3.453H12.953A3.453,3.453,0,0,1,9.5,16.858Z" transform="translate(14.668 14.216)" fill="#f7858a" stroke="#363e4a" stroke-linecap="round" stroke-linejoin="round" stroke-width="2.5"/>
      <path id="Path_50849" data-name="Path 50849" d="M35.121,23.858V13.5H7.5V23.858" transform="translate(9.763 31.384)" fill="none" stroke="#363e4a" stroke-linecap="round" stroke-linejoin="round" stroke-width="2.5"/>
      <path id="Path_50850" data-name="Path 50850" d="M11.5,10.5V20.858" transform="translate(19.574 24.026)" fill="none" stroke="#363e4a" stroke-linecap="round" stroke-linejoin="round" stroke-width="2.5"/>
    </g>
  </g>
</svg>
