<svg xmlns="http://www.w3.org/2000/svg" xmlns:xlink="http://www.w3.org/1999/xlink" width="90" height="90" viewBox="0 0 90 90">
  <defs>
    <clipPath id="clip-path">
      <rect id="Rectangle_5169" data-name="Rectangle 5169" width="86.346" height="86.346" transform="translate(0 0)" fill="#fff"/>
    </clipPath>
  </defs>
  <g id="Group_25788" data-name="Group 25788" transform="translate(0.1 0.021)">
    <rect id="Rectangle_5164" data-name="Rectangle 5164" width="90" height="90" transform="translate(-0.1 -0.021)" fill="none"/>
    <g id="binocular-14" transform="translate(3.553 -0.021)" clip-path="url(#clip-path)">
      <path id="Path_50871" data-name="Path 50871" d="M29.832,7.91a8.2,8.2,0,0,1,10.793,0l5.4,14.391,5.4,5.4L62.212,52.882,29.832,63.676Z" transform="translate(18.738 2.883)" fill="#363636"/>
      <path id="Path_50872" data-name="Path 50872" d="M36.488,7.909a8.206,8.206,0,0,0-10.793,0L20.3,22.3l-5.4,5.4L4.108,52.881l32.38,10.793Z" transform="translate(1.288 2.884)" fill="#363636"/>
      <path id="Path_50873" data-name="Path 50873" d="M19.954,65.577a17.989,17.989,0,1,0-12.72-5.269A17.989,17.989,0,0,0,19.954,65.577Z" transform="translate(-0.166 18.971)" fill="#f7858a"/>
      <path id="Path_50874" data-name="Path 50874" d="M32.676,34.867A17.991,17.991,0,1,0,7.233,60.311Z" transform="translate(-0.167 18.97)" fill="none"/>
      <path id="Path_50875" data-name="Path 50875" d="M36.488,22.3V7.909a8.206,8.206,0,0,0-10.793,0L20.3,22.3l-5.4,5.4L4.108,52.881" transform="translate(1.288 2.884)" fill="none" stroke="#fff" stroke-linecap="round" stroke-linejoin="round" stroke-width="2.5"/>
      <path id="Path_50876" data-name="Path 50876" d="M47.821,65.577A17.989,17.989,0,1,0,35.1,60.308,17.989,17.989,0,0,0,47.821,65.577Z" transform="translate(18.738 18.971)" fill="#f7858a"/>
      <path id="Path_50877" data-name="Path 50877" d="M60.543,34.867A17.991,17.991,0,1,0,35.1,60.311Z" transform="translate(18.737 18.97)" fill="none"/>
      <path id="Path_50878" data-name="Path 50878" d="M29.832,22.21V8.045a8.2,8.2,0,0,1,10.793,0l5.4,14.164,5.4,5.4L62.212,52.791" transform="translate(18.738 2.975)" fill="none" stroke="#fff" stroke-linecap="round" stroke-linejoin="round" stroke-width="2.5"/>
      <path id="Path_50879" data-name="Path 50879" d="M18.042,27.148c0-3.958,6.444-7.2,14.391-7.2s14.391,3.22,14.391,7.2" transform="translate(10.74 12.427)" fill="none" stroke="#fff" stroke-linecap="round" stroke-linejoin="round" stroke-width="2.5"/>
      <path id="Path_50880" data-name="Path 50880" d="M23.4,53.931V20.274" transform="translate(14.376 12.645)" fill="none" stroke="#fff" stroke-linecap="round" stroke-linejoin="round" stroke-width="2.5"/>
      <path id="Path_50881" data-name="Path 50881" d="M29.832,53.931V20.274" transform="translate(18.738 12.645)" fill="none" stroke="#fff" stroke-linecap="round" stroke-linejoin="round" stroke-width="2.5"/>
      <path id="Path_50882" data-name="Path 50882" d="M19.954,65.577a17.989,17.989,0,1,0-12.72-5.269A17.989,17.989,0,0,0,19.954,65.577Z" transform="translate(-0.166 18.971)" fill="none" stroke="#fff" stroke-linecap="round" stroke-linejoin="round" stroke-width="2.5"/>
      <path id="Path_50883" data-name="Path 50883" d="M47.821,65.577A17.989,17.989,0,1,0,35.1,60.308,17.989,17.989,0,0,0,47.821,65.577Z" transform="translate(18.738 18.971)" fill="none" stroke="#fff" stroke-linecap="round" stroke-linejoin="round" stroke-width="2.5"/>
    </g>
  </g>
</svg>
