<svg xmlns="http://www.w3.org/2000/svg" width="90" height="90" viewBox="0 0 90 90">
  <g id="Group_25800" data-name="Group 25800" transform="translate(-1075 -3698)">
    <rect id="Rectangle_5175" data-name="Rectangle 5175" width="90" height="90" transform="translate(1075 3698)" fill="#fff"/>
    <g id="business-teamnj-goal" transform="translate(1094.865 3714.072)">
      <path id="Path_50926" data-name="Path 50926" d="M21.318,26.271a10.3,10.3,0,0,0-18.183,0Z" transform="translate(0 30.424)" fill="#f7858a"/>
      <path id="Path_50927" data-name="Path 50927" d="M33.608,30.3a12.122,12.122,0,0,0-24.244,0" transform="translate(9.529 26.394)" fill="#f7858a"/>
      <path id="Path_50928" data-name="Path 50928" d="M33.608,30.3a12.122,12.122,0,0,0-24.244,0" transform="translate(9.529 26.394)" fill="none" stroke="#232932" stroke-linecap="round" stroke-linejoin="round" stroke-width="2.5"/>
      <path id="Path_50929" data-name="Path 50929" d="M27.769,16.464a8.485,8.485,0,1,1-16.971,0,8.323,8.323,0,0,1,1.721-5.091,13.819,13.819,0,0,0,9.309,3.879,16.535,16.535,0,0,0,5.649-.921A7.828,7.828,0,0,1,27.769,16.464Z" transform="translate(11.722 15.979)" fill="#fff" stroke="#232932" stroke-linecap="round" stroke-linejoin="round" stroke-width="2.5"/>
      <path id="Path_50930" data-name="Path 50930" d="M11.091,28.318a7.213,7.213,0,1,0-5.1-2.113A7.212,7.212,0,0,0,11.091,28.318Z" transform="translate(1.136 19.834)" fill="#fff" stroke="#232932" stroke-linecap="round" stroke-linejoin="round" stroke-width="2.5"/>
      <path id="Path_50931" data-name="Path 50931" d="M14.156,21.146v3.409" transform="translate(16.859 30.93)" fill="none" stroke="#232932" stroke-linecap="round" stroke-linejoin="round" stroke-width="2.5"/>
      <path id="Path_50932" data-name="Path 50932" d="M26.437,16.384a16.535,16.535,0,0,1-5.649.921,13.82,13.82,0,0,1-9.309-3.879,8.451,8.451,0,0,1,14.958,2.958Z" transform="translate(12.763 13.927)" fill="#f7858a" stroke="#232932" stroke-linecap="round" stroke-linejoin="round" stroke-width="2.5"/>
      <path id="Path_50933" data-name="Path 50933" d="M12.227,20.817a10.305,10.305,0,0,0-9.091,5.455" transform="translate(0 30.426)" fill="#9feaff"/>
      <path id="Path_50934" data-name="Path 50934" d="M12.227,20.817a10.305,10.305,0,0,0-9.091,5.455" transform="translate(0 30.426)" fill="none" stroke="#232932" stroke-linecap="round" stroke-linejoin="round" stroke-width="2.5"/>
      <path id="Path_50935" data-name="Path 50935" d="M10.977,21.728a10.272,10.272,0,0,0-4.247-.911" transform="translate(5.498 30.426)" fill="none" stroke="#232932" stroke-linecap="round" stroke-linejoin="round" stroke-width="2.5"/>
      <path id="Path_50936" data-name="Path 50936" d="M12.88,21.105a11.926,11.926,0,0,0,4.71-.97,7.166,7.166,0,0,0-13.31-2.667,11.961,11.961,0,0,0,8.6,3.637Z" transform="translate(1.752 19.831)" fill="#f7858a" stroke="#232932" stroke-linecap="round" stroke-linejoin="round" stroke-width="2.5"/>
      <path id="Path_50937" data-name="Path 50937" d="M20.865,56.691V.931" transform="translate(27.121 0.006)" fill="none" stroke="#232932" stroke-linecap="round" stroke-linejoin="round" stroke-width="2.5"/>
      <path id="Path_50938" data-name="Path 50938" d="M28.53,10.117v2.424a2.4,2.4,0,0,1-2.425,2.424H7.923L13.984,8.9,7.923,2.844H23.681V7.693a2.424,2.424,0,0,0,2.424,2.424Z" transform="translate(7.324 2.932)" fill="#f7858a" stroke="#232932" stroke-linecap="round" stroke-linejoin="round" stroke-width="2.5"/>
      <path id="Path_50939" data-name="Path 50939" d="M16.577.927a2.424,2.424,0,0,0-2.424,2.424v7.273a2.424,2.424,0,0,0,2.424,2.424H31.123V.927Z" transform="translate(16.853 0)" fill="#ffebec" stroke="#232932" stroke-linecap="round" stroke-linejoin="round" stroke-width="2.5"/>
    </g>
  </g>
</svg>
