<svg id="Group_1" data-name="Group 1" xmlns="http://www.w3.org/2000/svg" width="56.239" height="53.708" viewBox="0 0 56.239 53.708">
  <path id="Path_8" data-name="Path 8" d="M539.965,258.677a2.268,2.268,0,0,0-1.831-1.546l-16.681-2.438-7.458-15.114a2.274,2.274,0,0,0-4.076,0l-7.458,15.114-16.681,2.438A2.271,2.271,0,0,0,484.524,261l12.067,11.756-2.847,16.6a2.272,2.272,0,0,0,3.3,2.395l14.916-7.846,14.916,7.846a2.272,2.272,0,0,0,3.3-2.395l-2.847-16.6L539.39,261a2.275,2.275,0,0,0,.575-2.328ZM523.3,270.34a2.264,2.264,0,0,0-.654,2.01l2.271,13.247-11.9-6.257a2.271,2.271,0,0,0-2.116,0L499,285.6l2.271-13.247a2.264,2.264,0,0,0-.654-2.01l-9.627-9.38,13.309-1.943a2.272,2.272,0,0,0,1.708-1.244l5.95-12.055,5.95,12.055a2.272,2.272,0,0,0,1.708,1.244l13.309,1.943Zm0,0" transform="translate(-483.838 -238.314)" fill="#fff"/>
</svg>
