<svg xmlns="http://www.w3.org/2000/svg" xmlns:xlink="http://www.w3.org/1999/xlink" width="62" height="62" viewBox="0 0 62 62">
  <defs>
    <clipPath id="clip-path">
      <rect id="Rectangle_5177" data-name="Rectangle 5177" width="62" height="62" transform="translate(0 0)" fill="#f7858a"/>
    </clipPath>
  </defs>
  <g id="Group_25797" data-name="Group 25797" transform="translate(-307 -3712)">
    <g id="business-climb-top" transform="translate(307 3712)" clip-path="url(#clip-path)">
      <path id="Path_50905" data-name="Path 50905" d="M13.674.979H30.905a1.238,1.238,0,0,1,.965,2.01L29.155,6.4a1.237,1.237,0,0,0,0,1.545l2.723,3.407a1.238,1.238,0,0,1-.965,2.01H13.682Z" transform="translate(21.651 1.55)" fill="#ffebec"/>
      <path id="Path_50906" data-name="Path 50906" d="M13.674,13.358h.252L26.305.979H13.674Z" transform="translate(21.651 1.55)" fill="#fff"/>
      <path id="Path_50907" data-name="Path 50907" d="M33.8,26.721l-5.793,4.927a2.475,2.475,0,0,1-3.342-.149l-1.609-1.584a2.476,2.476,0,0,0-3.491,0L17.982,31.5a2.475,2.475,0,0,1-3.342.149L8.847,26.721l10-15.894a3.132,3.132,0,0,1,4.951,0Z" transform="translate(14.008 15.221)" fill="#ffebec"/>
      <path id="Path_50908" data-name="Path 50908" d="M19.182,22.847a24.683,24.683,0,0,0,8.982-1.681L21.658,10.827a3.132,3.132,0,0,0-4.951,0L10.2,21.166A24.682,24.682,0,0,0,19.182,22.847Z" transform="translate(16.15 15.221)" fill="#fff"/>
      <path id="Path_50909" data-name="Path 50909" d="M33.8,26.721l-5.793,4.927a2.475,2.475,0,0,1-3.342-.149l-1.609-1.584a2.476,2.476,0,0,0-3.491,0L17.982,31.5a2.475,2.475,0,0,1-3.342.149L8.847,26.721l10-15.894a3.132,3.132,0,0,1,4.951,0Z" transform="translate(14.008 15.221)" fill="none" stroke="#232932" stroke-linecap="round" stroke-linejoin="round" stroke-width="2.5"/>
      <path id="Path_50910" data-name="Path 50910" d="M16.444,21.727l-6.561,10.4H1.219L9.884,18.509a3.31,3.31,0,0,1,2.476-1.238,3.353,3.353,0,0,1,2.476,1.238Z" transform="translate(1.93 27.345)" fill="#232932" stroke="#232932" stroke-linecap="round" stroke-linejoin="round" stroke-width="2.5"/>
      <path id="Path_50911" data-name="Path 50911" d="M51.611,33.764H4.573l6.561-10.4,4.481-7.13,5.793,4.927a2.475,2.475,0,0,0,3.342-.149l1.584-1.584a2.476,2.476,0,0,1,3.491,0l1.609,1.584a2.475,2.475,0,0,0,3.342.149l5.793-4.927Z" transform="translate(7.24 25.707)" fill="#232932" stroke="#232932" stroke-linecap="round" stroke-linejoin="round" stroke-width="2.5"/>
      <path id="Path_50912" data-name="Path 50912" d="M13.674,23.26V.979" transform="translate(21.651 1.55)" fill="none" stroke="#232932" stroke-linecap="round" stroke-linejoin="round" stroke-width="2.5"/>
      <path id="Path_50913" data-name="Path 50913" d="M13.674.979H30.905a1.238,1.238,0,0,1,.965,2.01L29.155,6.4a1.237,1.237,0,0,0,0,1.545l2.723,3.407a1.238,1.238,0,0,1-.965,2.01H13.682Z" transform="translate(21.651 1.55)" fill="none" stroke="#232932" stroke-linecap="round" stroke-linejoin="round" stroke-width="2.5"/>
    </g>
  </g>
</svg>
