<svg xmlns="http://www.w3.org/2000/svg" xmlns:xlink="http://www.w3.org/1999/xlink" width="90" height="90" viewBox="0 0 90 90">
  <defs>
    <clipPath id="clip-path">
      <rect id="Rectangle_5179" data-name="Rectangle 5179" width="68" height="68" transform="translate(-0.606 -0.606)" fill="#fff"/>
    </clipPath>
  </defs>
  <g id="Group_25799" data-name="Group 25799" transform="translate(-855 -3698)">
    <rect id="Rectangle_5174" data-name="Rectangle 5174" width="90" height="90" transform="translate(855 3698)" fill="none"/>
    <g id="programming-team-chat-3" transform="translate(866.606 3709.606)" clip-path="url(#clip-path)">
      <path id="Path_50940" data-name="Path 50940" d="M39.551,26.72a12.9,12.9,0,0,0-25.009,0Z" transform="translate(25.915 30.294)" fill="#fff"/>
      <path id="Path_50941" data-name="Path 50941" d="M25.551,26.72a12.9,12.9,0,0,0-25.009,0Z" transform="translate(1.012 30.294)" fill="#fff"/>
      <path id="Path_50942" data-name="Path 50942" d="M6.542,22.73a2.779,2.779,0,0,0,2.779,2.779H12.1l8.336,8.336V25.509H39.888a2.779,2.779,0,0,0,2.779-2.779V3.279A2.779,2.779,0,0,0,39.888.5H9.321A2.779,2.779,0,0,0,6.542,3.279Z" transform="translate(11.685 0.937)" fill="#ffebec"/>
      <path id="Path_50943" data-name="Path 50943" d="M9.321,25.509h2.662L36.992.5H9.321A2.779,2.779,0,0,0,6.542,3.279V22.73a2.779,2.779,0,0,0,2.779,2.779Z" transform="translate(11.685 0.937)" fill="#fff"/>
      <path id="Path_50944" data-name="Path 50944" d="M6.542,22.73a2.779,2.779,0,0,0,2.779,2.779H12.1l8.336,8.336V25.509H39.888a2.779,2.779,0,0,0,2.779-2.779V3.279A2.779,2.779,0,0,0,39.888.5H9.321A2.779,2.779,0,0,0,6.542,3.279Z" transform="translate(11.685 0.937)" fill="none" stroke="#232932" stroke-linecap="round" stroke-linejoin="round" stroke-width="2.5"/>
      <path id="Path_50945" data-name="Path 50945" d="M2.792,17.752a6.252,6.252,0,1,0,1.831-4.421A6.253,6.253,0,0,0,2.792,17.752Z" transform="translate(5.014 20.504)" fill="#fff" stroke="#232932" stroke-linecap="round" stroke-linejoin="round" stroke-width="2.5"/>
      <path id="Path_50946" data-name="Path 50946" d="M21.85,20.516a12.871,12.871,0,0,0-21.308,6.2H17.215" transform="translate(1.012 30.301)" fill="none" stroke="#232932" stroke-linecap="round" stroke-linejoin="round" stroke-width="2.5"/>
      <path id="Path_50947" data-name="Path 50947" d="M16.792,17.752a6.252,6.252,0,1,0,1.831-4.421A6.252,6.252,0,0,0,16.792,17.752Z" transform="translate(29.918 20.504)" fill="#fff" stroke="#232932" stroke-linecap="round" stroke-linejoin="round" stroke-width="2.5"/>
      <path id="Path_50948" data-name="Path 50948" d="M15.873,20.515a12.874,12.874,0,0,1,21.311,6.2H20.511" transform="translate(28.283 30.301)" fill="none" stroke="#232932" stroke-linecap="round" stroke-linejoin="round" stroke-width="2.5"/>
      <path id="Path_50949" data-name="Path 50949" d="M9.792,20.752a6.252,6.252,0,1,0,1.831-4.421A6.252,6.252,0,0,0,9.792,20.752Z" transform="translate(17.466 25.841)" fill="#232932" stroke="#232932" stroke-linecap="round" stroke-linejoin="round" stroke-width="2.5"/>
      <path id="Path_50950" data-name="Path 50950" d="M32.551,29.72a12.9,12.9,0,0,0-25.009,0Z" transform="translate(13.464 35.63)" fill="#232932" stroke="#232932" stroke-linecap="round" stroke-linejoin="round" stroke-width="2.5"/>
      <path id="Path_50951" data-name="Path 50951" d="M15.542,3,21.1,8.558l-5.558,5.558" transform="translate(27.694 5.384)" fill="none" stroke="#232932" stroke-linecap="round" stroke-linejoin="round" stroke-width="2.5"/>
      <path id="Path_50952" data-name="Path 50952" d="M14.1,3,8.542,8.558,14.1,14.115" transform="translate(15.242 5.384)" fill="none" stroke="#232932" stroke-linecap="round" stroke-linejoin="round" stroke-width="2.5"/>
      <path id="Path_50953" data-name="Path 50953" d="M17.6,3,12.042,14.115" transform="translate(21.468 5.384)" fill="none" stroke="#232932" stroke-linecap="round" stroke-linejoin="round" stroke-width="2.5"/>
    </g>
  </g>
</svg>
