<svg xmlns="http://www.w3.org/2000/svg" width="90" height="90" viewBox="0 0 90 90">
  <g id="Group_25790" data-name="Group 25790" transform="translate(-0.031 0.021)">
    <rect id="Rectangle_5166" data-name="Rectangle 5166" width="90" height="90" transform="translate(0.031 -0.021)" fill="none"/>
    <g id="task-list-pin-1" transform="translate(11.748 2.45)">
      <path id="Path_50851" data-name="Path 50851" d="M60.321,5.5h5.547a3.7,3.7,0,0,1,3.7,3.7V49.97a22.1,22.1,0,0,1-22.1,22.1H6.7a3.7,3.7,0,0,1-3.7-3.7V9.2A3.7,3.7,0,0,1,6.7,5.5H38.132" transform="translate(-3 12.991)" fill="none"/>
      <path id="Path_50852" data-name="Path 50852" d="M65.869,5.5H6.7A3.7,3.7,0,0,0,3,9.2v59.17a3.609,3.609,0,0,0,.806,2.219L68.088,6.306A3.591,3.591,0,0,0,65.869,5.5Z" transform="translate(-3 12.991)" fill="#363636"/>
      <path id="Path_50853" data-name="Path 50853" d="M60.321,5.5h5.547a3.7,3.7,0,0,1,3.7,3.7V49.97a22.1,22.1,0,0,1-22.1,22.1H6.7a3.7,3.7,0,0,1-3.7-3.7V9.2A3.7,3.7,0,0,1,6.7,5.5H38.132" transform="translate(-3 12.991)" fill="none" stroke="#fff" stroke-linecap="round" stroke-linejoin="round" stroke-width="2.5"/>
      <path id="Path_50854" data-name="Path 50854" d="M12.5,27.538,25.444,3.5" transform="translate(22.632 7.594)" fill="none" stroke="#fff" stroke-linecap="round" stroke-linejoin="round" stroke-width="2.5"/>
      <path id="Path_50855" data-name="Path 50855" d="M21.9,15.293a7.4,7.4,0,1,0-5.23-2.166A7.4,7.4,0,0,0,21.9,15.293Z" transform="translate(28.029 -0.5)" fill="#f7858a" stroke="#fff" stroke-linecap="round" stroke-linejoin="round" stroke-width="2.5"/>
      <path id="Path_50856" data-name="Path 50856" d="M34.165,18.5A21.989,21.989,0,0,1,16,36.658V22.2a3.7,3.7,0,0,1,3.7-3.7Z" transform="translate(32.076 48.067)" fill="#f7858a" stroke="#fff" stroke-linecap="round" stroke-linejoin="round" stroke-width="2.5"/>
      <path id="Path_50857" data-name="Path 50857" d="M20.949,18.5h-.037" transform="translate(45.329 48.067)" fill="none" stroke="#363e4a" stroke-linecap="round" stroke-linejoin="round" stroke-width="2.5"/>
      <path id="Path_50858" data-name="Path 50858" d="M16,23.447V23.41" transform="translate(32.081 61.315)" fill="none" stroke="#363e4a" stroke-linecap="round" stroke-linejoin="round" stroke-width="2.5"/>
      <path id="Path_50859" data-name="Path 50859" d="M6,12.5H46.68" transform="translate(5.094 31.878)" fill="none" stroke="#fff" stroke-linecap="round" stroke-linejoin="round" stroke-width="2.5"/>
      <path id="Path_50860" data-name="Path 50860" d="M6,15.5H46.68" transform="translate(5.094 39.972)" fill="none" stroke="#fff" stroke-linecap="round" stroke-linejoin="round" stroke-width="2.5"/>
      <path id="Path_50861" data-name="Path 50861" d="M6,18.5H26.34" transform="translate(5.094 48.067)" fill="none" stroke="#fff" stroke-linecap="round" stroke-linejoin="round" stroke-width="2.5"/>
    </g>
  </g>
</svg>
