<svg xmlns="http://www.w3.org/2000/svg" width="478.358" height="357.133" viewBox="0 0 478.358 357.133">
  <g id="OBJECTS" transform="translate(-456 -221.33)">
    <g id="Group_74" data-name="Group 74" transform="translate(456 221.33)">
      <g id="Group_5" data-name="Group 5" transform="translate(22.095 156.666)">
        <g id="Group_3" data-name="Group 3" transform="translate(0 18.325)">
          <g id="Group_1" data-name="Group 1" opacity="0.5">
            <path id="Path_1" data-name="Path 1" d="M988.857,1100c-10.172-29.968-37.441-54.544-68.946-57.534-29.739-2.823-58.453,12.633-88.324,12.909-48.306.446-88.4-37.876-135.722-47.582-55-11.28-115.694,22.891-134.576,75.763-12.193,34.143-5.948,73.293,13.386,103.78H980.166C993.964,1160.553,998.521,1128.469,988.857,1100Z" transform="translate(-555.032 -1005.637)" fill="#e2edff"/>
          </g>
          <g id="Group_2" data-name="Group 2" transform="translate(0.121 4.427)">
            <path id="Path_2" data-name="Path 2" d="M616.457,1120.2c39.193-6.1,74-34.082,89.009-70.7a118.852,118.852,0,0,0,6.857-23.765c-.3-.086-.592-.172-.888-.256a124.332,124.332,0,0,1-4.031,16.146,114.465,114.465,0,0,1-32.05,48.964,116.137,116.137,0,0,1-51.44,27.261,113.267,113.267,0,0,1-60.078-2.93c-.171-.055-.34-.119-.51-.175-.056.293-.113.586-.166.879A115,115,0,0,0,616.457,1120.2Z" transform="translate(-561.467 -1025.478)" fill="#fff"/>
            <path id="Path_3" data-name="Path 3" d="M674.237,1302.58c29.257,3.911,59.313,6,88.222-1.4a112.539,112.539,0,0,0,36.888-16.5,104.629,104.629,0,0,0,27.7-29.521,146.4,146.4,0,0,0,14.086-28.992c-.323.033-.645.069-.968.1a153.543,153.543,0,0,1-8.912,19.961c-6.746,12.524-15.48,24.07-26.463,33.181a105.724,105.724,0,0,1-37.054,19.371c-28.369,8.579-58.413,7.3-87.475,3.683-31.794-3.962-63.615-10.671-95.814-9.236a171.121,171.121,0,0,0-28.87,3.657c.013.311.02.622.036.933a163.806,163.806,0,0,1,23.533-3.386C611.062,1292.112,642.742,1298.369,674.237,1302.58Z" transform="translate(-555.574 -1181.393)" fill="#fff"/>
            <path id="Path_4" data-name="Path 4" d="M2136.389,1282.814c-11.244-2.466-22.338-5.9-32.6-11.185-9.56-4.921-18.569-11.479-24.951-20.24a45.729,45.729,0,0,1-8.714-31.039c1.8-20.419,15.107-36.738,32.312-46.443-.439-.083-.881-.156-1.323-.23-14.443,8.345-25.953,21.127-30.355,37.931a47.505,47.505,0,0,0,2.541,32.178c4.509,9.674,12.263,17.422,21.04,23.321a108.3,108.3,0,0,0,30.422,13.68,184.373,184.373,0,0,0,39.41,6.82c1.068.068,2.138.112,3.208.162q.1-.442.2-.884A185.223,185.223,0,0,1,2136.389,1282.814Z" transform="translate(-1731.399 -1140.612)" fill="#fff"/>
            <path id="Path_5" data-name="Path 5" d="M1281.938,1083.942a126.936,126.936,0,0,1,6.791-12.483l-.823-.374q-2.677,4.34-5.007,8.887a126.357,126.357,0,0,0-9.239,23.646c-2.479,8.922-4.576,18.728-2.282,27.912,1.77,7.091,6.414,13.711,13.472,16.261,7.984,2.884,16.658-.109,23.729-4.026,7.706-4.269,14.76-9.971,21.437-15.684a201.6,201.6,0,0,0,18.958-18.521q3.569-3.977,6.92-8.139c-.316-.094-.632-.188-.948-.285a199.976,199.976,0,0,1-37.142,35.5c-7.109,5.213-15.118,10.488-24.128,11.322-8.951.829-16.44-4.32-19.984-12.381-3.929-8.937-2.33-19.12-.075-28.269A124.191,124.191,0,0,1,1281.938,1083.942Z" transform="translate(-1110.904 -1060.909)" fill="#fff"/>
            <path id="Path_6" data-name="Path 6" d="M2300.588,1393.453a56.362,56.362,0,0,0,27.015-5.84c-.023-.269-.042-.539-.067-.808a59.223,59.223,0,0,1-22.532,5.759c-8.871.428-17.932-1.895-24.54-8.063-5.961-5.565-8.947-13.654-6.667-21.653a18.3,18.3,0,0,1,5.9-9.213c3.747-3.035,8.58-3.805,13.265-3.948,4.219-.128,8.46.173,12.66-.365a33.431,33.431,0,0,0,8.894-2.444c-.157-.256-.31-.514-.47-.769-.928.393-1.871.75-2.831,1.057-8.657,2.77-17.921.084-26.508,2.827-6.707,2.142-11.171,8.147-12.3,14.981-1.185,7.152,1.5,14.13,6.5,19.255C2284.614,1390.072,2292.524,1393.023,2300.588,1393.453Z" transform="translate(-1889.139 -1274.571)" fill="#fff"/>
            <path id="Path_7" data-name="Path 7" d="M1704.706,1513.453q-6.018-14.333-12.037-28.665c-2.808-6.685-5.761-13.975-11.816-18.4-6.394-4.672-15.093-4.673-22.238-1.813-7.589,3.037-13.617,8.931-18.764,15.114a110.436,110.436,0,0,0-21.685,42.419,113.192,113.192,0,0,0-3.415,20.245h.917A111.52,111.52,0,0,1,1635.8,1486.4c4.78-6.7,10.349-13.358,17.289-17.909,7.132-4.676,16.67-6.931,24.645-2.96,7.286,3.628,10.743,11.578,13.734,18.679q5.6,13.3,11.177,26.618l13.239,31.528h.96Z" transform="translate(-1378.433 -1365.082)" fill="#fff"/>
          </g>
        </g>
        <g id="Group_4" data-name="Group 4" transform="translate(237.808)" opacity="0.5">
          <path id="Path_8" data-name="Path 8" d="M1671.509,927.526c-5.789.174-11.593-.066-18.323-2.5-14.328-5.191-32.178,3.315-32.3,19.847-.092,12.832,11.707,21.324,22.637,25.237,20.618,7.381,63.325,3.512,61.315-27.122-.643-9.8-5.854-14.365-15.23-15.446C1682.995,926.774,1677.259,927.354,1671.509,927.526Z" transform="translate(-1620.889 -923.506)" fill="#e2edff"/>
        </g>
      </g>
      <g id="Group_29" data-name="Group 29" transform="translate(25.902 0)">
        <g id="Group_7" data-name="Group 7" transform="translate(347.973 62.011)">
          <g id="Group_6" data-name="Group 6">
            <path id="Path_9" data-name="Path 9" d="M2145.5,513.429c-5.619-1.945-9.461-5.32-13.79-10.266l1.833-3.9c4.546,6.019,6.035,9.277,11.715,8.807Z" transform="translate(-2131.706 -499.261)" fill="#ffb900"/>
          </g>
        </g>
        <g id="Group_9" data-name="Group 9" transform="translate(418.681 141.92)">
          <g id="Group_8" data-name="Group 8" transform="translate(0)">
            <path id="Path_10" data-name="Path 10" d="M2456.218,878.131c-4.181-5.437-6.047-11.019-7.6-18.35l3.564-2.364c1.226,8.452,1,12.394,6.412,15.668Z" transform="translate(-2448.622 -857.417)" fill="#007bff"/>
          </g>
        </g>
        <g id="Group_11" data-name="Group 11" transform="translate(269.375 84.918)">
          <g id="Group_10" data-name="Group 10">
            <path id="Path_11" data-name="Path 11" d="M1796.315,607.876c-5.917,1.471-10.838.626-16.871-1.36l-.011-4.585c6.688,2.832,9.431,4.925,14.369,1.233Z" transform="translate(-1779.433 -601.932)" fill="#14cca1"/>
          </g>
        </g>
        <g id="Group_13" data-name="Group 13" transform="translate(122.162 70.853)">
          <g id="Group_12" data-name="Group 12">
            <path id="Path_12" data-name="Path 12" d="M1131.607,540.251c-2.8,3.977-5.939,6.1-10.166,8.169l-1.816-2.611c4.935-1.93,7.326-2.189,8.689-6.915Z" transform="translate(-1119.625 -538.894)" fill="#ff5c33"/>
          </g>
        </g>
        <g id="Group_15" data-name="Group 15" transform="translate(19.348 178.539)">
          <g id="Group_14" data-name="Group 14">
            <path id="Path_13" data-name="Path 13" d="M676.283,1030.964c-6.646.334-11.622-1.5-17.472-4.731l1.206-4.694c6.318,4.222,8.661,6.906,14.862,4.106Z" transform="translate(-658.81 -1021.54)" fill="#007bff"/>
          </g>
        </g>
        <g id="Group_17" data-name="Group 17" transform="translate(38.674 56.39)">
          <g id="Group_16" data-name="Group 16">
            <path id="Path_14" data-name="Path 14" d="M755.7,491.717c-5.07-3.685-7.726-8.2-10.266-14.412l3.453-3.232c2.339,7.326,2.6,10.984,8.687,12.328Z" transform="translate(-745.43 -474.072)" fill="#14cca1"/>
          </g>
        </g>
        <g id="Group_19" data-name="Group 19" transform="translate(59.739 110.806)">
          <g id="Group_18" data-name="Group 18">
            <path id="Path_15" data-name="Path 15" d="M859.386,721.854c-5.746,4.011-11.166,5.178-18.107,5.614l-1.436-4.8c7.891.178,11.415,1.227,15.446-4.7Z" transform="translate(-839.843 -717.964)" fill="#007bff"/>
          </g>
        </g>
        <g id="Group_21" data-name="Group 21" transform="translate(142.737)">
          <g id="Group_20" data-name="Group 20">
            <path id="Path_16" data-name="Path 16" d="M1230.666,225.4c-5.762,3.389-11.041,4.072-17.736,3.929l-1.09-4.729c7.571.81,10.894,2.1,15.124-3.269Z" transform="translate(-1211.84 -221.33)" fill="#ffb900"/>
          </g>
        </g>
        <g id="Group_22" data-name="Group 22" transform="translate(231.922 1.844)">
          <path id="Path_17" data-name="Path 17" d="M1622.881,243.506c-4.8-2.37-7.91-5.8-11.314-10.673l1.956-3.239c3.5,5.848,4.54,8.9,9.6,9.143Z" transform="translate(-1611.567 -229.594)" fill="#14cca1"/>
        </g>
        <g id="Group_24" data-name="Group 24" transform="translate(316.489 18.472)">
          <g id="Group_23" data-name="Group 23">
            <path id="Path_18" data-name="Path 18" d="M1992.118,320.152c5.256-3.1,8.173-7.138,11.082-12.769l-3.216-3.263c-2.781,6.691-3.267,10.095-9.386,10.929Z" transform="translate(-1990.598 -304.12)" fill="#ff5c33"/>
          </g>
        </g>
        <g id="Group_26" data-name="Group 26" transform="translate(132.832 184.109)" opacity="0.837">
          <g id="Group_25" data-name="Group 25">
            <path id="Path_19" data-name="Path 19" d="M1179.569,1063.235c-5.3-3.156-8.593-7.356-12.122-13.229l2.457-3.5c3.572,6.992,4.536,10.568,10.284,11.325Z" transform="translate(-1167.447 -1046.504)" fill="#ff5c33"/>
          </g>
        </g>
        <g id="Group_28" data-name="Group 28" transform="translate(306.848 153.269)">
          <g id="Group_27" data-name="Group 27">
            <path id="Path_20" data-name="Path 20" d="M1960.772,908.358c-2.109,6.569-5.365,10.921-10.049,15.747l-3.338-2.451c5.651-5.011,8.644-6.566,8.613-13.371Z" transform="translate(-1947.385 -908.282)" fill="#ff5c33"/>
          </g>
        </g>
        <circle id="Ellipse_1" data-name="Ellipse 1" cx="2.231" cy="2.231" r="2.231" transform="translate(100.381 42.392)" fill="#ff5c33"/>
        <circle id="Ellipse_2" data-name="Ellipse 2" cx="2.231" cy="2.231" r="2.231" transform="translate(277.683 42.392)" fill="#ffb900"/>
        <circle id="Ellipse_3" data-name="Ellipse 3" cx="2.231" cy="2.231" r="2.231" transform="translate(335.99 110.368)" fill="#ff5c33"/>
        <circle id="Ellipse_4" data-name="Ellipse 4" cx="2.231" cy="2.231" r="2.231" transform="translate(103.951 132.977)" fill="#14cca1"/>
        <rect id="Rectangle_2" data-name="Rectangle 2" width="6.311" height="6.311" transform="matrix(0.707, -0.707, 0.707, 0.707, 0, 115.649)" fill="#ffb900"/>
        <rect id="Rectangle_3" data-name="Rectangle 3" width="6.311" height="6.311" transform="translate(387.496 108.339) rotate(-45)" fill="#14cca1"/>
      </g>
      <g id="Group_30" data-name="Group 30" transform="translate(162.043 112.487)">
        <path id="Rectangle_4" data-name="Rectangle 4" d="M14.392,0H23.2A14.392,14.392,0,0,1,37.59,14.392v0a0,0,0,0,1,0,0H0a0,0,0,0,1,0,0v0A14.392,14.392,0,0,1,14.392,0Z" transform="translate(64.408 140.476) rotate(-0.07)" fill="#f7858a"/>
        <rect id="Rectangle_5" data-name="Rectangle 5" width="24.32" height="43.061" transform="translate(71.055 102.409)" fill="#f7858a"/>
        <path id="Path_21" data-name="Path 21" d="M1500.747,1203.1v-18.609h24.32l-.024,9.037Z" transform="translate(-1429.692 -1082.084)" fill="#e97176"/>
        <path id="Path_22" data-name="Path 22" d="M1737.281,809.021l-1.551-5.125c28.477-8.618,40.55-26.432,36.911-54.458a.848.848,0,0,0-.711-.115l-3.92,1.06a3.227,3.227,0,0,0-2.623,2.922v6.073a6.926,6.926,0,0,1-7.08,6.708c-4.1.079-11.125.211-12.059.211v-5.355c.641,0,5.11-.079,11.956-.21.991-.019,1.828-.639,1.828-1.355v-6.073a8.5,8.5,0,0,1,6.579-8.091l3.92-1.06a6.145,6.145,0,0,1,5.017.8,5.43,5.43,0,0,1,2.4,3.792c1.912,14.732-.232,27.165-6.375,36.954C1764.927,796.3,1753.388,804.146,1737.281,809.021Z" transform="translate(-1612.246 -739.823)" fill="#e97176"/>
        <path id="Path_23" data-name="Path 23" d="M1223.625,809.021c-16.107-4.875-27.645-12.72-34.3-23.318-6.143-9.789-8.288-22.223-6.375-36.955a5.427,5.427,0,0,1,2.4-3.792,6.146,6.146,0,0,1,5.017-.8l3.919,1.06a8.5,8.5,0,0,1,6.58,8.091v6.073c0,.715.837,1.335,1.828,1.355,6.846.131,11.315.21,11.956.21V766.3c-.935,0-7.957-.133-12.058-.211a6.926,6.926,0,0,1-7.08-6.708v-6.073a3.227,3.227,0,0,0-2.624-2.922l-3.919-1.06a.733.733,0,0,0-.725.158c-3.625,27.983,8.449,45.8,36.926,54.415Z" transform="translate(-1182.278 -739.823)" fill="#e97176"/>
        <path id="Path_24" data-name="Path 24" d="M1422.293,735.653l-5.819,72.664a31.091,31.091,0,0,1-31,28.6h-33.441a31.085,31.085,0,0,1-30.986-28.6l-3.017-37.706-2.8-34.958a9.406,9.406,0,0,1,9.38-10.156h88.3A9.412,9.412,0,0,1,1422.293,735.653Z" transform="translate(-1285.546 -725.497)" fill="#f7858a"/>
        <path id="Path_25" data-name="Path 25" d="M1415.084,986.938a30.991,30.991,0,0,1-19.741,7.068H1361.9a31.085,31.085,0,0,1-30.986-28.6L1327.9,927.7C1349.078,954.462,1382.849,977.425,1415.084,986.938Z" transform="translate(-1295.41 -882.583)" fill="#e97176"/>
        <rect id="Rectangle_6" data-name="Rectangle 6" width="34.844" height="0.892" transform="translate(66.493 110.978)" fill="#001f40"/>
        <rect id="Rectangle_7" data-name="Rectangle 7" width="6.477" height="0.892" transform="translate(70.021 140.024)" fill="#001f40"/>
        <rect id="Rectangle_8" data-name="Rectangle 8" width="6.476" height="0.892" transform="translate(90.102 140.024)" fill="#001f40"/>
        <path id="Rectangle_9" data-name="Rectangle 9" d="M24.385,0h6.329A24.385,24.385,0,0,1,55.1,24.385v0a0,0,0,0,1,0,0H0a0,0,0,0,1,0,0v0A24.385,24.385,0,0,1,24.385,0Z" transform="translate(55.637 151.76) rotate(-0.07)" fill="#f7858a"/>
        <rect id="Rectangle_10" data-name="Rectangle 10" width="37.539" height="0.892" transform="translate(64.45 151.383)" fill="#232932"/>
        <ellipse id="Ellipse_5" data-name="Ellipse 5" cx="4.909" cy="9.594" rx="4.909" ry="9.594" transform="translate(106.953 21.754)" fill="#fff" opacity="0.6"/>
      </g>
      <g id="Group_31" data-name="Group 31" transform="translate(109.757 287.459)">
        <rect id="Rectangle_11" data-name="Rectangle 11" width="270.286" height="22.975" transform="translate(0.446 46.397)" fill="#fff"/>
        <rect id="Rectangle_12" data-name="Rectangle 12" width="180.958" height="22.975" transform="translate(45.11 23.422)" fill="#fff"/>
        <rect id="Rectangle_13" data-name="Rectangle 13" width="118.363" height="22.975" transform="translate(76.408 0.447)" fill="#fff"/>
        <rect id="Rectangle_14" data-name="Rectangle 14" width="133.155" height="22.972" transform="translate(69.012 46.399)" fill="#232932"/>
        <rect id="Rectangle_15" data-name="Rectangle 15" width="94.815" height="22.981" transform="translate(88.182 23.418)" fill="#232932"/>
        <rect id="Rectangle_16" data-name="Rectangle 16" width="55.493" height="22.972" transform="translate(107.843 0.446)" fill="#232932"/>
        <rect id="Rectangle_17" data-name="Rectangle 17" width="31.432" height="5.355" transform="translate(76.41 18.054)" fill="#003e80" opacity="0.1"/>
        <rect id="Rectangle_18" data-name="Rectangle 18" width="31.432" height="5.355" transform="translate(163.336 18.054)" fill="#003e80" opacity="0.1"/>
        <rect id="Rectangle_19" data-name="Rectangle 19" width="55.493" height="5.355" transform="translate(107.843 18.054)" fill="#363636" opacity="0.3"/>
        <rect id="Rectangle_20" data-name="Rectangle 20" width="43.07" height="5.355" transform="translate(45.112 41.008)" fill="#003e80" opacity="0.1"/>
        <rect id="Rectangle_21" data-name="Rectangle 21" width="43.07" height="5.355" transform="translate(182.997 41.008)" fill="#003e80" opacity="0.1"/>
        <rect id="Rectangle_22" data-name="Rectangle 22" width="94.815" height="5.355" transform="translate(88.182 41.008)" fill="#363636" opacity="0.3"/>
        <rect id="Rectangle_23" data-name="Rectangle 23" width="68.568" height="5.355" transform="translate(0.444 64.016)" fill="#003e80" opacity="0.1"/>
        <rect id="Rectangle_24" data-name="Rectangle 24" width="68.568" height="5.355" transform="translate(202.167 64.016)" fill="#003e80" opacity="0.1"/>
        <rect id="Rectangle_25" data-name="Rectangle 25" width="133.155" height="5.355" transform="translate(69.012 64.016)" fill="#363636" opacity="0.3"/>
        <path id="Path_26" data-name="Path 26" d="M948.822,1579.092h-.892V1555.67l44.665-.035v-22.941l31.3-.013,0-22.963h31.663v.892h-30.771l0,22.962-31.3.013v22.941l-44.665.035Z" transform="translate(-947.93 -1509.719)" fill="#232932"/>
        <path id="Path_27" data-name="Path 27" d="M1786.822,1579.092h-.892v-22.529l-44.665-.035,0-22.941-31.3-.013,0-22.962h-31.281v-.892h32.174l0,22.963,31.3.013,0,22.941,44.665.035Z" transform="translate(-1515.645 -1509.719)" fill="#232932"/>
      </g>
      <rect id="Rectangle_41" data-name="Rectangle 41" width="478.358" height="0.892" transform="translate(0 356.24)" fill="#001f40"/>
    </g>
  </g>
</svg>
