<svg xmlns="http://www.w3.org/2000/svg" width="31.63" height="24" viewBox="0 0 31.63 24">
  <path id="FontAwsome_images_" data-name="FontAwsome (images)" d="M26.359,52.571v.857A2.6,2.6,0,0,1,23.723,56H2.636A2.6,2.6,0,0,1,0,53.429V39.714a2.6,2.6,0,0,1,2.636-2.571h.879V48.286a4.345,4.345,0,0,0,4.393,4.286Zm5.272-4.286V34.571A2.6,2.6,0,0,0,28.995,32H7.908a2.6,2.6,0,0,0-2.636,2.571V48.286a2.6,2.6,0,0,0,2.636,2.571H28.995A2.6,2.6,0,0,0,31.63,48.286ZM14.058,37.143a2.637,2.637,0,1,1-2.636-2.571A2.6,2.6,0,0,1,14.058,37.143ZM8.786,44.857l3.049-2.974a.671.671,0,0,1,.932,0L14.937,44l7.442-7.26a.671.671,0,0,1,.932,0l4.806,4.688v6H8.786Z" transform="translate(0 -32)" fill="#1e2026"/>
</svg>
