<svg xmlns="http://www.w3.org/2000/svg" width="147.914" height="74.421" viewBox="0 0 147.914 74.421">
  <g id="Measuring_Reporting" data-name="Measuring &amp; Reporting" transform="translate(-336 -2431.75)">
    <path id="Background" d="M141.714,0a6.2,6.2,0,0,1,0,12.4H106.285a6.2,6.2,0,0,1,0,12.4h19.486a6.2,6.2,0,1,1,0,12.4H116.76c-4.317,0-7.817,2.776-7.817,6.2q0,3.424,5.314,6.2a6.2,6.2,0,1,1,0,12.4H40.743a6.2,6.2,0,1,1,0-12.4H6.2a6.2,6.2,0,1,1,0-12.4H41.628a6.2,6.2,0,0,0,0-12.4H19.486a6.2,6.2,0,0,1,0-12.4H54.914a6.2,6.2,0,1,1,0-12.4Zm0,24.8a6.2,6.2,0,1,1-6.2,6.2A6.2,6.2,0,0,1,141.714,24.8Z" transform="translate(336 2435.37)" fill="#f4f4f4" fill-rule="evenodd"/>
    <g id="data-file-graph" transform="translate(377.5 2432.5)">
      <path id="Path_50551" data-name="Path 50551" d="M61.01,13.008a3.127,3.127,0,0,1,.916,2.211V69.294A3.127,3.127,0,0,1,58.8,72.421H5.627A3.127,3.127,0,0,1,2.5,69.294V3.627A3.127,3.127,0,0,1,5.627.5H47.216a3.127,3.127,0,0,1,2.189.916Z" transform="translate(0 0)" fill="#ffebec" stroke="#363e4a" stroke-width="1"/>
      <path id="Path_50552" data-name="Path 50552" d="M54.637,6.635,49.405,1.416A3.127,3.127,0,0,0,47.216.5H5.627A3.127,3.127,0,0,0,2.5,3.627V58.763Z" transform="translate(0 0)" fill="#fff"/>
      <path id="Path_50553" data-name="Path 50553" d="M61.01,13.008a3.128,3.128,0,0,1,.916,2.211V69.294A3.127,3.127,0,0,1,58.8,72.421H5.627A3.127,3.127,0,0,1,2.5,69.294V3.627A3.127,3.127,0,0,1,5.627.5H47.216a3.127,3.127,0,0,1,2.189.916Z" transform="translate(0 0)" fill="none" stroke="#00303e" stroke-linecap="round" stroke-linejoin="round" stroke-width="2.5"/>
      <path id="Path_50554" data-name="Path 50554" d="M6.5,28.262,17.194,17.568a3.127,3.127,0,0,1,3.946-.391l5.06,3.362a3.127,3.127,0,0,0,4.015-.463L40.128,9.5" transform="translate(8.508 19.143)" fill="none" stroke="#e97176" stroke-linecap="round" stroke-linejoin="round" stroke-width="2.5"/>
      <path id="Path_50555" data-name="Path 50555" d="M6.5,7.5V41.9H40.9" transform="translate(8.517 14.889)" fill="none" stroke="#00303e" stroke-linecap="round" stroke-linejoin="round" stroke-width="2.5"/>
    </g>
  </g>
</svg>
