<svg xmlns="http://www.w3.org/2000/svg" xmlns:xlink="http://www.w3.org/1999/xlink" width="326.11" height="351.218" viewBox="0 0 326.11 351.218">
  <defs>
    <linearGradient id="linear-gradient" x1="0.502" y1="0.154" x2="0.496" y2="1.347" gradientUnits="objectBoundingBox">
      <stop offset="0" stop-color="#e8f5ff"/>
      <stop offset="0.225" stop-color="#e4f2ff"/>
      <stop offset="0.398" stop-color="#dbebff"/>
      <stop offset="0.554" stop-color="#cadfff"/>
      <stop offset="0.7" stop-color="#b3ceff"/>
      <stop offset="0.838" stop-color="#95b9ff"/>
      <stop offset="0.969" stop-color="#719fff"/>
      <stop offset="1" stop-color="#6898ff"/>
    </linearGradient>
    <linearGradient id="linear-gradient-2" x1="0.747" y1="-0.243" x2="0.472" y2="0.586" gradientUnits="objectBoundingBox">
      <stop offset="0" stop-color="#f7858a"/>
      <stop offset="1" stop-color="#e8696f"/>
    </linearGradient>
    <linearGradient id="linear-gradient-3" x1="1.271" y1="-6.085" x2="-0.27" y2="7.073" xlink:href="#linear-gradient"/>
    <linearGradient id="linear-gradient-4" x1="0.501" y1="1.149" x2="0.5" y2="0.111" gradientUnits="objectBoundingBox">
      <stop offset="0" stop-color="#363e4a"/>
      <stop offset="0.006" stop-color="#363e4a"/>
      <stop offset="1" stop-color="#919191"/>
    </linearGradient>
    <linearGradient id="linear-gradient-5" x1="0.5" y1="2.138" x2="0.5" y2="0.122" gradientUnits="objectBoundingBox">
      <stop offset="0" stop-color="#363e4a"/>
      <stop offset="0.006" stop-color="#919191"/>
      <stop offset="1" stop-color="#363636"/>
    </linearGradient>
  </defs>
  <g id="web_illus" data-name="web illus" transform="translate(-26.546 -11.149)">
    <path id="Path_1" data-name="Path 1" d="M84.222,310.557s24.938,67.147,88.39,81.631c76.95,17.566,68.626-88.344,144.424-93.451S428.363,118.317,283.418,58.57,5,116.166,84.222,310.557Z" transform="translate(-34.034 -31.785)" fill="#1c2129" fill-rule="evenodd"/>
    <g id="OBJECTS" transform="translate(26.546 12.322)">
      <path id="Path_2" data-name="Path 2" d="M247.041,406.517c-34.228,6.025-72.018,6.781-100.918-12.457-25.442-16.937-39.974-48.823-36.028-79.05s26.182-57.35,55.126-67.242c28.117-9.609,59-3.531,87.756,3.958s58.263,16.4,87.68,12.142c16.167-2.339,32.377-9.192,42.338-22.09,9.5-12.307,12.242-28.8,10.449-44.223-4.145-35.65-31.9-66.582-66.107-77.845S254.082,115.844,224.3,136.04" transform="translate(-88.096 -74.916)" fill="none" stroke="#fff" stroke-miterlimit="10" stroke-width="0.5" stroke-dasharray="2 1" opacity="0.6"/>
      <g id="Group_6" data-name="Group 6" transform="translate(280.68 287.633)">
        <g id="Group_5" data-name="Group 5">
          <g id="Group_4" data-name="Group 4">
            <path id="Path_8" data-name="Path 8" d="M374.94,384.548a12.833,12.833,0,0,0,.409,1.488l2.713-.036,1.34,2.333-1.394,2.327a13.472,13.472,0,0,0,2.318,2.1l2.174-1.628,2.457,1.1.24,2.706a13.349,13.349,0,0,0,3.018.33l.815-2.593,2.638-.538,1.774,2.061a13.456,13.456,0,0,0,2.721-1.547l-.865-2.576,1.816-1.988,2.643.619a13.459,13.459,0,0,0,1.289-2.848l-2.21-1.573.3-2.674,2.5-1.055a13.84,13.84,0,0,0-.239-1.616,14.431,14.431,0,0,0-.394-1.444l-2.715.029-1.333-2.337,1.408-2.325a13.707,13.707,0,0,0-2.32-2.11l-2.18,1.621-2.454-1.1-.23-2.709a13.551,13.551,0,0,0-3.11-.341l-.808,2.6-2.635.549-1.777-2.057a13.6,13.6,0,0,0-2.716,1.558l.872,2.573-1.807,2-2.645-.612a13.405,13.405,0,0,0-1.282,2.853l2.218,1.564-.286,2.679-2.5,1.06A13.839,13.839,0,0,0,374.94,384.548Zm8.489-6.582a6.058,6.058,0,1,1,.968,8.521A6.058,6.058,0,0,1,383.429,377.966Z" transform="translate(-374.7 -368.217)" fill="#fff"/>
          </g>
        </g>
      </g>
      <g id="Group_8" data-name="Group 8" transform="translate(212.986)">
        <g id="Group_7" data-name="Group 7">
          <path id="Path_9" data-name="Path 9" d="M305.461,88.692a14.252,14.252,0,0,0,.087,1.717l2.96.613.9,2.859-2.077,2.2a15,15,0,0,0,2.019,2.839l2.755-1.248,2.409,1.783-.388,3a14.858,14.858,0,0,0,3.2,1.084l1.511-2.624,3,.05,1.434,2.668A14.991,14.991,0,0,0,326.6,102.6l-.322-3.009,2.453-1.726,2.726,1.308a14.958,14.958,0,0,0,2.086-2.788l-2.025-2.243.965-2.836,2.975-.546a15.153,15.153,0,0,0,.129-1.816,16.125,16.125,0,0,0-.081-1.665l-2.96-.622-.888-2.862,2.089-2.191a15.244,15.244,0,0,0-2.016-2.852l-2.761,1.24-2.4-1.79.4-3a15.128,15.128,0,0,0-3.3-1.118l-1.5,2.631-3-.037-1.439-2.664a15.13,15.13,0,0,0-3.328,1.042l.329,3.008L312.283,79.8l-2.73-1.3a14.978,14.978,0,0,0-2.079,2.8l2.036,2.235-.955,2.845-2.976.55A15.121,15.121,0,0,0,305.461,88.692Zm10.815-5.118a6.748,6.748,0,1,1-1,9.5A6.749,6.749,0,0,1,316.276,83.574Z" transform="translate(-305.46 -74.013)" fill="#fff"/>
        </g>
      </g>
      <g id="Group_11" data-name="Group 11" transform="translate(248.269 25.707)">
        <g id="Group_10" data-name="Group 10">
          <g id="Group_9" data-name="Group 9">
            <path id="Path_10" data-name="Path 10" d="M341.549,107.716a7.235,7.235,0,0,0,.045.866l1.493.309.453,1.443-1.047,1.109a7.633,7.633,0,0,0,1.018,1.432l1.391-.63,1.215.9-.2,1.514a7.546,7.546,0,0,0,1.616.547l.763-1.325,1.513.024.723,1.347a7.609,7.609,0,0,0,1.681-.519l-.162-1.519,1.239-.871,1.376.661a7.532,7.532,0,0,0,1.053-1.408l-1.022-1.131.487-1.431,1.5-.276a7.832,7.832,0,0,0,.065-.916,7.965,7.965,0,0,0-.041-.841l-1.494-.314-.448-1.444,1.055-1.106a7.728,7.728,0,0,0-1.018-1.439l-1.394.626-1.212-.9.2-1.514a7.612,7.612,0,0,0-1.665-.565l-.759,1.329-1.513-.02-.726-1.344a7.63,7.63,0,0,0-1.68.526l.166,1.518-1.234.876-1.378-.657a7.644,7.644,0,0,0-1.05,1.411l1.028,1.128-.482,1.436-1.5.278A7.927,7.927,0,0,0,341.549,107.716Zm5.458-2.584a3.406,3.406,0,1,1-.5,4.8A3.408,3.408,0,0,1,347.007,105.132Z" transform="translate(-341.549 -100.307)" fill="#919191"/>
          </g>
        </g>
      </g>
      <g id="Group_14" data-name="Group 14" transform="translate(0 52.63)">
        <g id="Group_13" data-name="Group 13">
          <g id="Group_12" data-name="Group 12">
            <path id="Path_11" data-name="Path 11" d="M87.611,153.859a24.481,24.481,0,0,0,.214,2.974l5.157.954,1.661,4.926L91.123,166.6a26.1,26.1,0,0,0,3.606,4.85l4.734-2.267,4.245,3.005-.563,5.222a25.822,25.822,0,0,0,5.6,1.762l2.524-4.608,5.2-.024,2.587,4.576a26.008,26.008,0,0,0,5.74-1.907L124.124,172l4.192-3.084,4.777,2.169a26.026,26.026,0,0,0,3.516-4.915l-3.595-3.816,1.57-4.956,5.141-1.057a26.58,26.58,0,0,0,.157-3.154,28.267,28.267,0,0,0-.2-2.885l-5.158-.969-1.645-4.932,3.544-3.876a26.458,26.458,0,0,0-3.6-4.873l-4.744,2.251-4.236-3.016.585-5.223a26.229,26.229,0,0,0-5.766-1.819l-2.511,4.62-5.2.046-2.6-4.57a26.33,26.33,0,0,0-5.735,1.931l.684,5.206-4.179,3.1-4.783-2.157a26.03,26.03,0,0,0-3.5,4.926l3.616,3.8-1.553,4.97-5.143,1.065A26.46,26.46,0,0,0,87.611,153.859Zm18.573-9.279a11.709,11.709,0,1,1-1.377,16.52A11.712,11.712,0,0,1,106.184,144.58Z" transform="translate(-87.608 -127.845)" fill="#f7858a"/>
          </g>
        </g>
      </g>
      <g id="Group_41" data-name="Group 41" transform="translate(268.688 209.157)">
        <circle id="Ellipse_1" data-name="Ellipse 1" cx="14.332" cy="14.332" r="14.332" fill="#f7858a"/>
        <path id="Path_34" data-name="Path 34" d="M382.242,299.682c-2.733-3.216-5.283.157-5.283.157s-2.551-3.373-5.284-.157c-2.674,3.145,3.837,7.989,5.284,8.461C378.4,307.671,384.916,302.827,382.242,299.682Z" transform="translate(-362.626 -288.179)" fill="#fff"/>
      </g>
      <g id="Group_43" data-name="Group 43" transform="translate(44.673 242.638)">
        <circle id="Ellipse_2" data-name="Ellipse 2" cx="12.702" cy="12.702" r="12.702" fill="#f7858a"/>
        <g id="Group_42" data-name="Group 42" transform="translate(7.011 5.809)">
          <path id="Path_35" data-name="Path 35" d="M151.858,335.1a.962.962,0,0,1,0-1.728.969.969,0,0,0-.969-.968h-.156l-2.355.053a11.214,11.214,0,0,0,.314-3.219c-.183-1.125-1.7-1.622-1.727-.367a3.4,3.4,0,0,1-1.151,2.774,8.434,8.434,0,0,0-1.136,1.584,1.033,1.033,0,0,0-.12.491v4.754a.471.471,0,0,0,.471.471h5.86a.911.911,0,0,0,.971-.925c-.034-.436-.569-.6-.569-.6a.726.726,0,0,0,.654-.706.652.652,0,0,0-.626-.75A.966.966,0,0,0,151.858,335.1Z" transform="translate(-140.564 -328.136)" fill="#fff"/>
          <rect id="Rectangle_25" data-name="Rectangle 25" width="3.279" height="6.602" rx="0.624" transform="translate(0 5.239)" fill="#fff"/>
        </g>
      </g>
    </g>
    <g id="Group_33" data-name="Group 33" transform="translate(26.546 90.27)">
      <g id="Group_32" data-name="Group 32">
        <g id="Group_31" data-name="Group 31">
          <g id="Group_30" data-name="Group 30">
            <path id="Path_50677" data-name="Path 50677" d="M7.846,0H262.369a7.846,7.846,0,0,1,7.846,7.846V187.1a7.846,7.846,0,0,1-7.846,7.846H7.846A7.846,7.846,0,0,1,0,187.1V7.846A7.846,7.846,0,0,1,7.846,0Z" transform="translate(29.036)" fill="#363636"/>
            <path id="Path_23" data-name="Path 23" d="M330.238,354.385V209.2a7.506,7.506,0,0,0-7.506-7.507H78.607A7.507,7.507,0,0,0,71.1,209.2V354.385Z" transform="translate(-36.526 -196.665)" fill="url(#linear-gradient)"/>
            <g id="Group_29" data-name="Group 29" transform="translate(34.574 10.122)">
              <g id="Group_25" data-name="Group 25" transform="translate(11.321)">
                <g id="Group_24" data-name="Group 24">
                  <text id="WorkLogo" transform="translate(0 6)" fill="#14275b" font-size="6" font-family="Montserrat-Medium, Montserrat" font-weight="500"><tspan x="0" y="0">Work</tspan><tspan y="0" font-family="Montserrat-Bold, Montserrat" font-weight="700">Logo</tspan></text>
                  <g id="Group_23" data-name="Group 23" transform="translate(153.573 3.483)">
                    <g id="Group_18" data-name="Group 18">
                      <g id="Group_17" data-name="Group 17">
                        <text id="Home" transform="translate(0 3)" fill="#061139" font-size="3" font-family="Montserrat-ExtraBold, Montserrat" font-weight="800"><tspan x="0" y="0">Home</tspan></text>
                      </g>
                    </g>
                    <g id="Group_19" data-name="Group 19" transform="translate(17.448)">
                      <text id="About" transform="translate(0 3)" fill="#061139" font-size="3" font-family="Montserrat-Regular, Montserrat"><tspan x="0" y="0">About</tspan></text>
                    </g>
                    <g id="Group_20" data-name="Group 20" transform="translate(35.696)">
                      <text id="Work" transform="translate(0 3)" fill="#061139" font-size="3" font-family="Montserrat-Regular, Montserrat"><tspan x="0" y="0">Work</tspan></text>
                    </g>
                    <g id="Group_21" data-name="Group 21" transform="translate(52.22)">
                      <text id="Galery" transform="translate(0 3)" fill="#061139" font-size="3" font-family="Montserrat-Regular, Montserrat"><tspan x="0" y="0">Galery</tspan></text>
                    </g>
                    <g id="Group_22" data-name="Group 22" transform="translate(68.27)">
                      <text id="Contact" transform="translate(0 3)" fill="#061139" font-size="3" font-family="Montserrat-Regular, Montserrat"><tspan x="0" y="0">Contact</tspan></text>
                    </g>
                  </g>
                </g>
              </g>
              <g id="Group_26" data-name="Group 26" transform="translate(0 28.953)">
                <rect id="Rectangle_3" data-name="Rectangle 3" width="259.138" height="121.621" transform="translate(0)" fill="url(#linear-gradient-2)"/>
                <path id="Path_26" data-name="Path 26" d="M118.978,364.917C106.3,331.936,71.1,347.509,71.1,347.509v17.408Z" transform="translate(-71.1 -243.296)" fill="#fff"/>
              </g>
              <rect id="Rectangle_4" data-name="Rectangle 4" width="119.634" height="128.67" rx="5.436" transform="translate(124.916 20.593)" fill="#363636"/>
              <g id="Group_27" data-name="Group 27" transform="translate(31.688 48.5)">
                <text id="RES_PON_SIVE_WEBSITE_DESIGN" data-name="RES
PON
SIVE
WEBSITE 
DESIGN" transform="translate(0 16)" fill="#fff" font-size="17" font-family="Montserrat-ExtraBold, Montserrat" font-weight="800"><tspan x="0" y="0">RES</tspan><tspan x="0" y="15">PON</tspan><tspan x="0" y="30">SIVE</tspan><tspan font-family="Montserrat-Medium, Montserrat" font-weight="500"><tspan x="0" y="45">WEBSITE </tspan></tspan><tspan font-size="18" font-family="Montserrat-Light, Montserrat" font-weight="300"><tspan x="0" y="60">DESIGN</tspan></tspan></text>
                <text id="Lorem_ipsum_dolor_sit_amet_consectetuer_adipiscing_elit_sed_diam_nonummy_nibh_euismod_tincidunt_ut_laoreet_dolore_magna_aliquam_erat_volutpat._Ut_wisi_enim_ad_minim_veniam_quis_nostrud_exerci_tation_ullamcorper_suscipit_lobortis_nisl_ut_aliquip_ex_ea_co" data-name="Lorem ipsum dolor sit amet, consectetuer adipiscing elit, sed diam nonummy nibh euismod tincidunt ut laoreet dolore magna aliquam erat volutpat. Ut wisi enim ad minim veniam, quis nostrud exerci tation ullamcorper suscipit lobortis nisl ut aliquip ex ea co" transform="translate(109.595 52.162)" fill="#fff" font-size="4.362" font-family="Montserrat-Light, Montserrat" font-weight="300"><tspan x="14.472" y="4">Lorem ipsum dolor sit amet, </tspan><tspan x="4.154" y="9.234">consectetuer adipiscing elit, sed diam </tspan><tspan x="4.404" y="14.469">nonummy nibh euismod tincidunt ut </tspan><tspan x="7.294" y="19.703">laoreet dolore magna aliquam erat </tspan><tspan x="1.351" y="24.938">volutpat. Ut wisi enim ad minim veniam, </tspan><tspan x="3.761" y="30.172">quis nostrud exerci tation ullamcorper </tspan></text>
              </g>
              <g id="Group_28" data-name="Group 28" transform="translate(160.473 39.696)">
                <path id="Path_27" data-name="Path 27" d="M304.716,252.826H255.4a1.094,1.094,0,0,0-1.095,1.095v45.123a1.094,1.094,0,0,0,1.095,1.1h49.319a1.094,1.094,0,0,0,1.095-1.1V253.921A1.094,1.094,0,0,0,304.716,252.826Zm-1.095,2.19v29.173a2.382,2.382,0,0,0-.224-.273l-5.708-5.708a2.317,2.317,0,0,0-3.275,0l-4.933,4.934a2.318,2.318,0,0,1-3.276,0l-12.579-12.579a2.316,2.316,0,0,0-3.183-.088l-13.949,12.5V255.016Z" transform="translate(-254.302 -252.826)" fill="#fff"/>
                <path id="Path_28" data-name="Path 28" d="M294.532,268.948a3.246,3.246,0,1,0-3.245-3.246A3.246,3.246,0,0,0,294.532,268.948Z" transform="translate(-258.891 -254.021)" fill="url(#linear-gradient-3)"/>
              </g>
            </g>
            <path id="Rectangle_5" data-name="Rectangle 5" d="M0,0H326.11a0,0,0,0,1,0,0V6.079A11.271,11.271,0,0,1,314.84,17.349H11.271A11.271,11.271,0,0,1,0,6.079V0A0,0,0,0,1,0,0Z" transform="translate(0 180.321)" fill="url(#linear-gradient-4)"/>
            <path id="Rectangle_6" data-name="Rectangle 6" d="M0,0H90.333a0,0,0,0,1,0,0V3.234a5.441,5.441,0,0,1-5.441,5.441H5.441A5.441,5.441,0,0,1,0,3.234V0A0,0,0,0,1,0,0Z" transform="translate(118.976 180.321)" fill="#232932"/>
          </g>
          <path id="Path_29" data-name="Path 29" d="M31.629,399.231,60.665,381H330.879l26.86,18.229Z" transform="translate(-31.629 -218.911)" fill="url(#linear-gradient-5)"/>
          <path id="Path_30" data-name="Path 30" d="M327.956,384.7H65.265L48.778,396.132H344.443Z" transform="translate(-33.757 -219.37)" fill="#1c1c20"/>
        </g>
      </g>
    </g>
    <g id="Group_68" data-name="Group 68" transform="translate(286.777 72.084)">
      <g id="Group_67" data-name="Group 67">
        <circle id="Ellipse_7" data-name="Ellipse 7" cx="18.58" cy="18.58" r="18.58" fill="#fff"/>
        <g id="Group_66" data-name="Group 66" transform="translate(5.39 12.49)">
          <line id="Line_4" data-name="Line 4" x1="3.628" y2="12.179" transform="translate(11.376)" fill="none" stroke="#e97176" stroke-linecap="round" stroke-linejoin="round" stroke-width="3"/>
          <path id="Path_46" data-name="Path 46" d="M342.94,201.227l-8.069-5.65,8.09-5.619" transform="translate(-334.871 -189.513)" fill="none" stroke="#e97176" stroke-linecap="round" stroke-linejoin="round" stroke-width="3"/>
          <path id="Path_47" data-name="Path 47" d="M355.773,189.98l8.069,5.65-8.09,5.619" transform="translate(-337.462 -189.515)" fill="none" stroke="#e97176" stroke-linecap="round" stroke-linejoin="round" stroke-width="3"/>
        </g>
      </g>
    </g>
    <g id="Group_25714" data-name="Group 25714" transform="translate(36.921 168.52)">
      <path id="Path_36" data-name="Path 36" d="M122.4,234.124l-21.929,9.969a3.831,3.831,0,0,0-1.9,5.074l5.215,11.471a3.831,3.831,0,0,0,5.074,1.9l.257-.116,3.978,3.07a.886.886,0,0,0,1.426-.69l.065-4.866,16.2-7.366a3.833,3.833,0,0,0,1.9-5.075l-5.215-11.471A3.832,3.832,0,0,0,122.4,234.124Z" transform="translate(-98.22 -233.779)" fill="#fff"/>
      <path id="Path_37" data-name="Path 37" d="M112.725,250.188a1.74,1.74,0,1,1-2.3-.864A1.741,1.741,0,0,1,112.725,250.188Z" transform="translate(-98.469 -234.123)" fill="#363e4a"/>
      <circle id="Ellipse_3" data-name="Ellipse 3" cx="1.74" cy="1.74" r="1.74" transform="matrix(0.969, -0.246, 0.246, 0.969, 15.537, 13.262)" fill="#363e4a"/>
      <path id="Path_38" data-name="Path 38" d="M122.913,245.556a1.74,1.74,0,1,1-2.3-.863A1.741,1.741,0,0,1,122.913,245.556Z" transform="translate(-98.697 -234.02)" fill="#363e4a"/>
    </g>
  </g>
</svg>
