<svg xmlns="http://www.w3.org/2000/svg" width="368.299" height="342.984" viewBox="0 0 368.299 342.984">
  <g id="Group_71" data-name="Group 71" transform="translate(-85.828 -120.208)">
    <ellipse id="Ellipse_1" data-name="Ellipse 1" cx="146.857" cy="20.642" rx="146.857" ry="20.642" transform="translate(113.211 421.908)" fill="#363636" opacity="0.5" style="mix-blend-mode: multiply;isolation: isolate"/>
    <g id="Group_70" data-name="Group 70" transform="translate(86.38 120.709)">
      <g id="Group_2" data-name="Group 2" transform="translate(36.283 79.972)">
        <g id="Group_1" data-name="Group 1">
          <path id="Path_1" data-name="Path 1" d="M395.741,229.738V355.06a32.771,32.771,0,0,1-32.772,32.772H153.75a32.771,32.771,0,0,1-32.772-32.772V229.738a32.771,32.771,0,0,1,32.772-32.772H362.969A32.771,32.771,0,0,1,395.741,229.738Zm-14.158,91.238V242.847a32.771,32.771,0,0,0-32.772-32.772H168.432a32.771,32.771,0,0,0-32.772,32.772v78.129a32.771,32.771,0,0,0,32.772,32.772H348.811A32.771,32.771,0,0,0,381.583,320.976ZM264.159,375.6a6.062,6.062,0,1,0-6.062,6.062A6.056,6.056,0,0,0,264.159,375.6Z" transform="translate(-120.978 -196.966)" fill="#fff"/>
          <rect id="Rectangle_2" data-name="Rectangle 2" width="245.923" height="143.674" rx="31.25" transform="translate(14.682 13.109)" fill="#172a35"/>
          <path id="Path_2" data-name="Path 2" d="M301.068,417.809a7.372,7.372,0,0,1,.933,8.044c-1.279,2.444-3.838,3.933-6.387,5a74.484,74.484,0,0,1-25.064,5.233q-7.5.377-14.986.745h-1.573q-7.488-.378-14.976-.745a74.543,74.543,0,0,1-25.075-5.233c-2.538-1.07-5.107-2.559-6.387-5a7.166,7.166,0,0,1,8.631-10.131,5.273,5.273,0,0,0-.1,3.041c.713,2.475,3.387,3.765,5.81,4.646,8.987,3.241,21.006,3.618,29.144,4.289h7.341c8.138-.671,20.156-1.049,29.144-4.289,2.423-.881,5.1-2.171,5.81-4.646a5.309,5.309,0,0,0-.094-3A7.365,7.365,0,0,1,301.068,417.809Z" transform="translate(-116.799 -186.327)" fill="#172a35"/>
          <path id="Path_3" data-name="Path 3" d="M215.761,417.5a19.955,19.955,0,0,1,2.1-4.174,46.61,46.61,0,0,0,5.254-34.282v-.073h62.336v.073a46.61,46.61,0,0,0,5.254,34.282,19.094,19.094,0,0,1,2.108,4.216,5.309,5.309,0,0,1,.094,3c-.713,2.475-3.387,3.765-5.81,4.646-8.987,3.241-21.006,3.618-29.144,4.289H250.61c-8.138-.671-20.156-1.049-29.144-4.289-2.423-.881-5.1-2.171-5.81-4.646A5.273,5.273,0,0,1,215.761,417.5Z" transform="translate(-116.375 -188.1)" fill="#e6e6e6"/>
          <path id="Path_4" data-name="Path 4" d="M252.01,361.536a6.056,6.056,0,1,1-6.062,6.051A6.056,6.056,0,0,1,252.01,361.536Z" transform="translate(-114.89 -188.949)" fill="#172a35"/>
        </g>
      </g>
      <g id="Group_3" data-name="Group 3" transform="translate(36.58 86.178)">
        <path id="Path_5" data-name="Path 5" d="M237.482,378.966c1.311,4.981,3.411,38.929-10.616,47.78-8.09-2.742-10.591-4.874-10.591-4.874l-.4-4.34,3.514-7.629,3.511-8.89,1.35-8.943L223.1,379.041Z" transform="translate(-116.652 -194.306)" fill="#e6e6e6" style="mix-blend-mode: multiply;isolation: isolate"/>
        <path id="Path_6" data-name="Path 6" d="M133.559,202.884c-5.259,21.4-2.041,152.149-1.452,159.315.918,11.187,21.158,25.344,57.705,25.344-42.512,0-47.862-2.193-47.862-2.193l-8.718-5.017-6.6-7.145-3.178-5.883s-2.049-7.052-2.147-7.826,0-134.739,0-134.739l1.479-6.071,3.72-7.6Z" transform="translate(-121.261 -202.884)" fill="#e6e6e6" style="mix-blend-mode: multiply;isolation: isolate"/>
      </g>
      <rect id="Rectangle_3" data-name="Rectangle 3" width="274.763" height="190.866" rx="31.25" transform="translate(36.283 79.972)" fill="none" stroke="#000" stroke-miterlimit="10" stroke-width="1"/>
      <rect id="Rectangle_4" data-name="Rectangle 4" width="245.923" height="143.674" rx="31.25" transform="translate(50.965 93.081)" fill="none" stroke="#000" stroke-miterlimit="10" stroke-width="1"/>
      <path id="Path_7" data-name="Path 7" d="M285.443,379.038a46.566,46.566,0,0,0,5.263,34.276c1.33,2.226,2.916,4.725,2.2,7.217s-3.388,3.771-5.816,4.649c-8.983,3.245-21,3.622-29.139,4.288H250.61c-8.135-.666-20.156-1.043-29.139-4.288-2.428-.878-5.1-2.168-5.816-4.649s.868-4.991,2.2-7.217a46.56,46.56,0,0,0,5.262-34.276" transform="translate(-80.092 -108.125)" fill="none" stroke="#000" stroke-miterlimit="10" stroke-width="1"/>
      <path id="Path_8" data-name="Path 8" d="M293.24,415.759a7.177,7.177,0,0,1,8.765,10.1c-1.284,2.445-3.844,3.936-6.39,5a74.669,74.669,0,0,1-25.069,5.231l-14.98.74h-1.571l-14.98-.74a74.675,74.675,0,0,1-25.07-5.231c-2.546-1.069-5.106-2.56-6.39-5a7.177,7.177,0,0,1,8.765-10.1" transform="translate(-80.516 -106.355)" fill="none" stroke="#000" stroke-miterlimit="10" stroke-width="1"/>
      <g id="Group_4" data-name="Group 4" transform="translate(54.201 64.478)">
        <path id="Path_9" data-name="Path 9" d="M141.487,208.608" transform="translate(-137.897 -180.906)" fill="none" stroke="#000" stroke-miterlimit="10" stroke-width="1"/>
        <rect id="Rectangle_5" data-name="Rectangle 5" width="32.335" height="22.612" transform="translate(12.759 71.987) rotate(-11.698)" fill="#fff"/>
        <rect id="Rectangle_6" data-name="Rectangle 6" width="32.335" height="22.612" transform="translate(17.344 94.129) rotate(-11.698)" fill="#cfae63"/>
        <path id="Path_10" data-name="Path 10" d="M168.955,314.581l20.945-4.336a5.472,5.472,0,0,0,4.249-6.47l-3.512-16.964-31.664,6.557,3.513,16.964A5.473,5.473,0,0,0,168.955,314.581Z" transform="translate(-137.045 -177.096)" fill="#b59857"/>
        <rect id="Rectangle_7" data-name="Rectangle 7" width="32.335" height="22.612" transform="translate(8.175 49.845) rotate(-11.698)" fill="#f0f0f0"/>
        <path id="Path_11" data-name="Path 11" d="M163.374,182.307l-20.945,4.336a5.473,5.473,0,0,0-4.25,6.47l3.475,16.781,31.664-6.556-3.475-16.783A5.472,5.472,0,0,0,163.374,182.307Z" transform="translate(-138.064 -182.192)" fill="#cecdca"/>
        <rect id="Rectangle_8" data-name="Rectangle 8" width="32.335" height="22.612" transform="translate(3.59 27.703) rotate(-11.698)" fill="#e0e0df"/>
        <path id="Path_12" data-name="Path 12" d="M195.167,308.871l-3.512-16.964-4.584-22.142-4.585-22.143L177.9,225.481l-4.584-22.141-3.475-16.783a5.471,5.471,0,0,0-6.468-4.249l-20.945,4.336a5.473,5.473,0,0,0-4.25,6.47l3.475,16.781,4.584,22.143,4.585,22.141,4.585,22.143,4.584,22.142,3.513,16.964a5.473,5.473,0,0,0,6.468,4.249l20.945-4.336A5.473,5.473,0,0,0,195.167,308.871Z" transform="translate(-138.064 -182.192)" fill="none" stroke="#000" stroke-miterlimit="10" stroke-width="1"/>
        <line id="Line_1" data-name="Line 1" x1="31.664" y2="6.556" transform="translate(8.175 43.289)" fill="none" stroke="#000" stroke-miterlimit="10" stroke-width="1"/>
        <line id="Line_2" data-name="Line 2" y1="6.556" x2="31.664" transform="translate(3.59 21.147)" fill="none" stroke="#000" stroke-miterlimit="10" stroke-width="1"/>
        <line id="Line_3" data-name="Line 3" x1="31.664" y2="6.556" transform="translate(21.928 109.715)" fill="none" stroke="#000" stroke-miterlimit="10" stroke-width="1"/>
        <line id="Line_4" data-name="Line 4" x1="31.664" y2="6.556" transform="translate(17.344 87.573)" fill="none" stroke="#000" stroke-miterlimit="10" stroke-width="1"/>
        <line id="Line_5" data-name="Line 5" y1="6.556" x2="31.664" transform="translate(12.759 65.431)" fill="none" stroke="#000" stroke-miterlimit="10" stroke-width="1"/>
      </g>
      <g id="Group_5" data-name="Group 5" transform="translate(26.616 85.616)">
        <rect id="Rectangle_9" data-name="Rectangle 9" width="32.335" height="22.612" transform="translate(28.043 73.292) rotate(-26.147)" fill="#353e42"/>
        <rect id="Rectangle_10" data-name="Rectangle 10" width="32.335" height="22.612" transform="translate(38.007 93.59) rotate(-26.147)" fill="#293033"/>
        <path id="Path_13" data-name="Path 13" d="M172.463,329.659l19.2-9.425a5.474,5.474,0,0,0,2.5-7.325l-7.635-15.551L157.5,311.608l7.635,15.55A5.472,5.472,0,0,0,172.463,329.659Z" transform="translate(-109.531 -197.72)" fill="#1d2224"/>
        <rect id="Rectangle_11" data-name="Rectangle 11" width="32.335" height="22.612" transform="matrix(0.898, -0.441, 0.441, 0.898, 18.078, 52.994)" fill="#424d53"/>
        <path id="Path_14" data-name="Path 14" d="M134.022,202.91l-19.2,9.425a5.473,5.473,0,0,0-2.5,7.325l7.553,15.385L148.9,220.8l-7.552-15.385A5.472,5.472,0,0,0,134.022,202.91Z" transform="translate(-111.76 -202.348)" fill="#677982"/>
        <rect id="Rectangle_12" data-name="Rectangle 12" width="32.335" height="22.612" transform="translate(8.114 32.697) rotate(-26.147)" fill="#596870"/>
      </g>
      <g id="Group_7" data-name="Group 7" transform="translate(26.616 85.616)">
        <g id="Group_6" data-name="Group 6">
          <rect id="Rectangle_13" data-name="Rectangle 13" width="32.335" height="22.612" transform="translate(28.043 73.292) rotate(-26.147)" fill="#353e42"/>
          <rect id="Rectangle_14" data-name="Rectangle 14" width="32.335" height="22.612" transform="translate(38.007 93.59) rotate(-26.147)" fill="#293033"/>
          <path id="Path_15" data-name="Path 15" d="M172.463,329.659l19.2-9.425a5.474,5.474,0,0,0,2.5-7.325l-7.635-15.551L157.5,311.608l7.635,15.55A5.472,5.472,0,0,0,172.463,329.659Z" transform="translate(-109.531 -197.72)" fill="#1d2224"/>
          <rect id="Rectangle_15" data-name="Rectangle 15" width="32.335" height="22.612" transform="matrix(0.898, -0.441, 0.441, 0.898, 18.078, 52.994)" fill="#424d53"/>
          <path id="Path_16" data-name="Path 16" d="M134.022,202.91l-19.2,9.425a5.473,5.473,0,0,0-2.5,7.325l7.553,15.385L148.9,220.8l-7.552-15.385A5.472,5.472,0,0,0,134.022,202.91Z" transform="translate(-111.76 -202.348)" fill="#677982"/>
          <rect id="Rectangle_16" data-name="Rectangle 16" width="32.335" height="22.612" transform="translate(8.114 32.697) rotate(-26.147)" fill="#596870"/>
        </g>
        <path id="Path_17" data-name="Path 17" d="M196.392,317.538l-7.635-15.551-9.965-20.3-9.964-20.3-9.965-20.3-17.517-35.681a5.472,5.472,0,0,0-7.325-2.5l-19.2,9.425a5.473,5.473,0,0,0-2.5,7.325l17.517,35.682,9.965,20.3,9.965,20.3,9.964,20.3,7.635,15.55a5.472,5.472,0,0,0,7.325,2.5l19.2-9.425A5.474,5.474,0,0,0,196.392,317.538Z" transform="translate(-111.76 -202.348)" fill="none" stroke="#000" stroke-miterlimit="10" stroke-width="1"/>
        <line id="Line_6" data-name="Line 6" x1="29.026" y2="14.25" transform="translate(8.114 18.447)" fill="none" stroke="#000" stroke-miterlimit="10" stroke-width="1"/>
        <line id="Line_7" data-name="Line 7" x1="29.026" y2="14.249" transform="translate(47.972 99.638)" fill="none" stroke="#000" stroke-miterlimit="10" stroke-width="1"/>
        <line id="Line_8" data-name="Line 8" x1="29.026" y2="14.249" transform="translate(38.007 79.34)" fill="none" stroke="#000" stroke-miterlimit="10" stroke-width="1"/>
        <line id="Line_9" data-name="Line 9" x1="29.026" y2="14.249" transform="translate(28.043 59.043)" fill="none" stroke="#000" stroke-miterlimit="10" stroke-width="1"/>
        <line id="Line_10" data-name="Line 10" x1="29.026" y2="14.249" transform="translate(18.078 38.745)" fill="none" stroke="#000" stroke-miterlimit="10" stroke-width="1"/>
      </g>
      <g id="Group_15" data-name="Group 15" transform="translate(8.273 111.359)">
        <g id="Group_10" data-name="Group 10">
          <path id="Path_18" data-name="Path 18" d="M139.718,276.7" transform="translate(-92.055 -224.47)" fill="none" stroke="#00ab9e" stroke-miterlimit="10" stroke-width="1"/>
          <rect id="Rectangle_17" data-name="Rectangle 17" width="32.335" height="22.612" transform="translate(38.539 71.472) rotate(-36.899)" fill="#db5157"/>
          <rect id="Rectangle_18" data-name="Rectangle 18" width="32.335" height="22.612" transform="translate(52.116 89.554) rotate(-36.899)" fill="#c63a40"/>
          <path id="Path_19" data-name="Path 19" d="M174.974,345.379l17.1-12.843a5.473,5.473,0,0,0,1.091-7.663l-10.4-13.854L156.91,330.435l10.4,13.854A5.474,5.474,0,0,0,174.974,345.379Z" transform="translate(-91.218 -222.798)" fill="#c35156"/>
          <rect id="Rectangle_19" data-name="Rectangle 19" width="32.335" height="22.612" transform="translate(24.963 53.39) rotate(-36.899)" fill="#e56a6f"/>
          <path id="Path_20" data-name="Path 20" d="M113.561,227.992l-17.1,12.843a5.473,5.473,0,0,0-1.091,7.663l10.29,13.706,25.858-19.415-10.29-13.706A5.474,5.474,0,0,0,113.561,227.992Z" transform="translate(-94.269 -226.896)" fill="#ffaaae"/>
          <g id="Group_9" data-name="Group 9" transform="translate(11.388 15.895)">
            <g id="Group_8" data-name="Group 8" transform="translate(0 0)">
              <rect id="Rectangle_20" data-name="Rectangle 20" width="32.336" height="22.606" transform="matrix(0.8, -0.6, 0.6, 0.8, 0, 19.411)" fill="#ff9775"/>
            </g>
          </g>
        </g>
        <g id="Group_13" data-name="Group 13" transform="translate(11.388 15.895)">
          <g id="Group_11" data-name="Group 11" transform="translate(0 0)">
            <rect id="Rectangle_21" data-name="Rectangle 21" width="32.336" height="22.606" transform="matrix(0.8, -0.6, 0.6, 0.8, 0, 19.411)" fill="#f5898e"/>
          </g>
          <g id="Group_12" data-name="Group 12" transform="translate(0 0)">
            <rect id="Rectangle_22" data-name="Rectangle 22" width="32.336" height="22.606" transform="matrix(0.8, -0.6, 0.6, 0.8, 0, 19.412)" fill="none" stroke="#000" stroke-miterlimit="10" stroke-width="1"/>
          </g>
        </g>
        <g id="Group_14" data-name="Group 14">
          <line id="Line_11" data-name="Line 11" y1="19.414" x2="25.858" transform="translate(65.692 88.222)" fill="none" stroke="#000" stroke-miterlimit="10" stroke-width="1"/>
          <line id="Line_12" data-name="Line 12" x1="25.858" y2="19.414" transform="translate(52.116 70.14)" fill="none" stroke="#000" stroke-miterlimit="10" stroke-width="1"/>
          <line id="Line_13" data-name="Line 13" x1="25.858" y2="19.414" transform="translate(38.539 52.058)" fill="none" stroke="#000" stroke-miterlimit="10" stroke-width="1"/>
          <path id="Path_21" data-name="Path 21" d="M195.061,327.393l-10.4-13.854-13.577-18.083-13.577-18.082-13.576-18.083-25.858,19.415,13.576,18.083,13.577,18.082L158.8,332.954l10.4,13.855a5.474,5.474,0,0,0,7.663,1.091l17.1-12.843A5.473,5.473,0,0,0,195.061,327.393Z" transform="translate(-93.11 -225.317)" fill="none" stroke="#000" stroke-miterlimit="10" stroke-width="1"/>
          <path id="Path_22" data-name="Path 22" d="M121.224,229.083a5.474,5.474,0,0,0-7.663-1.091l-17.1,12.843a5.473,5.473,0,0,0-1.091,7.663l10.29,13.706,25.858-19.415Z" transform="translate(-94.269 -226.896)" fill="none" stroke="#000" stroke-miterlimit="10" stroke-width="1"/>
        </g>
      </g>
      <g id="Group_20" data-name="Group 20" transform="translate(219.916 24.744)">
        <g id="Group_18" data-name="Group 18" transform="translate(2.045 2.044)">
          <g id="Group_17" data-name="Group 17">
            <g id="Group_16" data-name="Group 16">
              <path id="Path_23" data-name="Path 23" d="M334.349,207.357l10.7-24.944,10.712-24.952,3.109-7.252a6.535,6.535,0,0,1,8.574-3.428l17.109,7.343a6.543,6.543,0,0,1,3.429,8.574L327.671,303.228a6.533,6.533,0,0,1-8.583,3.417l-17.1-7.331a6.54,6.54,0,0,1-3.426-8.585l3.667-8.533,10.7-24.945L323.64,232.3Z" transform="translate(-298.031 -146.253)" fill="#424d53"/>
            </g>
          </g>
        </g>
        <path id="Path_24" data-name="Path 24" d="M372.9,149.116c-3.23-.415-67.014,151.858-67.014,151.858L302,299.307l-3.333-3.237-1-3.453,61.4-142.778,2.412-2.62,3.848-.945,2.549.688Z" transform="translate(-296.004 -144.208)" fill="#424d53" opacity="0.5" style="mix-blend-mode: multiply;isolation: isolate"/>
        <g id="Group_19" data-name="Group 19" transform="translate(0)">
          <line id="Line_14" data-name="Line 14" x1="9.4" y1="4.035" transform="translate(59.772 13.255)" fill="none" stroke="#000" stroke-miterlimit="10" stroke-width="1"/>
          <line id="Line_15" data-name="Line 15" x1="9.4" y1="4.035" transform="translate(49.066 38.201)" fill="none" stroke="#000" stroke-miterlimit="10" stroke-width="1"/>
          <line id="Line_16" data-name="Line 16" x1="9.4" y1="4.035" transform="translate(38.359 63.147)" fill="none" stroke="#000" stroke-miterlimit="10" stroke-width="1"/>
          <line id="Line_17" data-name="Line 17" x1="9.4" y1="4.035" transform="translate(27.653 88.094)" fill="none" stroke="#000" stroke-miterlimit="10" stroke-width="1"/>
          <line id="Line_18" data-name="Line 18" x1="9.4" y1="4.035" transform="translate(16.946 113.04)" fill="none" stroke="#000" stroke-miterlimit="10" stroke-width="1"/>
          <line id="Line_19" data-name="Line 19" x1="9.4" y1="4.035" transform="translate(6.239 137.986)" fill="none" stroke="#000" stroke-miterlimit="10" stroke-width="1"/>
          <rect id="Rectangle_23" data-name="Rectangle 23" width="31.673" height="165.978" rx="6.226" transform="matrix(-0.919, -0.394, 0.394, -0.919, 29.106, 165.016)" fill="none" stroke="#000" stroke-miterlimit="10" stroke-width="1"/>
        </g>
      </g>
      <g id="Group_25" data-name="Group 25" transform="translate(214.925 94.478)">
        <g id="Group_23" data-name="Group 23" transform="translate(0 0.004)">
          <g id="Group_22" data-name="Group 22">
            <g id="Group_21" data-name="Group 21">
              <path id="Path_25" data-name="Path 25" d="M302.637,249.841l22.505-7.31,22.505-7.31,22.495-7.3,22.505-7.31,22.505-7.31,6.659-2.16a6.415,6.415,0,0,1,6.46,10.7L322.447,325.055a6.411,6.411,0,0,1-10.582-2.611l-20.23-62.283a6.424,6.424,0,0,1,4.121-8.086Zm79.409-.881a3.38,3.38,0,0,0-3.408-5.632L312.222,264.89a3.374,3.374,0,0,0-2.171,4.258l10.655,32.825a3.384,3.384,0,0,0,5.579,1.374Z" transform="translate(-291.322 -210.802)" fill="#f7858a"/>
            </g>
          </g>
        </g>
        <path id="Path_26" data-name="Path 26" d="M429.772,214.9c-2.073-2.772-136,51.844-136,51.844l-2.137-6.583-.316-3.8,2.505-3.259,3.7-1.6,122.757-39.865,3-.8,2.8.374,2.767,2.094Z" transform="translate(-291.322 -210.797)" fill="#ffd8d9" opacity="0.5" style="mix-blend-mode: multiply;isolation: isolate"/>
        <g id="Group_24" data-name="Group 24" transform="translate(0)">
          <line id="Line_20" data-name="Line 20" x2="2.117" y2="6.518" transform="translate(123.827 2.505)" fill="none" stroke="#000" stroke-miterlimit="10" stroke-width="1"/>
          <line id="Line_21" data-name="Line 21" x2="2.117" y2="6.518" transform="translate(101.325 9.813)" fill="none" stroke="#000" stroke-miterlimit="10" stroke-width="1"/>
          <line id="Line_22" data-name="Line 22" x2="2.117" y2="6.518" transform="translate(78.823 17.12)" fill="none" stroke="#000" stroke-miterlimit="10" stroke-width="1"/>
          <line id="Line_23" data-name="Line 23" x2="2.117" y2="6.518" transform="translate(56.321 24.427)" fill="none" stroke="#000" stroke-miterlimit="10" stroke-width="1"/>
          <line id="Line_24" data-name="Line 24" x2="2.117" y2="6.518" transform="translate(33.819 31.735)" fill="none" stroke="#000" stroke-miterlimit="10" stroke-width="1"/>
          <line id="Line_25" data-name="Line 25" x2="2.117" y2="6.518" transform="translate(11.317 39.042)" fill="none" stroke="#000" stroke-miterlimit="10" stroke-width="1"/>
          <path id="Path_27" data-name="Path 27" d="M421.812,211.14,295.759,252.074a6.417,6.417,0,0,0-4.121,8.087l20.227,62.285a6.418,6.418,0,0,0,10.585,2.612L428.276,221.838A6.417,6.417,0,0,0,421.812,211.14Zm-39.77,37.821-55.76,54.387a3.381,3.381,0,0,1-5.577-1.377l-10.658-32.818a3.381,3.381,0,0,1,2.172-4.26l66.418-21.569A3.381,3.381,0,0,1,382.042,248.961Z" transform="translate(-291.322 -210.798)" fill="none" stroke="#000" stroke-miterlimit="10" stroke-width="1"/>
        </g>
      </g>
      <g id="Group_31" data-name="Group 31" transform="translate(220.987 246.83)">
        <g id="Group_29" data-name="Group 29" transform="translate(0 0)">
          <g id="Group_28" data-name="Group 28">
            <g id="Group_26" data-name="Group 26">
              <path id="Path_28" data-name="Path 28" d="M297.269,374.006l1.406-3.619a2.107,2.107,0,0,1,2.728-1.2l1.758.683a2.106,2.106,0,0,0,2.464-.728,20.99,20.99,0,0,1,2.249-2.547,2.115,2.115,0,0,0,.476-2.373l-1.358-3.087a2.1,2.1,0,0,1,1.078-2.774l3.556-1.573a2.1,2.1,0,0,1,2.775,1.078l.959,2.177a2.088,2.088,0,0,0,2.367,1.208,20.832,20.832,0,0,1,6.814-.436,2.125,2.125,0,0,0,2.205-1.335l.8-2.059a2.106,2.106,0,0,1,2.728-1.2l3.628,1.409a2.108,2.108,0,0,1,1.2,2.729l-.8,2.067a2.105,2.105,0,0,0,.723,2.453,21.459,21.459,0,0,1,3.123,2.86,2.1,2.1,0,0,0,2.426.546l1.794-.79a2.1,2.1,0,0,1,2.775,1.078l1.564,3.553a2.113,2.113,0,0,1-1.081,2.783l-1.316.579a2.11,2.11,0,0,0-1.209,2.347,20.89,20.89,0,0,1,.258,5.97,2.123,2.123,0,0,0,1.327,2.2l2.412.938a2.106,2.106,0,0,1,1.2,2.728l-1.406,3.618a2.106,2.106,0,0,1-2.728,1.2l-2.412-.937a2.114,2.114,0,0,0-2.464.728,20.927,20.927,0,0,1-4.935,4.736,2.081,2.081,0,0,0-.7,2.565l.854,1.938a2.115,2.115,0,0,1-1.081,2.783l-3.554,1.564a2.1,2.1,0,0,1-2.774-1.078l-1.265-2.871a2.1,2.1,0,0,0-2.067-1.24,20.891,20.891,0,0,1-3.4-.072,2.122,2.122,0,0,0-2.192,1.33l-.784,2.016a2.1,2.1,0,0,1-2.724,1.192l-3.627-1.409a2.105,2.105,0,0,1-1.2-2.719l.783-2.017a2.113,2.113,0,0,0-.719-2.461,20.562,20.562,0,0,1-4.229-4.222,2.138,2.138,0,0,0-2.56-.687l-1.471.648a2.1,2.1,0,0,1-2.774-1.078l-1.573-3.557a2.1,2.1,0,0,1,1.078-2.774l1.962-.864a2.117,2.117,0,0,0,1.235-2.158,20.927,20.927,0,0,1,0-4.226,2.106,2.106,0,0,0-1.327-2.2l-1.758-.683A2.107,2.107,0,0,1,297.269,374.006Zm12.068,2.607a14.074,14.074,0,1,0,18.221-8.023A14.08,14.08,0,0,0,309.336,376.613Z" transform="translate(-297.103 -356.074)" fill="#fff" stroke="#232932" stroke-width="1"/>
              <path id="Path_29" data-name="Path 29" d="M319.06,387.406a7.035,7.035,0,1,1,9.1-4.009A7.04,7.04,0,0,1,319.06,387.406Z" transform="translate(-296.252 -355.21)" fill="#fff" stroke="#232932" stroke-width="1"/>
            </g>
            <g id="Group_27" data-name="Group 27">
              <path id="Path_30" data-name="Path 30" d="M298.675,370.387l-1.406,3.619a2.107,2.107,0,0,0,1.2,2.728l1.758.683a2.106,2.106,0,0,1,1.327,2.2,20.927,20.927,0,0,0,0,4.226A2.117,2.117,0,0,1,300.323,386l-1.962.864a2.1,2.1,0,0,0-1.078,2.774l1.573,3.557a2.1,2.1,0,0,0,2.774,1.078l1.471-.648a2.138,2.138,0,0,1,2.56.687,20.562,20.562,0,0,0,4.229,4.222,2.113,2.113,0,0,1,.719,2.461l-.783,2.017a2.105,2.105,0,0,0,1.2,2.719l3.627,1.409a2.1,2.1,0,0,0,2.724-1.192l.784-2.016a2.122,2.122,0,0,1,2.192-1.33,20.891,20.891,0,0,0,3.4.072,2.1,2.1,0,0,1,2.067,1.24l1.265,2.871a2.1,2.1,0,0,0,2.774,1.078l3.554-1.564a2.115,2.115,0,0,0,1.081-2.783l-.854-1.938a2.081,2.081,0,0,1,.7-2.565,20.927,20.927,0,0,0,4.935-4.736,2.114,2.114,0,0,1,2.464-.728l2.412.937a2.106,2.106,0,0,0,2.728-1.2l1.406-3.618a2.106,2.106,0,0,0-1.2-2.728l-2.412-.938a2.123,2.123,0,0,1-1.327-2.2,20.89,20.89,0,0,0-.258-5.97,2.11,2.11,0,0,1,1.209-2.347l1.316-.579a2.113,2.113,0,0,0,1.081-2.783l-1.564-3.553a2.1,2.1,0,0,0-2.775-1.078l-1.794.79a2.1,2.1,0,0,1-2.426-.546,21.459,21.459,0,0,0-3.123-2.86,2.105,2.105,0,0,1-.723-2.453l.8-2.067a2.108,2.108,0,0,0-1.2-2.729l-3.628-1.409a2.106,2.106,0,0,0-2.728,1.2l-.8,2.059a2.125,2.125,0,0,1-2.205,1.335,20.832,20.832,0,0,0-6.814.436,2.088,2.088,0,0,1-2.367-1.208l-.959-2.177a2.1,2.1,0,0,0-2.775-1.078l-3.556,1.573a2.1,2.1,0,0,0-1.078,2.774l1.358,3.087a2.115,2.115,0,0,1-.476,2.373,20.99,20.99,0,0,0-2.249,2.547,2.106,2.106,0,0,1-2.464.728l-1.758-.683A2.107,2.107,0,0,0,298.675,370.387Z" transform="translate(-297.103 -356.074)" fill="#fff" stroke="#232932" stroke-miterlimit="10" stroke-width="1"/>
              <path id="Path_31" data-name="Path 31" d="M308.813,376.076a14.074,14.074,0,1,1,8.023,18.221A14.079,14.079,0,0,1,308.813,376.076Z" transform="translate(-296.579 -355.537)" fill="#fff" stroke="#232932" stroke-miterlimit="10" stroke-width="1"/>
              <path id="Path_32" data-name="Path 32" d="M315.042,378.3a7.039,7.039,0,1,1,4.018,9.108A7.034,7.034,0,0,1,315.042,378.3Z" transform="translate(-296.252 -355.21)" fill="#fff" stroke="#232932" stroke-miterlimit="10" stroke-width="1"/>
            </g>
          </g>
        </g>
        <g id="Group_30" data-name="Group 30" transform="translate(0.002)">
          <path id="Path_33" data-name="Path 33" d="M298.676,370.384l-1.408,3.623a2.106,2.106,0,0,0,1.2,2.727l1.763.685a2.113,2.113,0,0,1,1.327,2.2,20.729,20.729,0,0,0,0,4.229A2.112,2.112,0,0,1,300.318,386l-1.955.861a2.106,2.106,0,0,0-1.079,2.776l1.567,3.558a2.107,2.107,0,0,0,2.777,1.079l1.479-.651a2.119,2.119,0,0,1,2.55.691,20.882,20.882,0,0,0,4.234,4.224,2.115,2.115,0,0,1,.723,2.46l-.782,2.011a2.107,2.107,0,0,0,1.2,2.727l3.623,1.407a2.106,2.106,0,0,0,2.727-1.2l.781-2.011a2.113,2.113,0,0,1,2.2-1.327,20.846,20.846,0,0,0,3.4.065,2.105,2.105,0,0,1,2.068,1.248l1.263,2.867a2.106,2.106,0,0,0,2.777,1.079l3.557-1.566a2.106,2.106,0,0,0,1.079-2.777l-.857-1.948a2.085,2.085,0,0,1,.7-2.562,20.937,20.937,0,0,0,4.928-4.732,2.121,2.121,0,0,1,2.469-.731l2.411.938a2.108,2.108,0,0,0,2.727-1.2l1.408-3.623a2.107,2.107,0,0,0-1.2-2.727L344.68,386a2.113,2.113,0,0,1-1.327-2.194,20.909,20.909,0,0,0-.257-5.974,2.121,2.121,0,0,1,1.212-2.349l1.318-.58a2.106,2.106,0,0,0,1.079-2.777l-1.566-3.557a2.106,2.106,0,0,0-2.777-1.079l-1.793.79a2.111,2.111,0,0,1-2.43-.543,20.849,20.849,0,0,0-3.119-2.857,2.114,2.114,0,0,1-.724-2.461l.8-2.068a2.107,2.107,0,0,0-1.2-2.727l-3.623-1.407a2.106,2.106,0,0,0-2.727,1.2l-.8,2.066a2.122,2.122,0,0,1-2.206,1.328,20.92,20.92,0,0,0-6.818.439,2.087,2.087,0,0,1-2.365-1.211l-.956-2.171a2.106,2.106,0,0,0-2.776-1.079l-3.558,1.567a2.106,2.106,0,0,0-1.079,2.776l1.361,3.092a2.105,2.105,0,0,1-.476,2.368,20.834,20.834,0,0,0-2.248,2.553,2.115,2.115,0,0,1-2.461.725l-1.763-.686A2.105,2.105,0,0,0,298.676,370.384Z" transform="translate(-297.105 -356.074)" fill="#fff" stroke="#232932" stroke-miterlimit="10" stroke-width="1"/>
          <circle id="Ellipse_2" data-name="Ellipse 2" cx="14.076" cy="14.076" r="14.076" transform="translate(11.274 11.56)" fill="#fff" stroke="#232932" stroke-miterlimit="10" stroke-width="1"/>
          <circle id="Ellipse_3" data-name="Ellipse 3" cx="7.038" cy="7.038" r="7.038" transform="translate(18.312 18.598)" fill="#fff" stroke="#232932" stroke-miterlimit="10" stroke-width="1"/>
        </g>
      </g>
      <g id="Group_37" data-name="Group 37" transform="translate(79.466)">
        <g id="Group_35" data-name="Group 35" transform="translate(0.002 0.001)">
          <g id="Group_34" data-name="Group 34">
            <g id="Group_32" data-name="Group 32">
              <path id="Path_34" data-name="Path 34" d="M214.928,170.216l-3.022,3.2a2.39,2.39,0,0,1-3.38.1l-1.556-1.468a2.388,2.388,0,0,0-2.9-.286,23.681,23.681,0,0,1-3.452,1.718,2.4,2.4,0,0,0-1.512,2.292l.111,3.825a2.385,2.385,0,0,1-2.317,2.456l-4.411.136a2.386,2.386,0,0,1-2.456-2.317l-.079-2.7a2.371,2.371,0,0,0-1.974-2.279,23.648,23.648,0,0,1-7.349-2.449,2.409,2.409,0,0,0-2.887.462l-1.72,1.824a2.391,2.391,0,0,1-3.38.1l-3.211-3.03a2.389,2.389,0,0,1-.1-3.38l1.726-1.831a2.389,2.389,0,0,0,.287-2.887,24.307,24.307,0,0,1-2.064-4.339,2.384,2.384,0,0,0-2.317-1.609l-2.223.065a2.387,2.387,0,0,1-2.457-2.318l-.128-4.4a2.4,2.4,0,0,1,2.324-2.464l1.631-.047a2.4,2.4,0,0,0,2.273-1.951,23.684,23.684,0,0,1,2.276-6.388,2.406,2.406,0,0,0-.455-2.88l-2.135-2.015a2.39,2.39,0,0,1-.1-3.38l3.022-3.2a2.391,2.391,0,0,1,3.38-.1l2.136,2.015a2.4,2.4,0,0,0,2.9.286,23.725,23.725,0,0,1,7.209-2.873,2.36,2.36,0,0,0,1.829-2.4l-.07-2.4a2.4,2.4,0,0,1,2.324-2.463l4.4-.129a2.386,2.386,0,0,1,2.456,2.318l.1,3.557a2.385,2.385,0,0,0,1.644,2.186,23.762,23.762,0,0,1,3.547,1.528,2.407,2.407,0,0,0,2.871-.462l1.684-1.785a2.388,2.388,0,0,1,3.373-.091l3.212,3.03a2.388,2.388,0,0,1,.106,3.373l-1.684,1.785a2.4,2.4,0,0,0-.294,2.894,23.357,23.357,0,0,1,2.646,6.243,2.424,2.424,0,0,0,2.4,1.815l1.823-.053a2.387,2.387,0,0,1,2.457,2.317l.136,4.41a2.387,2.387,0,0,1-2.318,2.457l-2.431.071a2.4,2.4,0,0,0-2.219,1.741,23.832,23.832,0,0,1-1.8,4.444,2.389,2.389,0,0,0,.455,2.88l1.556,1.468A2.389,2.389,0,0,1,214.928,170.216Zm-11.574-7.889a15.967,15.967,0,1,0-22.578.66A15.973,15.973,0,0,0,203.355,162.326Z" transform="translate(-162.157 -120.71)" fill="#fff" stroke="#232932" stroke-width="1"/>
              <path id="Path_35" data-name="Path 35" d="M196.209,144.508a7.981,7.981,0,1,1-11.282.33A7.988,7.988,0,0,1,196.209,144.508Z" transform="translate(-161.154 -119.657)" fill="#fff" stroke="#232932" stroke-width="1"/>
            </g>
            <g id="Group_33" data-name="Group 33" transform="translate(0)">
              <path id="Path_36" data-name="Path 36" d="M211.906,173.419l3.022-3.2a2.389,2.389,0,0,0-.1-3.38l-1.556-1.468a2.389,2.389,0,0,1-.455-2.88,23.832,23.832,0,0,0,1.8-4.444,2.4,2.4,0,0,1,2.219-1.741l2.431-.071a2.387,2.387,0,0,0,2.318-2.457l-.136-4.41a2.387,2.387,0,0,0-2.457-2.317l-1.823.053a2.424,2.424,0,0,1-2.4-1.815,23.357,23.357,0,0,0-2.646-6.243,2.4,2.4,0,0,1,.294-2.894l1.684-1.785a2.388,2.388,0,0,0-.106-3.373l-3.212-3.03a2.388,2.388,0,0,0-3.373.091l-1.684,1.785a2.407,2.407,0,0,1-2.871.462,23.76,23.76,0,0,0-3.547-1.528,2.385,2.385,0,0,1-1.644-2.186l-.1-3.557a2.386,2.386,0,0,0-2.456-2.318l-4.4.129a2.4,2.4,0,0,0-2.324,2.463l.07,2.4a2.36,2.36,0,0,1-1.829,2.4,23.725,23.725,0,0,0-7.209,2.873,2.4,2.4,0,0,1-2.9-.286l-2.136-2.015a2.391,2.391,0,0,0-3.38.1l-3.022,3.2a2.39,2.39,0,0,0,.1,3.38l2.135,2.015a2.406,2.406,0,0,1,.455,2.88,23.684,23.684,0,0,0-2.276,6.388,2.4,2.4,0,0,1-2.273,1.951l-1.631.047a2.4,2.4,0,0,0-2.324,2.464l.128,4.4a2.387,2.387,0,0,0,2.457,2.318l2.223-.065a2.384,2.384,0,0,1,2.317,1.609,24.309,24.309,0,0,0,2.064,4.339,2.389,2.389,0,0,1-.287,2.887l-1.726,1.831a2.389,2.389,0,0,0,.1,3.38l3.211,3.03a2.391,2.391,0,0,0,3.38-.1l1.72-1.824a2.409,2.409,0,0,1,2.887-.462,23.648,23.648,0,0,0,7.349,2.449,2.371,2.371,0,0,1,1.974,2.279l.079,2.7a2.386,2.386,0,0,0,2.456,2.317l4.411-.136a2.385,2.385,0,0,0,2.317-2.456l-.111-3.825a2.4,2.4,0,0,1,1.512-2.292,23.681,23.681,0,0,0,3.452-1.718,2.388,2.388,0,0,1,2.9.286l1.556,1.468A2.39,2.39,0,0,0,211.906,173.419Z" transform="translate(-162.157 -120.71)" fill="#fff" stroke="#232932" stroke-width="1"/>
              <path id="Path_37" data-name="Path 37" d="M202.722,161.644a15.967,15.967,0,1,1-.66-22.578A15.973,15.973,0,0,1,202.722,161.644Z" transform="translate(-161.525 -120.028)" fill="#fff" stroke="#232932" stroke-width="1"/>
              <path id="Path_38" data-name="Path 38" d="M196.546,155.8a7.986,7.986,0,1,1-.337-11.289A7.979,7.979,0,0,1,196.546,155.8Z" transform="translate(-161.154 -119.657)" fill="#fff" stroke="#232932" stroke-width="1"/>
            </g>
          </g>
        </g>
        <g id="Group_36" data-name="Group 36">
          <path id="Path_39" data-name="Path 39" d="M211.9,173.424l3.026-3.208a2.39,2.39,0,0,0-.1-3.379l-1.56-1.471a2.4,2.4,0,0,1-.457-2.876,23.666,23.666,0,0,0,1.8-4.447,2.394,2.394,0,0,1,2.224-1.74l2.421-.07a2.392,2.392,0,0,0,2.32-2.459l-.129-4.408a2.392,2.392,0,0,0-2.459-2.32l-1.832.053a2.4,2.4,0,0,1-2.387-1.815,23.673,23.673,0,0,0-2.648-6.246,2.4,2.4,0,0,1,.29-2.894l1.68-1.781a2.392,2.392,0,0,0-.1-3.379l-3.209-3.026a2.389,2.389,0,0,0-3.378.1l-1.68,1.781a2.4,2.4,0,0,1-2.873.458,23.715,23.715,0,0,0-3.549-1.52,2.391,2.391,0,0,1-1.641-2.195l-.1-3.553a2.389,2.389,0,0,0-2.458-2.319l-4.409.129a2.389,2.389,0,0,0-2.319,2.458l.07,2.413a2.368,2.368,0,0,1-1.833,2.393,23.712,23.712,0,0,0-7.2,2.872,2.408,2.408,0,0,1-2.907-.285l-2.135-2.015a2.39,2.39,0,0,0-3.378.1l-3.027,3.209a2.39,2.39,0,0,0,.1,3.378l2.137,2.016a2.4,2.4,0,0,1,.458,2.872,23.717,23.717,0,0,0-2.279,6.391,2.4,2.4,0,0,1-2.277,1.952l-1.633.047a2.39,2.39,0,0,0-2.32,2.458l.129,4.409a2.389,2.389,0,0,0,2.458,2.319l2.223-.065a2.4,2.4,0,0,1,2.323,1.608,23.727,23.727,0,0,0,2.059,4.334,2.4,2.4,0,0,1-.288,2.9l-1.727,1.83a2.389,2.389,0,0,0,.1,3.378l3.208,3.027a2.39,2.39,0,0,0,3.378-.1l1.725-1.829a2.407,2.407,0,0,1,2.886-.454,23.7,23.7,0,0,0,7.355,2.446,2.37,2.37,0,0,1,1.969,2.283l.079,2.69a2.389,2.389,0,0,0,2.458,2.319l4.409-.128a2.39,2.39,0,0,0,2.319-2.459l-.112-3.83a2.39,2.39,0,0,1,1.511-2.287,23.619,23.619,0,0,0,3.453-1.723,2.4,2.4,0,0,1,2.9.288l1.56,1.472A2.392,2.392,0,0,0,211.9,173.424Z" transform="translate(-162.155 -120.709)" fill="#fff" stroke="#232932" stroke-width="1"/>
          <circle id="Ellipse_4" data-name="Ellipse 4" cx="15.97" cy="15.97" r="15.97" transform="translate(13.614 14.692)" fill="#fff" stroke="#232932" stroke-width="1"/>
          <circle id="Ellipse_5" data-name="Ellipse 5" cx="7.985" cy="7.985" r="7.985" transform="translate(21.599 22.677)" fill="#fff" stroke="#232932" stroke-width="1"/>
        </g>
      </g>
      <g id="Group_44" data-name="Group 44" transform="translate(270.344 225.077)">
        <g id="Group_41" data-name="Group 41" transform="translate(0.099 0.001)">
          <g id="Group_40" data-name="Group 40">
            <g id="Group_38" data-name="Group 38">
              <path id="Path_40" data-name="Path 40" d="M418.751,362.984l1.085,5.439a3,3,0,0,1-2.358,3.534l-2.639.526a3.006,3.006,0,0,0-2.41,2.753,29.759,29.759,0,0,1-.749,4.8,3.021,3.021,0,0,0,1.245,3.211l4.01,2.668a3.007,3.007,0,0,1,.833,4.17l-3.076,4.61a3.008,3.008,0,0,1-4.171.833l-2.816-1.879a2.96,2.96,0,0,0-3.766.357,29.93,29.93,0,0,1-7.862,5.754,3.033,3.033,0,0,0-1.635,3.286l.62,3.1a3,3,0,0,1-2.359,3.534l-5.429,1.083a3,3,0,0,1-3.534-2.357l-.62-3.1a3.011,3.011,0,0,0-2.759-2.4,30.216,30.216,0,0,1-5.941-1.049,3,3,0,0,0-3.339,1.213l-1.544,2.325a3.023,3.023,0,0,1-4.17.833l-4.611-3.076a3.008,3.008,0,0,1-.833-4.17l1.14-1.707a3.017,3.017,0,0,0-.344-3.749,30,30,0,0,1-4.883-6.991,3.023,3.023,0,0,0-3.282-1.616l-3.617.721a3,3,0,0,1-3.534-2.358l-1.085-5.439a3,3,0,0,1,2.358-3.534l3.617-.723a3.012,3.012,0,0,0,2.407-2.771A29.931,29.931,0,0,1,355,361.346a2.963,2.963,0,0,0-1.117-3.614l-2.523-1.683a3.007,3.007,0,0,1-.832-4.17l3.076-4.611a3.006,3.006,0,0,1,4.17-.832l3.71,2.482a3,3,0,0,0,3.442-.084,29.96,29.96,0,0,1,4.141-2.533,3.011,3.011,0,0,0,1.628-3.275l-.6-3.018a3,3,0,0,1,2.357-3.534l5.43-1.084a3,3,0,0,1,3.534,2.357l.6,3.019a3.016,3.016,0,0,0,2.751,2.4A29.448,29.448,0,0,1,393.1,345a3.015,3.015,0,0,0,3.593-1.122l1.285-1.925a3.012,3.012,0,0,1,4.16-.831l4.611,3.077a3.006,3.006,0,0,1,.832,4.17l-1.69,2.534a3,3,0,0,0,.17,3.538,29.759,29.759,0,0,1,3.239,5.084,3.013,3.013,0,0,0,3.284,1.626l2.639-.526A3,3,0,0,1,418.751,362.984Zm-16.5,6.121a20.073,20.073,0,1,0-15.76,23.61A20.07,20.07,0,0,0,402.252,369.106Z" transform="translate(-344.261 -335.331)" fill="#424d53"/>
              <path id="Path_41" data-name="Path 41" d="M379.285,361.906a10.034,10.034,0,1,1-7.87,11.809A10.036,10.036,0,0,1,379.285,361.906Z" transform="translate(-342.948 -334.047)" fill="#424d53"/>
            </g>
            <g id="Group_39" data-name="Group 39">
              <path id="Path_42" data-name="Path 42" d="M419.837,368.423l-1.085-5.439a3,3,0,0,0-3.534-2.359l-2.639.526a3.013,3.013,0,0,1-3.284-1.626,29.759,29.759,0,0,0-3.239-5.084,3,3,0,0,1-.17-3.538l1.69-2.534a3.006,3.006,0,0,0-.832-4.17l-4.611-3.077a3.012,3.012,0,0,0-4.16.831l-1.285,1.925A3.015,3.015,0,0,1,393.1,345a29.448,29.448,0,0,0-8.332-1.833,3.016,3.016,0,0,1-2.751-2.4l-.6-3.019a3,3,0,0,0-3.534-2.357l-5.43,1.084a3,3,0,0,0-2.357,3.534l.6,3.018a3.011,3.011,0,0,1-1.628,3.275,29.96,29.96,0,0,0-4.141,2.533,3,3,0,0,1-3.442.084l-3.71-2.482a3.006,3.006,0,0,0-4.17.832l-3.076,4.611a3.007,3.007,0,0,0,.832,4.17l2.523,1.683A2.963,2.963,0,0,1,355,361.346a29.931,29.931,0,0,0-2.295,9.469,3.012,3.012,0,0,1-2.407,2.771l-3.617.723a3,3,0,0,0-2.358,3.534l1.085,5.439a3,3,0,0,0,3.534,2.358l3.617-.721a3.023,3.023,0,0,1,3.282,1.616,30,30,0,0,0,4.883,6.991,3.017,3.017,0,0,1,.344,3.749l-1.14,1.707a3.008,3.008,0,0,0,.833,4.17l4.611,3.076a3.023,3.023,0,0,0,4.17-.833l1.544-2.325a3,3,0,0,1,3.339-1.213,30.216,30.216,0,0,0,5.941,1.049,3.011,3.011,0,0,1,2.759,2.4l.62,3.1a3,3,0,0,0,3.534,2.357l5.429-1.083a3,3,0,0,0,2.359-3.534l-.62-3.1a3.033,3.033,0,0,1,1.635-3.286A29.93,29.93,0,0,0,403.941,394a2.96,2.96,0,0,1,3.766-.357l2.816,1.879a3.008,3.008,0,0,0,4.171-.833l3.076-4.61a3.007,3.007,0,0,0-.833-4.17l-4.01-2.668a3.021,3.021,0,0,1-1.245-3.211,29.759,29.759,0,0,0,.749-4.8,3.006,3.006,0,0,1,2.41-2.753l2.639-.526A3,3,0,0,0,419.837,368.423Z" transform="translate(-344.261 -335.331)" fill="none" stroke="#340c54" stroke-miterlimit="10" stroke-width="1"/>
              <path id="Path_43" data-name="Path 43" d="M401.4,368.287a20.073,20.073,0,1,1-23.617-15.75A20.069,20.069,0,0,1,401.4,368.287Z" transform="translate(-343.414 -334.513)" fill="none" stroke="#340c54" stroke-miterlimit="10" stroke-width="1"/>
              <path id="Path_44" data-name="Path 44" d="M391.094,369.786a10.034,10.034,0,1,1-11.81-7.88A10.034,10.034,0,0,1,391.094,369.786Z" transform="translate(-342.948 -334.047)" fill="none" stroke="#340c54" stroke-miterlimit="10" stroke-width="1"/>
            </g>
          </g>
        </g>
        <g id="Group_42" data-name="Group 42" transform="translate(0 10.663)">
          <path id="Path_45" data-name="Path 45" d="M379.285,361.9c-6.387,2.446-3.526,20.491,5.443,19.244-4.047.619-3.893,1.055-5.872.336a23.331,23.331,0,0,1-3.736-1.8s-2.408-2.643-2.586-2.969-1.237-3.564-1.237-3.564l.364-4.376,1.408-2.834,2.647-2.57Z" transform="translate(-342.845 -344.7)" fill="#424d53" opacity="0.5" style="mix-blend-mode: multiply;isolation: isolate"/>
          <path id="Path_46" data-name="Path 46" d="M367.94,346.408c-9.306,6.176-15.889,34.087-1.163,45.2s26.965,8.505,34.013,4.69c-3.032,2.046-5.822,3.914-5.822,3.914l-.517,2.338.565,4.49-.643,1.811-8.844,1.243-1.4-1.094-1.43-4.9-1.766-1.594s-2.633-.328-2.684-.333-4.89-.8-4.89-.8l-2.274,1.2-1.551,2.325-1.66,1.2a16.652,16.652,0,0,0-2.221-.036c-.336.093-2.953-2.117-2.953-2.117l-2.253-1.53-1.178-2.358,1.791-3.421.522-1.518-.859-2.1-1.86-2.186-2.266-3.393-1.5-2.343a4.008,4.008,0,0,0-1.826-.73c-.714.045-3.108.523-3.722.645a13.144,13.144,0,0,1-2.393-.069l-1.66-1.7-1.335-6.686,1.288-2.193,3.677-.919,2.523-1.025.809-1.172.757-4.663,1.186-4.211a14.1,14.1,0,0,0,.819-2.621,4.089,4.089,0,0,0-.867-2.128c-.474-.4-1.849-1.315-1.849-1.315l-1.8-1.355-.645-1.494.134-1.417,4.449-5.858,2.059-.694,1.545,1.035,2.839,1.908,1.8.47,1.012-.086Z" transform="translate(-344.167 -345.499)" fill="#424d53" opacity="0.5" style="mix-blend-mode: multiply;isolation: isolate"/>
        </g>
        <g id="Group_43" data-name="Group 43" transform="translate(0.098)">
          <path id="Path_47" data-name="Path 47" d="M419.838,368.42l-1.085-5.435a3,3,0,0,0-3.533-2.358l-2.644.528a3.014,3.014,0,0,1-3.278-1.623,29.743,29.743,0,0,0-3.245-5.083,3.01,3.01,0,0,1-.164-3.546l1.689-2.533a3,3,0,0,0-.832-4.165l-4.61-3.076a3,3,0,0,0-4.165.832l-1.278,1.916A3.021,3.021,0,0,1,393.1,345a29.823,29.823,0,0,0-8.327-1.832,3.012,3.012,0,0,1-2.755-2.4l-.6-3.018a3,3,0,0,0-3.533-2.358l-5.435,1.085a3,3,0,0,0-2.358,3.533l.6,3.017a3.016,3.016,0,0,1-1.623,3.278,29.7,29.7,0,0,0-4.138,2.529,3.006,3.006,0,0,1-3.444.085l-3.716-2.479a3,3,0,0,0-4.165.832l-3.076,4.61a3,3,0,0,0,.831,4.165l2.524,1.684A2.976,2.976,0,0,1,355,361.35a29.775,29.775,0,0,0-2.3,9.467,3.027,3.027,0,0,1-2.408,2.772l-3.618.721a3,3,0,0,0-2.357,3.533l1.085,5.435a3,3,0,0,0,3.533,2.358l3.621-.723a3.011,3.011,0,0,1,3.276,1.621,29.775,29.775,0,0,0,4.889,6.984,3.023,3.023,0,0,1,.343,3.753l-1.14,1.708a3,3,0,0,0,.832,4.165l4.61,3.076a3,3,0,0,0,4.165-.831l1.551-2.325a3.01,3.01,0,0,1,3.337-1.21,29.776,29.776,0,0,0,5.94,1.044,3.014,3.014,0,0,1,2.758,2.4l.619,3.1a3,3,0,0,0,3.533,2.357l5.436-1.085a3,3,0,0,0,2.358-3.533l-.619-3.1a3.027,3.027,0,0,1,1.634-3.288A29.8,29.8,0,0,0,403.939,394a2.975,2.975,0,0,1,3.772-.358l2.814,1.877a3,3,0,0,0,4.166-.832l3.076-4.61a3,3,0,0,0-.832-4.165l-4.006-2.673a3,3,0,0,1-1.243-3.211,29.878,29.878,0,0,0,.747-4.794,3.014,3.014,0,0,1,2.4-2.757l2.645-.527A3,3,0,0,0,419.838,368.42Z" transform="translate(-344.26 -335.331)" fill="none" stroke="#000" stroke-miterlimit="10" stroke-width="1"/>
          <circle id="Ellipse_6" data-name="Ellipse 6" cx="20.07" cy="20.07" r="20.07" transform="translate(18.236 17.633)" fill="none" stroke="#000" stroke-miterlimit="10" stroke-width="1"/>
          <circle id="Ellipse_7" data-name="Ellipse 7" cx="10.035" cy="10.035" r="10.035" transform="translate(28.271 27.668)" fill="none" stroke="#000" stroke-miterlimit="10" stroke-width="1"/>
        </g>
      </g>
      <g id="Group_51" data-name="Group 51" transform="translate(0 6.91)">
        <g id="Group_48" data-name="Group 48">
          <g id="Group_47" data-name="Group 47">
            <g id="Group_45" data-name="Group 45">
              <path id="Path_48" data-name="Path 48" d="M165.241,192.111l-3.475,5.246a3.408,3.408,0,0,1-4.723.96l-2.544-1.686a3.413,3.413,0,0,0-4.141.288,33.775,33.775,0,0,1-4.438,3.263,3.427,3.427,0,0,0-1.566,3.579l1.095,5.354a3.412,3.412,0,0,1-2.665,4.022l-6.162,1.251a3.411,3.411,0,0,1-4.022-2.664l-.764-3.765a3.358,3.358,0,0,0-3.315-2.725,33.956,33.956,0,0,1-10.93-1.655,3.439,3.439,0,0,0-3.942,1.337l-1.981,2.991a3.4,3.4,0,0,1-4.724.959l-5.236-3.469a3.4,3.4,0,0,1-.96-4.723l1.981-2.991a3.416,3.416,0,0,0-.3-4.137,34.262,34.262,0,0,1-3.942-5.594,3.408,3.408,0,0,0-3.659-1.694l-3.1.637a3.43,3.43,0,0,1-4.022-2.664l-1.251-6.162a3.411,3.411,0,0,1,2.664-4.022l2.282-.464a3.425,3.425,0,0,0,2.722-3.292,33.966,33.966,0,0,1,1.659-9.531,3.429,3.429,0,0,0-1.35-3.925l-3.488-2.311a3.408,3.408,0,0,1-.96-4.723l3.475-5.246a3.408,3.408,0,0,1,4.723-.959l3.489,2.31a3.417,3.417,0,0,0,4.152-.305,33.935,33.935,0,0,1,9.42-5.787,3.36,3.36,0,0,0,1.989-3.8l-.684-3.372a3.411,3.411,0,0,1,2.664-4.022l6.162-1.251a3.411,3.411,0,0,1,4.022,2.664l1,4.966a3.41,3.41,0,0,0,2.838,2.685,33.832,33.832,0,0,1,5.359,1.273,3.418,3.418,0,0,0,3.928-1.335l1.929-2.911a3.4,3.4,0,0,1,4.723-.959l5.237,3.469a3.4,3.4,0,0,1,.959,4.723l-1.929,2.911a3.422,3.422,0,0,0,.295,4.133,33.364,33.364,0,0,1,5.238,8.137,3.424,3.424,0,0,0,3.79,1.971l2.572-.523a3.419,3.419,0,0,1,4.013,2.658l1.251,6.163a3.413,3.413,0,0,1-2.665,4.022l-3.386.687a3.4,3.4,0,0,0-2.693,2.984,33.792,33.792,0,0,1-1.459,6.682,3.422,3.422,0,0,0,1.343,3.935l2.544,1.685A3.408,3.408,0,0,1,165.241,192.111Zm-18.174-8.266a22.773,22.773,0,1,0-31.563,6.4A22.769,22.769,0,0,0,147.067,183.845Z" transform="translate(-86.38 -127.298)" fill="#424d53"/>
              <path id="Path_49" data-name="Path 49" d="M132.96,160.257a11.384,11.384,0,1,1-15.776,3.21A11.386,11.386,0,0,1,132.96,160.257Z" transform="translate(-84.972 -125.785)" fill="#424d53"/>
            </g>
            <g id="Group_46" data-name="Group 46">
              <path id="Path_50" data-name="Path 50" d="M161.766,197.356l3.475-5.246a3.408,3.408,0,0,0-.96-4.723l-2.544-1.685a3.422,3.422,0,0,1-1.343-3.935,33.792,33.792,0,0,0,1.459-6.682,3.4,3.4,0,0,1,2.693-2.984l3.386-.687a3.413,3.413,0,0,0,2.665-4.022l-1.251-6.163a3.419,3.419,0,0,0-4.013-2.658l-2.572.523a3.424,3.424,0,0,1-3.79-1.971,33.364,33.364,0,0,0-5.238-8.137,3.422,3.422,0,0,1-.295-4.133l1.929-2.911a3.4,3.4,0,0,0-.959-4.723l-5.237-3.469a3.4,3.4,0,0,0-4.723.959l-1.929,2.911a3.418,3.418,0,0,1-3.928,1.335,33.832,33.832,0,0,0-5.359-1.273A3.41,3.41,0,0,1,130.392,135l-1-4.966a3.411,3.411,0,0,0-4.022-2.664l-6.162,1.251a3.411,3.411,0,0,0-2.664,4.022l.684,3.372a3.36,3.36,0,0,1-1.989,3.8,33.935,33.935,0,0,0-9.42,5.787,3.417,3.417,0,0,1-4.152.305l-3.489-2.31a3.408,3.408,0,0,0-4.723.959L89.979,149.8a3.408,3.408,0,0,0,.96,4.723l3.488,2.311a3.429,3.429,0,0,1,1.35,3.925,33.966,33.966,0,0,0-1.659,9.531,3.425,3.425,0,0,1-2.722,3.292l-2.282.464a3.411,3.411,0,0,0-2.664,4.022l1.251,6.162a3.43,3.43,0,0,0,4.022,2.664l3.1-.637a3.408,3.408,0,0,1,3.659,1.694,34.262,34.262,0,0,0,3.942,5.594,3.416,3.416,0,0,1,.3,4.137l-1.981,2.991a3.4,3.4,0,0,0,.96,4.723l5.236,3.469a3.4,3.4,0,0,0,4.724-.959l1.981-2.991a3.439,3.439,0,0,1,3.942-1.337,33.956,33.956,0,0,0,10.93,1.655,3.358,3.358,0,0,1,3.315,2.725l.764,3.765a3.411,3.411,0,0,0,4.022,2.664l6.162-1.251a3.412,3.412,0,0,0,2.665-4.022l-1.095-5.354a3.427,3.427,0,0,1,1.566-3.579,33.775,33.775,0,0,0,4.438-3.263,3.413,3.413,0,0,1,4.141-.288l2.544,1.686A3.408,3.408,0,0,0,161.766,197.356Z" transform="translate(-86.38 -127.298)" fill="none" stroke="#340c54" stroke-miterlimit="10" stroke-width="1"/>
              <path id="Path_51" data-name="Path 51" d="M146.188,182.86a22.773,22.773,0,1,1-6.415-31.56A22.769,22.769,0,0,1,146.188,182.86Z" transform="translate(-85.501 -126.314)" fill="none" stroke="#340c54" stroke-miterlimit="10" stroke-width="1"/>
              <path id="Path_52" data-name="Path 52" d="M136.165,176.041a11.384,11.384,0,1,1-3.2-15.784A11.385,11.385,0,0,1,136.165,176.041Z" transform="translate(-84.972 -125.785)" fill="none" stroke="#340c54" stroke-miterlimit="10" stroke-width="1"/>
            </g>
          </g>
        </g>
        <g id="Group_49" data-name="Group 49" transform="translate(0.009 0.436)">
          <path id="Path_53" data-name="Path 53" d="M132.957,160.253c-7.1-3.138-19.223,13.673-11.007,19.841-3.751-2.738-3.976-2.263-4.994-4.424a26.368,26.368,0,0,1-1.569-4.434s.174-4.052.293-4.457,1.853-3.858,1.853-3.858l3.792-3.231,3.4-1.154,4.186.047Z" transform="translate(-84.976 -126.213)" fill="#424d53" opacity="0.5" style="mix-blend-mode: multiply;isolation: isolate"/>
          <path id="Path_54" data-name="Path 54" d="M137.2,138.516c-12.429-2.471-40.046,14.73-37.079,35.45s14.9,28.405,23.624,30.972c-4.075-.778-7.815-1.506-7.815-1.506l-2.285,1.468-3.136,4.065-1.965.944-8.111-6.071-.25-2,2.766-5.085-.147-2.7-1.893-2.414c-.036-.045-3.294-4.557-3.294-4.557l-2.791-.851-3.107.631-2.3-.36a18.891,18.891,0,0,0-1.76-1.8c-.344-.193-.684-4.065-.684-4.065l-.589-3.034.938-2.839,4.177-1.32,1.634-.8.985-2.373.25-3.247.888-4.543.668-3.084a4.546,4.546,0,0,0-.886-2.047c-.61-.535-2.92-2.065-3.511-2.456a14.957,14.957,0,0,1-1.871-1.971l.023-2.7,4.271-6.447,2.791-.736,3.694,2.2,2.85,1.192,1.588-.3,4.337-3.147,4.322-2.44a15.967,15.967,0,0,0,2.755-1.456,4.62,4.62,0,0,0,1-2.4c-.063-.7-.436-2.538-.436-2.538l-.365-2.528.676-1.719,1.24-1.033,8.266-1.158,2.212,1.088.415,2.068.76,3.806,1.073,1.818.884.739Z" transform="translate(-86.389 -127.714)" fill="#424d53" opacity="0.5" style="mix-blend-mode: multiply;isolation: isolate"/>
        </g>
        <g id="Group_50" data-name="Group 50" transform="translate(0.003 0.002)">
          <path id="Path_55" data-name="Path 55" d="M161.769,197.354l3.473-5.243a3.407,3.407,0,0,0-.96-4.722l-2.549-1.689a3.419,3.419,0,0,1-1.34-3.927,33.729,33.729,0,0,0,1.452-6.686,3.416,3.416,0,0,1,2.7-2.985l3.384-.688A3.407,3.407,0,0,0,170.6,167.4l-1.251-6.163a3.408,3.408,0,0,0-4.018-2.661l-2.561.52a3.429,3.429,0,0,1-3.794-1.972,33.773,33.773,0,0,0-5.237-8.133,3.421,3.421,0,0,1-.3-4.137l1.929-2.911a3.407,3.407,0,0,0-.959-4.722l-5.243-3.472a3.406,3.406,0,0,0-4.722.959l-1.928,2.91a3.419,3.419,0,0,1-3.927,1.34,33.821,33.821,0,0,0-5.354-1.273A3.409,3.409,0,0,1,130.4,135l-1.008-4.968a3.408,3.408,0,0,0-4.018-2.661l-6.162,1.251a3.407,3.407,0,0,0-2.662,4.017l.685,3.374a3.376,3.376,0,0,1-1.995,3.808,33.808,33.808,0,0,0-9.417,5.783,3.433,3.433,0,0,1-4.154.305l-3.489-2.311a3.407,3.407,0,0,0-4.722.959L89.981,149.8a3.406,3.406,0,0,0,.959,4.722l3.492,2.313a3.416,3.416,0,0,1,1.34,3.924,33.792,33.792,0,0,0-1.65,9.532,3.429,3.429,0,0,1-2.726,3.3l-2.283.464a3.407,3.407,0,0,0-2.662,4.018l1.251,6.162a3.408,3.408,0,0,0,4.017,2.662l3.107-.631a3.416,3.416,0,0,1,3.654,1.694,33.7,33.7,0,0,0,3.945,5.59,3.421,3.421,0,0,1,.3,4.14l-1.982,2.991a3.407,3.407,0,0,0,.96,4.722l5.241,3.473a3.407,3.407,0,0,0,4.722-.959l1.981-2.989a3.431,3.431,0,0,1,3.943-1.339,33.813,33.813,0,0,0,10.928,1.652,3.376,3.376,0,0,1,3.321,2.73l.763,3.76a3.407,3.407,0,0,0,4.018,2.662l6.162-1.251a3.407,3.407,0,0,0,2.662-4.017l-1.088-5.355a3.408,3.408,0,0,1,1.568-3.579,33.707,33.707,0,0,0,4.433-3.262,3.421,3.421,0,0,1,4.139-.3l2.55,1.689A3.407,3.407,0,0,0,161.769,197.354Z" transform="translate(-86.383 -127.3)" fill="none" stroke="#000" stroke-miterlimit="10" stroke-width="1"/>
          <circle id="Ellipse_8" data-name="Ellipse 8" cx="22.77" cy="22.77" r="22.77" transform="translate(18.928 21.195)" fill="none" stroke="#000" stroke-miterlimit="10" stroke-width="1"/>
          <circle id="Ellipse_9" data-name="Ellipse 9" cx="11.385" cy="11.385" r="11.385" transform="translate(30.313 32.58)" fill="none" stroke="#000" stroke-miterlimit="10" stroke-width="1"/>
        </g>
      </g>
      <g id="Group_58" data-name="Group 58" transform="translate(12.613 164.917)">
        <g id="Group_55" data-name="Group 55" transform="translate(0 0)">
          <g id="Group_54" data-name="Group 54">
            <g id="Group_52" data-name="Group 52">
              <path id="Path_56" data-name="Path 56" d="M180.973,347.655H165.232L143.4,328.411a29.2,29.2,0,0,0,6.1-6.345Z" transform="translate(-96.216 -275.818)" fill="#424d53"/>
              <path id="Path_57" data-name="Path 57" d="M157.073,307.3a29.333,29.333,0,1,1-29.333-29.333A29.155,29.155,0,0,1,157.073,307.3Zm-8.914,0a20.418,20.418,0,1,0-20.418,20.408A20.422,20.422,0,0,0,148.159,307.3Z" transform="translate(-98.408 -277.966)" fill="#424d53"/>
              <path id="Path_58" data-name="Path 58" d="M127.326,286.466a20.413,20.413,0,1,1-20.418,20.418A20.422,20.422,0,0,1,127.326,286.466ZM138.6,302c1.049-1.814-.692-4.782-3.891-6.628s-6.638-1.877-7.7-.052.692,4.782,3.891,6.628S137.541,303.822,138.6,302Z" transform="translate(-97.994 -277.552)" fill="#f99da1"/>
              <path id="Path_59" data-name="Path 59" d="M133.79,295.021c3.2,1.846,4.939,4.814,3.891,6.628s-4.5,1.793-7.7-.052-4.939-4.814-3.891-6.628S130.591,293.175,133.79,295.021Z" transform="translate(-97.074 -277.204)" fill="#fff"/>
            </g>
            <g id="Group_53" data-name="Group 53">
              <path id="Path_60" data-name="Path 60" d="M149.5,322.066l31.472,25.589H165.232L143.4,328.411" transform="translate(-96.216 -275.818)" fill="none" stroke="#340c54" stroke-miterlimit="10" stroke-width="1"/>
              <path id="Path_61" data-name="Path 61" d="M137.68,301.649c-1.059,1.825-4.5,1.793-7.7-.052s-4.939-4.814-3.891-6.628,4.5-1.793,7.7.052S138.729,299.835,137.68,301.649Z" transform="translate(-97.074 -277.204)" fill="none" stroke="#340c54" stroke-miterlimit="10" stroke-width="1"/>
              <path id="Path_62" data-name="Path 62" d="M145.59,330.559a29.328,29.328,0,1,1,6.1-6.345A29.147,29.147,0,0,1,145.59,330.559Z" transform="translate(-98.408 -277.966)" fill="none" stroke="#340c54" stroke-miterlimit="10" stroke-width="1"/>
              <path id="Path_63" data-name="Path 63" d="M147.745,306.884a20.418,20.418,0,1,1-20.418-20.418A20.413,20.413,0,0,1,147.745,306.884Z" transform="translate(-97.994 -277.552)" fill="none" stroke="#340c54" stroke-miterlimit="10" stroke-width="1"/>
            </g>
          </g>
        </g>
        <g id="Group_56" data-name="Group 56" transform="translate(0.067 8.281)">
          <path id="Path_64" data-name="Path 64" d="M114.527,290.769c-2.907,2.858-6.756,10.014-6.756,10.014L107,308.576l1.933,6.969,4.463,6.048,5.8,3.808,8.124,1.685,8.072-1.661,6.1-4.071,2.44-2.826C125.154,322.088,106.521,311.013,114.527,290.769Z" transform="translate(-98.056 -285.623)" fill="#e97176" opacity="0.5" style="mix-blend-mode: multiply;isolation: isolate"/>
          <path id="Path_65" data-name="Path 65" d="M107.323,285.862c-9.369,9.023-6.374,54.428,35.737,46.058A56.445,56.445,0,0,1,132.2,335.9c-.515.068-8.273.213-9.2,0s-8.245-1.564-8.06-2.036-7.619-5.905-7.619-5.905-4.546-5.623-4.814-6.092a81.746,81.746,0,0,1-3.354-8.369c-.278-1.383-.723-7.957-.682-8.478s1.892-8.653,1.892-8.653l4.011-7.19Z" transform="translate(-98.471 -285.862)" fill="#424d53" opacity="0.5" style="mix-blend-mode: multiply;isolation: isolate"/>
        </g>
        <g id="Group_57" data-name="Group 57" transform="translate(0.005)">
          <path id="Path_66" data-name="Path 66" d="M149.5,322.064l31.472,25.591H165.237L143.4,328.412" transform="translate(-96.221 -275.818)" fill="none" stroke="#000" stroke-miterlimit="10" stroke-width="1"/>
          <ellipse id="Ellipse_10" data-name="Ellipse 10" cx="3.802" cy="6.686" rx="3.802" ry="6.686" transform="translate(27.117 21.055) rotate(-60)" fill="none" stroke="#000" stroke-miterlimit="10" stroke-width="1"/>
          <circle id="Ellipse_11" data-name="Ellipse 11" cx="29.329" cy="29.329" r="29.329" fill="none" stroke="#000" stroke-miterlimit="10" stroke-width="1"/>
          <circle id="Ellipse_12" data-name="Ellipse 12" cx="20.415" cy="20.415" r="20.415" transform="translate(8.914 8.914)" fill="none" stroke="#000" stroke-miterlimit="10" stroke-width="1"/>
        </g>
      </g>
      <g id="Group_64" data-name="Group 64" transform="translate(210.429 161.777)">
        <g id="Group_61" data-name="Group 61" transform="translate(0 0.004)">
          <g id="Group_60" data-name="Group 60">
            <g id="Group_59" data-name="Group 59">
              <path id="Path_67" data-name="Path 67" d="M412.907,318.218c-2.427,2.16-5,4.325-8.1,5.275a15.6,15.6,0,0,1-9.234-.354,22.674,22.674,0,0,1-11.781-8.835,12.019,12.019,0,0,0,2.551-2.6c1.42-2.007.141-4.767-1.063-6.9-.8-1.412-1.678-2.918-3.144-3.6a7.324,7.324,0,0,0-2.746-.505c-.483-.026-.968-.037-1.461-.041l.005-.1c-2.648-2.064-2.485-6.08-1.745-9.364a23.774,23.774,0,0,1,1.455-4.642c2.273-5.059,7.157-8.65,12.457-10.3s11.009-1.516,16.5-.706c4.571.675,9.06,1.812,13.578,2.78a11.994,11.994,0,0,0-2.011.172c-1.612.262-3.478.693-4.141,2.184-.41.911-.231,2-.541,2.958-.452,1.406-1.909,2.369-2.186,3.814-.3,1.583.946,3.083,2.365,3.844s3.063,1.056,4.484,1.8a2.947,2.947,0,0,1,1.677,1.832,4.222,4.222,0,0,1-.905,2.762c-.486.864-.829,2.016-.2,2.777L420.2,303.1a2.055,2.055,0,0,0,1.671.726,6.1,6.1,0,0,0,1.83-.39,8.3,8.3,0,0,1,3.981-.59l.25.2A139.053,139.053,0,0,1,412.907,318.218Z" transform="translate(-282.715 -274.976)" fill="#fff"/>
              <path id="Path_68" data-name="Path 68" d="M419.939,278.485c.444.094.889.175,1.327.261a22.257,22.257,0,0,0,8.8.41c2.2-.463,4.468-1.521,6.622-.838a1.5,1.5,0,0,1,.855.56,1.687,1.687,0,0,1,.22.783c.37,3.712-1.142,7.353-2.893,10.648a75.664,75.664,0,0,1-8.588,12.583l-.25-.2a8.294,8.294,0,0,0-3.981.59,6.1,6.1,0,0,1-1.83.39,2.055,2.055,0,0,1-1.671-.726l-1.485-2.615c-.626-.761-.282-1.913.2-2.777a4.222,4.222,0,0,0,.905-2.762,2.947,2.947,0,0,0-1.677-1.832c-1.421-.746-3.065-1.041-4.484-1.8s-2.668-2.261-2.365-3.844c.277-1.445,1.734-2.408,2.186-3.814.31-.954.131-2.047.541-2.958.664-1.491,2.529-1.922,4.141-2.184a11.994,11.994,0,0,1,2.011-.172C418.993,278.287,419.466,278.385,419.939,278.485Z" transform="translate(-281.064 -274.824)" fill="#e97176"/>
              <path id="Path_69" data-name="Path 69" d="M388.108,313.11a33.917,33.917,0,0,1-5.4,3.18c-2.763,1.414-12.1,5.825-14.99,6.952-3.129,1.231-30.489,11.94-43.836,16.884a110.971,110.971,0,0,1-30.48,6.623,7.2,7.2,0,0,1-5.383-1.678,2.728,2.728,0,0,1,.149-4.31c6.746-4.68,13.917-8.706,20.876-13.061a173.95,173.95,0,0,1,16.674-9.6c3.74-1.794,9.886-4.556,13.741-6.081,6.384-2.521,10.485-3.813,16.87-6.334,5.5-2.173,11.043-4.362,16.852-5.447a46.122,46.122,0,0,1,9.066-.775c.493,0,.977.015,1.461.041a7.323,7.323,0,0,1,2.746.505c1.466.684,2.348,2.19,3.144,3.6,1.2,2.131,2.483,4.891,1.063,6.9A12.017,12.017,0,0,1,388.108,313.11Z" transform="translate(-287.035 -273.783)" fill="#e97176"/>
            </g>
          </g>
        </g>
        <g id="Group_62" data-name="Group 62" transform="translate(0.048 0.26)">
          <path id="Path_70" data-name="Path 70" d="M389.593,303.6c-2.681-3.835-102.512,39.845-102.512,39.845l1.086-2.691s2.532-2.427,3.559-2.741,17.624-10.515,17.624-10.515l12.887-7.638,20.4-9.076L366,302.1l11.673-2.471,6.107.22c.813.029,2.124-.3,2.756.209Z" transform="translate(-287.081 -274.03)" fill="#ffadb1" opacity="0.5" style="mix-blend-mode: multiply;isolation: isolate"/>
          <path id="Path_71" data-name="Path 71" d="M440.033,280.1c-2.783-1.844-9.5,10.133-26.235,5.81s-32.332,5.282-30.376,16.115a19.221,19.221,0,0,0-5.492-1.473l-1.563-2.028-.65-3.631s.807-5.117.957-5.636,3.285-6.415,3.285-6.415l5.656-4.952,9.342-2.67,11.644.318s10,2.307,10.309,2.065,8.371,1.947,8.371,1.947,6.836-.342,7.13-.417,4-.9,4.3-.894a25.771,25.771,0,0,1,2.484.78Z" transform="translate(-282.763 -275.219)" fill="#424d53" opacity="0.5" style="mix-blend-mode: multiply;isolation: isolate"/>
        </g>
        <g id="Group_63" data-name="Group 63" transform="translate(0.001)">
          <path id="Path_72" data-name="Path 72" d="M385.008,290.847a10.018,10.018,0,0,0-2.307,4.563c-.088.418-.15.842-.212,1.266l-.521,3.592" transform="translate(-282.412 -274.198)" fill="none" stroke="#000" stroke-miterlimit="10" stroke-width="1"/>
          <path id="Path_73" data-name="Path 73" d="M394.282,279.854a21.324,21.324,0,0,0-13.045,9.216,14.012,14.012,0,0,0-1.477,2.967,20.991,20.991,0,0,0-.625,7.73" transform="translate(-282.553 -274.733)" fill="none" stroke="#000" stroke-miterlimit="10" stroke-width="1"/>
          <path id="Path_74" data-name="Path 74" d="M399.18,309.338a27.158,27.158,0,0,1-12.586-.969" transform="translate(-282.186 -273.344)" fill="none" stroke="#000" stroke-miterlimit="10" stroke-width="1"/>
          <path id="Path_75" data-name="Path 75" d="M429.714,290.276a72.833,72.833,0,0,1-5.064,6.978c-3.222,4.09-6.493,8.228-10.65,11.363-7.8,5.883-18.9,7.582-27.657,3.249" transform="translate(-282.199 -274.226)" fill="none" stroke="#000" stroke-miterlimit="10" stroke-width="1"/>
          <path id="Path_76" data-name="Path 76" d="M418.134,301.8a2.071,2.071,0,0,0,1.667.727,6.059,6.059,0,0,0,1.837-.386,8.257,8.257,0,0,1,3.978-.591" transform="translate(-280.65 -273.68)" fill="none" stroke="#000" stroke-miterlimit="10" stroke-width="1"/>
          <path id="Path_77" data-name="Path 77" d="M420.479,278.795c-1.089-.829-2.612-.655-3.964-.443-1.61.254-3.471.692-4.138,2.178-.413.92-.232,2.005-.543,2.964-.457,1.405-1.911,2.364-2.188,3.815-.3,1.583.949,3.08,2.371,3.841s3.054,1.054,4.482,1.8a2.942,2.942,0,0,1,1.673,1.831,4.236,4.236,0,0,1-.9,2.759c-.486.864-.837,2.021-.2,2.782" transform="translate(-281.066 -274.815)" fill="none" stroke="#000" stroke-miterlimit="10" stroke-width="1"/>
          <path id="Path_78" data-name="Path 78" d="M377.93,300.563c-2.65-2.064-2.484-6.089-1.746-9.366a24.35,24.35,0,0,1,1.456-4.641c2.275-5.065,7.154-8.652,12.459-10.294s11.009-1.525,16.5-.713,10.864,2.295,16.314,3.354a22.454,22.454,0,0,0,8.8.4c2.21-.458,4.472-1.516,6.623-.836a1.543,1.543,0,0,1,.863.559,1.734,1.734,0,0,1,.216.779c.369,3.716-1.135,7.357-2.9,10.651-5.758,10.77-14.475,19.656-23.612,27.76-2.431,2.157-5,4.325-8.106,5.273a15.618,15.618,0,0,1-9.233-.351,22.634,22.634,0,0,1-11.8-8.864" transform="translate(-282.716 -274.971)" fill="none" stroke="#000" stroke-miterlimit="10" stroke-width="1"/>
          <path id="Path_79" data-name="Path 79" d="M288.02,345.072a7.23,7.23,0,0,0,5.386,1.676,110.962,110.962,0,0,0,30.477-6.617c13.344-4.947,40.7-15.658,43.837-16.887,2.89-1.133,12.223-5.539,14.985-6.954,2.268-1.162,5.911-2.884,7.958-5.777,1.419-2.005.138-4.765-1.068-6.906-.794-1.411-1.678-2.907-3.146-3.59a7.218,7.218,0,0,0-2.745-.513,46.249,46.249,0,0,0-10.527.739c-5.811,1.084-11.351,3.269-16.849,5.442-6.388,2.524-10.484,3.813-16.872,6.337-3.854,1.523-10,4.284-13.74,6.079a173.581,173.581,0,0,0-16.677,9.6c-6.957,4.354-14.127,8.383-20.87,13.062A2.727,2.727,0,0,0,288.02,345.072Z" transform="translate(-287.036 -273.779)" fill="none" stroke="#000" stroke-miterlimit="10" stroke-width="1"/>
        </g>
      </g>
      <g id="Group_69" data-name="Group 69" transform="translate(88.718 46.413)">
        <g id="Group_67" data-name="Group 67" transform="translate(0 0)">
          <g id="Group_66" data-name="Group 66">
            <g id="Group_65" data-name="Group 65">
              <path id="Path_80" data-name="Path 80" d="M340.87,184.367v170.94H326.209V328.2a8.808,8.808,0,0,0-8.809-8.809H268.666a8.808,8.808,0,0,0-8.809,8.809v27.109h-7.341V328.2a8.808,8.808,0,0,0-8.809-8.809H195.3a8.808,8.808,0,0,0-8.809,8.809v27.109h-15.51V184.367a19.4,19.4,0,0,1,19.4-19.4H321.468A19.4,19.4,0,0,1,340.87,184.367ZM326.209,301.4V258.218a8.808,8.808,0,0,0-8.809-8.809H195.3a8.808,8.808,0,0,0-8.809,8.809V301.4a8.808,8.808,0,0,0,8.809,8.809H317.4A8.808,8.808,0,0,0,326.209,301.4Zm0-68.953v-26.69a8.808,8.808,0,0,0-8.809-8.809H297.285a8.808,8.808,0,0,0-8.809,8.809v26.69a8.808,8.808,0,0,0,8.809,8.809H317.4A8.808,8.808,0,0,0,326.209,232.451Zm-1.615-51.576a5.375,5.375,0,1,0-5.38,5.369A5.384,5.384,0,0,0,324.594,180.875Zm-18.174,0a5.375,5.375,0,1,0-5.38,5.369A5.384,5.384,0,0,0,306.419,180.875Zm-18.174,0a5.375,5.375,0,1,0-5.38,5.369A5.384,5.384,0,0,0,288.245,180.875Zm-3.765,51.576v-26.69a8.808,8.808,0,0,0-8.809-8.809H195.3a8.808,8.808,0,0,0-8.809,8.809v26.69a8.808,8.808,0,0,0,8.809,8.809h80.373A8.808,8.808,0,0,0,284.48,232.451Z" transform="translate(-170.978 -164.966)" fill="#e6e6e6"/>
              <path id="Path_81" data-name="Path 81" d="M322.08,321.025v27.109H255.728V321.025a8.808,8.808,0,0,1,8.809-8.809h48.734A8.808,8.808,0,0,1,322.08,321.025Z" transform="translate(-166.85 -157.793)" fill="#e97176"/>
              <rect id="Rectangle_24" data-name="Rectangle 24" width="139.72" height="60.804" rx="8.4" transform="translate(15.51 84.442)" fill="#fff"/>
              <rect id="Rectangle_25" data-name="Rectangle 25" width="37.733" height="44.308" rx="8.4" transform="translate(117.498 31.986)" fill="#fff"/>
              <path id="Path_82" data-name="Path 82" d="M312.577,175.006a5.375,5.375,0,1,1-5.369,5.38A5.384,5.384,0,0,1,312.577,175.006Z" transform="translate(-164.342 -164.477)" fill="#f7858a"/>
              <path id="Path_83" data-name="Path 83" d="M295.247,175.006a5.375,5.375,0,1,1-5.369,5.38A5.384,5.384,0,0,1,295.247,175.006Z" transform="translate(-165.186 -164.477)" fill="#162934"/>
              <path id="Path_84" data-name="Path 84" d="M277.917,175.006a5.375,5.375,0,1,1-5.369,5.38A5.384,5.384,0,0,1,277.917,175.006Z" transform="translate(-166.03 -164.477)" fill="#fff"/>
              <rect id="Rectangle_26" data-name="Rectangle 26" width="97.992" height="44.308" rx="8.4" transform="translate(15.51 31.986)" fill="#e97176"/>
              <path id="Path_85" data-name="Path 85" d="M251.795,321.025v27.109H185.768V321.025a8.808,8.808,0,0,1,8.809-8.809h48.409A8.808,8.808,0,0,1,251.795,321.025Z" transform="translate(-170.258 -157.793)" fill="#fff"/>
            </g>
          </g>
        </g>
        <path id="Path_86" data-name="Path 86" d="M206.527,164.966c-14.552,17.557-7.381,190.83-7.381,190.83l-28.168-.489.32-174.437s1.667-5.351,2.553-6.664,6.407-6.327,6.407-6.327L189.324,165Z" transform="translate(-170.978 -164.966)" fill="#e6e6e6" style="mix-blend-mode: multiply;isolation: isolate"/>
        <g id="Group_68" data-name="Group 68">
          <rect id="Rectangle_27" data-name="Rectangle 27" width="19.663" height="19.663" rx="3.625" transform="translate(96.219 161.764)" fill="#fff"/>
          <rect id="Rectangle_28" data-name="Rectangle 28" width="54.362" height="2.67" transform="translate(96.219 183.739)" fill="#fff"/>
          <rect id="Rectangle_29" data-name="Rectangle 29" width="31.473" height="3.093" transform="translate(119.108 176.894)" fill="#fff"/>
          <rect id="Rectangle_30" data-name="Rectangle 30" width="31.473" height="3.093" transform="translate(119.108 170.049)" fill="#fff"/>
          <rect id="Rectangle_31" data-name="Rectangle 31" width="31.473" height="3.093" transform="translate(119.108 163.204)" fill="#fff"/>
          <rect id="Rectangle_32" data-name="Rectangle 32" width="124.516" height="3.093" transform="translate(22.566 127.881)" fill="#232932"/>
          <rect id="Rectangle_33" data-name="Rectangle 33" width="124.516" height="3.093" transform="translate(22.566 116.994)" fill="#232932"/>
          <rect id="Rectangle_34" data-name="Rectangle 34" width="124.516" height="3.093" transform="translate(22.566 106.108)" fill="#232932"/>
          <rect id="Rectangle_35" data-name="Rectangle 35" width="124.516" height="3.093" transform="translate(22.566 95.222)" fill="#232932"/>
          <rect id="Rectangle_36" data-name="Rectangle 36" width="81.518" height="3.739" transform="translate(23.091 61.42)" fill="#fff"/>
          <rect id="Rectangle_37" data-name="Rectangle 37" width="81.518" height="3.739" transform="translate(23.091 51.96)" fill="#fff"/>
          <rect id="Rectangle_38" data-name="Rectangle 38" width="81.518" height="3.739" transform="translate(23.091 42.499)" fill="#fff"/>
          <path id="Rectangle_39" data-name="Rectangle 39" d="M8.4,0H57.954a8.4,8.4,0,0,1,8.4,8.4V35.918a0,0,0,0,1,0,0H0a0,0,0,0,1,0,0V8.4A8.4,8.4,0,0,1,8.4,0Z" transform="translate(88.878 154.423)" fill="none" stroke="#000" stroke-miterlimit="10" stroke-width="1"/>
          <path id="Rectangle_40" data-name="Rectangle 40" d="M8.4,0H57.63a8.4,8.4,0,0,1,8.4,8.4V35.918a0,0,0,0,1,0,0H0a0,0,0,0,1,0,0V8.4A8.4,8.4,0,0,1,8.4,0Z" transform="translate(15.51 154.423)" fill="none" stroke="#000" stroke-miterlimit="10" stroke-width="1"/>
          <rect id="Rectangle_41" data-name="Rectangle 41" width="139.719" height="60.804" rx="8.397" transform="translate(15.51 84.443)" fill="none" stroke="#000" stroke-miterlimit="10" stroke-width="1"/>
          <rect id="Rectangle_42" data-name="Rectangle 42" width="37.732" height="44.308" rx="8.397" transform="translate(117.498 31.986)" fill="none" stroke="#000" stroke-miterlimit="10" stroke-width="1"/>
          <rect id="Rectangle_43" data-name="Rectangle 43" transform="translate(115.883 31.986)" fill="none" stroke="#000" stroke-miterlimit="10" stroke-width="1"/>
          <rect id="Rectangle_44" data-name="Rectangle 44" width="97.993" height="44.308" rx="8.397" transform="translate(15.51 31.986)" fill="none" stroke="#000" stroke-miterlimit="10" stroke-width="1"/>
          <path id="Rectangle_45" data-name="Rectangle 45" d="M18.5,0H151.392a18.5,18.5,0,0,1,18.5,18.5V190.341a0,0,0,0,1,0,0H0a0,0,0,0,1,0,0V18.5A18.5,18.5,0,0,1,18.5,0Z" fill="none" stroke="#000" stroke-miterlimit="10" stroke-width="1"/>
          <circle id="Ellipse_13" data-name="Ellipse 13" cx="5.375" cy="5.375" r="5.375" transform="translate(106.514 10.53)" fill="none" stroke="#000" stroke-miterlimit="10" stroke-width="1"/>
          <circle id="Ellipse_14" data-name="Ellipse 14" cx="5.375" cy="5.375" r="5.375" transform="translate(142.865 10.53)" fill="none" stroke="#000" stroke-miterlimit="10" stroke-width="1"/>
          <circle id="Ellipse_15" data-name="Ellipse 15" cx="5.375" cy="5.375" r="5.375" transform="translate(124.689 10.53)" fill="none" stroke="#000" stroke-miterlimit="10" stroke-width="1"/>
        </g>
      </g>
    </g>
  </g>
</svg>
