<svg xmlns="http://www.w3.org/2000/svg" width="68" height="68" viewBox="0 0 68 68">
  <g id="icons" transform="translate(-16 -24)">
    <path id="Path_50690" data-name="Path 50690" d="M0,0H68V68H0Z" transform="translate(16 24)" fill="#fff"/>
    <g id="saving-money-flower" transform="translate(23.713 31.5)">
      <path id="Path_50723" data-name="Path 50723" d="M21.155,30.239A14.87,14.87,0,1,0,10.64,25.884,14.87,14.87,0,0,0,21.155,30.239Z" transform="translate(5.839 0)" fill="#f7858a"/>
      <path id="Path_50724" data-name="Path 50724" d="M21.153.5A14.87,14.87,0,0,0,10.8,26.038L31.821,5.013A14.822,14.822,0,0,0,21.153.5Z" transform="translate(5.841 0)" fill="#fff"/>
      <path id="Path_50725" data-name="Path 50725" d="M18.417,16.662c-2.768,1.849-4.2,5.219,0,8.052,2.3,5.752,6.58,4.213,9.113,1.537A15.86,15.86,0,0,0,29.512,12.06C25.472,15.113,21.866,14.362,18.417,16.662Z" transform="translate(19.873 17.089)" fill="#f7858a" stroke="#00303e" stroke-linecap="round" stroke-linejoin="round" stroke-width="2"/>
      <path id="Path_50726" data-name="Path 50726" d="M8.057,24.553c2.059,2.245,5.308,3.061,7.279-1.133,4.877-2.887,2.877-6.54.109-8.453a14.506,14.506,0,0,0-13.11.2C5.663,18.395,5.492,21.758,8.057,24.553Z" transform="translate(0 19.217)" fill="#f7858a" stroke="#00303e" stroke-linecap="round" stroke-linejoin="round" stroke-width="2"/>
      <path id="Path_50727" data-name="Path 50727" d="M21.155,30.239A14.87,14.87,0,1,0,10.64,25.884,14.87,14.87,0,0,0,21.155,30.239Z" transform="translate(5.839 0)" fill="none" stroke="#00303e" stroke-linecap="round" stroke-linejoin="round" stroke-width="2"/>
      <path id="Path_50728" data-name="Path 50728" d="M12.285,12.5V39.761" transform="translate(14.709 17.739)" fill="none" stroke="#00303e" stroke-linecap="round" stroke-linejoin="round" stroke-width="2"/>
      <path id="Path_50729" data-name="Path 50729" d="M12.285,35.326S18.481,21.7,28.394,15.5" transform="translate(14.709 22.174)" fill="none" stroke="#00303e" stroke-linecap="round" stroke-linejoin="round" stroke-width="2"/>
      <path id="Path_50730" data-name="Path 50730" d="M21.155,32.109S18.676,23.435,6.285,16" transform="translate(5.839 22.913)" fill="none" stroke="#00303e" stroke-linecap="round" stroke-linejoin="round" stroke-width="2"/>
      <path id="Path_50731" data-name="Path 50731" d="M18.773,3.5H13.734A3.326,3.326,0,0,0,12.5,9.911l5.115,2.047a3.326,3.326,0,0,1-1.239,6.411H11.338" transform="translate(11.938 4.435)" fill="none" stroke="#00303e" stroke-linecap="round" stroke-linejoin="round" stroke-width="2"/>
      <path id="Path_50732" data-name="Path 50732" d="M12.285,11.978V9.5" transform="translate(14.709 13.304)" fill="none" stroke="#00303e" stroke-linecap="round" stroke-linejoin="round" stroke-width="2"/>
      <path id="Path_50733" data-name="Path 50733" d="M12.285,4.978V2.5" transform="translate(14.709 2.957)" fill="none" stroke="#00303e" stroke-linecap="round" stroke-linejoin="round" stroke-width="2"/>
    </g>
  </g>
</svg>
