<svg xmlns="http://www.w3.org/2000/svg" width="68" height="68" viewBox="0 0 68 68">
  <g id="icons" transform="translate(-16 -24)">
    <path id="Path_50690" data-name="Path 50690" d="M0,0H68V68H0Z" transform="translate(16 24)" fill="#fff"/>
    <g id="module-puzzle" transform="translate(17.799 31.519)">
      <path id="Path_50715" data-name="Path 50715" d="M31.9,15.445A1.333,1.333,0,0,1,30.58,14.4a5.44,5.44,0,0,0-10.679,0,1.333,1.333,0,0,1-1.322,1.05H13v5.579a1.333,1.333,0,0,0,1.05,1.322,5.44,5.44,0,0,1,0,10.679A1.333,1.333,0,0,0,13,34.347v5.579H34.761a2.72,2.72,0,0,0,2.72-2.72V15.445Z" transform="translate(18.926 12.036)" fill="#e8696f" stroke="#363e4a" stroke-linecap="round" stroke-linejoin="round" stroke-width="2"/>
      <path id="Path_50716" data-name="Path 50716" d="M35.347,3a1.333,1.333,0,0,0-1.322,1.05,5.44,5.44,0,0,1-10.679,0A1.333,1.333,0,0,0,22.024,3H16.446V8.579A1.333,1.333,0,0,1,15.4,9.9a5.44,5.44,0,0,0,0,10.679,1.333,1.333,0,0,1,1.05,1.322v5.579h5.579a1.333,1.333,0,0,0,1.322-1.05,5.44,5.44,0,0,1,10.679,0,1.333,1.333,0,0,0,1.322,1.05h5.579V5.72A2.72,2.72,0,0,0,38.206,3Z" transform="translate(15.481)" fill="#e8696f"/>
      <path id="Path_50717" data-name="Path 50717" d="M15.4,20.58a1.333,1.333,0,0,1,1.05,1.322v5.579h.405L40.323,4.009A2.72,2.72,0,0,0,38.206,3H35.347a1.333,1.333,0,0,0-1.322,1.05,5.44,5.44,0,0,1-10.679,0A1.333,1.333,0,0,0,22.024,3H16.446V8.579A1.333,1.333,0,0,1,15.4,9.9a5.44,5.44,0,0,0,0,10.679Z" transform="translate(15.481)" fill="#fff"/>
      <path id="Path_50718" data-name="Path 50718" d="M4,8.579A1.333,1.333,0,0,0,5.05,9.9a5.44,5.44,0,0,1,0,10.679A1.333,1.333,0,0,0,4,21.9v5.579H9.579a1.333,1.333,0,0,1,1.322,1.05,5.44,5.44,0,0,0,10.679,0,1.333,1.333,0,0,1,1.322-1.05h5.579V21.9a1.333,1.333,0,0,0-1.05-1.322,5.44,5.44,0,0,1,0-10.679,1.333,1.333,0,0,0,1.05-1.322V3H6.72A2.72,2.72,0,0,0,4,5.72Z" transform="translate(3.445 0)" fill="#fff" stroke="#363e4a" stroke-linecap="round" stroke-linejoin="round" stroke-width="2"/>
      <path id="Path_50719" data-name="Path 50719" d="M32.976,18.9a1.333,1.333,0,0,1-1.05-1.322V12H26.347a1.333,1.333,0,0,0-1.322,1.05,5.44,5.44,0,0,1-10.679,0A1.332,1.332,0,0,0,13.024,12H7.445v5.579A1.333,1.333,0,0,1,6.4,18.9a5.44,5.44,0,0,0,0,10.679A1.333,1.333,0,0,1,7.445,30.9v2.859a2.72,2.72,0,0,0,2.72,2.72H31.926V30.9a1.333,1.333,0,0,1,1.05-1.322,5.44,5.44,0,0,0,0-10.679Z" transform="translate(0 15.481)" fill="#e8696f"/>
      <path id="Path_50720" data-name="Path 50720" d="M7.445,30.9v2.859a2.72,2.72,0,0,0,1.009,2.116L31.926,12.405V12H26.347a1.333,1.333,0,0,0-1.322,1.05,5.44,5.44,0,0,1-10.679,0A1.332,1.332,0,0,0,13.024,12H7.445v5.579A1.333,1.333,0,0,1,6.4,18.9a5.44,5.44,0,0,0,0,10.679A1.333,1.333,0,0,1,7.445,30.9Z" transform="translate(0 15.481)" fill="#fff"/>
      <path id="Path_50721" data-name="Path 50721" d="M35.347,3a1.333,1.333,0,0,0-1.322,1.05,5.44,5.44,0,0,1-10.679,0A1.333,1.333,0,0,0,22.024,3H16.446V8.579A1.333,1.333,0,0,1,15.4,9.9a5.44,5.44,0,0,0,0,10.679,1.333,1.333,0,0,1,1.05,1.322v5.579h5.579a1.333,1.333,0,0,0,1.322-1.05,5.44,5.44,0,0,1,10.679,0,1.333,1.333,0,0,0,1.322,1.05h5.579V5.72A2.72,2.72,0,0,0,38.206,3Z" transform="translate(15.481)" fill="none" stroke="#363e4a" stroke-linecap="round" stroke-linejoin="round" stroke-width="2"/>
      <path id="Path_50722" data-name="Path 50722" d="M32.976,18.9a1.333,1.333,0,0,1-1.05-1.322V12H26.347a1.333,1.333,0,0,0-1.322,1.05,5.44,5.44,0,0,1-10.679,0A1.332,1.332,0,0,0,13.024,12H7.445v5.579A1.333,1.333,0,0,1,6.4,18.9a5.44,5.44,0,0,0,0,10.679A1.333,1.333,0,0,1,7.445,30.9v2.859a2.72,2.72,0,0,0,2.72,2.72H31.926V30.9a1.333,1.333,0,0,1,1.05-1.322,5.44,5.44,0,0,0,0-10.679Z" transform="translate(0 15.481)" fill="none" stroke="#363e4a" stroke-linecap="round" stroke-linejoin="round" stroke-width="2"/>
    </g>
  </g>
</svg>
