<svg xmlns="http://www.w3.org/2000/svg" xmlns:xlink="http://www.w3.org/1999/xlink" width="68" height="68" viewBox="0 0 68 68">
  <defs>
    <clipPath id="clip-path">
      <rect id="Rectangle_5133" data-name="Rectangle 5133" width="52" height="52" transform="translate(0.48 0.48)" fill="#fff"/>
    </clipPath>
  </defs>
  <g id="icons" transform="translate(-16 -24)">
    <path id="Path_50690" data-name="Path 50690" d="M0,0H68V68H0Z" transform="translate(16 24)" fill="#fff"/>
    <g id="shield-bug" transform="translate(23.52 32.52)" clip-path="url(#clip-path)">
      <path id="Path_50745" data-name="Path 50745" d="M1.5,7.738V24.612A27.2,27.2,0,0,0,19.66,49.951l2.477.915a7.435,7.435,0,0,0,5.126,0l2.477-.915A27.2,27.2,0,0,0,47.9,24.612V7.738a3.388,3.388,0,0,0-2.064-3.107A53.552,53.552,0,0,0,24.7.5,53.552,53.552,0,0,0,3.564,4.631,3.387,3.387,0,0,0,1.5,7.738Z" transform="translate(1.78 0.57)" fill="#f7858a"/>
      <path id="Path_50746" data-name="Path 50746" d="M24.7.5A53.552,53.552,0,0,0,3.564,4.631,3.387,3.387,0,0,0,1.5,7.738V24.612A27.2,27.2,0,0,0,19.66,49.951l2.477.915a7.452,7.452,0,0,0,2.563.455Z" transform="translate(1.78 0.57)" fill="#fff"/>
      <path id="Path_50747" data-name="Path 50747" d="M1.5,7.738V24.612A27.2,27.2,0,0,0,19.66,49.951l2.477.915a7.435,7.435,0,0,0,5.126,0l2.477-.915A27.2,27.2,0,0,0,47.9,24.612V7.738a3.388,3.388,0,0,0-2.064-3.107A53.552,53.552,0,0,0,24.7.5,53.552,53.552,0,0,0,3.564,4.631,3.387,3.387,0,0,0,1.5,7.738Z" transform="translate(1.78 0.57)" fill="none" stroke="#363e4a" stroke-linecap="round" stroke-linejoin="round" stroke-width="2"/>
      <path id="Path_50748" data-name="Path 50748" d="M21.1,10.2a1.1,1.1,0,0,0-.139-1.39L18.93,6.778a1.1,1.1,0,0,0-1.564,0L15.2,8.947l-.74-.738a4.419,4.419,0,0,0-6.242,6.257l.74.74L6.778,17.383a1.1,1.1,0,0,0,0,1.564l2.02,2.02a1.1,1.1,0,0,0,1.39.139,4.419,4.419,0,0,1,6.125,6.125,1.1,1.1,0,0,0,.139,1.39l2.02,2.02a1.1,1.1,0,0,0,1.562,0l2.17-2.168.74.74a4.419,4.419,0,1,0,6.249-6.251,1.048,1.048,0,0,1,0-1.478l1.449-1.449a1.1,1.1,0,0,0,0-1.564l-2.02-2.02a1.1,1.1,0,0,0-1.39-.139,4.419,4.419,0,0,1-6.125-6.125Z" transform="translate(7.771 7.771)" fill="#fff"/>
      <path id="Path_50749" data-name="Path 50749" d="M28.241,29.2a4.419,4.419,0,0,0,0-6.251,1.047,1.047,0,0,1,0-1.478l1.441-1.441a1.1,1.1,0,0,0,0-1.564l-2.02-2.02a1.1,1.1,0,0,0-1.39-.139,4.419,4.419,0,0,1-6.125-6.125,1.1,1.1,0,0,0-.139-1.39l-2.037-2.02a1.1,1.1,0,0,0-1.564,0l-2.17,2.17-.74-.738a4.419,4.419,0,0,0-6.251,0Z" transform="translate(8.73 7.771)" fill="#fff"/>
      <path id="Path_50750" data-name="Path 50750" d="M21.1,10.2a1.1,1.1,0,0,0-.139-1.39L18.93,6.778a1.1,1.1,0,0,0-1.564,0L15.2,8.947l-.74-.738a4.419,4.419,0,0,0-6.242,6.257l.74.74L6.778,17.383a1.1,1.1,0,0,0,0,1.564l2.02,2.02a1.1,1.1,0,0,0,1.39.139,4.419,4.419,0,0,1,2.883-.713,8.146,8.146,0,0,1,2.683,1.272,8.145,8.145,0,0,1,1.272,2.683,4.419,4.419,0,0,1-.713,2.883,1.1,1.1,0,0,0,.139,1.39l2.02,2.02a1.1,1.1,0,0,0,1.562,0l2.17-2.168.74.74a4.419,4.419,0,1,0,6.249-6.251,1.048,1.048,0,0,1,0-1.478l1.449-1.449a1.1,1.1,0,0,0,0-1.564l-2.02-2.02a1.1,1.1,0,0,0-1.39-.139,4.419,4.419,0,0,1-6.125-6.125Z" transform="translate(7.771 7.771)" fill="none" stroke="#363e4a" stroke-linecap="round" stroke-linejoin="round" stroke-width="2"/>
    </g>
  </g>
</svg>
